<svg width="15" height="15" viewBox="0 0 15 15" fill="none" xmlns="http://www.w3.org/2000/svg">
<path d="M9.79163 8.42138C8.25905 10.1002 6.35417 13 6.35417 13C6.35417 13 5.00343 10.7767 4.17177 9.59697C3.34012 8.41726 2.41857 7.56891 2 7.24579C2 7.24579 2.31616 6.69225 2.37054 6.31769C2.45288 5.75052 2.37054 5.19366 2.37054 5.19366C2.37054 5.19366 3.64684 6.24757 4.38792 6.9983C5.129 7.74903 6.19945 9.16386 6.19945 9.16386C6.19945 9.16386 8.16702 7.05337 9.27699 6.09082C11.7267 3.96651 13 3 13 3C13 3 12.8971 3.25497 12.6324 4.2965C12.4019 5.20398 12.3648 5.82271 12.3648 5.82271C12.3648 5.82271 11.4485 6.60643 9.79163 8.42138Z" fill="#DFE4EC"/>
<rect x="0.5" y="0.5" width="14" height="14" stroke="#DFE4EC"/>
</svg>
