<svg width="53" height="43" viewBox="0 0 53 43" fill="none" xmlns="http://www.w3.org/2000/svg">
<path fill-rule="evenodd" clip-rule="evenodd" d="M11.6367 0H41.8922V7.0597H38.9301V21.1791H53V26.6343H51.6248V43H2.7505V26.6343H0V21.1791H14.1756V7.0597H11.6367V0ZM12.2715 6.41791H41.2575V0.641791H12.2715V6.41791ZM14.8104 7.0597H21.8982V10.6965H32.0539V7.0597H38.2954V21.1791H14.8104V7.0597ZM31.4192 7.0597H22.5329V10.0547H31.4192V7.0597ZM3.38523 26.6343V42.3582H26.8703V26.6343H19.2535V30.806H11.6367V26.6343H3.38523ZM12.2715 26.6343V30.1642H18.6188V26.6343H12.2715ZM27.505 26.6343V42.3582H50.99V26.6343H43.1617V31.8756H34.1697V26.6343H27.505ZM34.8044 26.6343V31.2338H42.5269V26.6343H34.8044ZM27.505 25.9925V21.8209H52.3653V25.9925H27.505ZM26.8703 21.8209V25.9925H0.634731V21.8209H26.8703Z" fill="#274D82"/>
</svg>
