<svg width="41" height="33" viewBox="0 0 41 33" fill="none" xmlns="http://www.w3.org/2000/svg">
<path fill-rule="evenodd" clip-rule="evenodd" d="M9.002 0H32.4072V5.41791H30.1158V16.2537H41V20.4403H39.9361V33H2.12774V20.4403H0V16.2537H10.9661V5.41791H9.002V0ZM9.49301 4.92537H31.9162V0.492537H9.49301V4.92537ZM11.4571 5.41791H16.9401V8.20896H24.7964V5.41791H29.6248V16.2537H11.4571V5.41791ZM24.3054 5.41791H17.4311V7.71642H24.3054V5.41791ZM2.61876 20.4403V32.5075H20.7864V20.4403H14.8942V23.6418H9.002V20.4403H2.61876ZM9.49301 20.4403V23.1493H14.4032V20.4403H9.49301ZM21.2774 20.4403V32.5075H39.4451V20.4403H33.3892V24.4627H26.4331V20.4403H21.2774ZM26.9242 20.4403V23.9701H32.8982V20.4403H26.9242ZM21.2774 19.9478V16.7463H40.509V19.9478H21.2774ZM20.7864 16.7463V19.9478H0.491018V16.7463H20.7864Z" fill="#274D82"/>
</svg>
