<svg width="95" height="72" viewBox="0 0 95 72" fill="none" xmlns="http://www.w3.org/2000/svg">
<path d="M53.6665 26C51.2366 26 48.9612 26.6606 46.9987 27.8114C45.0383 26.6601 42.7629 26 40.333 26C32.9684 26 27 32.0429 27 39.5013C27 46.9548 32.9684 53 40.333 53C42.7629 53 45.0383 52.3385 46.9987 51.1886C48.9612 52.339 51.2366 53 53.6665 53C61.0294 53 67 46.9548 67 39.5013C67 32.0429 61.0294 26 53.6665 26ZM46.2153 28.3083C46.2047 28.316 46.1949 28.3236 46.1847 28.3313C46.1949 28.3236 46.2047 28.3155 46.2153 28.3083ZM47.7793 50.6939C47.8153 50.6692 47.849 50.6422 47.8845 50.6171C47.849 50.6422 47.8153 50.6692 47.7793 50.6939ZM48.532 50.1403C48.5365 50.1363 48.5409 50.1322 48.5454 50.1291C48.5409 50.1322 48.5365 50.1363 48.532 50.1403ZM53.6665 49.6325C52.3355 49.6325 51.0667 49.3683 49.9048 48.8902C50.72 48.0391 51.4275 47.0824 52 46.0386C53.0607 44.1005 53.6665 41.8726 53.6665 39.5013C53.6665 37.1283 53.0607 34.9004 52 32.9628C50.8905 33.2513 49.8963 33.8246 49.0904 34.5957C49.8857 36.0489 50.3406 37.7197 50.3406 39.5013C50.3406 45.0954 45.8603 49.6325 40.3326 49.6325C34.8053 49.6325 30.325 45.0954 30.325 39.5013C30.325 33.9033 34.8053 29.3675 40.3326 29.3675C41.6631 29.3675 42.9329 29.633 44.0939 30.1098C43.2791 30.9609 42.5721 31.9176 41.9996 32.9628C40.9388 34.9004 40.333 37.1283 40.333 39.5013C40.333 41.8721 40.9388 44.1001 41.9996 46.0372C43.1078 45.7474 44.1023 45.1758 44.9079 44.4043C44.1125 42.9515 43.6585 41.2803 43.6585 39.5013C43.6585 33.9033 48.1388 29.3675 53.6661 29.3675C59.1938 29.3675 63.6741 33.9033 63.6741 39.5013C63.6745 45.0954 59.1942 49.6325 53.6665 49.6325Z" fill="#274D82"/>
<path fill-rule="evenodd" clip-rule="evenodd" d="M0 2.69159C0 1.20507 1.21004 0 2.7027 0H92.2973C93.79 0 95 1.20507 95 2.69159V13.9963C95 15.4828 93.79 16.6879 92.2973 16.6879H91.7568V69.3084C91.7568 70.7949 90.5467 72 89.054 72H6.48649C4.99382 72 3.78378 70.7949 3.78378 69.3084V16.6879H2.7027C1.21004 16.6879 0 15.4828 0 13.9963V2.69159ZM6.48649 16.6879V69.3084H89.054V16.6879H6.48649ZM2.7027 2.69159V13.9963H92.2973V2.69159H2.7027Z" fill="#274D82"/>
</svg>
