<svg width="409" height="338" viewBox="0 0 409 338" fill="none" xmlns="http://www.w3.org/2000/svg">
<path d="M277.741 186.835C226.784 241.136 177.768 310.687 164.744 337.78C149.607 309.515 127.43 269.521 99.2686 226.594C71.1072 183.668 45.762 159.038 21.4729 137.575C21.4729 137.575 24.0075 128.99 20.0649 117.168C16.1223 105.345 4.81089 89.1365 0 84.0933C1.05605 84.6797 6.63514 88.5617 13.7286 93.5934C24.6411 101.334 33.6761 110.248 42.2419 118.927C42.4765 117.871 44.8468 114.986 46.8181 106.26C48.7894 97.5341 46.2314 91.1301 45.41 89.7227C45.41 89.7227 70.0551 106.436 105.957 141.446C148.199 182.638 167.208 210.761 167.208 210.761C167.208 210.761 183.795 176.708 235.851 122.445C309.774 45.3887 371.025 10.9072 371.025 10.9072C371.025 10.9072 303.438 64.3894 260.492 106.964C229.077 138.107 202.409 175.575 202.409 175.575C202.409 175.575 250.557 117.168 312.59 65.4451C368.767 18.6055 402.354 0 402.354 0C402.354 0 398.6 5.98153 397.074 15.1298C396.38 19.2946 399.186 25.3335 399.186 25.3335C399.186 25.3335 380.882 40.3638 341.808 74.9448C313.294 100.18 293.933 122.445 293.933 122.445C323.151 96.4082 371.025 60.8709 408.339 38.7038C408.339 38.7038 388.039 56.2965 375.601 74.9448C363.825 92.6017 364.216 106.259 364.335 110.428L364.337 110.482C364.337 110.482 320.335 141.446 277.741 186.835Z" fill="url(#paint0_linear_6146_54116)"/>
<defs>
<linearGradient id="paint0_linear_6146_54116" x1="204.169" y1="0" x2="204.169" y2="337.78" gradientUnits="userSpaceOnUse">
<stop stop-color="#52B9C5"/>
<stop offset="1" stop-color="#00A0AB"/>
</linearGradient>
</defs>
</svg>
