<svg width="15" height="15" viewBox="0 0 15 15" fill="none" xmlns="http://www.w3.org/2000/svg">
<rect x="0.5" y="0.5" width="14" height="14" stroke="#274D82"/>
<path d="M9.79163 7.42138C8.25905 9.10017 6.35417 12 6.35417 12C6.35417 12 5.00343 9.77669 4.17177 8.59697C3.34012 7.41726 2.41857 6.56891 2 6.24579C2 6.24579 2.31616 5.69225 2.37054 5.31769C2.45288 4.75052 2.37054 4.19366 2.37054 4.19366C2.37054 4.19366 3.64684 5.24757 4.38792 5.9983C5.129 6.74903 6.19945 8.16386 6.19945 8.16386C6.19945 8.16386 8.16702 6.05337 9.27699 5.09082C11.7267 2.96651 13 2 13 2C13 2 12.8971 2.25497 12.6324 3.2965C12.4019 4.20398 12.3648 4.82271 12.3648 4.82271C12.3648 4.82271 11.4485 5.60643 9.79163 7.42138Z" fill="#274D82"/>
</svg>
