<svg width="21" height="21" viewBox="0 0 21 21" fill="none" xmlns="http://www.w3.org/2000/svg">
<rect x="0.5" y="0.5" width="20" height="20" stroke="#274D82"/>
<path d="M13.7091 10.3897C11.5634 12.74 8.89661 16.7998 8.89661 16.7998C8.89661 16.7998 7.00558 13.6872 5.84127 12.0356C4.67695 10.384 3.38678 9.19628 2.80078 8.74391C2.80078 8.74391 3.24341 7.96896 3.31954 7.44457C3.43482 6.65054 3.31954 5.87093 3.31954 5.87093C3.31954 5.87093 5.10636 7.3464 6.14387 8.39742C7.18138 9.44844 8.68001 11.4292 8.68001 11.4292C8.68001 11.4292 11.4346 8.47452 12.9886 7.12696C16.4181 4.15292 18.2008 2.7998 18.2008 2.7998C18.2008 2.7998 18.0567 3.15676 17.6862 4.61491C17.3634 5.88537 17.3115 6.7516 17.3115 6.7516C17.3115 6.7516 16.0287 7.84881 13.7091 10.3897Z" fill="#274D82"/>
</svg>
