<svg width="20" height="20" viewBox="0 0 20 20" fill="none" xmlns="http://www.w3.org/2000/svg">
<rect x="0.5" y="0.5" width="19" height="19" fill="white" stroke="#DFE4EC"/>
<path d="M12.9166 10.5478C10.9661 12.7302 8.54167 16.5 8.54167 16.5C8.54167 16.5 6.82255 13.6097 5.76408 12.0761C4.70561 10.5424 3.53273 9.43958 3 9.01953C3 9.01953 3.40239 8.29993 3.4716 7.813C3.5764 7.07568 3.4716 6.35176 3.4716 6.35176C3.4716 6.35176 5.09598 7.72184 6.03917 8.69779C6.98237 9.67373 8.34476 11.513 8.34476 11.513C8.34476 11.513 10.8489 8.76938 12.2616 7.51807C15.3794 4.75646 17 3.5 17 3.5C17 3.5 16.869 3.83146 16.5322 5.18545C16.2388 6.36517 16.1916 7.16952 16.1916 7.16952C16.1916 7.16952 15.0254 8.18836 12.9166 10.5478Z" fill="#274D82"/>
</svg>
