<svg width="40" height="43" viewBox="0 0 40 43" fill="none" xmlns="http://www.w3.org/2000/svg">
<path fill-rule="evenodd" clip-rule="evenodd" d="M34.1749 10.9042H16.9727V10.3115H34.1749V10.9042Z" fill="#274D82"/>
<path fill-rule="evenodd" clip-rule="evenodd" d="M34.1749 21.5722H16.9727V20.9795H34.1749V21.5722Z" fill="#274D82"/>
<path fill-rule="evenodd" clip-rule="evenodd" d="M34.1749 31.9443H16.9727V31.3516H34.1749V31.9443Z" fill="#274D82"/>
<path d="M5.05164 9.28212L6.73995 12.4108L9.40118 7.50431" stroke="#274D82" stroke-linecap="round" stroke-linejoin="round"/>
<path d="M5.15027 20.2821L6.83858 23.4108L9.49981 18.5043" stroke="#274D82" stroke-linecap="round" stroke-linejoin="round"/>
<path d="M5.15027 31.2821L6.83858 34.4108L9.49981 29.5043" stroke="#274D82" stroke-linecap="round" stroke-linejoin="round"/>
<path fill-rule="evenodd" clip-rule="evenodd" d="M0 1.46117C0 0.654187 0.681306 0 1.52174 0H38.4783C39.3187 0 40 0.654186 40 1.46117V41.5388C40 42.3458 39.3187 43 38.4783 43H1.52174C0.681306 43 0 42.3458 0 41.5388V1.46117ZM1.52174 0.417476C0.92143 0.417476 0.434783 0.884752 0.434783 1.46117V41.5388C0.434783 42.1152 0.92143 42.5825 1.52174 42.5825H38.4783C39.0786 42.5825 39.5652 42.1152 39.5652 41.5388V1.46117C39.5652 0.884751 39.0786 0.417476 38.4783 0.417476H1.52174Z" fill="#274D82"/>
</svg>
