<svg width="45" height="45" viewBox="0 0 45 45" fill="none" xmlns="http://www.w3.org/2000/svg">
<path fill-rule="evenodd" clip-rule="evenodd" d="M18.7524 6.15707C18.4839 4.14851 17.298 2.35985 16.3573 1.40098L16.763 1C17.7622 2.01849 19.0272 3.91521 19.3168 6.08107C19.4622 7.16943 19.3615 8.32867 18.853 9.47342C18.3446 10.6181 17.4362 11.7312 15.9928 12.7393C15.5989 13.0144 15.3573 13.4696 15.3466 13.9531C15.3336 14.5418 15.2697 15.1448 15.1233 15.6473C14.9811 16.1357 14.7399 16.6011 14.3176 16.8067C13.8703 17.0244 13.3462 16.8964 12.7804 16.4915C12.2118 16.0846 11.5366 15.3568 10.7294 14.2259C10.2192 13.5112 9.1321 12.7999 8.05969 12.8242C7.53564 12.836 7.00781 13.0227 6.53478 13.4842C6.05704 13.9504 5.62111 14.7113 5.31921 15.8929C5.23079 16.239 5.32975 16.6171 5.57332 16.9041L9.01455 20.9586C9.24896 21.2348 9.59225 21.3939 9.95374 21.3939H14.0038C14.5673 21.3939 15.0984 21.6583 15.4394 22.1086L16.3311 23.2862C16.5644 23.5943 16.9278 23.7752 17.3134 23.7752H18.2644C18.9564 23.7752 19.5874 24.1727 19.8882 24.7982L20.6187 26.3169C20.7164 26.52 20.8676 26.6925 21.0558 26.8157L23.6022 28.4825C24.5207 29.0837 24.6963 30.3618 23.9742 31.1901L23.4724 31.7658C23.2959 31.9683 23.1893 32.2381 23.1095 32.5475C22.8488 33.5583 22.0149 34.9557 20.0862 35.507C19.655 35.6302 19.2936 35.8861 19.1149 36.2489L15.2969 44L14.7865 43.7467L18.6045 35.9957C18.8731 35.4502 19.3905 35.1116 19.9302 34.9573C21.6272 34.4723 22.3375 33.26 22.5582 32.4043C22.6459 32.0643 22.7802 31.6918 23.0438 31.3894L23.5457 30.8138C24.0398 30.2471 23.9196 29.3726 23.2911 28.9612L20.7448 27.2944C20.4696 27.1143 20.2487 26.8622 20.1059 26.5653L19.3754 25.0466C19.1696 24.6187 18.7379 24.3467 18.2644 24.3467H17.3134C16.7498 24.3467 16.2187 24.0823 15.8777 23.632L14.986 22.4544C14.7527 22.1463 14.3893 21.9654 14.0038 21.9654H9.95374C9.42542 21.9654 8.92367 21.7329 8.58108 21.3292L5.13985 17.2747C4.78927 16.8617 4.62845 16.2957 4.76763 15.7509C5.08638 14.5034 5.56233 13.636 6.13784 13.0745C6.71806 12.5083 7.38483 12.2678 8.04686 12.2528C9.34659 12.2234 10.5975 13.0599 11.1922 13.8931C11.9864 15.0057 12.6183 15.6736 13.1109 16.0261C13.6064 16.3806 13.8979 16.3758 14.0691 16.2924C14.2654 16.1969 14.4458 15.9367 14.5768 15.4869C14.7037 15.0512 14.7649 14.5034 14.7773 13.9404C14.792 13.2763 15.1228 12.6507 15.6676 12.2702C17.0401 11.3116 17.8734 10.2754 18.3329 9.24073C18.7925 8.20613 18.8859 7.15591 18.7524 6.15707ZM35.1609 5.21269C35.1857 4.91035 35.1829 4.68742 35.1653 4.58128L35.7269 4.48733C35.7568 4.66694 35.7539 4.94885 35.7284 5.2597C35.7022 5.57811 35.65 5.95113 35.5702 6.32325C35.4907 6.69421 35.3819 7.07254 35.2397 7.39775C35.101 7.71507 34.9147 8.01875 34.6603 8.19748C34.3175 8.43838 33.8429 8.52356 33.3818 8.5404C32.9112 8.55757 32.4078 8.50473 31.9697 8.43064C31.502 8.35155 31.0756 8.47333 30.8621 8.78889C30.3229 9.58556 29.8078 10.8519 30.1247 12.283C30.217 12.7 30.4173 12.9854 30.6801 13.1832C30.9483 13.3851 31.2973 13.507 31.6974 13.5632C32.5023 13.6762 33.4454 13.5133 34.1425 13.3029C34.2802 13.2614 34.4109 13.1858 34.5293 13.0839L35.4582 12.2848C35.5 12.2488 35.5386 12.2097 35.5867 12.1611C35.5955 12.1522 35.6045 12.143 35.614 12.1335C35.6711 12.0759 35.741 12.0069 35.8229 11.9456C36.0383 11.7844 36.3628 11.6352 36.747 11.5061C37.1364 11.3752 37.6064 11.2586 38.1265 11.1709C39.1656 10.9956 40.4213 10.9326 41.6552 11.1096L41.5746 11.6753C40.4087 11.5082 39.2129 11.5672 38.2209 11.7345C37.7253 11.8181 37.2848 11.928 36.9278 12.048C36.5655 12.1698 36.3075 12.2959 36.1634 12.4037C36.1178 12.4379 36.0732 12.4805 36.0176 12.5367C36.0101 12.5442 36.0024 12.552 35.9944 12.5601C35.9469 12.6083 35.8897 12.6663 35.8287 12.7187L34.8999 13.5178C34.7308 13.6632 34.5315 13.7823 34.3065 13.8502C33.5696 14.0726 32.5372 14.2582 31.6185 14.1292C31.1568 14.0644 30.707 13.9178 30.3384 13.6404C29.9644 13.3588 29.69 12.9541 29.5688 12.407C29.2065 10.7705 29.7985 9.34331 30.391 8.46776C30.7783 7.8955 31.4775 7.76785 32.0643 7.86708C32.4801 7.93738 32.9423 7.98455 33.3611 7.96926C33.7894 7.95363 34.128 7.87388 34.3338 7.72928C34.459 7.64129 34.5931 7.45442 34.7183 7.16809C34.84 6.88964 34.9389 6.5512 35.0136 6.203C35.088 5.85598 35.1366 5.50746 35.1609 5.21269ZM44 17.0126C44 17.0126 43.9953 17.0123 43.9875 17.0123V17.5838C43.9314 17.5838 43.8661 17.569 43.8252 17.5594C43.7729 17.5472 43.7078 17.5301 43.6336 17.5098C43.5689 17.4921 43.487 17.4692 43.3951 17.4435C43.2894 17.414 43.1706 17.3807 43.0494 17.3475C42.5751 17.2174 41.9418 17.0527 41.2278 16.9117C39.7899 16.6278 38.0628 16.4484 36.6561 16.8127C36.0337 16.9739 35.377 17.5521 34.7892 18.4501C34.2078 19.3382 33.7225 20.4965 33.425 21.7375C32.8244 24.2428 33.0133 26.959 34.5431 28.4752C34.617 28.5484 34.7038 28.6068 34.7997 28.648C35.7099 29.0391 37.4364 29.4331 39.1948 28.9497C39.749 28.7973 40.3587 28.8316 40.8781 29.0446C41.4 29.2586 41.8458 29.6612 42.0285 30.2505L42.7409 32.5487L42.1972 32.7185L41.4848 30.4203C41.3623 30.0253 41.0602 29.7366 40.6627 29.5736C40.2626 29.4095 39.7816 29.3809 39.3452 29.5009C37.4305 30.0273 35.5694 29.6005 34.5756 29.1734C34.4146 29.1043 34.268 29.0056 34.143 28.8818C32.3953 27.1498 32.2562 24.17 32.8714 21.6038C33.1818 20.309 33.6905 19.0877 34.3133 18.1363C34.9296 17.1947 35.6873 16.4734 36.5138 16.2594C38.0492 15.8617 39.881 16.0633 41.3377 16.3509C42.0709 16.4957 42.7189 16.6644 43.1995 16.7962C43.3338 16.833 43.4471 16.8647 43.5471 16.8928C43.634 16.9171 43.7109 16.9386 43.7831 16.9583C43.8561 16.9783 43.9128 16.9931 43.9544 17.0028C43.9873 17.0105 44 17.0126 44 17.0126ZM6.81656 22.386C7.1606 22.9568 7.34158 23.5618 7.25605 24.1055C7.0895 25.1642 6.24353 25.8605 5.48124 26.2645C4.91316 26.5656 4.50731 27.0865 4.50731 27.6546V30.605C4.50731 30.8229 4.56458 31.0369 4.67334 31.2254L6.42821 34.2677C6.49742 34.3876 6.58621 34.4951 6.69088 34.5856L9.20916 36.762C9.72208 37.2053 9.94444 37.8996 9.78496 38.5598L9.24451 40.7974L8.69111 40.6627L9.23157 38.4252C9.34068 37.9734 9.18854 37.4984 8.8376 37.1951L6.31932 35.0187C6.16634 34.8864 6.03657 34.7294 5.93542 34.554L4.18054 31.5118C4.02159 31.2362 3.93788 30.9234 3.93788 30.605V27.6546C3.93788 26.8034 4.53289 26.1208 5.21535 25.7591C5.92252 25.3843 6.56929 24.8065 6.69359 24.0164C6.75042 23.6552 6.63482 23.1886 6.32936 22.6819C6.02686 22.18 5.55326 21.6653 4.94461 21.22C3.72758 20.3296 2.00035 19.7375 0.093613 20.0565L0 19.4927C2.07924 19.1449 3.95838 19.7912 5.28004 20.7582C5.94073 21.2416 6.46956 21.8103 6.81656 22.386Z" fill="#274D82"/>
<path fill-rule="evenodd" clip-rule="evenodd" d="M22.5 44.4304C34.6118 44.4304 44.4304 34.6118 44.4304 22.5C44.4304 10.3882 34.6118 0.56962 22.5 0.56962C10.3882 0.56962 0.56962 10.3882 0.56962 22.5C0.56962 34.6118 10.3882 44.4304 22.5 44.4304ZM22.5 45C34.9264 45 45 34.9264 45 22.5C45 10.0736 34.9264 0 22.5 0C10.0736 0 0 10.0736 0 22.5C0 34.9264 10.0736 45 22.5 45Z" fill="#274D82"/>
</svg>
