<svg width="15" height="11" viewBox="0 0 15 11" fill="none" xmlns="http://www.w3.org/2000/svg">
<path d="M9.99989 0C9.08869 0 8.23541 0.259938 7.49946 0.712797C6.76434 0.259762 5.91106 0 4.99986 0C2.23814 0 0 2.37799 0 5.313C0 8.24606 2.23814 10.6249 4.99986 10.6249C5.91106 10.6249 6.76434 10.3646 7.49946 9.91214C8.23541 10.3648 9.08869 10.6249 9.99989 10.6249C12.7609 10.6249 14.9999 8.24606 14.9999 5.313C14.9999 2.37799 12.7609 0 9.99989 0ZM7.20571 0.90837C7.20172 0.911376 7.19806 0.914382 7.19423 0.917388C7.19806 0.914382 7.20172 0.911199 7.20571 0.90837ZM7.79221 9.71745C7.80569 9.70773 7.81834 9.69712 7.83165 9.68722C7.81834 9.69712 7.80569 9.70773 7.79221 9.71745ZM8.07447 9.4996C8.07613 9.49801 8.0778 9.49642 8.07946 9.49518C8.0778 9.49642 8.07613 9.49801 8.07447 9.4996ZM9.99989 9.29978C9.50077 9.29978 9.02495 9.19581 8.58924 9.00766C8.89497 8.67275 9.16025 8.29628 9.37495 7.88551C9.77271 7.12284 9.99989 6.24613 9.99989 5.313C9.99989 4.37917 9.77271 3.50245 9.37495 2.73996C8.95887 2.85349 8.58607 3.07912 8.28384 3.38256C8.58208 3.95442 8.75267 4.61187 8.75267 5.313C8.75267 7.51434 7.07257 9.29978 4.99969 9.29978C2.92699 9.29978 1.24689 7.51434 1.24689 5.313C1.24689 3.11007 2.92699 1.32516 4.99969 1.32516C5.49865 1.32516 5.9748 1.42966 6.41018 1.61728C6.10462 1.95219 5.8395 2.32866 5.6248 2.73996C5.22704 3.50245 4.99986 4.37917 4.99986 5.313C4.99986 6.24595 5.22704 7.12267 5.6248 7.88498C6.04038 7.77092 6.41334 7.546 6.71541 7.24238C6.41717 6.67069 6.24691 6.01307 6.24691 5.313C6.24691 3.11007 7.92702 1.32516 9.99972 1.32516C12.0726 1.32516 13.7527 3.11007 13.7527 5.313C13.7529 7.51434 12.0728 9.29978 9.99989 9.29978Z" fill="#274D82"/>
</svg>
