<svg width="100%" height="100%" viewBox="0 0 125 102" fill="none" xmlns="http://www.w3.org/2000/svg">
<path fill-rule="evenodd" clip-rule="evenodd" d="M121.644 2.09596H3.3557C2.66071 2.09596 2.09732 2.659 2.09732 3.35353V79.6465C2.09732 80.341 2.66072 80.904 3.3557 80.904H121.644C122.339 80.904 122.903 80.341 122.903 79.6465V3.35354C122.903 2.659 122.339 2.09596 121.644 2.09596ZM3.3557 0C1.5024 0 0 1.50143 0 3.35353V79.6465C0 81.4986 1.5024 83 3.3557 83H121.644C123.498 83 125 81.4986 125 79.6465V3.35354C125 1.50143 123.498 0 121.644 0H3.3557Z" fill="#274D82"/>
<path fill-rule="evenodd" clip-rule="evenodd" d="M74.9452 83.8519H49.0548V90.1481H74.9452V83.8519ZM47 82V92H77V82H47Z" fill="#274D82"/>
<path fill-rule="evenodd" clip-rule="evenodd" d="M85.5755 92.3077H38.4245C36.5809 92.3077 35.0863 93.9608 35.0863 96V99.6923H88.9137V96C88.9137 93.9608 87.4191 92.3077 85.5755 92.3077ZM38.4245 90C35.4286 90 33 92.6863 33 96V102H91V96C91 92.6863 88.5714 90 85.5755 90H38.4245Z" fill="#274D82"/>
<path fill-rule="evenodd" clip-rule="evenodd" d="M36.0296 19.7042C33.7805 19.1986 31.3805 19.4001 29.8709 19.744C29.4886 19.8311 29.1069 19.5965 29.0184 19.22C28.93 18.8436 29.1682 18.4678 29.5506 18.3807C31.215 18.0016 33.8388 17.7764 36.346 18.34C38.8675 18.9069 41.3577 20.2987 42.523 23.2138L42.5317 23.2354L54.3255 59.6802L55.9794 63.6004L83.0661 54.7791C83.4387 54.6578 83.8406 54.8568 83.9639 55.2236C84.0871 55.5905 83.885 55.9863 83.5124 56.1076L56.4257 64.9289C55.7193 65.159 54.9523 64.8137 54.6669 64.1372L52.9898 60.1619L41.1921 23.7052C40.2506 21.373 38.2575 20.2051 36.0296 19.7042Z" fill="#274D82"/>
<path d="M57 65.5C57 67.9853 54.9853 70 52.5 70C50.0147 70 48 67.9853 48 65.5C48 63.0147 50.0147 61 52.5 61C54.9853 61 57 63.0147 57 65.5Z" fill="#274D82"/>
<path d="M43.625 25.2827L62.768 19.3407L66.1272 30.1625L46.9841 36.1045L43.625 25.2827Z" fill="#274D82"/>
<path d="M47.2065 36.9355L70.6427 29.6609L74.2768 41.3688L50.8407 48.6434L47.2065 36.9355Z" fill="#274D82"/>
<path d="M50.9116 49.478L76.5538 41.5186L80.4614 54.1075L54.8192 62.0669L50.9116 49.478Z" fill="#274D82"/>
</svg>
