<svg width="100%" height="100%" viewBox="0 0 125 100" fill="none" xmlns="http://www.w3.org/2000/svg">
<path fill-rule="evenodd" clip-rule="evenodd" d="M121.644 2.09596H3.3557C2.66071 2.09596 2.09732 2.659 2.09732 3.35353V79.6465C2.09732 80.341 2.66072 80.904 3.3557 80.904H121.644C122.339 80.904 122.903 80.341 122.903 79.6465V3.35354C122.903 2.659 122.339 2.09596 121.644 2.09596ZM3.3557 0C1.5024 0 0 1.50143 0 3.35353V79.6465C0 81.4986 1.5024 83 3.3557 83H121.644C123.498 83 125 81.4986 125 79.6465V3.35354C125 1.50143 123.498 0 121.644 0H3.3557Z" fill="#274D82"/>
<path fill-rule="evenodd" clip-rule="evenodd" d="M74.9452 83.037H49.0548V89.963H74.9452V83.037ZM47 81V92H77V81H47Z" fill="#274D82"/>
<path fill-rule="evenodd" clip-rule="evenodd" d="M85.5755 91.9231H38.4245C36.5809 91.9231 35.0863 93.3007 35.0863 95V98.0769H88.9137V95C88.9137 93.3007 87.4191 91.9231 85.5755 91.9231ZM38.4245 90C35.4286 90 33 92.2386 33 95V100H91V95C91 92.2386 88.5714 90 85.5755 90H38.4245Z" fill="#274D82"/>
<path fill-rule="evenodd" clip-rule="evenodd" d="M65.2115 9.8933C68.8765 12.3862 71.1927 16.7465 72.6209 21.3268C74.0824 26.0139 74.6788 31.1233 74.7971 35.2184C76.0032 33.8299 77.6643 32.5853 79.7903 31.9969C82.9718 31.1165 86.9638 31.7655 91.6978 35.1786C90.7686 30.3746 88.5205 24.2378 84.3863 19.2167C80.183 14.1117 74.0219 10.1416 65.2115 9.8933ZM91.4177 37.3216C86.6048 33.5713 82.9155 33.0841 80.295 33.8093C77.4488 34.597 75.5609 36.8941 74.7096 38.8073L74.6785 38.8772L66.8197 50.8399H71.3883L91.4177 37.3216ZM70.7343 52.7208H52.9995V70.1191H70.7343V52.7208ZM52.3248 50.8399H56.962L49.7703 37.9345C48.0306 35.9556 45.1583 33.7909 42.1006 33.4035C40.5835 33.2112 39.0098 33.453 37.4568 34.3884C36.0406 35.2415 34.5927 36.7016 33.2252 39.0397L52.3248 50.8399ZM33.3387 35.5656C34.077 31.4816 35.799 26.5284 39.0185 22.0683C42.8721 16.7297 48.8844 12.0744 58.0096 10.4557C54.6053 13.77 52.504 18.2923 51.2492 22.7632C50.007 27.189 49.5676 31.6561 49.5462 35.0625C47.6555 33.4126 45.1221 31.8903 42.3385 31.5376C40.4352 31.2964 38.4278 31.606 36.4812 32.7786C35.3899 33.4359 34.337 34.3525 33.3387 35.5656ZM51.7606 37.633L59.1203 50.8399H64.5644L72.673 38.4969C69.033 34.3565 64.8393 33.3753 61.0082 33.8162C57.3223 34.2404 53.9445 35.9909 51.7606 37.633ZM72.928 36.044C69.1091 32.4073 64.7711 31.4897 60.7918 31.9477C57.1364 32.3684 53.8057 33.9423 51.4327 35.5543C51.4132 32.2485 51.8141 27.7305 53.0661 23.2701C54.5254 18.0704 57.1016 13.0853 61.3714 10.1089C66.0776 11.5576 69.0533 16.2216 70.8193 21.8851C72.3128 26.6751 72.8695 31.969 72.928 36.044ZM51.1129 52.3039L31 39.8777L31.0204 39.3313C31.1992 34.5524 32.9152 27.3034 37.4871 20.9697C42.0833 14.6023 49.5491 9.18905 61.1217 8.14723C72.7471 7.10066 80.6901 11.763 85.8446 18.0233C90.9635 24.2403 93.3212 32.0087 93.9341 37.2832L94 37.8502L72.621 52.2793V70.1191C72.621 71.1579 71.7763 72 70.7343 72H52.9995C51.9576 72 51.1129 71.1579 51.1129 70.1191V52.3039Z" fill="#274D82"/>
<g filter="url(#filter0_d_337_795)">
<path fill-rule="evenodd" clip-rule="evenodd" d="M58.5609 59.211C59.1455 58.3118 60.1457 58.0001 60.884 58C61.1754 57.9999 61.4518 58.0961 61.675 58.2023C61.9043 58.3114 62.1191 58.4513 62.2976 58.5821C62.3839 58.6453 62.4643 58.7082 62.5365 58.7672C62.7071 58.648 62.9267 58.514 63.1833 58.4013C63.8237 58.1199 64.7559 57.9505 65.6892 58.5658C67.159 59.5347 67.1991 61.2808 66.7447 62.5913C66.6255 62.9349 66.3641 63.314 66.0855 63.6649C65.7935 64.0324 65.4315 64.4308 65.0534 64.821C64.2965 65.602 63.446 66.3796 62.8919 66.8591C62.6708 67.0504 62.3497 67.0465 62.1329 66.85C61.6515 66.4137 60.8996 65.7126 60.2045 65.0239C59.5296 64.3551 58.8486 63.6407 58.5609 63.1982C57.813 62.0479 57.813 60.3614 58.5609 59.211ZM62.1112 59.9987L62.111 59.9985L62.1056 59.9932C62.1004 59.9881 62.0919 59.9799 62.0804 59.9689C62.0574 59.947 62.0227 59.9146 61.9785 59.8752C61.8895 59.7958 61.7654 59.6909 61.6239 59.5872C61.4808 59.4824 61.3305 59.3868 61.1886 59.3193C61.0405 59.2488 60.9394 59.2273 60.8842 59.2273C60.3973 59.2274 59.8308 59.4413 59.5321 59.9008C59.0549 60.6348 59.0549 61.7744 59.5321 62.5084C59.7344 62.8196 60.3125 63.4399 61.0124 64.1333C61.5305 64.6466 62.0828 65.1688 62.5249 65.5773C63.0282 65.1267 63.6582 64.5361 64.2285 63.9476C64.5922 63.5723 64.9244 63.2053 65.1821 62.8809C65.453 62.5398 65.5965 62.3007 65.6407 62.1732C66.003 61.1284 65.8632 60.1315 65.0628 59.6039C64.5669 59.2769 64.0698 59.3431 63.6383 59.5327C63.422 59.6277 63.2376 59.7487 63.1064 59.8475C63.0416 59.8964 62.9917 59.9383 62.9595 59.9666C62.9435 59.9807 62.932 59.9912 62.9255 59.9974L62.9194 60.0031L62.9198 60.0027L62.9203 60.0022L62.9206 60.0019C62.6933 60.2263 62.3376 60.2251 62.1117 59.9992C62.1117 59.9992 62.1116 59.9992 62.1116 59.9991L62.1114 59.999L62.1113 59.9988C62.1113 59.9988 62.1112 59.9987 62.1112 59.9987Z" fill="#274D82"/>
</g>
<g filter="url(#filter1_d_337_795)">
<path fill-rule="evenodd" clip-rule="evenodd" d="M62.5292 58.7616C62.4299 58.6857 62.3076 58.5969 62.1707 58.5076C61.9902 58.3898 61.777 58.2664 61.5525 58.1713C61.3323 58.0779 61.0738 58 60.8103 58C60.0824 58.0001 59.1123 58.2752 58.551 59.0443C57.8163 60.0509 57.8163 61.5365 58.551 62.5431C58.8369 62.9348 59.5308 63.5855 60.2408 64.2121C60.9647 64.8511 61.7484 65.502 62.2499 65.9069C62.401 66.0289 62.6247 66.0313 62.7788 65.9125C63.3548 65.4686 64.2392 64.7483 65.0252 64.0258C65.418 63.6648 65.7912 63.2986 66.0904 62.9631C66.3804 62.6379 66.6331 62.3065 66.7446 62.0202C67.2036 60.841 67.1443 59.3313 65.7244 58.4975C64.825 57.9693 63.9263 58.111 63.2932 58.3588C62.977 58.4826 62.7164 58.6359 62.5355 58.7573C62.5334 58.7588 62.5313 58.7602 62.5292 58.7616ZM62.2348 59.5333C62.2347 59.5332 62.2348 59.5333 62.2348 59.5333C62.3922 59.6736 62.6404 59.6746 62.7989 59.5352L62.2348 59.5333ZM62.2348 59.5333L62.2337 59.5323L62.2271 59.5266C62.221 59.5213 62.2115 59.513 62.1988 59.5022C62.1733 59.4806 62.1354 59.4491 62.0874 59.4109C61.9908 59.3342 61.8559 59.2325 61.7012 59.1316C61.5454 59.03 61.3771 58.934 61.2134 58.8647C61.0455 58.7935 60.9093 58.7619 60.8105 58.7619C60.2577 58.762 59.5899 58.9764 59.2278 59.4725C58.6818 60.2207 58.6818 61.3668 59.2278 62.1149C59.4542 62.425 60.0765 63.0173 60.8037 63.6592C61.4008 64.1861 62.0407 64.7226 62.5234 65.1177C63.0718 64.6848 63.7977 64.0834 64.4503 63.4836C64.8331 63.1318 65.1855 62.7851 65.4608 62.4764C65.7454 62.1572 65.916 61.9128 65.9753 61.7605C66.37 60.7464 66.2413 59.7018 65.2879 59.1419C64.6932 58.7928 64.0978 58.8704 63.6103 59.0612C63.3662 59.1567 63.1599 59.2775 63.014 59.3754C62.9415 59.424 62.8854 59.4661 62.8484 59.495C62.8299 59.5095 62.8163 59.5206 62.808 59.5276L62.7989 59.5352" fill="#274D82"/>
</g>
<defs>
<filter id="filter0_d_337_795" x="38" y="42" width="49" height="49" filterUnits="userSpaceOnUse" color-interpolation-filters="sRGB">
<feFlood flood-opacity="0" result="BackgroundImageFix"/>
<feColorMatrix in="SourceAlpha" type="matrix" values="0 0 0 0 0 0 0 0 0 0 0 0 0 0 0 0 0 0 127 0" result="hardAlpha"/>
<feOffset dy="4"/>
<feGaussianBlur stdDeviation="10"/>
<feColorMatrix type="matrix" values="0 0 0 0 0 0 0 0 0 0 0 0 0 0 0 0 0 0 0.1 0"/>
<feBlend mode="normal" in2="BackgroundImageFix" result="effect1_dropShadow_337_795"/>
<feBlend mode="normal" in="SourceGraphic" in2="effect1_dropShadow_337_795" result="shape"/>
</filter>
<filter id="filter1_d_337_795" x="38" y="42" width="49" height="48" filterUnits="userSpaceOnUse" color-interpolation-filters="sRGB">
<feFlood flood-opacity="0" result="BackgroundImageFix"/>
<feColorMatrix in="SourceAlpha" type="matrix" values="0 0 0 0 0 0 0 0 0 0 0 0 0 0 0 0 0 0 127 0" result="hardAlpha"/>
<feOffset dy="4"/>
<feGaussianBlur stdDeviation="10"/>
<feColorMatrix type="matrix" values="0 0 0 0 0 0 0 0 0 0 0 0 0 0 0 0 0 0 0.1 0"/>
<feBlend mode="normal" in2="BackgroundImageFix" result="effect1_dropShadow_337_795"/>
<feBlend mode="normal" in="SourceGraphic" in2="effect1_dropShadow_337_795" result="shape"/>
</filter>
</defs>
</svg>
