<svg width="100%" height="100%" viewBox="0 0 125 101" fill="none" xmlns="http://www.w3.org/2000/svg">
<path fill-rule="evenodd" clip-rule="evenodd" d="M121.644 2.07071H3.3557C2.66071 2.07071 2.09732 2.62696 2.09732 3.31313V78.6869C2.09732 79.373 2.66072 79.9293 3.3557 79.9293H121.644C122.339 79.9293 122.903 79.373 122.903 78.6869V3.31313C122.903 2.62696 122.339 2.07071 121.644 2.07071ZM3.3557 0C1.5024 0 0 1.48334 0 3.31313V78.6869C0 80.5167 1.5024 82 3.3557 82H121.644C123.498 82 125 80.5167 125 78.6869V3.31313C125 1.48334 123.498 0 121.644 0H3.3557Z" fill="#274D82"/>
<path fill-rule="evenodd" clip-rule="evenodd" d="M74.9452 82.2222H49.0548V89.7778H74.9452V82.2222ZM47 80V92H77V80H47Z" fill="#274D82"/>
<path fill-rule="evenodd" clip-rule="evenodd" d="M85.5755 92.1154H38.4245C36.5809 92.1154 35.0863 93.6307 35.0863 95.5V98.8846H88.9137V95.5C88.9137 93.6307 87.4191 92.1154 85.5755 92.1154ZM38.4245 90C35.4286 90 33 92.4624 33 95.5V101H91V95.5C91 92.4624 88.5714 90 85.5755 90H38.4245Z" fill="#274D82"/>
<path fill-rule="evenodd" clip-rule="evenodd" d="M26.3374 15.7391C26.5212 15.3043 26.9454 15 27.4394 15H40.8497C41.8789 15 42.7934 15.6692 43.1224 16.6631L45.9299 25.1447H91.5995C93.2461 25.1447 94.4031 26.7968 93.8678 28.3838L85.4578 53.3177C85.1249 54.3048 84.2137 54.9676 83.1895 54.9676H54.2071L54.5669 56.8009H85.7244C87.0491 56.8009 88.123 57.8954 88.123 59.2454V61.0946C88.123 62.4323 87.0681 63.5215 85.7557 63.5389L51.0479 63.9998C49.9565 64.0143 48.9931 63.276 48.7038 62.2034L37.9184 22.2113H29.0276C27.8794 22.2113 26.8922 21.382 26.6731 20.2334L26.0223 16.8222C25.9446 16.4153 26.0748 16.0163 26.3374 15.7391ZM28.5845 17.4445L29.0276 19.7668H37.9184C38.9983 19.7668 39.945 20.5022 40.2312 21.5634L39.0748 21.8873L40.2312 21.5634L51.0166 61.5555L85.7244 61.0946V59.2454H54.5669C53.4235 59.2454 52.4391 58.423 52.2149 57.2803L51.8551 55.447C51.5583 53.9343 52.6935 52.5231 54.2071 52.5231H83.1895L91.5995 27.5892H45.9299C44.9007 27.5892 43.9862 26.92 43.6572 25.9261L40.8497 17.4445H28.5845Z" fill="#274D82"/>
<path d="M63 68.5C63 70.433 61.2091 72 59 72C56.7909 72 55 70.433 55 68.5C55 66.567 56.7909 65 59 65C61.2091 65 63 66.567 63 68.5Z" fill="#274D82"/>
<path d="M81 68.5C81 70.433 79.433 72 77.5 72C75.567 72 74 70.433 74 68.5C74 66.567 75.567 65 77.5 65C79.433 65 81 66.567 81 68.5Z" fill="#274D82"/>
<path fill-rule="evenodd" clip-rule="evenodd" d="M67.5 32C68.3284 32 69 32.74 69 33.6528L69 47.3472C69 48.26 68.3284 49 67.5 49C66.6716 49 66 48.26 66 47.3472L66 33.6528C66 32.74 66.6716 32 67.5 32Z" fill="#274D82"/>
<path fill-rule="evenodd" clip-rule="evenodd" d="M75 40.5C75 41.3284 74.3471 42 73.5417 42L61.4583 42C60.6529 42 60 41.3284 60 40.5C60 39.6716 60.6529 39 61.4583 39L73.5417 39C74.3471 39 75 39.6716 75 40.5Z" fill="#274D82"/>
</svg>
