<svg width="100%" height="100%" viewBox="0 0 125 101" fill="none" xmlns="http://www.w3.org/2000/svg">
<path fill-rule="evenodd" clip-rule="evenodd" d="M121.644 2.09596H3.3557C2.66071 2.09596 2.09732 2.659 2.09732 3.35353V79.6465C2.09732 80.341 2.66072 80.904 3.3557 80.904H121.644C122.339 80.904 122.903 80.341 122.903 79.6465V3.35354C122.903 2.659 122.339 2.09596 121.644 2.09596ZM3.3557 0C1.5024 0 0 1.50143 0 3.35353V79.6465C0 81.4986 1.5024 83 3.3557 83H121.644C123.498 83 125 81.4986 125 79.6465V3.35354C125 1.50143 123.498 0 121.644 0H3.3557Z" fill="#274D82"/>
<path fill-rule="evenodd" clip-rule="evenodd" d="M74.9452 83.2222H49.0548V90.7778H74.9452V83.2222ZM47 81V93H77V81H47Z" fill="#274D82"/>
<path fill-rule="evenodd" clip-rule="evenodd" d="M85.5755 92.9231H38.4245C36.5809 92.9231 35.0863 94.3007 35.0863 96V99.0769H88.9137V96C88.9137 94.3007 87.4191 92.9231 85.5755 92.9231ZM38.4245 91C35.4286 91 33 93.2386 33 96V101H91V96C91 93.2386 88.5714 91 85.5755 91H38.4245Z" fill="#274D82"/>
<path fill-rule="evenodd" clip-rule="evenodd" d="M90.4178 22.6329C91.2213 23.4488 91.1892 24.7406 90.3459 25.5181L52.9492 60L33.5678 39.923C32.7727 39.0993 32.8182 37.808 33.6694 37.0386C34.5207 36.2693 35.8553 36.3133 36.6504 37.137L53.1235 54.2013L87.4359 22.5634C88.2792 21.7859 89.6142 21.817 90.4178 22.6329Z" fill="#274D82"/>
</svg>
