<svg width="100%" height="100%" viewBox="0 0 34 34" fill="none" xmlns="http://www.w3.org/2000/svg">
<path d="M34 17C34 26.3888 26.3888 34 17 34C7.61116 34 0 26.3888 0 17C0 7.61116 7.61116 0 17 0C26.3888 0 34 7.61116 34 17Z" fill="#C4C4C4"/>
<path d="M19.0742 12.3203V25H15.4062V12.3203H19.0742ZM15.1836 9.03906C15.1836 8.50781 15.3711 8.07422 15.7461 7.73828C16.1211 7.39453 16.6133 7.22266 17.2227 7.22266C17.832 7.22266 18.3242 7.39453 18.6992 7.73828C19.082 8.07422 19.2734 8.50781 19.2734 9.03906C19.2734 9.5625 19.082 9.99609 18.6992 10.3398C18.3242 10.6758 17.832 10.8438 17.2227 10.8438C16.6133 10.8438 16.1211 10.6758 15.7461 10.3398C15.3711 9.99609 15.1836 9.5625 15.1836 9.03906Z" fill="white"/>
</svg>
