<svg width="100%" height="100%" viewBox="0 0 44 45" fill="none" xmlns="http://www.w3.org/2000/svg">
<path d="M40 1H4C2.34315 1 1 2.34314 1 4V41C1 42.6569 2.34315 44 4 44H40C41.6569 44 43 42.6569 43 41V4C43 2.34315 41.6569 1 40 1Z" stroke="#274D82" stroke-linecap="round" stroke-linejoin="round"/>
<path fill-rule="evenodd" clip-rule="evenodd" d="M20.974 8.62921C20.6545 8.62921 20.3845 8.86344 20.343 9.17665L19.9769 11.9384C19.9186 12.378 19.6307 12.7548 19.2189 12.9304L17.44 13.6889C17.0631 13.8496 16.6309 13.8207 16.2794 13.6113L13.8436 12.1607C13.6059 12.0192 13.303 12.0462 13.0948 12.2274L11.8561 13.3055C11.6245 13.5071 11.5726 13.8439 11.7328 14.1046L13.4065 16.8281C13.6342 17.1987 13.6529 17.6591 13.456 18.0466L12.8224 19.2934C12.6383 19.6557 12.2891 19.908 11.8842 19.9714L9.17322 20.3957C8.86403 20.4441 8.63636 20.7077 8.63636 21.0172V22.9111C8.63636 23.2154 8.85659 23.4761 9.15943 23.5303L11.8191 24.0061C12.2761 24.0878 12.6518 24.4092 12.7993 24.8447L13.5436 27.0417C13.6824 27.4513 13.5989 27.9027 13.3226 28.2373L11.8499 30.0207C11.6399 30.275 11.663 30.6463 11.9029 30.8733L13.081 31.9878C13.2949 32.1902 13.6217 32.22 13.8695 32.0596L16.2314 30.5307C16.6096 30.2859 17.0907 30.2578 17.4954 30.4569L19.3532 31.3708C19.6753 31.5293 19.9146 31.8152 20.0117 32.1577L20.7928 34.9115C20.8698 35.1831 21.1202 35.3708 21.4055 35.3708H22.9844C23.2894 35.3708 23.5516 35.1567 23.6093 34.8605L24.1804 31.9256C24.2619 31.5068 24.5524 31.1574 24.9521 30.9971L26.4877 30.3816C26.8559 30.234 27.2726 30.2649 27.6145 30.4651L30.3899 32.0905C30.6395 32.2367 30.9575 32.1975 31.1631 31.9952L32.3711 30.8066C32.5819 30.5992 32.6193 30.275 32.4611 30.0259L30.8311 27.4599C30.6309 27.1447 30.5821 26.758 30.6978 26.4038L31.2033 24.8563C31.3476 24.4147 31.7259 24.0875 32.1878 24.0048L34.8406 23.5303C35.1434 23.4761 35.3636 23.2154 35.3636 22.9111V21.0172C35.3636 20.7077 35.136 20.4441 34.8268 20.3957L32.2297 19.9892C31.7432 19.9131 31.3449 19.5662 31.2069 19.0987L30.6862 17.334C30.5783 16.9683 30.6438 16.5739 30.8643 16.2614L32.4004 14.085C32.582 13.8277 32.5441 13.4774 32.3116 13.2639L30.778 11.8557C30.5522 11.6482 30.2084 11.6307 29.9622 11.8141L27.7003 13.4982C27.3207 13.7809 26.8134 13.8309 26.3848 13.6278L24.8852 12.9174C24.5229 12.7458 24.2638 12.4151 24.1863 12.0253L23.612 9.13704C23.5533 8.84198 23.2917 8.62921 22.9876 8.62921H20.974ZM19.712 9.09487C19.7951 8.46844 20.335 8 20.974 8H22.9876C23.5958 8 24.1191 8.42554 24.2364 9.01565L24.8107 11.9039C24.8495 12.0988 24.979 12.2642 25.1602 12.35L26.6597 13.0604C26.874 13.1619 27.1277 13.1369 27.3175 12.9956L29.5794 11.3114C30.0719 10.9447 30.7594 10.9798 31.2111 11.3946L32.7446 12.8029C33.2097 13.2299 33.2854 13.9305 32.9222 14.4451L31.3861 16.6215C31.2759 16.7777 31.2431 16.9749 31.2971 17.1578L31.8178 18.9225C31.8868 19.1562 32.086 19.3297 32.3292 19.3677L34.9263 19.7743C35.5447 19.8711 36 20.3982 36 21.0172V22.9111C36 23.5197 35.5595 24.0411 34.9539 24.1494L32.3011 24.624C32.0702 24.6653 31.881 24.8289 31.8088 25.0498L31.3033 26.5972C31.2455 26.7743 31.2699 26.9676 31.37 27.1252L33 29.6913C33.3164 30.1894 33.2416 30.8377 32.82 31.2526L31.6119 32.4412C31.2007 32.8458 30.5648 32.9243 30.0656 32.6319L27.2902 31.0064C27.1192 30.9063 26.9109 30.8909 26.7268 30.9647L25.1912 31.5803C24.9913 31.6604 24.8461 31.8351 24.8053 32.0445L24.2341 34.9794C24.1188 35.5718 23.5945 36 22.9844 36H21.4055C20.8349 36 20.3341 35.6246 20.18 35.0814L19.399 32.3276C19.3504 32.1563 19.2308 32.0134 19.0697 31.9342L17.212 31.0202C17.0096 30.9207 16.769 30.9347 16.5799 31.0571L14.218 32.586C13.7226 32.9067 13.0689 32.8472 12.641 32.4424L11.463 31.3279C10.9831 30.8739 10.937 30.1314 11.357 29.6227L12.8297 27.8394C12.9679 27.672 13.0096 27.4464 12.9402 27.2416L12.1959 25.0445C12.1221 24.8268 11.9343 24.6661 11.7058 24.6252L9.04613 24.1494C8.44046 24.0411 8 23.5197 8 22.9111V21.0172C8 20.3982 8.45534 19.8711 9.07372 19.7743L11.7847 19.3499C11.9871 19.3182 12.1617 19.192 12.2538 19.0109L12.8874 17.7641C12.9859 17.5703 12.9765 17.3401 12.8626 17.1548L11.1889 14.4313C10.8685 13.9099 10.9725 13.2363 11.4357 12.8332L12.6743 11.7551C13.0907 11.3927 13.6966 11.3387 14.1719 11.6217L16.6077 13.0723C16.7835 13.177 16.9995 13.1914 17.188 13.1111L18.9669 12.3526C19.1728 12.2648 19.3168 12.0764 19.3459 11.8566L19.712 9.09487Z" fill="#274D82"/>
<path fill-rule="evenodd" clip-rule="evenodd" d="M21.9984 27.1242C24.7476 27.1242 26.9762 24.8301 26.9762 22.0001C26.9762 19.17 24.7476 16.8759 21.9984 16.8759C19.2493 16.8759 17.0207 19.17 17.0207 22.0001C17.0207 24.8301 19.2493 27.1242 21.9984 27.1242ZM21.9984 27.7648C25.0912 27.7648 27.5984 25.1838 27.5984 22.0001C27.5984 18.8163 25.0912 16.2354 21.9984 16.2354C18.9056 16.2354 16.3984 18.8163 16.3984 22.0001C16.3984 25.1838 18.9056 27.7648 21.9984 27.7648Z" fill="#274D82"/>
</svg>
