<svg width="23" height="23" viewBox="0 0 23 23" fill="none" xmlns="http://www.w3.org/2000/svg">
<path fill-rule="evenodd" clip-rule="evenodd" d="M11.5 23C17.8513 23 23 17.8513 23 11.5C23 5.14873 17.8513 0 11.5 0C5.14873 0 0 5.14873 0 11.5C0 17.8513 5.14873 23 11.5 23ZM9.79199 4.2915C6.75443 4.2915 4.29199 6.75394 4.29199 9.79151V13.2082C4.29199 16.2457 6.75443 18.7082 9.792 18.7082H13.2087C16.2462 18.7082 18.7087 16.2457 18.7087 13.2082V9.7915C18.7087 6.75394 16.2462 4.2915 13.2087 4.2915H9.79199ZM5.29199 9.79151C5.29199 7.30623 7.30671 5.2915 9.79199 5.2915H13.2087C15.6939 5.2915 17.7087 7.30622 17.7087 9.7915V13.2082C17.7087 15.6934 15.6939 17.7082 13.2087 17.7082H9.792C7.30671 17.7082 5.29199 15.6935 5.29199 13.2082V9.79151ZM11.5003 14.2267C13.0063 14.2267 14.2271 13.0058 14.2271 11.4998C14.2271 9.9938 13.0063 8.77295 11.5003 8.77295C9.99429 8.77295 8.77344 9.9938 8.77344 11.4998C8.77344 13.0058 9.99429 14.2267 11.5003 14.2267ZM11.5003 15.2267C13.5586 15.2267 15.2271 13.5581 15.2271 11.4998C15.2271 9.44152 13.5586 7.77295 11.5003 7.77295C9.44201 7.77295 7.77344 9.44152 7.77344 11.4998C7.77344 13.5581 9.44201 15.2267 11.5003 15.2267ZM15.2274 8.51828C15.639 8.51828 15.9728 8.18456 15.9728 7.77291C15.9728 7.36125 15.639 7.02754 15.2274 7.02754C14.8157 7.02754 14.482 7.36125 14.482 7.77291C14.482 8.18456 14.8157 8.51828 15.2274 8.51828Z" fill="white"/>
</svg>
