<svg width="43" height="44" viewBox="0 0 43 44" fill="none" xmlns="http://www.w3.org/2000/svg">
<path d="M28.7031 35.1416L31.1846 37.369C32.0629 38.1573 33.4293 38.0177 34.13 37.0679L38.5329 31.0996" stroke="#274D82" stroke-linecap="round" stroke-linejoin="round"/>
<path d="M36.7447 23.0839V3C36.7447 1.89543 35.8492 1 34.7447 1H3C1.89543 1 1 1.89543 1 3V37.7C1 38.8046 1.89543 39.7 3 39.7H22.9104M6.08502 9.30807L22.4618 9.16606M6.08502 15.0598H18.5732M6.08502 21.0246H22.4618M6.08502 32.102H20.8166" stroke="#274D82" stroke-linejoin="round"/>
<path d="M26.0195 9.59961H31.3812" stroke="#274D82"/>
<path d="M26.0195 14.7598H31.3812" stroke="#274D82"/>
<path d="M26.0195 20.7803H31.3812" stroke="#274D82"/>
<path d="M6.36328 26.7998L7.2569 26.7998" stroke="#274D82"/>
<path d="M9.9375 26.7998L11.7247 26.7998" stroke="#274D82"/>
<path d="M14.4023 26.7998L15.296 26.7998" stroke="#274D82"/>
<path d="M17.9805 26.7998L19.7677 26.7998" stroke="#274D82"/>
<path d="M22.4453 26.7998L23.3389 26.7998" stroke="#274D82"/>
<path d="M42.4994 34.5401C42.4994 39.4707 38.3406 43.5001 33.1696 43.5001C27.9987 43.5001 23.8398 39.4707 23.8398 34.5401C23.8398 29.6095 27.9987 25.5801 33.1696 25.5801C38.3406 25.5801 42.4994 29.6095 42.4994 34.5401Z" stroke="#274D82"/>
</svg>
