<svg width="100%" height="100%" viewBox="0 0 393 279" fill="none" xmlns="http://www.w3.org/2000/svg">
<path d="M261.999 0C238.125 0 215.769 6.81043 196.487 18.6754C177.227 6.80579 154.871 0 130.997 0C58.6395 0 0 62.3038 0 139.201C0 216.048 58.6395 278.375 130.997 278.375C154.871 278.375 177.227 271.555 196.487 259.7C215.769 271.56 238.125 278.375 261.999 278.375C334.339 278.375 393 216.048 393 139.201C393 62.3038 334.339 0 261.999 0ZM188.791 23.7994C188.686 23.8782 188.59 23.9569 188.49 24.0357C188.59 23.9569 188.686 23.8736 188.791 23.7994ZM204.157 254.599C204.51 254.344 204.842 254.066 205.19 253.807C204.842 254.066 204.51 254.344 204.157 254.599ZM211.552 248.891C211.596 248.849 211.64 248.808 211.683 248.775C211.64 248.808 211.596 248.849 211.552 248.891ZM261.999 243.656C248.922 243.656 236.455 240.932 225.039 236.002C233.049 227.227 240 217.364 245.625 206.601C256.047 186.62 261.999 163.649 261.999 139.201C261.999 114.735 256.047 91.7647 245.625 71.7874C234.724 74.7618 224.956 80.6734 217.038 88.6236C224.852 103.606 229.321 120.832 229.321 139.201C229.321 196.877 185.302 243.656 130.993 243.656C76.6875 243.656 32.6686 196.877 32.6686 139.201C32.6686 81.4842 76.6875 34.7193 130.993 34.7193C144.065 34.7193 156.541 37.4573 167.948 42.3729C159.942 51.1477 152.996 61.0112 147.371 71.7874C136.949 91.7647 130.997 114.735 130.997 139.201C130.997 163.645 136.949 186.615 147.371 206.588C158.259 203.599 168.031 197.706 175.945 189.751C168.131 174.773 163.67 157.543 163.67 139.201C163.67 81.4842 207.689 34.7193 261.994 34.7193C316.304 34.7193 360.323 81.4842 360.323 139.201C360.327 196.877 316.308 243.656 261.999 243.656Z" fill="#274D82"/>
</svg>
