<svg width="100%" height="100%" viewBox="0 0 294 250" fill="none" xmlns="http://www.w3.org/2000/svg">
<circle cx="161.21" cy="91.8337" r="7" fill="#274D82" fill-opacity="0.5"/>
<ellipse cx="135.235" cy="92.334" rx="11.025" ry="10.5" fill="#274D82" fill-opacity="0.5"/>
<path d="M34.6623 97.1221C37.1197 85.7795 49.1612 72.711 47.5639 61.8617L28 29C45.5 40 35.5167 32.7472 45.5 40C56.1628 47.7465 62.3236 52.6178 63.0458 65.8068C63.6602 77.026 49.7756 98.848 53.0932 113.766C55.9449 126.589 67.4221 129.638 80.4937 130.41C95.6447 131.304 116.372 112.287 116.372 112.287C116.372 112.287 96.5985 104.099 88.6033 93.7933C77.2499 79.1596 72.6257 64.4007 79.5107 47.1904C87.1746 28.0332 104.164 19.4444 124.728 20.067C144.313 20.6599 155.667 31.1497 166.996 47.1904C180.862 66.8235 175.474 108.218 175.474 108.218C175.474 108.218 191.062 107.545 198.82 101.437C206.429 95.4468 209.142 91.2376 210.984 81.711C214.203 65.0671 198.574 55.204 189.481 37.3273C183.088 24.7573 192.136 13.7123 200 2C198 5.5 201.972 26.8575 207.298 34.4917C209.878 38.1903 221.508 46.1849 227.326 56.8069C234.089 69.1555 235.425 78.3281 233.715 92.3139C229.661 125.478 190.464 135.465 190.464 135.465C190.464 135.465 207.824 148.521 222.534 151.246C245.5 155.5 254 133.397 254 116.5V116.398C254 108.057 254 88.3399 260.5 81.711C260.5 81.711 264.026 97.7635 265 108.218C266.201 121.114 265 141.383 265 141.383C261.577 157.39 251.449 166.924 236.5 173.5C215.698 182.651 172.894 160.615 172.894 160.615C172.894 160.615 166.381 192.917 161.835 204.136C157.289 215.355 158.811 229.899 170.19 234.465C179 238 194.5 238.5 205.5 242.5C188.427 247 155.668 252.307 144.756 234.465C135.705 219.667 137.138 208.205 142.176 190.081C147.213 171.958 139.595 158.15 139.595 158.15C139.595 158.15 129.079 188.105 113.301 197.972C101.359 205.439 93.5642 204.835 79.5107 204.136C65.4572 203.438 40.2835 187.712 35 185C29.7165 182.288 7.47306 178.477 3 182C9.08731 170.727 19.7335 168.246 26 168C45.3398 167.24 67.7466 186.716 86.2687 181.081C109.369 174.054 111.335 149.766 111.335 149.766C111.335 149.766 70.2953 168.259 45.4751 141.383C33.42 128.329 30.8947 114.512 34.6623 97.1221Z" stroke="#274D82" stroke-opacity="0.5" stroke-width="5"/>
<path d="M233.24 100H282.394L294 161H223L233.24 100Z" fill="#E5E5E5"/>
<path d="M224.773 159.5L234.51 101.5H281.153L292.188 159.5H224.773Z" stroke="#274D82" stroke-opacity="0.5" stroke-width="3"/>
<path d="M245.289 102.748C259.35 74.1676 260.301 77.1258 272.115 102.748" stroke="#274D82" stroke-opacity="0.5" stroke-width="2" stroke-linecap="round"/>
<path d="M13.3846 52H63.2308L75 111H3L13.3846 52Z" fill="#E5E5E5"/>
<path d="M4.78707 109.5L14.6437 53.5H62.0004L73.1712 109.5H4.78707Z" stroke="#274D82" stroke-opacity="0.5" stroke-width="3"/>
<path d="M22.8754 54.7477C37.6169 26.1676 38.6134 29.1258 50.9999 54.7478" stroke="#274D82" stroke-opacity="0.5" stroke-width="2" stroke-linecap="round"/>
<path d="M43.6666 72C41.9656 72 40.3728 72.4893 38.9991 73.3417C37.6268 72.489 36.034 72 34.3331 72C29.1779 72 25 76.4763 25 82.001C25 87.5221 29.1779 92 34.3331 92C36.034 92 37.6268 91.51 38.9991 90.6583C40.3728 91.5104 41.9656 92 43.6666 92C48.8206 92 53 87.5221 53 82.001C53 76.4763 48.8206 72 43.6666 72ZM38.4507 73.7099C38.4433 73.7155 38.4364 73.7212 38.4293 73.7269C38.4364 73.7212 38.4433 73.7152 38.4507 73.7099ZM39.5455 90.2918C39.5707 90.2735 39.5943 90.2535 39.6192 90.2349C39.5943 90.2535 39.5707 90.2735 39.5455 90.2918ZM40.0724 89.8817C40.0755 89.8787 40.0786 89.8757 40.0817 89.8734C40.0786 89.8757 40.0755 89.8787 40.0724 89.8817ZM43.6666 89.5056C42.7349 89.5056 41.8467 89.3099 41.0333 88.9557C41.604 88.3253 42.0992 87.6166 42.5 86.8434C43.2425 85.4078 43.6666 83.7575 43.6666 82.001C43.6666 80.2432 43.2425 78.5929 42.5 77.1576C41.7233 77.3713 41.0274 77.796 40.4633 78.3672C41.02 79.4437 41.3384 80.6812 41.3384 82.001C41.3384 86.1447 38.2022 89.5056 34.3328 89.5056C30.4637 89.5056 27.3275 86.1447 27.3275 82.001C27.3275 77.8543 30.4637 74.4944 34.3328 74.4944C35.2642 74.4944 36.153 74.6911 36.9657 75.0443C36.3953 75.6747 35.9005 76.3834 35.4997 77.1576C34.7572 78.5929 34.3331 80.2432 34.3331 82.001C34.3331 83.7571 34.7572 85.4074 35.4997 86.8424C36.2754 86.6277 36.9716 86.2043 37.5355 85.6328C36.9788 84.5567 36.661 83.3188 36.661 82.001C36.661 77.8543 39.7972 74.4944 43.6663 74.4944C47.5356 74.4944 50.6718 77.8543 50.6718 82.001C50.6722 86.1447 47.5359 89.5056 43.6666 89.5056Z" fill="#274D82" fill-opacity="0.5"/>
<path d="M263.667 121C261.966 121 260.373 121.489 258.999 122.342C257.627 121.489 256.034 121 254.333 121C249.178 121 245 125.476 245 131.001C245 136.522 249.178 141 254.333 141C256.034 141 257.627 140.51 258.999 139.658C260.373 140.51 261.966 141 263.667 141C268.821 141 273 136.522 273 131.001C273 125.476 268.821 121 263.667 121ZM258.451 122.71C258.443 122.716 258.436 122.721 258.429 122.727C258.436 122.721 258.443 122.715 258.451 122.71ZM259.546 139.292C259.571 139.273 259.594 139.254 259.619 139.235C259.594 139.254 259.571 139.273 259.546 139.292ZM260.072 138.882C260.076 138.879 260.079 138.876 260.082 138.873C260.079 138.876 260.076 138.879 260.072 138.882ZM263.667 138.506C262.735 138.506 261.847 138.31 261.033 137.956C261.604 137.325 262.099 136.617 262.5 135.843C263.242 134.408 263.667 132.757 263.667 131.001C263.667 129.243 263.242 127.593 262.5 126.158C261.723 126.371 261.027 126.796 260.463 127.367C261.02 128.444 261.338 129.681 261.338 131.001C261.338 135.145 258.202 138.506 254.333 138.506C250.464 138.506 247.328 135.145 247.328 131.001C247.328 126.854 250.464 123.494 254.333 123.494C255.264 123.494 256.153 123.691 256.966 124.044C256.395 124.675 255.9 125.383 255.5 126.158C254.757 127.593 254.333 129.243 254.333 131.001C254.333 132.757 254.757 134.407 255.5 135.842C256.275 135.628 256.972 135.204 257.536 134.633C256.979 133.557 256.661 132.319 256.661 131.001C256.661 126.854 259.797 123.494 263.666 123.494C267.536 123.494 270.672 126.854 270.672 131.001C270.672 135.145 267.536 138.506 263.667 138.506Z" fill="#274D82" fill-opacity="0.5"/>
</svg>
