<svg width="48" height="35" viewBox="0 0 48 35" fill="none" xmlns="http://www.w3.org/2000/svg">
<path fill-rule="evenodd" clip-rule="evenodd" d="M22.8117 8.99617C20.7523 7.61654 18.2524 7.05458 15.8008 7.42014C13.3491 7.7857 11.1219 9.05251 9.55457 10.9729C7.98725 12.8933 7.19252 15.3292 7.32574 17.8044C7.45895 20.2796 8.51054 22.6161 10.2749 24.3572C12.0393 26.0983 14.3896 27.1187 16.8663 27.2191C19.3431 27.3194 21.7682 26.4923 23.6676 24.8996C25.567 23.307 26.8041 21.0631 27.1371 18.6068C27.47 16.1505 26.8749 13.6583 25.468 11.6174L27.5177 10.2045C27.5186 10.2059 27.5196 10.2073 27.5206 10.2087C27.8712 10.7177 28.1814 11.2491 28.45 11.7982C29.5275 14 29.9369 16.485 29.604 18.9412C29.1878 22.0116 27.6414 24.8164 25.2672 26.8073C22.893 28.7981 19.8615 29.8319 16.7656 29.7065C13.6697 29.5811 10.7318 28.3056 8.52631 26.1292C6.32084 23.9529 5.00636 21.0322 4.83984 17.9382C4.67332 14.8442 5.66674 11.7993 7.62588 9.39882C9.58502 6.99833 12.369 5.41482 15.4336 4.95787C17.8852 4.59232 20.3753 4.96874 22.5913 6.01681C23.1454 6.27888 23.6824 6.58295 24.1973 6.92791L22.8117 8.99617Z" fill="#234A82"/>
<path fill-rule="evenodd" clip-rule="evenodd" d="M25.2761 25.5916C27.3457 26.9558 29.8497 27.4991 32.2986 27.1153C34.7475 26.7314 36.9652 25.4481 38.5181 23.516C40.071 21.584 40.8476 19.1423 40.6959 16.6681C40.5443 14.194 39.4753 11.8653 37.698 10.1375C35.9207 8.40959 33.5628 7.4067 31.0854 7.32485C28.608 7.24301 26.1891 8.0881 24.3016 9.69492C22.4141 11.3017 21.1938 13.5547 20.8792 16.0135C20.5645 18.4722 21.1782 20.9599 22.6003 22.9902L20.5612 24.4184C20.5602 24.417 20.5593 24.4156 20.5583 24.4142C20.2039 23.9078 19.8898 23.3787 19.617 22.8317C18.5232 20.6379 18.0952 18.1561 18.4098 15.6975C18.8031 12.6241 20.3285 9.80781 22.6878 7.79929C25.0472 5.79078 28.0708 4.73441 31.1676 4.83672C34.2644 4.93902 37.2117 6.19263 39.4333 8.35248C41.6549 10.5123 42.9912 13.4231 43.1808 16.5158C43.3703 19.6085 42.3997 22.6607 40.4585 25.0757C38.5173 27.4907 35.7452 29.095 32.6841 29.5747C30.2353 29.9586 27.7424 29.6007 25.5187 28.5692C24.9626 28.3113 24.4234 28.0112 23.9059 27.6701L25.2761 25.5916Z" fill="#234A82"/>
</svg>
