<svg width="288" height="253" viewBox="0 0 288 253" fill="none" xmlns="http://www.w3.org/2000/svg">
<circle cx="180.21" cy="94.8335" r="7" fill="#274D82" fill-opacity="0.5"/>
<ellipse cx="154.235" cy="95.3337" rx="11.025" ry="10.5" fill="#274D82" fill-opacity="0.5"/>
<path d="M53.6623 100.122C56.1197 88.7792 68.1612 75.7108 66.5639 64.8614L47 31.9998C64.5 42.9998 54.5167 35.747 64.5 42.9998C75.1628 50.7462 81.3236 55.6175 82.0458 68.8065C82.6602 80.0258 68.7756 101.848 72.0932 116.766C74.9449 129.589 86.4221 132.638 99.4937 133.41C114.645 134.304 135.372 115.286 135.372 115.286C135.372 115.286 115.599 107.098 107.603 96.7931C96.2499 82.1593 91.6257 67.4004 98.5107 50.1901C106.175 31.033 123.164 22.4441 143.728 23.0667C163.313 23.6596 174.667 34.1495 185.996 50.1901C199.862 69.8233 194.474 111.218 194.474 111.218C194.474 111.218 210.062 110.544 217.82 104.437C225.429 98.4465 228.142 94.2374 229.984 84.7107C233.203 68.0668 217.574 58.2038 208.481 40.3271C202.088 27.7571 211.136 16.712 219 4.99976C217 8.49976 220.972 29.8573 226.298 37.4914C228.878 41.1901 240.508 49.1847 246.326 59.8066C253.089 72.1553 254.425 81.3279 252.715 95.3136C248.661 128.478 209.464 138.464 209.464 138.464C209.464 138.464 226.824 151.52 241.534 154.245C264.5 158.5 273 136.397 273 119.5V119.398C273 111.056 273 91.3397 279.5 84.7107C279.5 84.7107 283.026 100.763 284 111.218C285.201 124.113 284 144.382 284 144.382C280.577 160.39 270.449 169.924 255.5 176.5C234.698 185.65 191.894 163.615 191.894 163.615C191.894 163.615 185.381 195.917 180.835 207.136C176.289 218.355 177.811 232.899 189.19 237.465C198 241 213.5 241.5 224.5 245.5C207.427 250 174.668 255.306 163.756 237.465C154.705 222.667 156.138 211.205 161.176 193.081C166.213 174.958 158.595 161.149 158.595 161.149C158.595 161.149 148.079 191.105 132.301 200.972C120.359 208.439 112.564 207.834 98.5107 207.136C84.4572 206.438 59.2835 190.712 54 188C48.7165 185.287 26.4731 181.476 22 185C28.0873 173.726 38.7335 171.246 45 171C64.3398 170.24 86.7466 189.716 105.269 184.081C128.369 177.054 130.335 152.766 130.335 152.766C130.335 152.766 89.2953 171.259 64.4751 144.382C52.42 131.328 49.8947 117.512 53.6623 100.122Z" stroke="#274D82" stroke-opacity="0.5" stroke-width="5"/>
<path d="M184 27.4994C184 35.2314 167.77 42.4998 157 42.4998C146.23 42.4998 106 40.7316 106 32.9996C106 25.2676 143.73 23.9998 154.5 23.9998C165.27 23.9998 164.5 30.4994 184 27.4994Z" fill="#151515"/>
<path d="M99.496 18.5591C99.496 18.5591 123.416 16.44 137.916 5.44031C152.415 -5.5594 171.707 12.012 171.707 12.012C175.066 19.4414 171.318 23.888 169.178 31.2621C142.42 36.606 128.152 37.867 104.369 36.238C104.369 36.238 98.893 28.8386 98.4976 25.1549C98.0625 21.101 99.496 18.5591 99.496 18.5591Z" fill="#274D82"/>
<rect width="71.0726" height="37.568" transform="matrix(0.949442 -0.313942 0.331467 0.943467 0 175.312)" fill="#E5E5E5"/>
<rect x="1.28091" y="0.629525" width="69.0726" height="35.568" transform="matrix(0.949442 -0.313942 0.331467 0.943467 -0.143907 175.75)" stroke="#274D82" stroke-opacity="0.5" stroke-width="2"/>
<path d="M0 175.312L67.4793 153L40.3067 183.384L0 175.312Z" fill="#E5E5E5"/>
<path d="M39.9272 182.296L3.88895 175.079L64.2223 155.13L39.9272 182.296Z" stroke="#274D82" stroke-opacity="0.5" stroke-width="2"/>
<path d="M154.845 10.9621C153.765 11.1375 152.806 11.6156 152.023 12.3042C151.063 11.8986 150.001 11.7491 148.922 11.9245C145.651 12.4561 143.467 15.7588 144.043 19.3034C144.618 22.8457 147.736 25.2878 151.007 24.7562C152.087 24.5808 153.046 24.1022 153.828 23.4142C154.789 23.8192 155.851 23.9691 156.93 23.7937C160.2 23.2622 162.385 19.9583 161.81 16.4161C161.234 12.8715 158.115 10.4306 154.845 10.9621ZM151.713 12.597C151.709 12.6014 151.705 12.6057 151.701 12.6101C151.705 12.6057 151.709 12.6011 151.713 12.597ZM154.137 23.1227C154.151 23.1084 154.164 23.0931 154.178 23.0786C154.164 23.0931 154.151 23.1084 154.137 23.1227ZM154.428 22.8053C154.43 22.803 154.432 22.8008 154.433 22.799C154.432 22.8008 154.43 22.803 154.428 22.8053ZM156.67 22.1933C156.079 22.2894 155.495 22.2554 154.942 22.1121C155.238 21.6488 155.478 21.143 155.652 20.6056C155.973 19.608 156.07 18.5055 155.887 17.3785C155.704 16.2508 155.263 15.2357 154.642 14.3914C154.172 14.6086 153.774 14.9528 153.476 15.3775C153.941 16.0107 154.272 16.7719 154.41 17.6186C154.842 20.2772 153.202 22.7568 150.747 23.1558C148.292 23.5548 145.952 21.722 145.52 19.0634C145.087 16.4029 146.727 13.9239 149.182 13.5249C149.773 13.4289 150.358 13.4635 150.91 13.6062C150.614 14.0695 150.374 14.5752 150.2 15.1133C149.879 16.1107 149.782 17.2132 149.965 18.341C150.148 19.4677 150.589 20.4828 151.21 21.3269C151.68 21.1091 152.077 20.7657 152.376 20.3409C151.91 19.7079 151.579 18.9464 151.442 18.101C151.01 15.4405 152.649 12.9615 155.104 12.5625C157.56 12.1635 159.9 13.9957 160.332 16.6562C160.765 19.3147 159.125 21.7943 156.67 22.1933Z" fill="#DDB870"/>
<path d="M170.499 27.9996C161.735 34.4459 160.5 35.5442 125.5 34.9998" stroke="#DDB870" stroke-width="3" stroke-linecap="round"/>
</svg>
