<svg width="89" height="18" viewBox="0 0 89 18" fill="none" xmlns="http://www.w3.org/2000/svg">
<path d="M0.685547 9.35059V9.14844C0.685547 8.46289 0.785156 7.82715 0.984375 7.24121C1.18359 6.64941 1.4707 6.13672 1.8457 5.70312C2.22656 5.26367 2.68945 4.92383 3.23438 4.68359C3.78516 4.4375 4.40625 4.31445 5.09766 4.31445C5.79492 4.31445 6.41602 4.4375 6.96094 4.68359C7.51172 4.92383 7.97754 5.26367 8.3584 5.70312C8.73926 6.13672 9.0293 6.64941 9.22852 7.24121C9.42773 7.82715 9.52734 8.46289 9.52734 9.14844V9.35059C9.52734 10.0361 9.42773 10.6719 9.22852 11.2578C9.0293 11.8438 8.73926 12.3564 8.3584 12.7959C7.97754 13.2295 7.51465 13.5693 6.96973 13.8154C6.4248 14.0557 5.80664 14.1758 5.11523 14.1758C4.41797 14.1758 3.79395 14.0557 3.24316 13.8154C2.69824 13.5693 2.23535 13.2295 1.85449 12.7959C1.47363 12.3564 1.18359 11.8438 0.984375 11.2578C0.785156 10.6719 0.685547 10.0361 0.685547 9.35059ZM2.80371 9.14844V9.35059C2.80371 9.77832 2.84766 10.1826 2.93555 10.5635C3.02344 10.9443 3.16113 11.2783 3.34863 11.5654C3.53613 11.8525 3.77637 12.0781 4.06934 12.2422C4.3623 12.4062 4.71094 12.4883 5.11523 12.4883C5.50781 12.4883 5.84766 12.4062 6.13477 12.2422C6.42773 12.0781 6.66797 11.8525 6.85547 11.5654C7.04297 11.2783 7.18066 10.9443 7.26855 10.5635C7.3623 10.1826 7.40918 9.77832 7.40918 9.35059V9.14844C7.40918 8.72656 7.3623 8.32812 7.26855 7.95312C7.18066 7.57227 7.04004 7.23535 6.84668 6.94238C6.65918 6.64941 6.41895 6.4209 6.12598 6.25684C5.83887 6.08691 5.49609 6.00195 5.09766 6.00195C4.69922 6.00195 4.35352 6.08691 4.06055 6.25684C3.77344 6.4209 3.53613 6.64941 3.34863 6.94238C3.16113 7.23535 3.02344 7.57227 2.93555 7.95312C2.84766 8.32812 2.80371 8.72656 2.80371 9.14844ZM15.1875 12.4883C15.5332 12.4883 15.8438 12.4209 16.1191 12.2861C16.4004 12.1455 16.626 11.9521 16.7959 11.7061C16.9717 11.46 17.0684 11.1758 17.0859 10.8535H19.0811C19.0693 11.4688 18.8877 12.0283 18.5361 12.5322C18.1846 13.0361 17.7188 13.4375 17.1387 13.7363C16.5586 14.0293 15.917 14.1758 15.2139 14.1758C14.4873 14.1758 13.8545 14.0527 13.3154 13.8066C12.7764 13.5547 12.3281 13.209 11.9707 12.7695C11.6133 12.3301 11.3438 11.8232 11.1621 11.249C10.9863 10.6748 10.8984 10.0596 10.8984 9.40332V9.0957C10.8984 8.43945 10.9863 7.82422 11.1621 7.25C11.3438 6.66992 11.6133 6.16016 11.9707 5.7207C12.3281 5.28125 12.7764 4.93848 13.3154 4.69238C13.8545 4.44043 14.4844 4.31445 15.2051 4.31445C15.9668 4.31445 16.6348 4.4668 17.209 4.77148C17.7832 5.07031 18.2344 5.48926 18.5625 6.02832C18.8965 6.56152 19.0693 7.18262 19.0811 7.8916H17.0859C17.0684 7.54004 16.9805 7.22363 16.8223 6.94238C16.6699 6.65527 16.4531 6.42676 16.1719 6.25684C15.8965 6.08691 15.5654 6.00195 15.1787 6.00195C14.751 6.00195 14.3965 6.08984 14.1152 6.26562C13.834 6.43555 13.6143 6.66992 13.4561 6.96875C13.2979 7.26172 13.1836 7.59277 13.1133 7.96191C13.0488 8.3252 13.0166 8.70312 13.0166 9.0957V9.40332C13.0166 9.7959 13.0488 10.1768 13.1133 10.5459C13.1777 10.915 13.2891 11.2461 13.4473 11.5391C13.6113 11.8262 13.834 12.0576 14.1152 12.2334C14.3965 12.4033 14.7539 12.4883 15.1875 12.4883ZM25.0664 4.49023V6.03711H19.7051V4.49023H25.0664ZM21.252 2.16113H23.3701V11.3721C23.3701 11.665 23.4111 11.8906 23.4932 12.0488C23.5811 12.2012 23.7012 12.3037 23.8535 12.3564C24.0059 12.4092 24.1846 12.4355 24.3896 12.4355C24.5361 12.4355 24.6768 12.4268 24.8115 12.4092C24.9463 12.3916 25.0547 12.374 25.1367 12.3564L25.1455 13.9736C24.9697 14.0264 24.7646 14.0732 24.5303 14.1143C24.3018 14.1553 24.0381 14.1758 23.7393 14.1758C23.2529 14.1758 22.8223 14.0908 22.4473 13.9209C22.0723 13.7451 21.7793 13.4609 21.5684 13.0684C21.3574 12.6758 21.252 12.1543 21.252 11.5039V2.16113ZM26.0859 9.35059V9.14844C26.0859 8.46289 26.1855 7.82715 26.3848 7.24121C26.584 6.64941 26.8711 6.13672 27.2461 5.70312C27.627 5.26367 28.0898 4.92383 28.6348 4.68359C29.1855 4.4375 29.8066 4.31445 30.498 4.31445C31.1953 4.31445 31.8164 4.4375 32.3613 4.68359C32.9121 4.92383 33.3779 5.26367 33.7588 5.70312C34.1396 6.13672 34.4297 6.64941 34.6289 7.24121C34.8281 7.82715 34.9277 8.46289 34.9277 9.14844V9.35059C34.9277 10.0361 34.8281 10.6719 34.6289 11.2578C34.4297 11.8438 34.1396 12.3564 33.7588 12.7959C33.3779 13.2295 32.915 13.5693 32.3701 13.8154C31.8252 14.0557 31.207 14.1758 30.5156 14.1758C29.8184 14.1758 29.1943 14.0557 28.6436 13.8154C28.0986 13.5693 27.6357 13.2295 27.2549 12.7959C26.874 12.3564 26.584 11.8438 26.3848 11.2578C26.1855 10.6719 26.0859 10.0361 26.0859 9.35059ZM28.2041 9.14844V9.35059C28.2041 9.77832 28.248 10.1826 28.3359 10.5635C28.4238 10.9443 28.5615 11.2783 28.749 11.5654C28.9365 11.8525 29.1768 12.0781 29.4697 12.2422C29.7627 12.4062 30.1113 12.4883 30.5156 12.4883C30.9082 12.4883 31.248 12.4062 31.5352 12.2422C31.8281 12.0781 32.0684 11.8525 32.2559 11.5654C32.4434 11.2783 32.5811 10.9443 32.6689 10.5635C32.7627 10.1826 32.8096 9.77832 32.8096 9.35059V9.14844C32.8096 8.72656 32.7627 8.32812 32.6689 7.95312C32.5811 7.57227 32.4404 7.23535 32.2471 6.94238C32.0596 6.64941 31.8193 6.4209 31.5264 6.25684C31.2393 6.08691 30.8965 6.00195 30.498 6.00195C30.0996 6.00195 29.7539 6.08691 29.4609 6.25684C29.1738 6.4209 28.9365 6.64941 28.749 6.94238C28.5615 7.23535 28.4238 7.57227 28.3359 7.95312C28.248 8.32812 28.2041 8.72656 28.2041 9.14844ZM47.2764 4.49023H49.2012V13.7363C49.2012 14.5918 49.0195 15.3184 48.6562 15.916C48.293 16.5137 47.7861 16.9678 47.1357 17.2783C46.4854 17.5947 45.7324 17.7529 44.877 17.7529C44.5137 17.7529 44.1094 17.7002 43.6641 17.5947C43.2246 17.4893 42.7969 17.3193 42.3809 17.085C41.9707 16.8564 41.6279 16.5547 41.3525 16.1797L42.3457 14.9316C42.6855 15.3359 43.0605 15.6318 43.4707 15.8193C43.8809 16.0068 44.3115 16.1006 44.7627 16.1006C45.249 16.1006 45.6621 16.0098 46.002 15.8281C46.3477 15.6523 46.6143 15.3916 46.8018 15.0459C46.9893 14.7002 47.083 14.2783 47.083 13.7803V6.64355L47.2764 4.49023ZM40.8164 9.35059V9.16602C40.8164 8.44531 40.9043 7.78906 41.0801 7.19727C41.2559 6.59961 41.5078 6.08691 41.8359 5.65918C42.1641 5.22559 42.5625 4.89453 43.0312 4.66602C43.5 4.43164 44.0303 4.31445 44.6221 4.31445C45.2373 4.31445 45.7617 4.42578 46.1953 4.64844C46.6348 4.87109 47.001 5.19043 47.2939 5.60645C47.5869 6.0166 47.8154 6.50879 47.9795 7.08301C48.1494 7.65137 48.2754 8.28418 48.3574 8.98145V9.57031C48.2812 10.25 48.1523 10.8711 47.9707 11.4336C47.7891 11.9961 47.5488 12.4824 47.25 12.8926C46.9512 13.3027 46.582 13.6191 46.1426 13.8418C45.709 14.0645 45.1963 14.1758 44.6045 14.1758C44.0244 14.1758 43.5 14.0557 43.0312 13.8154C42.5684 13.5752 42.1699 13.2383 41.8359 12.8047C41.5078 12.3711 41.2559 11.8613 41.0801 11.2754C40.9043 10.6836 40.8164 10.042 40.8164 9.35059ZM42.9346 9.16602V9.35059C42.9346 9.78418 42.9756 10.1885 43.0576 10.5635C43.1455 10.9385 43.2773 11.2695 43.4531 11.5566C43.6348 11.8379 43.8633 12.0605 44.1387 12.2246C44.4199 12.3828 44.751 12.4619 45.1318 12.4619C45.6299 12.4619 46.0371 12.3564 46.3535 12.1455C46.6758 11.9346 46.9219 11.6504 47.0918 11.293C47.2676 10.9297 47.3906 10.5254 47.4609 10.0801V8.48926C47.4258 8.14355 47.3525 7.82129 47.2412 7.52246C47.1357 7.22363 46.9922 6.96289 46.8105 6.74023C46.6289 6.51172 46.4004 6.33594 46.125 6.21289C45.8496 6.08398 45.5244 6.01953 45.1494 6.01953C44.7686 6.01953 44.4375 6.10156 44.1562 6.26562C43.875 6.42969 43.6436 6.65527 43.4619 6.94238C43.2861 7.22949 43.1543 7.56348 43.0664 7.94434C42.9785 8.3252 42.9346 8.73242 42.9346 9.16602ZM53.666 0.5V14H51.5391V0.5H53.666ZM55.582 9.35059V9.14844C55.582 8.46289 55.6816 7.82715 55.8809 7.24121C56.0801 6.64941 56.3672 6.13672 56.7422 5.70312C57.123 5.26367 57.5859 4.92383 58.1309 4.68359C58.6816 4.4375 59.3027 4.31445 59.9941 4.31445C60.6914 4.31445 61.3125 4.4375 61.8574 4.68359C62.4082 4.92383 62.874 5.26367 63.2549 5.70312C63.6357 6.13672 63.9258 6.64941 64.125 7.24121C64.3242 7.82715 64.4238 8.46289 64.4238 9.14844V9.35059C64.4238 10.0361 64.3242 10.6719 64.125 11.2578C63.9258 11.8438 63.6357 12.3564 63.2549 12.7959C62.874 13.2295 62.4111 13.5693 61.8662 13.8154C61.3213 14.0557 60.7031 14.1758 60.0117 14.1758C59.3145 14.1758 58.6904 14.0557 58.1396 13.8154C57.5947 13.5693 57.1318 13.2295 56.751 12.7959C56.3701 12.3564 56.0801 11.8438 55.8809 11.2578C55.6816 10.6719 55.582 10.0361 55.582 9.35059ZM57.7002 9.14844V9.35059C57.7002 9.77832 57.7441 10.1826 57.832 10.5635C57.9199 10.9443 58.0576 11.2783 58.2451 11.5654C58.4326 11.8525 58.6729 12.0781 58.9658 12.2422C59.2588 12.4062 59.6074 12.4883 60.0117 12.4883C60.4043 12.4883 60.7441 12.4062 61.0312 12.2422C61.3242 12.0781 61.5645 11.8525 61.752 11.5654C61.9395 11.2783 62.0771 10.9443 62.165 10.5635C62.2588 10.1826 62.3057 9.77832 62.3057 9.35059V9.14844C62.3057 8.72656 62.2588 8.32812 62.165 7.95312C62.0771 7.57227 61.9365 7.23535 61.7432 6.94238C61.5557 6.64941 61.3154 6.4209 61.0225 6.25684C60.7354 6.08691 60.3926 6.00195 59.9941 6.00195C59.5957 6.00195 59.25 6.08691 58.957 6.25684C58.6699 6.4209 58.4326 6.64941 58.2451 6.94238C58.0576 7.23535 57.9199 7.57227 57.832 7.95312C57.7441 8.32812 57.7002 8.72656 57.7002 9.14844ZM66.208 0.5H68.3262V11.9697L68.124 14H66.208V0.5ZM74.5312 9.15723V9.3418C74.5312 10.0449 74.4521 10.6924 74.2939 11.2842C74.1416 11.8701 73.9072 12.3799 73.5908 12.8135C73.2803 13.2471 72.8936 13.584 72.4307 13.8242C71.9736 14.0586 71.4434 14.1758 70.8398 14.1758C70.248 14.1758 69.7324 14.0645 69.293 13.8418C68.8535 13.6191 68.4844 13.3027 68.1855 12.8926C67.8926 12.4824 67.6553 11.9932 67.4736 11.4248C67.292 10.8564 67.1631 10.2295 67.0869 9.54395V8.95508C67.1631 8.26367 67.292 7.63672 67.4736 7.07422C67.6553 6.50586 67.8926 6.0166 68.1855 5.60645C68.4844 5.19043 68.8506 4.87109 69.2842 4.64844C69.7236 4.42578 70.2363 4.31445 70.8223 4.31445C71.4316 4.31445 71.9678 4.43164 72.4307 4.66602C72.8994 4.90039 73.2891 5.23438 73.5996 5.66797C73.9102 6.0957 74.1416 6.60547 74.2939 7.19727C74.4521 7.78906 74.5312 8.44238 74.5312 9.15723ZM72.4131 9.3418V9.15723C72.4131 8.72949 72.3779 8.32812 72.3076 7.95312C72.2373 7.57227 72.1201 7.23828 71.9561 6.95117C71.7979 6.66406 71.5811 6.43848 71.3057 6.27441C71.0361 6.10449 70.6992 6.01953 70.2949 6.01953C69.9199 6.01953 69.5977 6.08398 69.3281 6.21289C69.0586 6.3418 68.833 6.51758 68.6514 6.74023C68.4697 6.96289 68.3262 7.2207 68.2207 7.51367C68.1211 7.80664 68.0537 8.12305 68.0186 8.46289V10.0537C68.0713 10.4932 68.1826 10.8975 68.3525 11.2666C68.5283 11.6299 68.7744 11.9229 69.0908 12.1455C69.4072 12.3623 69.8145 12.4707 70.3125 12.4707C70.7051 12.4707 71.0361 12.3916 71.3057 12.2334C71.5752 12.0752 71.7891 11.8555 71.9473 11.5742C72.1113 11.2871 72.2285 10.9531 72.2988 10.5723C72.375 10.1914 72.4131 9.78125 72.4131 9.3418ZM81.6855 12.0928V7.55762C81.6855 7.21777 81.624 6.9248 81.501 6.67871C81.3779 6.43262 81.1904 6.24219 80.9385 6.10742C80.6924 5.97266 80.3818 5.90527 80.0068 5.90527C79.6611 5.90527 79.3623 5.96387 79.1104 6.08105C78.8584 6.19824 78.6621 6.35645 78.5215 6.55566C78.3809 6.75488 78.3105 6.98047 78.3105 7.23242H76.2012C76.2012 6.85742 76.292 6.49414 76.4736 6.14258C76.6553 5.79102 76.9189 5.47754 77.2646 5.20215C77.6104 4.92676 78.0234 4.70996 78.5039 4.55176C78.9844 4.39355 79.5234 4.31445 80.1211 4.31445C80.8359 4.31445 81.4688 4.43457 82.0195 4.6748C82.5762 4.91504 83.0127 5.27832 83.3291 5.76465C83.6514 6.24512 83.8125 6.84863 83.8125 7.5752V11.8027C83.8125 12.2363 83.8418 12.626 83.9004 12.9717C83.9648 13.3115 84.0557 13.6074 84.1729 13.8594V14H82.002C81.9023 13.7715 81.8232 13.4814 81.7646 13.1299C81.7119 12.7725 81.6855 12.4268 81.6855 12.0928ZM81.9932 8.2168L82.0107 9.52637H80.4902C80.0977 9.52637 79.752 9.56445 79.4531 9.64062C79.1543 9.71094 78.9053 9.81641 78.7061 9.95703C78.5068 10.0977 78.3574 10.2676 78.2578 10.4668C78.1582 10.666 78.1084 10.8916 78.1084 11.1436C78.1084 11.3955 78.167 11.627 78.2842 11.8379C78.4014 12.043 78.5713 12.2041 78.7939 12.3213C79.0225 12.4385 79.2979 12.4971 79.6201 12.4971C80.0537 12.4971 80.4316 12.4092 80.7539 12.2334C81.082 12.0518 81.3398 11.832 81.5273 11.5742C81.7148 11.3105 81.8145 11.0615 81.8262 10.8271L82.5117 11.7676C82.4414 12.0078 82.3213 12.2656 82.1514 12.541C81.9814 12.8164 81.7588 13.0801 81.4834 13.332C81.2139 13.5781 80.8887 13.7803 80.5078 13.9385C80.1328 14.0967 79.6992 14.1758 79.207 14.1758C78.5859 14.1758 78.0322 14.0527 77.5459 13.8066C77.0596 13.5547 76.6787 13.2178 76.4033 12.7959C76.1279 12.3682 75.9902 11.8848 75.9902 11.3457C75.9902 10.8418 76.084 10.3965 76.2715 10.0098C76.4648 9.61719 76.7461 9.28906 77.1152 9.02539C77.4902 8.76172 77.9473 8.5625 78.4863 8.42773C79.0254 8.28711 79.6406 8.2168 80.332 8.2168H81.9932ZM88.2949 0.5V14H86.168V0.5H88.2949Z" fill="#234A82"/>
</svg>
