<svg width="48" height="34" viewBox="0 0 48 34" fill="none" xmlns="http://www.w3.org/2000/svg">
<path d="M31.9998 0C29.084 0 26.3535 0.831808 23.9984 2.28096C21.646 0.831242 18.9155 0 15.9996 0C7.16208 0 0 7.60962 0 17.0017C0 26.3875 7.16208 34 15.9996 34C18.9155 34 21.646 33.1671 23.9984 31.719C26.3535 33.1676 29.084 34 31.9998 34C40.8353 34 48 26.3875 48 17.0017C48 7.60962 40.8353 0 31.9998 0ZM23.0584 2.9068C23.0456 2.91642 23.0339 2.92604 23.0217 2.93566C23.0339 2.92604 23.0456 2.91585 23.0584 2.9068ZM24.9352 31.096C24.9783 31.0649 25.0188 31.031 25.0614 30.9993C25.0188 31.031 24.9783 31.0649 24.9352 31.096ZM25.8384 30.3989C25.8438 30.3938 25.8491 30.3887 25.8544 30.3847C25.8491 30.3887 25.8438 30.3938 25.8384 30.3989ZM31.9998 29.7595C30.4026 29.7595 28.88 29.4268 27.4857 28.8247C28.464 27.753 29.313 26.5482 30 25.2338C31.2729 22.7932 31.9998 19.9877 31.9998 17.0017C31.9998 14.0134 31.2729 11.2079 30 8.76793C28.6686 9.13121 27.4756 9.85324 26.5084 10.8243C27.4628 12.6542 28.0087 14.7581 28.0087 17.0017C28.0087 24.046 22.6323 29.7595 15.9991 29.7595C9.36641 29.7595 3.99006 24.046 3.99006 17.0017C3.99006 9.95227 9.36641 4.24052 15.9991 4.24052C17.5958 4.24052 19.1195 4.57494 20.5127 5.17531C19.5349 6.24705 18.6865 7.45175 17.9995 8.76793C16.7266 11.2079 15.9996 14.0134 15.9996 17.0017C15.9996 19.9871 16.7266 22.7927 17.9995 25.2321C19.3293 24.8671 20.5228 24.1473 21.4894 23.1757C20.5351 21.3463 19.9902 19.2419 19.9902 17.0017C19.9902 9.95227 25.3666 4.24052 31.9993 4.24052C38.6325 4.24052 44.0089 9.95227 44.0089 17.0017C44.0094 24.046 38.6331 29.7595 31.9998 29.7595Z" fill="#274D82"/>
</svg>
