<svg width="354" height="329" viewBox="0 0 354 329" fill="none" xmlns="http://www.w3.org/2000/svg">
<circle cx="212.5" cy="120.5" r="9.5" fill="#274D82" fill-opacity="0.5"/>
<ellipse cx="178" cy="121" rx="15" ry="14" fill="#274D82" fill-opacity="0.5"/>
<path d="M44.9698 127.849C48.2272 112.843 64.1887 95.5527 62.0714 81.1987L36.1386 37.7218C59.3356 52.2751 46.1023 42.6795 59.3356 52.2751C73.4696 62.5239 81.636 68.9688 82.5933 86.4182C83.4077 101.262 65.0031 130.133 69.4007 149.87C73.1807 166.835 88.3942 170.869 105.721 171.89C125.805 173.073 153.28 147.912 153.28 147.912C153.28 147.912 127.069 137.08 116.471 123.445C101.421 104.084 95.2918 84.5579 104.418 61.7882C114.577 36.4427 137.097 25.0794 164.355 25.9031C190.316 26.6876 205.366 40.566 220.383 61.7882C238.764 87.7634 231.622 142.529 231.622 142.529C231.622 142.529 252.284 141.638 262.567 133.558C272.654 125.633 276.25 120.064 278.692 107.46C282.958 85.4396 262.242 72.3904 250.189 48.7391C241.714 32.1086 253.708 17.4957 264.132 2C261.481 6.6306 266.746 34.8872 273.806 44.9874C277.226 49.8808 292.642 60.4579 300.354 74.5111C309.319 90.8487 311.09 102.984 308.823 121.488C303.448 165.365 251.492 178.578 251.492 178.578C251.492 178.578 274.503 195.851 294.002 199.456C324.444 205.085 335.711 175.842 335.711 153.487V153.352C335.711 142.316 335.711 116.23 344.327 107.46C344.327 107.46 349.001 128.698 350.292 142.529C351.885 159.591 350.292 186.407 350.292 186.407C345.755 207.586 332.33 220.199 312.514 228.899C284.94 241.006 228.201 211.853 228.201 211.853C228.201 211.853 219.569 254.589 213.543 269.432C207.517 284.275 209.535 303.517 224.618 309.558C236.296 314.235 256.842 314.896 271.423 320.188C248.791 326.142 205.368 333.163 190.904 309.558C178.907 289.98 180.805 274.815 187.483 250.837C194.161 226.859 184.063 208.591 184.063 208.591C184.063 208.591 170.124 248.222 149.208 261.276C133.379 271.156 123.047 270.356 104.418 269.432C85.7897 268.508 52.4209 247.703 45.4174 244.114C38.4139 240.526 8.92923 235.484 3 240.145C11.069 225.23 25.181 221.948 33.4875 221.623C59.1233 220.618 88.8244 246.385 113.376 238.93C143.996 229.632 146.602 197.499 146.602 197.499C146.602 197.499 92.2028 221.966 59.3026 186.407C43.3231 169.136 39.9756 150.857 44.9698 127.849Z" stroke="#274D82" stroke-opacity="0.5" stroke-width="5"/>
</svg>
