<svg width="90" height="19" viewBox="0 0 90 19" fill="none" xmlns="http://www.w3.org/2000/svg">
<path d="M5.04 5.442C5.868 5.442 6.6 5.61 7.236 5.946C7.884 6.27 8.394 6.792 8.766 7.512C9.15 8.232 9.342 9.18 9.342 10.356C9.342 11.532 9.15 12.48 8.766 13.2C8.394 13.92 7.884 14.442 7.236 14.766C6.6 15.09 5.868 15.252 5.04 15.252C4.212 15.252 3.474 15.09 2.826 14.766C2.178 14.442 1.668 13.92 1.296 13.2C0.924 12.48 0.738 11.532 0.738 10.356C0.738 9.18 0.924 8.232 1.296 7.512C1.668 6.792 2.178 6.27 2.826 5.946C3.474 5.61 4.212 5.442 5.04 5.442ZM5.04 5.802C4.476 5.802 4.014 6.162 3.654 6.882C3.306 7.59 3.132 8.748 3.132 10.356C3.132 11.964 3.306 13.122 3.654 13.83C4.014 14.538 4.476 14.892 5.04 14.892C5.592 14.892 6.048 14.538 6.408 13.83C6.768 13.122 6.948 11.964 6.948 10.356C6.948 8.748 6.768 7.59 6.408 6.882C6.048 6.162 5.592 5.802 5.04 5.802ZM15.1307 5.442C15.5747 5.442 15.9827 5.496 16.3547 5.604C16.7387 5.7 17.0687 5.838 17.3447 6.018C17.6327 6.198 17.8607 6.426 18.0287 6.702C18.1967 6.966 18.2807 7.26 18.2807 7.584C18.2807 7.98 18.1607 8.298 17.9207 8.538C17.6807 8.778 17.3807 8.898 17.0207 8.898C16.6487 8.898 16.3427 8.79 16.1027 8.574C15.8747 8.358 15.7607 8.07 15.7607 7.71C15.7607 7.362 15.8627 7.074 16.0667 6.846C16.2707 6.618 16.5167 6.468 16.8047 6.396C16.6967 6.24 16.5287 6.114 16.3007 6.018C16.0727 5.91 15.8207 5.856 15.5447 5.856C15.1847 5.856 14.8607 5.952 14.5727 6.144C14.2847 6.324 14.0327 6.6 13.8167 6.972C13.6127 7.332 13.4507 7.782 13.3307 8.322C13.2227 8.85 13.1687 9.462 13.1687 10.158C13.1687 11.13 13.2827 11.898 13.5107 12.462C13.7507 13.026 14.0567 13.428 14.4287 13.668C14.8007 13.896 15.1967 14.01 15.6167 14.01C15.8687 14.01 16.1387 13.962 16.4267 13.866C16.7147 13.77 16.9967 13.608 17.2727 13.38C17.5607 13.152 17.8187 12.828 18.0467 12.408L18.3887 12.534C18.2567 12.954 18.0407 13.374 17.7407 13.794C17.4527 14.214 17.0747 14.562 16.6067 14.838C16.1387 15.114 15.5687 15.252 14.8967 15.252C14.1287 15.252 13.4327 15.078 12.8087 14.73C12.1847 14.37 11.6867 13.83 11.3147 13.11C10.9547 12.39 10.7747 11.496 10.7747 10.428C10.7747 9.372 10.9607 8.478 11.3327 7.746C11.7047 7.002 12.2207 6.432 12.8807 6.036C13.5527 5.64 14.3027 5.442 15.1307 5.442ZM22.8016 2.742V5.712H25.1056V6.072H22.8016V13.236C22.8016 13.668 22.8796 13.974 23.0356 14.154C23.1916 14.334 23.4136 14.424 23.7016 14.424C23.9776 14.424 24.2296 14.322 24.4576 14.118C24.6856 13.902 24.8896 13.548 25.0696 13.056L25.3936 13.2C25.2136 13.788 24.9316 14.28 24.5476 14.676C24.1756 15.06 23.6476 15.252 22.9636 15.252C22.5556 15.252 22.2076 15.198 21.9196 15.09C21.6436 14.994 21.4036 14.85 21.1996 14.658C20.9356 14.382 20.7556 14.052 20.6596 13.668C20.5756 13.284 20.5336 12.774 20.5336 12.138V6.072H18.9496V5.712H20.5336V3.21C20.9656 3.198 21.3676 3.156 21.7396 3.084C22.1116 3.012 22.4656 2.898 22.8016 2.742ZM30.2646 5.442C31.0926 5.442 31.8246 5.61 32.4606 5.946C33.1086 6.27 33.6186 6.792 33.9906 7.512C34.3746 8.232 34.5666 9.18 34.5666 10.356C34.5666 11.532 34.3746 12.48 33.9906 13.2C33.6186 13.92 33.1086 14.442 32.4606 14.766C31.8246 15.09 31.0926 15.252 30.2646 15.252C29.4366 15.252 28.6986 15.09 28.0506 14.766C27.4026 14.442 26.8926 13.92 26.5206 13.2C26.1486 12.48 25.9626 11.532 25.9626 10.356C25.9626 9.18 26.1486 8.232 26.5206 7.512C26.8926 6.792 27.4026 6.27 28.0506 5.946C28.6986 5.61 29.4366 5.442 30.2646 5.442ZM30.2646 5.802C29.7006 5.802 29.2386 6.162 28.8786 6.882C28.5306 7.59 28.3566 8.748 28.3566 10.356C28.3566 11.964 28.5306 13.122 28.8786 13.83C29.2386 14.538 29.7006 14.892 30.2646 14.892C30.8166 14.892 31.2726 14.538 31.6326 13.83C31.9926 13.122 32.1726 11.964 32.1726 10.356C32.1726 8.748 31.9926 7.59 31.6326 6.882C31.2726 6.162 30.8166 5.802 30.2646 5.802ZM43.4739 18.384C42.7659 18.384 42.1239 18.318 41.5479 18.186C40.9719 18.054 40.5159 17.856 40.1799 17.592C39.8439 17.34 39.6759 17.016 39.6759 16.62C39.6759 16.236 39.8439 15.894 40.1799 15.594C40.5159 15.294 41.0079 15.066 41.6559 14.91L41.7819 15.198C41.5539 15.33 41.3799 15.51 41.2599 15.738C41.1399 15.966 41.0799 16.206 41.0799 16.458C41.0799 16.974 41.3139 17.37 41.7819 17.646C42.2619 17.934 42.8979 18.078 43.6899 18.078C44.2299 18.078 44.7279 18.006 45.1839 17.862C45.6399 17.718 46.0059 17.496 46.2819 17.196C46.5579 16.896 46.6959 16.524 46.6959 16.08C46.6959 15.708 46.5579 15.396 46.2819 15.144C46.0179 14.892 45.4839 14.766 44.6799 14.766H43.4919C43.0479 14.766 42.6399 14.718 42.2679 14.622C41.9079 14.526 41.6199 14.37 41.4039 14.154C41.1879 13.938 41.0799 13.638 41.0799 13.254C41.0799 12.786 41.2719 12.366 41.6559 11.994C42.0399 11.61 42.6399 11.238 43.4559 10.878L43.6539 11.04C43.3539 11.196 43.0839 11.364 42.8439 11.544C42.6159 11.724 42.5019 11.952 42.5019 12.228C42.5019 12.612 42.7659 12.804 43.2939 12.804H45.3279C45.9519 12.804 46.5039 12.882 46.9839 13.038C47.4759 13.194 47.8659 13.44 48.1539 13.776C48.4419 14.112 48.5859 14.556 48.5859 15.108C48.5859 15.684 48.3999 16.218 48.0279 16.71C47.6559 17.214 47.0919 17.616 46.3359 17.916C45.5919 18.228 44.6379 18.384 43.4739 18.384ZM43.6359 11.166C42.9879 11.166 42.3999 11.07 41.8719 10.878C41.3559 10.674 40.9479 10.362 40.6479 9.942C40.3479 9.51 40.1979 8.964 40.1979 8.304C40.1979 7.644 40.3479 7.104 40.6479 6.684C40.9479 6.264 41.3559 5.952 41.8719 5.748C42.3999 5.544 42.9879 5.442 43.6359 5.442C44.2959 5.442 44.8839 5.544 45.3999 5.748C45.9159 5.952 46.3239 6.264 46.6239 6.684C46.9239 7.104 47.0739 7.644 47.0739 8.304C47.0739 8.964 46.9239 9.51 46.6239 9.942C46.3239 10.362 45.9159 10.674 45.3999 10.878C44.8839 11.07 44.2959 11.166 43.6359 11.166ZM43.6359 10.842C43.9959 10.842 44.2779 10.662 44.4819 10.302C44.6979 9.93 44.8059 9.264 44.8059 8.304C44.8059 7.344 44.6979 6.684 44.4819 6.324C44.2779 5.952 43.9959 5.766 43.6359 5.766C43.2759 5.766 42.9879 5.952 42.7719 6.324C42.5679 6.684 42.4659 7.344 42.4659 8.304C42.4659 9.264 42.5679 9.93 42.7719 10.302C42.9879 10.662 43.2759 10.842 43.6359 10.842ZM46.3539 6.972L46.0119 6.846C46.1919 6.402 46.4859 6.03 46.8939 5.73C47.3019 5.418 47.7339 5.262 48.1899 5.262C48.5379 5.262 48.8079 5.358 48.9999 5.55C49.2039 5.742 49.3059 6.012 49.3059 6.36C49.3059 6.72 49.2099 6.984 49.0179 7.152C48.8259 7.32 48.6159 7.404 48.3879 7.404C48.1839 7.404 47.9979 7.338 47.8299 7.206C47.6619 7.062 47.5659 6.846 47.5419 6.558C47.5179 6.258 47.6139 5.886 47.8299 5.442L48.0099 5.514C47.5419 5.694 47.1939 5.892 46.9659 6.108C46.7379 6.324 46.5339 6.612 46.3539 6.972ZM53.2465 0.905999V13.326C53.2465 13.83 53.3365 14.172 53.5165 14.352C53.7085 14.532 54.0265 14.622 54.4705 14.622V15C54.2545 14.988 53.9245 14.976 53.4805 14.964C53.0485 14.94 52.6045 14.928 52.1485 14.928C51.7045 14.928 51.2485 14.94 50.7805 14.964C50.3245 14.976 49.9825 14.988 49.7545 15V14.622C50.1985 14.622 50.5105 14.532 50.6905 14.352C50.8825 14.172 50.9785 13.83 50.9785 13.326V3.066C50.9785 2.526 50.8945 2.13 50.7265 1.878C50.5585 1.614 50.2345 1.482 49.7545 1.482V1.104C50.1385 1.14 50.5105 1.158 50.8705 1.158C51.3265 1.158 51.7525 1.14 52.1485 1.104C52.5445 1.056 52.9105 0.989999 53.2465 0.905999ZM59.708 5.442C60.536 5.442 61.268 5.61 61.904 5.946C62.552 6.27 63.062 6.792 63.434 7.512C63.818 8.232 64.01 9.18 64.01 10.356C64.01 11.532 63.818 12.48 63.434 13.2C63.062 13.92 62.552 14.442 61.904 14.766C61.268 15.09 60.536 15.252 59.708 15.252C58.88 15.252 58.142 15.09 57.494 14.766C56.846 14.442 56.336 13.92 55.964 13.2C55.592 12.48 55.406 11.532 55.406 10.356C55.406 9.18 55.592 8.232 55.964 7.512C56.336 6.792 56.846 6.27 57.494 5.946C58.142 5.61 58.88 5.442 59.708 5.442ZM59.708 5.802C59.144 5.802 58.682 6.162 58.322 6.882C57.974 7.59 57.8 8.748 57.8 10.356C57.8 11.964 57.974 13.122 58.322 13.83C58.682 14.538 59.144 14.892 59.708 14.892C60.26 14.892 60.716 14.538 61.076 13.83C61.436 13.122 61.616 11.964 61.616 10.356C61.616 8.748 61.436 7.59 61.076 6.882C60.716 6.162 60.26 5.802 59.708 5.802ZM71.0947 5.442C72.0307 5.442 72.8107 5.838 73.4347 6.63C74.0707 7.41 74.3887 8.598 74.3887 10.194C74.3887 11.382 74.2027 12.354 73.8307 13.11C73.4587 13.854 72.9607 14.4 72.3367 14.748C71.7127 15.084 71.0347 15.252 70.3027 15.252C69.7867 15.252 69.2887 15.144 68.8087 14.928C68.3407 14.7 67.9627 14.346 67.6747 13.866H67.9807C68.2207 14.202 68.5087 14.454 68.8447 14.622C69.1927 14.778 69.5407 14.856 69.8887 14.856C70.5967 14.856 71.1247 14.49 71.4727 13.758C71.8207 13.014 71.9947 11.88 71.9947 10.356C71.9947 9.348 71.9227 8.538 71.7787 7.926C71.6467 7.302 71.4487 6.852 71.1847 6.576C70.9207 6.288 70.5907 6.144 70.1947 6.144C69.7267 6.144 69.2947 6.342 68.8987 6.738C68.5147 7.134 68.2927 7.698 68.2327 8.43L68.1067 7.926C68.2987 7.134 68.6587 6.522 69.1867 6.09C69.7267 5.658 70.3627 5.442 71.0947 5.442ZM68.3047 0.905999V14.46C68.0527 14.472 67.7947 14.52 67.5307 14.604C67.2667 14.676 67.0207 14.772 66.7927 14.892C66.5647 15 66.3667 15.132 66.1987 15.288L65.9107 15.144C65.9707 14.976 66.0067 14.808 66.0187 14.64C66.0307 14.472 66.0367 14.298 66.0367 14.118V3.066C66.0367 2.526 65.9467 2.13 65.7667 1.878C65.5987 1.614 65.2807 1.482 64.8127 1.482V1.104C65.1967 1.14 65.5687 1.158 65.9287 1.158C66.3847 1.158 66.8107 1.14 67.2067 1.104C67.6027 1.056 67.9687 0.989999 68.3047 0.905999ZM78.0989 15.126C77.5829 15.126 77.1449 15.03 76.7849 14.838C76.4249 14.634 76.1549 14.364 75.9749 14.028C75.7949 13.68 75.7049 13.296 75.7049 12.876C75.7049 12.36 75.8249 11.94 76.0649 11.616C76.3049 11.28 76.6109 11.016 76.9829 10.824C77.3669 10.62 77.7689 10.452 78.1889 10.32C78.6089 10.176 79.0049 10.044 79.3769 9.924C79.7489 9.792 80.0549 9.642 80.2949 9.474C80.5349 9.306 80.6549 9.084 80.6549 8.808V7.494C80.6549 7.11 80.5949 6.798 80.4749 6.558C80.3669 6.306 80.1989 6.12 79.9709 6C79.7549 5.868 79.4789 5.802 79.1429 5.802C78.8909 5.802 78.6269 5.838 78.3509 5.91C78.0749 5.982 77.8469 6.12 77.6669 6.324C77.9789 6.408 78.2189 6.564 78.3869 6.792C78.5669 7.02 78.6569 7.296 78.6569 7.62C78.6569 7.992 78.5309 8.286 78.2789 8.502C78.0389 8.706 77.7329 8.808 77.3609 8.808C76.9649 8.808 76.6649 8.682 76.4609 8.43C76.2569 8.178 76.1549 7.884 76.1549 7.548C76.1549 7.212 76.2389 6.936 76.4069 6.72C76.5749 6.492 76.8089 6.288 77.1089 6.108C77.4089 5.904 77.7929 5.742 78.2609 5.622C78.7289 5.502 79.2389 5.442 79.7909 5.442C80.3189 5.442 80.7869 5.502 81.1949 5.622C81.6029 5.73 81.9509 5.928 82.2389 6.216C82.5269 6.492 82.7129 6.834 82.7969 7.242C82.8809 7.65 82.9229 8.148 82.9229 8.736V13.668C82.9229 13.968 82.9589 14.184 83.0309 14.316C83.1029 14.436 83.2169 14.496 83.3729 14.496C83.4929 14.496 83.6069 14.466 83.7149 14.406C83.8229 14.346 83.9429 14.262 84.0749 14.154L84.2729 14.46C84.0089 14.664 83.7329 14.826 83.4449 14.946C83.1569 15.066 82.8089 15.126 82.4009 15.126C81.9809 15.126 81.6449 15.066 81.3929 14.946C81.1529 14.826 80.9729 14.652 80.8529 14.424C80.7449 14.196 80.6849 13.926 80.6729 13.614C80.3849 14.094 80.0309 14.466 79.6109 14.73C79.1909 14.994 78.6869 15.126 78.0989 15.126ZM79.1789 14.118C79.4669 14.118 79.7309 14.04 79.9709 13.884C80.2229 13.728 80.4509 13.494 80.6549 13.182V9.546C80.5349 9.726 80.3609 9.888 80.1329 10.032C79.9169 10.176 79.6829 10.32 79.4309 10.464C79.1789 10.608 78.9389 10.776 78.7109 10.968C78.4949 11.148 78.3089 11.376 78.1529 11.652C78.0089 11.916 77.9369 12.258 77.9369 12.678C77.9369 13.146 78.0509 13.506 78.2789 13.758C78.5069 13.998 78.8069 14.118 79.1789 14.118ZM88.1743 0.905999V13.326C88.1743 13.83 88.2643 14.172 88.4443 14.352C88.6363 14.532 88.9543 14.622 89.3983 14.622V15C89.1823 14.988 88.8523 14.976 88.4083 14.964C87.9763 14.94 87.5323 14.928 87.0763 14.928C86.6323 14.928 86.1763 14.94 85.7083 14.964C85.2523 14.976 84.9103 14.988 84.6823 15V14.622C85.1263 14.622 85.4383 14.532 85.6183 14.352C85.8103 14.172 85.9063 13.83 85.9063 13.326V3.066C85.9063 2.526 85.8223 2.13 85.6543 1.878C85.4863 1.614 85.1623 1.482 84.6823 1.482V1.104C85.0663 1.14 85.4383 1.158 85.7983 1.158C86.2543 1.158 86.6803 1.14 87.0763 1.104C87.4723 1.056 87.8383 0.989999 88.1743 0.905999Z" fill="#274D82"/>
</svg>
