<svg width="23" height="23" viewBox="0 0 23 23" fill="none" xmlns="http://www.w3.org/2000/svg">
<path fill-rule="evenodd" clip-rule="evenodd" d="M23 11.5C23 17.8513 17.8513 23 11.5 23C5.14873 23 0 17.8513 0 11.5C0 5.14873 5.14873 0 11.5 0C17.8513 0 23 5.14873 23 11.5ZM6.84961 12.0629C6.45797 12.8327 6.90264 13.2007 7.91719 13.8294C8.77966 14.3622 9.97113 14.5571 10.7365 14.635L10.7366 14.635C10.6367 14.7311 10.7144 14.6563 10.733 14.6384L7.72041 17.5362C6.84258 18.3776 8.2558 19.7276 9.133 18.9041L11.5077 16.6137L11.5518 16.6561L11.5524 16.6566C12.4454 17.5157 13.2981 18.336 13.8825 18.9073C14.7603 19.734 16.1729 18.3955 15.3047 17.5394C15.2759 17.5121 14.6473 16.9092 13.9697 16.2593C13.11 15.4348 12.1713 14.5346 12.2789 14.6382C13.0539 14.5603 14.2275 14.3539 15.0798 13.8326L15.0791 13.8319C16.0937 13.2001 16.5384 12.8327 16.1525 12.0629C15.9193 11.6259 15.2906 11.2604 14.4537 11.8923C14.4537 11.8923 13.3235 12.758 11.5007 12.758C9.67733 12.758 8.54778 11.8923 8.54778 11.8923C7.71147 11.2572 7.08025 11.6259 6.84961 12.0629ZM15.5359 7.71646C15.5359 9.85417 13.7215 11.5907 11.4994 11.5907C9.27671 11.5907 7.46227 9.85417 7.46227 7.71646C7.46227 5.56979 9.27671 3.83329 11.4994 3.83329C13.7215 3.83329 15.5359 5.56979 15.5359 7.71646ZM13.4819 7.71646C13.4819 6.65718 12.5913 5.80043 11.4994 5.80043C10.4069 5.80043 9.5163 6.65654 9.51694 7.71646C9.51694 8.76679 10.4075 9.62354 11.4994 9.62354C12.5913 9.62354 13.4819 8.76679 13.4819 7.71646Z" fill="white"/>
</svg>
