<svg width="23" height="23" viewBox="0 0 23 23" fill="none" xmlns="http://www.w3.org/2000/svg">
<circle cx="12" cy="12" r="9" fill="white"/>
<path fill-rule="evenodd" clip-rule="evenodd" d="M23 11.5C23 17.8513 17.8513 23 11.5 23C5.14873 23 0 17.8513 0 11.5C0 5.14873 5.14873 0 11.5 0C17.8513 0 23 5.14873 23 11.5ZM6.84968 12.0629C6.45804 12.8328 6.9027 13.2008 7.91726 13.8294C8.77973 14.3622 9.9712 14.5571 10.7366 14.6351L10.7367 14.6351C10.6368 14.7311 10.7145 14.6563 10.7331 14.6384L7.72048 17.5363C6.84265 18.3777 8.25587 19.7277 9.13306 18.9041L11.5078 16.6137L11.5521 16.6563C12.4452 17.5155 13.2981 18.336 13.8826 18.9073C14.7604 19.734 16.173 18.3956 15.3047 17.5395C15.276 17.5121 14.6472 16.9091 13.9695 16.2591C13.1098 15.4346 12.1714 14.5347 12.279 14.6383C13.0539 14.5603 14.2276 14.354 15.0798 13.8326L15.0792 13.832C16.0938 13.2001 16.5384 12.8328 16.1525 12.0629C15.9193 11.6259 15.2907 11.2604 14.4537 11.8923C14.4537 11.8923 13.3235 12.758 11.5008 12.758C9.6774 12.758 8.54784 11.8923 8.54784 11.8923C7.71154 11.2572 7.08031 11.6259 6.84968 12.0629ZM15.536 7.71666C15.536 9.85438 13.7215 11.5909 11.4995 11.5909C9.2768 11.5909 7.46235 9.85438 7.46235 7.71666C7.46235 5.56999 9.2768 3.8335 11.4995 3.8335C13.7215 3.8335 15.536 5.56999 15.536 7.71666ZM13.482 7.71666C13.482 6.65738 12.5914 5.80063 11.4995 5.80063C10.407 5.80063 9.51638 6.65674 9.51702 7.71666C9.51702 8.76699 10.4076 9.62374 11.4995 9.62374C12.5914 9.62374 13.482 8.76699 13.482 7.71666Z" fill="#EE8208"/>
</svg>
