<svg width="23" height="23" viewBox="0 0 23 23" fill="none" xmlns="http://www.w3.org/2000/svg">
<path d="M23 11.5C23 17.8513 17.8513 23 11.5 23C5.14873 23 0 17.8513 0 11.5C0 5.14873 5.14873 0 11.5 0C17.8513 0 23 5.14873 23 11.5Z" fill="#22A0DC"/>
<path fill-rule="evenodd" clip-rule="evenodd" d="M17.0272 7.05566L6.18658 11.7408L8.63537 12.715L11.7933 10.37C12.4867 9.85509 13.3592 10.7084 12.8948 11.4473L11.2209 14.1109L15.4072 16.937L17.0272 7.05566ZM16.9271 6.06338C17.4889 5.82057 18.0901 6.31097 17.9887 6.92935L16.2827 17.336C16.1898 17.9021 15.5628 18.1838 15.0963 17.8689L10.5836 14.8225C10.2282 14.5826 10.1277 14.0924 10.3585 13.7251L11.6692 11.6395L9.11019 13.5398C8.89811 13.6973 8.62304 13.7337 8.37911 13.6367L5.49437 12.4891C4.84532 12.2309 4.83219 11.2907 5.47377 11.0134L16.9271 6.06338Z" fill="white"/>
</svg>
