<svg width="23" height="23" viewBox="0 0 23 23" fill="none" xmlns="http://www.w3.org/2000/svg">
<path fill-rule="evenodd" clip-rule="evenodd" d="M11.5 23C17.8513 23 23 17.8513 23 11.5C23 5.14873 17.8513 0 11.5 0C5.14873 0 0 5.14873 0 11.5C0 17.8513 5.14873 23 11.5 23ZM18.1955 6.68355C18.3056 6.06678 17.6943 5.57161 17.1192 5.81185L4.31875 11.1596C3.64243 11.4421 3.6825 12.4196 4.37964 12.6452L7.25372 13.5749C7.47961 13.648 7.7262 13.6146 7.92486 13.4841L11.4171 11.1887L9.66844 13.3461C9.37685 13.7058 9.45379 14.2397 9.83491 14.5012L15.0356 18.07C15.5068 18.3933 16.1526 18.1206 16.2535 17.5557L18.1955 6.68355ZM5.38022 11.8596L17.0777 6.97265L15.2923 16.968L10.6622 13.7907L13.2986 10.5382C13.8668 9.83712 13.0112 8.8796 12.2584 9.37435L7.45579 12.531L5.38022 11.8596Z" fill="white"/>
</svg>
