<svg width="43" height="43" viewBox="0 0 43 43" fill="none" xmlns="http://www.w3.org/2000/svg">
<path fill-rule="evenodd" clip-rule="evenodd" d="M26.2981 7.95738L28.7507 10.3694L28.25 10.8619L25.083 7.74726L28.6278 4.64844L29.0982 5.16892L26.8321 7.14998C28.5266 6.87955 29.9389 6.99036 31.1077 7.3898C32.5721 7.89027 33.6209 8.8326 34.3494 9.97601C35.7941 12.2438 35.9892 15.314 35.743 17.4322L35.0395 17.3531C35.2769 15.31 35.0731 12.4236 33.7493 10.3458C33.0935 9.31636 32.1658 8.48864 30.8753 8.0476C29.7032 7.64702 28.2047 7.5563 26.2981 7.95738Z" fill="#274D82"/>
<path fill-rule="evenodd" clip-rule="evenodd" d="M0 0H23.8889V17.8782H23.2125V0.67156H0.676414V23.7338H16.968V24.4054H0V0ZM12.5117 14.2868C13.9426 12.1531 15.0398 9.71958 15.6102 8.13413L16.2472 8.36C15.6627 9.98492 14.5426 12.4701 13.0748 14.659C12.9485 14.8473 12.8194 15.0338 12.6877 15.2175L16.1678 18.6727L15.6895 19.1475L12.2815 15.764C11.7606 16.4392 11.2032 17.064 10.6153 17.5955C9.71881 18.4058 8.73399 19.0152 7.68462 19.2384L7.54289 18.5818C8.43367 18.3923 9.31394 17.8636 10.1599 17.0989C10.7327 16.5811 11.2817 15.9623 11.7989 15.2848L6.6817 10.2043L7.16 9.72947L12.2024 14.7357C12.307 14.588 12.4102 14.4383 12.5117 14.2868Z" fill="#274D82"/>
<path fill-rule="evenodd" clip-rule="evenodd" d="M11.0093 7.37553H4.77734V8.13487H17.9162V7.37553H11.6843V5.81055H11.0093V7.37553Z" fill="#274D82"/>
<path fill-rule="evenodd" clip-rule="evenodd" d="M19.0932 19.7568H43.0004V43.0001H19.0932V19.7568ZM19.7801 20.415V42.3419H42.3135V20.415H19.7801ZM30.3233 23.938L36.639 37.8202L36.0093 38.0832L34.4123 34.5728H26.7902L25.3864 38.0699L24.7453 37.8336L30.3233 23.938ZM27.0544 33.9147H34.1129L30.3631 25.6724L27.0544 33.9147ZM7.0666 32.5033C5.94011 30.4943 5.83943 27.8875 6.07861 26.1114L6.75985 26.1957C6.52994 27.9029 6.64035 30.3525 7.6717 32.1919C8.18305 33.1038 8.91542 33.8573 9.94006 34.3081C10.8469 34.7071 12.0089 34.8806 13.494 34.6891L11.438 32.4379L11.9549 32.0045L14.5769 34.8754L12.7003 38.1116L12.0999 37.7919L13.5158 35.3501C11.9601 35.5406 10.6858 35.3604 9.6534 34.9062C8.46742 34.3844 7.63418 33.5156 7.0666 32.5033Z" fill="#274D82"/>
</svg>
