<svg width="35" height="37" viewBox="0 0 35 37" fill="none" xmlns="http://www.w3.org/2000/svg">
<path fill-rule="evenodd" clip-rule="evenodd" d="M21.4868 6.43796L23.4059 8.48044L23.0066 8.90543L20.5176 6.25646L23.3033 3.62109L23.6785 4.0703L21.9114 5.74203C23.2352 5.51558 24.3395 5.61026 25.2541 5.94854C26.4046 6.37402 27.2285 7.17518 27.8007 8.14713C28.9354 10.0746 29.0884 12.6835 28.8952 14.4832L28.3341 14.4149C28.5204 12.6801 28.3604 10.2298 27.3222 8.46623C26.8079 7.59269 26.0805 6.89045 25.0688 6.51626C24.1514 6.17699 22.9788 6.09954 21.4868 6.43796Z" fill="#274D82"/>
<path fill-rule="evenodd" clip-rule="evenodd" d="M0 0H19.3103V15.0278H18.755V0.573421H0.555337V19.9438H13.7141V20.5172H0V0ZM10.1099 12.0074C11.2657 10.2148 12.1521 8.17023 12.6128 6.83822L13.1358 7.03108C12.6634 8.39679 11.7583 10.4855 10.5721 12.3252C10.4707 12.4824 10.3671 12.6381 10.2614 12.7915L13.0707 15.6922L12.678 16.0977L9.92797 13.2581C9.50786 13.8241 9.05828 14.3479 8.5842 14.7936C7.85956 15.4749 7.06318 15.9874 6.21428 16.1753L6.09792 15.6146C6.81661 15.4556 7.52716 15.0119 8.21032 14.3696C8.67204 13.9355 9.11466 13.4169 9.53173 12.849L5.39991 8.58259L5.79259 8.17712L9.86303 12.3801C9.94649 12.2575 10.0288 12.1331 10.1099 12.0074Z" fill="#274D82"/>
<path fill-rule="evenodd" clip-rule="evenodd" d="M8.76859 6.44273H3.62109V7.24192H14.4832V6.44273H9.33567V4.82812H8.76859V6.44273Z" fill="#274D82"/>
<path fill-rule="evenodd" clip-rule="evenodd" d="M15.5163 16.8965H35.0005V36.2068H15.5163V16.8965ZM16.0849 17.4518V35.6515H34.432V17.4518H16.0849ZM24.6688 20.3614L29.8181 31.8993L29.2968 32.1212L27.997 29.2087H21.794L20.6516 32.1099L20.1209 31.9105L24.6688 20.3614ZM22.0127 28.6534H27.7492L24.7017 21.8248L22.0127 28.6534ZM5.71981 27.4879C4.80153 25.8184 4.71957 23.6526 4.91447 22.1773L5.47838 22.2483C5.29114 23.6656 5.38115 25.6987 6.22068 27.225C6.63686 27.9817 7.2328 28.6066 8.06643 28.9805C8.80254 29.3106 9.74557 29.4547 10.9507 29.2976L9.2814 27.4343L9.70929 27.0686L11.8473 29.455L10.3171 32.1451L9.82004 31.8754L10.9691 29.8553C9.70513 30.0117 8.6691 29.8619 7.82915 29.4852C6.86197 29.0514 6.18254 28.3291 5.71981 27.4879Z" fill="#274D82"/>
</svg>
