<svg width="100%" height="100%" viewBox="0 0 43 43" fill="none" xmlns="http://www.w3.org/2000/svg">
<path fill-rule="evenodd" clip-rule="evenodd" d="M26.77 8.0851L29.2968 10.4767L28.7659 10.9791L25.4814 7.87042L29.1573 4.77783L29.6561 5.30891L27.3336 7.26287C29.0752 6.99924 30.5286 7.11061 31.7329 7.50673C33.2507 8.00595 34.3378 8.94596 35.0927 10.0863C36.5895 12.3474 36.7913 15.4078 36.5364 17.5186L35.7905 17.4379C36.0361 15.4037 35.825 12.5309 34.4565 10.4635C33.7786 9.43957 32.8199 8.6165 31.4865 8.17792C30.2786 7.78063 28.7345 7.68957 26.77 8.0851Z" fill="#C4C4C4"/>
<path fill-rule="evenodd" clip-rule="evenodd" d="M0 0H23.8889V17.4961H23.1964V0.672926H0.692431V23.2159H16.9646V23.8889H0V0ZM12.5045 13.9786C13.9339 11.8922 15.0301 9.51233 15.5999 7.96195L16.252 8.18828C15.6677 9.77821 14.5481 12.2098 13.0809 14.3516C12.9559 14.534 12.8282 14.7146 12.6979 14.8926L16.1707 18.2675L15.6811 18.7434L12.2821 15.4401C11.763 16.0982 11.2075 16.7071 10.6217 17.2254C9.72527 18.0187 8.73986 18.6157 7.68929 18.8345L7.5442 18.1765C8.43243 17.9915 9.31081 17.4754 10.1555 16.7279C10.7259 16.2232 11.2727 15.6202 11.7881 14.96L6.6795 9.99534L7.16912 9.51951L12.2011 14.4098C12.3037 14.2679 12.4048 14.1241 12.5045 13.9786Z" fill="#C4C4C4"/>
<path fill-rule="evenodd" clip-rule="evenodd" d="M10.8129 6.90129H4.77783V7.96302H17.5186V6.90129H11.4835V4.77783H10.8129V6.90129Z" fill="#C4C4C4"/>
<path fill-rule="evenodd" clip-rule="evenodd" d="M19.3437 19.1112H42.9997V43.0001H19.3437V19.1112ZM20.0395 19.8036V42.3076H42.304V19.8036H20.0395ZM30.4558 23.3921L36.7089 37.6685L36.0711 37.9452L34.4941 34.3447H26.9685L25.5824 37.9311L24.933 37.6826L30.4558 23.3921ZM27.2361 33.6523H34.1908L30.4961 25.2168L27.2361 33.6523ZM7.4528 32.2149C6.33778 30.1493 6.23834 27.47 6.47495 25.645L7.16499 25.7336C6.93776 27.4862 7.04705 30.0001 8.06571 31.8872C8.57065 32.8226 9.2936 33.595 10.3048 34.0571C11.1967 34.4647 12.3392 34.643 13.7991 34.4498L11.7763 32.1492L12.2999 31.6932L14.8963 34.6462L13.038 37.975L12.4298 37.6387L13.8219 35.145C12.2897 35.3375 11.0334 35.152 10.0145 34.6864C8.83982 34.1495 8.0147 33.2558 7.4528 32.2149Z" fill="#C4C4C4"/>
</svg>
