<svg width="42" height="43" viewBox="0 0 42 43" fill="none" xmlns="http://www.w3.org/2000/svg">
<path fill-rule="evenodd" clip-rule="evenodd" d="M27.1582 9.20285L28.8339 10.8169L27.9543 11.6642L25 8.81851L28.2919 6L29.1183 6.89554L27.9265 7.91602C28.9893 7.85164 29.9215 7.96968 30.7344 8.24175C32.0682 8.68822 33.022 9.53008 33.6793 10.5405C34.9725 12.5287 35.1358 15.1881 34.9208 17L33.6849 16.8639C33.8846 15.1812 33.7058 12.8381 32.6252 11.1767C32.0955 10.3624 31.3544 9.71777 30.3261 9.37356C29.5069 9.09938 28.4692 9.00382 27.1582 9.20285Z" fill="#274D82"/>
<path fill-rule="evenodd" clip-rule="evenodd" d="M0 0H23V17.4247H21.7042V1.31507H1.29577V22.6849H16.1972V24H0V0ZM11.7544 13.8055C13.0741 11.7937 14.0889 9.49363 14.6152 7.99803L15.8355 8.44033C15.282 10.0132 14.2236 12.4145 12.833 14.5343C12.765 14.6379 12.6961 14.741 12.6264 14.8434L15.6835 17.946L14.7672 18.8759L11.8453 15.9105C11.4157 16.4541 10.9597 16.9605 10.4805 17.4033C9.61749 18.2008 8.6454 18.8236 7.58646 19.0539L7.31495 17.768C8.07009 17.6038 8.8419 17.139 9.60809 16.4309C10.062 16.0115 10.5021 15.5176 10.9231 14.9745L6.34469 10.328L7.26094 9.39807L11.6939 13.8971C11.7141 13.8666 11.7343 13.8361 11.7544 13.8055Z" fill="#274D82"/>
<path fill-rule="evenodd" clip-rule="evenodd" d="M10.8158 6.85714H5V8H18V6.85714H12.1842V6H10.8158V6.85714Z" fill="#274D82"/>
<path fill-rule="evenodd" clip-rule="evenodd" d="M19.1653 20H42V43H19.1653V20ZM20.4702 21.2958V41.7042H40.6952V21.2958H20.4702ZM29.8925 23.4757L36.0739 37.558L34.8777 38.0758L33.4844 34.9014H26.8653L25.646 38.0495L24.4282 37.5843L29.8925 23.4757ZM27.3672 33.6056H32.9156L29.968 26.8905L27.3672 33.6056ZM8.05403 32.738C6.9633 30.7218 6.87467 28.1374 7.10094 26.396L8.39505 26.5618C8.18638 28.1678 8.29348 30.4426 9.2035 32.1247C9.65026 32.9506 10.2803 33.6165 11.1519 34.014C11.796 34.3077 12.6066 34.4706 13.6279 34.4137L12.1501 32.7365L13.132 31.8832L15.7178 34.8177L13.8638 38.1316L12.7232 37.5022L13.7283 35.7057C12.5167 35.7769 11.4815 35.5902 10.6073 35.1915C9.42925 34.6543 8.60764 33.7613 8.05403 32.738Z" fill="#274D82"/>
</svg>
