<svg width="23" height="23" viewBox="0 0 23 23" fill="none" xmlns="http://www.w3.org/2000/svg">
<path fill-rule="evenodd" clip-rule="evenodd" d="M11.5 23C17.8513 23 23 17.8513 23 11.5C23 5.14873 17.8513 0 11.5 0C5.14873 0 0 5.14873 0 11.5C0 17.8513 5.14873 23 11.5 23ZM18.3907 7.40044L18.3447 7.31299C18.314 7.26052 18.2347 7.21242 18.1067 7.1687C17.9788 7.12497 17.815 7.11768 17.6155 7.14683L15.4048 7.16432C15.369 7.14975 15.3179 7.15121 15.2513 7.1687L15.1515 7.19493L15.1132 7.21679L15.0825 7.24303C15.0569 7.26052 15.0287 7.29113 14.998 7.33485C14.9673 7.37858 14.9417 7.42959 14.9213 7.48789C14.6808 8.19332 14.407 8.8492 14.1 9.45552C13.9106 9.81698 13.7366 10.1303 13.578 10.3956C13.4194 10.6609 13.2863 10.8562 13.1789 10.9815C13.0714 11.1069 12.9742 11.2074 12.8872 11.2832C12.8002 11.359 12.7337 11.3911 12.6876 11.3794C12.6416 11.3678 12.5981 11.3561 12.5571 11.3444C12.4855 11.292 12.4279 11.2206 12.3844 11.1302C12.3409 11.0398 12.3115 10.9261 12.2961 10.7891C12.2808 10.6521 12.2718 10.5341 12.2693 10.435C12.2667 10.3359 12.268 10.1959 12.2731 10.0152C12.2782 9.83447 12.2808 9.71204 12.2808 9.64791C12.2808 9.42637 12.2846 9.18588 12.2923 8.92645C12.3 8.66701 12.3064 8.4615 12.3115 8.30992C12.3166 8.15834 12.3192 7.99802 12.3192 7.82895C12.3192 7.65987 12.3102 7.52724 12.2923 7.43105C12.2744 7.33485 12.2475 7.24157 12.2117 7.15121C12.1759 7.06084 12.1234 6.99088 12.0544 6.94133C11.9853 6.89177 11.8996 6.85242 11.7972 6.82327C11.526 6.75331 11.1806 6.71541 10.761 6.70958C9.80919 6.69792 9.19769 6.76788 8.92647 6.91946C8.8139 6.98359 8.71667 7.07104 8.63479 7.18181C8.54268 7.31007 8.52989 7.38003 8.59641 7.39169C8.90345 7.44416 9.12093 7.56951 9.24886 7.76773L9.29491 7.87267C9.33073 7.94846 9.36655 8.08255 9.40237 8.27494C9.43819 8.46733 9.46122 8.68013 9.47145 8.91333C9.49704 9.33892 9.49704 9.7033 9.47145 10.0065C9.44587 10.3096 9.42156 10.5457 9.39853 10.7148C9.37551 10.8839 9.34097 11.0209 9.29491 11.1258C9.24886 11.2308 9.21815 11.2949 9.2028 11.3182C9.18745 11.3415 9.17466 11.3561 9.16442 11.3619C9.0979 11.3911 9.02882 11.4057 8.95718 11.4057C8.88554 11.4057 8.79854 11.3649 8.6962 11.2832C8.59385 11.2016 8.48767 11.0894 8.37765 10.9465C8.26763 10.8037 8.14354 10.604 8.00538 10.3475C7.86721 10.091 7.72393 9.78783 7.57553 9.43803L7.45272 9.18442C7.37596 9.02118 7.27106 8.78361 7.13801 8.4717C7.00496 8.1598 6.88727 7.8581 6.78492 7.5666C6.74399 7.44416 6.68258 7.35088 6.60071 7.28675L6.56233 7.26052C6.53674 7.2372 6.4958 7.21242 6.43951 7.18619C6.38322 7.15995 6.32438 7.141 6.26297 7.12934L4.1598 7.14683C3.94488 7.14683 3.79904 7.20222 3.72228 7.31299L3.69158 7.36546C3.67623 7.39461 3.66855 7.44125 3.66855 7.50538C3.66855 7.56951 3.6839 7.64822 3.71461 7.7415C4.02164 8.56353 4.35553 9.35641 4.7163 10.1201C5.07706 10.8839 5.39049 11.4989 5.65658 11.9653C5.92268 12.4317 6.19389 12.8719 6.47022 13.2858C6.74655 13.6998 6.92949 13.965 7.01904 14.0816C7.10859 14.1982 7.17895 14.2857 7.23012 14.344L7.42202 14.5539C7.54483 14.6938 7.72521 14.8614 7.96316 15.0567C8.20111 15.252 8.46465 15.4444 8.75377 15.6339C9.04289 15.8234 9.37934 15.9779 9.76313 16.0974C10.1469 16.2169 10.5205 16.265 10.8838 16.2417H11.7665C11.9456 16.2242 12.0812 16.16 12.1733 16.0493L12.204 16.0055C12.2245 15.9706 12.2437 15.9166 12.2616 15.8438C12.2795 15.7709 12.2885 15.6907 12.2885 15.6033C12.2834 15.3526 12.3 15.1267 12.3384 14.9255C12.3767 14.7244 12.4202 14.5728 12.4689 14.4708C12.5175 14.3688 12.5725 14.2828 12.6339 14.2128C12.6953 14.1429 12.7388 14.1006 12.7644 14.086C12.79 14.0714 12.8104 14.0612 12.8258 14.0554C12.9486 14.0088 13.0932 14.0539 13.2595 14.191C13.4258 14.328 13.5818 14.497 13.7277 14.6982C13.8735 14.8993 14.0488 15.1252 14.2535 15.3759C14.4582 15.6266 14.6373 15.8132 14.7908 15.9356L14.9443 16.0405C15.0466 16.1105 15.1797 16.1746 15.3434 16.2329C15.5072 16.2912 15.6505 16.3058 15.7733 16.2766L17.7383 16.2417C17.9327 16.2417 18.0837 16.2052 18.1912 16.1323C18.2986 16.0595 18.3626 15.9793 18.3831 15.8919C18.4035 15.8044 18.4048 15.7053 18.3869 15.5945C18.369 15.4838 18.3511 15.4065 18.3332 15.3628C18.3153 15.3191 18.2986 15.2826 18.2833 15.2535C18.0274 14.7288 17.5387 14.0846 16.8172 13.3208C16.8121 13.3092 16.7993 13.2975 16.7788 13.2858C16.6048 13.1051 16.459 12.9506 16.3413 12.8224C16.2236 12.6941 16.1404 12.5687 16.0918 12.4463C16.0432 12.3239 16.01 12.2233 15.992 12.1446C15.9741 12.0659 16.0048 11.9435 16.0842 11.7773C16.1635 11.6112 16.2415 11.4669 16.3183 11.3444C16.395 11.222 16.5357 11.0121 16.7404 10.7148C16.9502 10.4058 17.1166 10.158 17.2394 9.97148C18.1246 8.63057 18.5084 7.77356 18.3907 7.40044Z" fill="white"/>
</svg>
