<svg width="23" height="23" viewBox="0 0 23 23" fill="none" xmlns="http://www.w3.org/2000/svg">
<circle cx="11.5" cy="11.5" r="11.5" fill="white"/>
<path fill-rule="evenodd" clip-rule="evenodd" d="M11.5 23C17.8513 23 23 17.8513 23 11.5C23 5.14873 17.8513 0 11.5 0C5.14873 0 0 5.14873 0 11.5C0 17.8513 5.14873 23 11.5 23ZM18.3906 7.4006L18.3446 7.31315C18.3139 7.26068 18.2346 7.21258 18.1066 7.16886C17.9787 7.12513 17.815 7.11785 17.6154 7.147L15.4048 7.16449C15.3689 7.14991 15.3178 7.15137 15.2512 7.16886L15.1515 7.19509L15.1131 7.21696L15.0824 7.24319C15.0568 7.26068 15.0286 7.29129 14.9979 7.33501C14.9672 7.37874 14.9416 7.42975 14.9212 7.48805C14.6807 8.19348 14.4069 8.84936 14.0999 9.45568C13.9105 9.81714 13.7365 10.1305 13.5779 10.3958C13.4193 10.661 13.2862 10.8563 13.1788 10.9817C13.0713 11.107 12.9741 11.2076 12.8871 11.2834C12.8001 11.3592 12.7336 11.3912 12.6875 11.3796C12.6415 11.3679 12.598 11.3563 12.557 11.3446C12.4854 11.2921 12.4278 11.2207 12.3843 11.1304C12.3408 11.04 12.3114 10.9263 12.2961 10.7893C12.2807 10.6523 12.2717 10.5342 12.2692 10.4351C12.2666 10.336 12.2679 10.1961 12.273 10.0154C12.2781 9.83463 12.2807 9.7122 12.2807 9.64807C12.2807 9.42653 12.2845 9.18604 12.2922 8.92661C12.2999 8.66717 12.3063 8.46167 12.3114 8.31009C12.3165 8.1585 12.3191 7.99818 12.3191 7.82911C12.3191 7.66004 12.3101 7.52741 12.2922 7.43121C12.2743 7.33501 12.2474 7.24173 12.2116 7.15137C12.1758 7.061 12.1233 6.99104 12.0543 6.94149C11.9852 6.89193 11.8995 6.85258 11.7971 6.82343C11.5259 6.75347 11.1805 6.71558 10.7609 6.70975C9.8091 6.69809 9.19759 6.76805 8.92638 6.91963C8.8138 6.98376 8.71657 7.07121 8.6347 7.18198C8.54259 7.31024 8.5298 7.3802 8.59632 7.39186C8.90335 7.44433 9.12083 7.56967 9.24876 7.76789L9.29482 7.87283C9.33064 7.94862 9.36646 8.08271 9.40228 8.2751C9.4381 8.4675 9.46113 8.68029 9.47136 8.91349C9.49695 9.33908 9.49695 9.70346 9.47136 10.0066C9.44578 10.3098 9.42147 10.5459 9.39844 10.715C9.37541 10.884 9.34087 11.021 9.29482 11.126C9.24876 11.2309 9.21806 11.2951 9.20271 11.3184C9.18736 11.3417 9.17456 11.3563 9.16433 11.3621C9.09781 11.3912 9.02872 11.4058 8.95708 11.4058C8.88544 11.4058 8.79845 11.365 8.69611 11.2834C8.59376 11.2018 8.48758 11.0895 8.37756 10.9467C8.26754 10.8039 8.14345 10.6042 8.00528 10.3477C7.86712 10.0912 7.72384 9.78799 7.57544 9.43819L7.45263 9.18459C7.37587 9.02135 7.27097 8.78377 7.13792 8.47187C7.00487 8.15996 6.88718 7.85826 6.78483 7.56676C6.74389 7.44433 6.68249 7.35105 6.60061 7.28692L6.56223 7.26068C6.53665 7.23736 6.49571 7.21258 6.43942 7.18635C6.38313 7.16011 6.32428 7.14117 6.26288 7.12951L4.15971 7.147C3.94479 7.147 3.79895 7.20238 3.72219 7.31315L3.69148 7.36562C3.67613 7.39477 3.66846 7.44141 3.66846 7.50554C3.66846 7.56967 3.68381 7.64838 3.71451 7.74166C4.02154 8.56369 4.35544 9.35657 4.7162 10.1203C5.07697 10.884 5.39039 11.4991 5.65649 11.9655C5.92258 12.4319 6.19379 12.8721 6.47012 13.286C6.74645 13.6999 6.92939 13.9652 7.01894 14.0818C7.10849 14.1984 7.17886 14.2859 7.23003 14.3442L7.42192 14.554C7.54474 14.694 7.72512 14.8616 7.96307 15.0569C8.20102 15.2522 8.46455 15.4446 8.75367 15.634C9.0428 15.8235 9.37925 15.978 9.76304 16.0975C10.1468 16.217 10.5204 16.2651 10.8837 16.2418H11.7664C11.9455 16.2243 12.0811 16.1602 12.1732 16.0494L12.2039 16.0057C12.2244 15.9707 12.2436 15.9168 12.2615 15.8439C12.2794 15.771 12.2884 15.6909 12.2884 15.6034C12.2833 15.3527 12.2999 15.1268 12.3383 14.9257C12.3767 14.7246 12.4201 14.573 12.4688 14.471C12.5174 14.3689 12.5724 14.2829 12.6338 14.213C12.6952 14.143 12.7387 14.1007 12.7643 14.0862C12.7899 14.0716 12.8103 14.0614 12.8257 14.0556C12.9485 14.0089 13.0931 14.0541 13.2594 14.1911C13.4257 14.3281 13.5818 14.4972 13.7276 14.6983C13.8734 14.8995 14.0487 15.1254 14.2534 15.3761C14.4581 15.6268 14.6372 15.8133 14.7907 15.9357L14.9442 16.0407C15.0465 16.1106 15.1796 16.1748 15.3433 16.2331C15.5071 16.2914 15.6504 16.306 15.7732 16.2768L17.7382 16.2418C17.9326 16.2418 18.0836 16.2054 18.1911 16.1325C18.2985 16.0596 18.3625 15.9795 18.383 15.892C18.4034 15.8046 18.4047 15.7055 18.3868 15.5947C18.3689 15.4839 18.351 15.4067 18.3331 15.3629C18.3152 15.3192 18.2985 15.2828 18.2832 15.2536C18.0273 14.7289 17.5386 14.0847 16.8171 13.321C16.812 13.3093 16.7992 13.2977 16.7787 13.286C16.6047 13.1053 16.4589 12.9508 16.3412 12.8225C16.2235 12.6943 16.1404 12.5689 16.0917 12.4465C16.0431 12.3241 16.0099 12.2235 15.992 12.1448C15.974 12.0661 16.0047 11.9436 16.0841 11.7775C16.1634 11.6113 16.2414 11.467 16.3182 11.3446C16.3949 11.2222 16.5357 11.0123 16.7403 10.715C16.9501 10.406 17.1165 10.1582 17.2393 9.97164C18.1245 8.63074 18.5083 7.77372 18.3906 7.4006Z" fill="#0077FF"/>
</svg>
