<svg width="43" height="48" viewBox="0 0 43 48" fill="none" xmlns="http://www.w3.org/2000/svg">
<path fill-rule="evenodd" clip-rule="evenodd" d="M20.7879 0L42.4999 7.09814V31.7203L42.3919 31.8379C40.0488 34.3877 35.6253 38.2951 31.3307 41.5631C29.1821 43.1982 27.056 44.6806 25.23 45.7564C24.3173 46.2941 23.4722 46.7345 22.7319 47.0417C22.0008 47.3451 21.3346 47.5346 20.7918 47.5346C20.2495 47.5346 19.5965 47.3498 18.8864 47.0524C18.1681 46.7515 17.3558 46.32 16.4839 45.7923C14.7395 44.7366 12.7275 43.2784 10.7057 41.6593C6.66644 38.4245 2.54444 34.5116 0.401453 31.8156L0.3125 31.7037V7.10372L20.7879 0ZM20.7957 0.864377L1.13167 7.68659V31.417C3.24611 34.0427 7.25809 37.8488 11.2178 41.0199C13.2236 42.6263 15.205 44.0608 16.908 45.0914C17.7598 45.6069 18.5346 46.0169 19.2029 46.2968C19.8794 46.5802 20.4125 46.7154 20.7918 46.7154C21.1705 46.7154 21.716 46.5764 22.418 46.2851C23.1107 45.9977 23.92 45.5774 24.8142 45.0506C26.6019 43.9974 28.6997 42.5359 30.8346 40.9113C35.0412 37.7102 39.3545 33.9048 41.6807 31.4005V7.69217L20.7957 0.864377Z" fill="#274D82"/>
<path fill-rule="evenodd" clip-rule="evenodd" d="M20.6867 3.27625L38.8138 9.27667V30.0806L38.7075 30.1978C36.7552 32.3489 33.0729 35.6421 29.4993 38.3956C27.7112 39.7733 25.9406 41.0234 24.4186 41.9313C23.658 42.385 22.9521 42.7577 22.3323 43.0182C21.7218 43.2747 21.1569 43.4388 20.6906 43.4388C20.2249 43.4388 19.6711 43.2787 19.0776 43.0271C18.4759 42.7719 17.797 42.4065 17.0701 41.9611C15.6158 41.0699 13.9399 39.84 12.2571 38.4755C8.89575 35.7498 5.46332 32.4512 3.67677 30.1754L3.58936 30.0641V9.2823L20.6867 3.27625ZM20.6945 4.14173L4.40853 9.86278V29.7801C6.16645 31.9853 9.49031 35.1773 12.7731 37.8392C14.44 39.1909 16.0853 40.3969 17.4981 41.2626C18.2048 41.6957 18.846 42.039 19.3974 42.2729C19.9572 42.5103 20.3899 42.6197 20.6906 42.6197C20.9907 42.6197 21.4336 42.5072 22.0149 42.2629C22.5869 42.0226 23.2569 41.6704 23.999 41.2278C25.4825 40.3428 27.2248 39.1139 28.9993 37.7467C32.486 35.0602 36.0595 31.8689 37.9946 29.7636V9.8684L20.6945 4.14173Z" fill="#274D82"/>
<path d="M10.3936 27.8889L13.9795 17.928H15.0264L10.792 29.303H10.0186L10.3936 27.8889ZM6.69043 17.928L10.2607 27.8889L10.6514 29.303H9.87012L5.64355 17.928H6.69043ZM20.5811 24.6702H17.3389V23.8499H20.5811C21.2581 23.8499 21.8076 23.7405 22.2295 23.5217C22.6566 23.2978 22.9665 22.9957 23.1592 22.6155C23.3571 22.2353 23.4561 21.8082 23.4561 21.3342C23.4561 20.8707 23.3571 20.4436 23.1592 20.053C22.9665 19.6624 22.6566 19.3499 22.2295 19.1155C21.8076 18.8759 21.2581 18.7561 20.5811 18.7561H17.6748V29.303H16.7139V17.928H20.5811C21.4144 17.928 22.1149 18.0712 22.6826 18.3577C23.2555 18.6441 23.6878 19.0426 23.9795 19.553C24.2712 20.0634 24.417 20.6519 24.417 21.3186C24.417 22.0165 24.2712 22.6181 23.9795 23.1233C23.6878 23.6233 23.2581 24.0061 22.6904 24.2717C22.1227 24.5374 21.4196 24.6702 20.5811 24.6702ZM35.042 17.928V29.303H34.0732L27.5342 19.5842V29.303H26.5732V17.928H27.5342L34.0889 27.6467V17.928H35.042Z" fill="#274D82"/>
</svg>
