<svg width="34" height="39" viewBox="0 0 34 39" fill="none" xmlns="http://www.w3.org/2000/svg">
<path fill-rule="evenodd" clip-rule="evenodd" d="M16.5017 0L34 5.72059V25.5643L33.913 25.659C32.0246 27.7141 28.4596 30.8631 24.9984 33.4969C23.2668 34.8146 21.5533 36.0093 20.0817 36.8764C19.3461 37.3097 18.6651 37.6647 18.0685 37.9123C17.4792 38.1568 16.9423 38.3095 16.5049 38.3095C16.0678 38.3095 15.5416 38.1606 14.9693 37.9209C14.3904 37.6784 13.7357 37.3306 13.033 36.9053C11.6271 36.0545 10.0056 34.8793 8.37618 33.5744C5.12082 30.9674 1.79879 27.8139 0.0716894 25.6411L0 25.5509V5.72509L16.5017 0ZM16.508 0.696626L0.660194 6.19484V25.3199C2.36428 27.436 5.59765 30.5034 8.78887 33.0591C10.4054 34.3537 12.0023 35.5099 13.3748 36.3405C14.0612 36.7559 14.6857 37.0863 15.2243 37.3119C15.7695 37.5403 16.1992 37.6493 16.5049 37.6493C16.8101 37.6493 17.2497 37.5372 17.8154 37.3025C18.3737 37.0708 19.0259 36.7321 19.7466 36.3075C21.1874 35.4587 22.878 34.2809 24.5986 32.9715C27.9888 30.3918 31.465 27.3249 33.3398 25.3065V6.19934L16.508 0.696626Z" fill="#274D82"/>
<path fill-rule="evenodd" clip-rule="evenodd" d="M16.4218 2.64062L31.0309 7.47654V24.2431L30.9453 24.3374C29.3719 26.0711 26.4042 28.7252 23.5241 30.9443C22.0831 32.0546 20.6561 33.0621 19.4295 33.7938C18.8165 34.1595 18.2476 34.4599 17.748 34.6698C17.256 34.8765 16.8008 35.0088 16.4249 35.0088C16.0496 35.0088 15.6033 34.8798 15.125 34.6769C14.64 34.4713 14.0929 34.1768 13.5071 33.8178C12.3351 33.0996 10.9844 32.1084 9.62817 31.0087C6.91915 28.812 4.15286 26.1535 2.71303 24.3194L2.64258 24.2297V7.48107L16.4218 2.64062ZM16.4281 3.33815L3.30277 7.9489V24.0008C4.71953 25.7781 7.39832 28.3506 10.044 30.4959C11.3874 31.5852 12.7134 32.5572 13.8521 33.2549C14.4216 33.6039 14.9383 33.8807 15.3828 34.0691C15.8339 34.2605 16.1826 34.3486 16.4249 34.3486C16.6668 34.3486 17.0238 34.258 17.4923 34.0611C17.9532 33.8674 18.4932 33.5836 19.0913 33.2268C20.2869 32.5136 21.6911 31.5232 23.1212 30.4213C25.9312 28.2562 28.8112 25.6843 30.3707 23.9875V7.95343L16.4281 3.33815Z" fill="#274D82"/>
<path d="M8.75 20.9395L11.4395 13.4688H12.2246L9.04883 22H8.46875L8.75 20.9395ZM5.97266 13.4688L8.65039 20.9395L8.94336 22H8.35742L5.1875 13.4688H5.97266ZM16.3906 18.5254H13.959V17.9102H16.3906C16.8984 17.9102 17.3105 17.8281 17.627 17.6641C17.9473 17.4961 18.1797 17.2695 18.3242 16.9844C18.4727 16.6992 18.5469 16.3789 18.5469 16.0234C18.5469 15.6758 18.4727 15.3555 18.3242 15.0625C18.1797 14.7695 17.9473 14.5352 17.627 14.3594C17.3105 14.1797 16.8984 14.0898 16.3906 14.0898H14.2109V22H13.4902V13.4688H16.3906C17.0156 13.4688 17.541 13.5762 17.9668 13.791C18.3965 14.0059 18.7207 14.3047 18.9395 14.6875C19.1582 15.0703 19.2676 15.5117 19.2676 16.0117C19.2676 16.5352 19.1582 16.9863 18.9395 17.3652C18.7207 17.7402 18.3984 18.0273 17.9727 18.2266C17.5469 18.4258 17.0195 18.5254 16.3906 18.5254ZM27.2363 13.4688V22H26.5098L21.6055 14.7109V22H20.8848V13.4688H21.6055L26.5215 20.7578V13.4688H27.2363Z" fill="#274D82"/>
</svg>
