<svg width="100%" height="100%" viewBox="0 0 44 44" fill="none" xmlns="http://www.w3.org/2000/svg">
<path fill-rule="evenodd" clip-rule="evenodd" d="M43.3549 21.5607C43.3549 33.4683 33.7019 43.1213 21.7943 43.1213C9.88667 43.1213 0.233643 33.4683 0.233643 21.5607C0.233643 9.65303 9.88667 0 21.7943 0C33.7019 0 43.3549 9.65303 43.3549 21.5607ZM10.6152 28.2836L10.5019 28.6929L8.91035 34.4447L14.6616 32.853L15.0711 32.7397L15.437 32.9558C17.6281 34.2505 20.1237 34.9344 22.6915 34.9344C30.5592 34.9344 36.9649 28.5303 36.9649 20.6623C36.9649 12.7917 30.5592 6.39016 22.6941 6.39016C14.8239 6.39016 8.42068 12.7917 8.42068 20.6623C8.42068 23.2277 9.10449 25.7237 10.3994 27.9179L10.6152 28.2836ZM8.59943 35.5683L7.4758 35.8793L7.78673 34.7556L9.53815 28.4262C8.15239 26.078 7.42068 23.4065 7.42068 20.6623C7.42068 12.2393 14.2718 5.39016 22.6941 5.39016C31.1113 5.39016 37.9649 12.2393 37.9649 20.6623C37.9649 29.0828 31.1113 35.9344 22.6915 35.9344C19.9451 35.9344 17.2738 35.2026 14.9283 33.8168L8.59943 35.5683ZM19.7138 23.6408C23.7564 27.6833 28.1878 28.7717 28.2246 28.7471C28.6501 28.4634 29.3927 27.8461 29.9268 27.045C30.3932 26.3453 30.7778 25.3429 30.7778 25.3429L26.5225 22.7897L24.3948 24.0663C24.3948 24.0663 23.311 23.408 21.8416 21.9386C20.5649 20.6621 19.2883 18.9599 19.2883 18.9599L20.5649 16.8323L18.0117 12.577C17.728 12.577 17.1606 12.577 15.884 13.8536C15.0161 14.7215 14.6073 15.5557 14.6073 15.5557C14.6073 15.5557 15.7952 19.7222 19.7138 23.6408Z" fill="#274D82"/>
</svg>
