<svg width="23" height="23" viewBox="0 0 23 23" fill="none" xmlns="http://www.w3.org/2000/svg">
<path fill-rule="evenodd" clip-rule="evenodd" d="M23 11.5C23 17.8513 17.8513 23 11.5 23C5.14873 23 0 17.8513 0 11.5C0 5.14873 5.14873 0 11.5 0C17.8513 0 23 5.14873 23 11.5ZM5.83315 14.3876L5.71991 14.7969L5.13649 16.9053L7.24461 16.3218L7.65417 16.2085L8.02003 16.4247C9.06457 17.0418 10.2543 17.3681 11.4795 17.3681C15.2312 17.3681 18.2866 14.3134 18.2866 10.5616C18.2866 6.80861 15.2312 3.75521 11.4808 3.75521C7.72789 3.75521 4.67377 6.80861 4.67377 10.5616C4.67377 11.7856 4.99989 12.9756 5.61734 14.0219L5.83315 14.3876ZM4.82557 18.0289L3.70195 18.3399L4.01287 17.2162L4.75612 14.5302C4.04779 13.3299 3.67377 11.9643 3.67377 10.5616C3.67377 6.25619 7.17574 2.75521 11.4808 2.75521C15.7834 2.75521 19.2866 6.25619 19.2866 10.5616C19.2866 14.8658 15.7834 18.3681 11.4795 18.3681C10.0757 18.3681 8.71025 17.994 7.51133 17.2856L4.82557 18.0289ZM10.3902 12.6094C12.5464 14.7656 14.91 15.3461 14.9297 15.333C15.1566 15.1817 15.5527 14.8525 15.8376 14.4252C16.0863 14.052 16.2915 13.5173 16.2915 13.5173L14.0218 12.1555L12.8869 12.8364C12.8869 12.8364 12.3088 12.4853 11.5251 11.7015C10.8442 11.0206 10.1632 10.1128 10.1632 10.1128L10.8442 8.97793L9.48232 6.70825C9.331 6.70825 9.02837 6.70825 8.34745 7.38916C7.88451 7.85208 7.6665 8.29703 7.6665 8.29703C7.6665 8.29703 8.30006 10.5193 10.3902 12.6094Z" fill="white"/>
</svg>
