<svg width="36" height="36" viewBox="0 0 36 36" fill="none" xmlns="http://www.w3.org/2000/svg">
<path fill-rule="evenodd" clip-rule="evenodd" d="M35.1213 17.5607C35.1213 27.2591 27.2591 35.1213 17.5607 35.1213C7.86217 35.1213 0 27.2591 0 17.5607C0 7.86217 7.86217 0 17.5607 0C27.2591 0 35.1213 7.86217 35.1213 17.5607ZM8.65525 23.0099L8.54201 23.4191L7.33304 27.7882L11.7017 26.5792L12.1112 26.4658L12.4771 26.682C14.2331 27.7195 16.233 28.2677 18.2914 28.2677C24.5969 28.2677 29.7312 23.1348 29.7312 16.8289C29.7312 10.521 24.5969 5.39014 18.2934 5.39014C11.9858 5.39014 6.8536 10.521 6.8536 16.8289C6.8536 18.8853 7.40166 20.8856 8.43945 22.6442L8.65525 23.0099ZM7.02212 28.9118L5.8985 29.2228L6.20942 28.0992L7.57823 23.1524C6.44956 21.2399 5.8536 19.064 5.8536 16.8289C5.8536 9.96861 11.4337 4.39014 18.2934 4.39014C25.1491 4.39014 30.7312 9.96861 30.7312 16.8289C30.7312 23.6872 25.1491 29.2677 18.2914 29.2677C16.0544 29.2677 13.8788 28.6717 11.9684 27.5429L7.02212 28.9118ZM15.8663 19.2549C19.1589 22.5474 22.7681 23.4339 22.7981 23.4139C23.1447 23.1828 23.7495 22.6801 24.1845 22.0276C24.5644 21.4577 24.8777 20.6412 24.8777 20.6412L21.4118 18.5617L19.6788 19.6015C19.6788 19.6015 18.7961 19.0654 17.5993 17.8686C16.5595 16.8288 15.5197 15.4425 15.5197 15.4425L16.5595 13.7096L14.48 10.2437C14.2489 10.2437 13.7868 10.2437 12.747 11.2835C12.0401 11.9904 11.7072 12.6698 11.7072 12.6698C11.7072 12.6698 12.6746 16.0633 15.8663 19.2549Z" fill="#23D16A"/>
</svg>
