<svg width="23" height="23" viewBox="0 0 23 23" fill="none" xmlns="http://www.w3.org/2000/svg">
<circle cx="11.5" cy="11.5" r="11.5" fill="white"/>
<path fill-rule="evenodd" clip-rule="evenodd" d="M23 11.5C23 17.8513 17.8513 23 11.5 23C5.14873 23 0 17.8513 0 11.5C0 5.14873 5.14873 0 11.5 0C17.8513 0 23 5.14873 23 11.5ZM5.83321 14.3878L5.71997 14.797L5.13655 16.9054L7.24467 16.322L7.65423 16.2087L8.02009 16.4248C9.06463 17.042 10.2543 17.3682 11.4796 17.3682C15.2313 17.3682 18.2867 14.3135 18.2867 10.5618C18.2867 6.80877 15.2313 3.75537 11.4809 3.75537C7.72795 3.75537 4.67383 6.80877 4.67383 10.5618C4.67383 11.7858 4.99995 12.9758 5.6174 14.0221L5.83321 14.3878ZM4.82563 18.0291L3.70201 18.34L4.01293 17.2164L4.75619 14.5303C4.04785 13.33 3.67383 11.9645 3.67383 10.5618C3.67383 6.25635 7.1758 2.75537 11.4809 2.75537C15.7834 2.75537 19.2867 6.25635 19.2867 10.5618C19.2867 14.866 15.7834 18.3682 11.4796 18.3682C10.0757 18.3682 8.71031 17.9942 7.51139 17.2858L4.82563 18.0291ZM10.3902 12.6092C12.5464 14.7654 14.91 15.3459 14.9297 15.3328C15.1566 15.1815 15.5527 14.8522 15.8376 14.4249C16.0863 14.0517 16.2915 13.517 16.2915 13.517L14.0218 12.1552L12.8869 12.8361C12.8869 12.8361 12.3088 12.4851 11.5251 11.7013C10.8442 11.0204 10.1632 10.1125 10.1632 10.1125L10.8442 8.97769L9.48232 6.70801C9.331 6.70801 9.02837 6.70801 8.34745 7.38891C7.88451 7.85184 7.6665 8.29678 7.6665 8.29678C7.6665 8.29678 8.30006 10.5191 10.3902 12.6092Z" fill="#23D16A"/>
</svg>
