<?xml version="1.0" standalone="no"?>
<!DOCTYPE svg PUBLIC "-//W3C//DTD SVG 20010904//EN"
 "http://www.w3.org/TR/2001/REC-SVG-20010904/DTD/svg10.dtd">
<svg version="1.0" xmlns="http://www.w3.org/2000/svg"
 width="960.000000pt" height="960.000000pt" viewBox="0 0 960.000000 960.000000"
 preserveAspectRatio="xMidYMid meet">
<metadata>
Created by potrace 1.14, written by Peter Selinger 2001-2017
</metadata>
<g transform="translate(0.000000,960.000000) scale(0.100000,-0.100000)"
fill="#000000" stroke="none">
<path d="M2998 8315 c-1 -1 -40 -6 -86 -9 -45 -4 -102 -10 -127 -15 -25 -5
-45 -6 -45 -3 0 2 -6 -1 -13 -7 -8 -6 -17 -8 -20 -5 -3 4 -39 -1 -79 -10 -40
-9 -84 -18 -97 -21 -113 -22 -378 -106 -486 -154 -33 -15 -62 -27 -65 -27 -18
1 -356 -176 -370 -195 -3 -3 -20 -14 -39 -24 -86 -44 -307 -211 -447 -339
-132 -119 -322 -323 -392 -421 -4 -5 -21 -28 -38 -50 -17 -22 -57 -78 -88
-125 -31 -47 -63 -94 -71 -105 -8 -10 -15 -25 -15 -31 0 -7 -4 -14 -9 -16 -4
-1 -28 -39 -52 -83 -23 -44 -47 -81 -51 -83 -4 -2 -8 -7 -8 -12 0 -4 -25 -61
-56 -126 -85 -180 -200 -490 -219 -591 -2 -10 -4 -18 -5 -18 -1 0 -4 -11 -6
-25 -3 -14 -10 -43 -16 -65 -6 -22 -12 -44 -13 -50 -1 -5 -3 -12 -4 -15 -2 -3
-4 -14 -6 -25 -8 -54 -15 -92 -20 -115 -10 -48 -16 -85 -30 -205 -16 -131 -19
-211 -19 -430 0 -137 3 -277 7 -310 15 -141 20 -176 38 -289 11 -65 27 -149
35 -185 9 -36 17 -73 19 -81 17 -83 98 -333 152 -465 53 -133 162 -356 215
-443 21 -34 38 -65 38 -68 0 -2 4 -10 10 -17 5 -7 40 -57 76 -112 37 -55 76
-112 88 -126 11 -15 30 -39 41 -54 11 -16 25 -33 30 -39 6 -6 32 -38 59 -71
58 -70 61 -73 170 -185 106 -109 192 -187 291 -265 27 -22 56 -46 63 -52 7 -7
17 -13 20 -13 4 0 19 -10 33 -23 14 -12 32 -26 42 -32 9 -5 33 -22 54 -36 179
-122 374 -225 583 -309 114 -46 270 -99 310 -106 14 -3 32 -7 40 -11 17 -7 23
-9 60 -17 14 -3 36 -8 50 -11 14 -3 38 -8 54 -11 16 -2 32 -7 35 -9 4 -2 27
-6 51 -9 25 -3 56 -8 70 -11 26 -5 84 -12 185 -23 33 -3 157 -6 275 -6 220 0
293 5 455 29 95 15 89 14 213 40 223 48 447 128 682 245 108 53 210 108 224
121 17 15 37 10 96 -26 84 -51 303 -158 400 -195 47 -17 94 -36 105 -41 23
-10 190 -63 190 -60 0 1 24 -6 54 -15 30 -9 62 -17 70 -19 9 -2 48 -10 86 -19
92 -19 121 -25 175 -32 25 -3 55 -7 68 -9 159 -26 685 -26 765 0 6 2 35 6 62
9 54 6 101 14 125 21 8 2 31 7 50 10 72 12 199 45 294 77 32 11 63 21 70 23 6
1 20 5 31 10 11 4 61 23 110 43 116 45 277 122 385 185 47 27 94 55 105 61 34
19 109 70 123 83 6 6 21 14 31 18 11 3 22 12 25 20 3 8 12 15 20 15 8 0 16 3
18 8 2 4 35 31 73 61 39 30 85 69 104 85 186 166 308 294 437 456 32 41 62 77
67 78 4 2 7 10 7 17 0 8 6 18 13 22 16 10 143 202 199 301 55 97 149 288 191
387 44 105 122 324 132 369 2 11 14 55 25 96 24 85 23 79 50 215 24 124 28
146 36 215 3 30 8 64 10 74 18 98 26 594 11 731 -19 179 -20 188 -31 250 -6
32 -12 65 -22 130 -3 22 -8 43 -10 46 -2 3 -6 19 -8 35 -41 222 -170 581 -301
839 -67 132 -145 268 -157 273 -5 2 -8 8 -8 13 0 14 -138 211 -152 217 -5 2
-8 8 -8 13 0 10 0 10 -127 159 -150 176 -309 327 -483 460 -47 36 -86 68 -88
73 -2 4 -8 7 -14 7 -6 0 -27 13 -47 29 -74 58 -454 272 -491 276 -3 1 -21 8
-40 17 -44 20 -186 75 -215 84 -18 5 -190 56 -205 61 -8 2 -16 4 -17 4 -2 0
-17 5 -35 10 -18 6 -43 12 -55 15 -13 2 -35 7 -50 10 -23 5 -100 18 -163 28
-8 2 -42 6 -75 10 -33 4 -71 10 -85 13 -35 7 -533 12 -545 5 -5 -3 -25 -7 -45
-7 -47 -3 -127 -13 -225 -30 -74 -13 -95 -17 -150 -30 -52 -11 -63 -14 -105
-25 -25 -7 -49 -13 -55 -14 -5 -1 -14 -4 -20 -7 -5 -4 -23 -9 -40 -13 -138
-32 -579 -225 -646 -282 -8 -8 -29 -19 -46 -25 -28 -9 -39 -6 -124 43 -121 70
-366 185 -431 203 -5 2 -10 4 -13 5 -3 1 -8 3 -12 4 -5 1 -12 4 -18 7 -5 3
-44 16 -85 28 -41 13 -82 26 -90 29 -8 3 -19 6 -25 7 -5 2 -30 8 -55 15 -25 7
-52 14 -60 16 -8 1 -26 5 -40 8 -53 12 -76 17 -100 22 -14 2 -41 7 -60 10 -42
8 -57 10 -135 19 -33 4 -69 9 -80 12 -22 6 -491 13 -497 8z m332 -849 c139 -7
205 -14 245 -26 17 -4 37 -8 45 -9 8 0 35 -5 60 -11 25 -5 56 -13 70 -16 14
-3 30 -7 35 -8 49 -12 102 -30 113 -38 6 -6 12 -8 12 -5 0 6 64 -14 105 -32
11 -5 35 -15 53 -23 l32 -15 -25 -29 c-60 -68 -183 -223 -215 -269 -18 -27
-36 -52 -40 -55 -7 -6 -126 -192 -153 -240 -85 -151 -231 -464 -242 -519 -2
-11 -10 -35 -19 -53 -13 -30 -70 -207 -81 -254 -2 -10 -9 -37 -15 -59 -35
-131 -67 -307 -84 -455 -14 -120 -18 -173 -21 -263 -1 -54 -5 -100 -8 -103 -3
-4 -2 -16 3 -28 4 -13 4 -29 0 -36 -5 -8 -6 -18 -4 -22 3 -5 7 -63 9 -131 4
-114 11 -209 20 -267 2 -14 7 -52 11 -85 7 -68 7 -64 34 -200 11 -55 22 -109
24 -120 17 -83 116 -401 146 -470 32 -70 93 -215 102 -240 6 -16 14 -32 18
-35 3 -3 14 -21 23 -41 l17 -37 87 30 c156 52 373 172 478 263 17 14 53 46 82
71 l51 45 -45 97 c-24 53 -48 106 -52 117 -5 11 -13 31 -20 45 -15 34 -89 259
-95 290 -2 14 -16 75 -29 135 -14 61 -28 138 -32 172 -4 35 -9 75 -11 90 -2
16 -6 68 -9 118 -4 49 -9 93 -11 97 -3 4 0 8 6 8 6 0 8 5 4 12 -9 14 -7 134 1
149 4 5 1 9 -5 9 -6 0 -8 5 -5 10 4 6 8 42 11 81 6 107 17 196 40 319 9 50 12
65 14 65 1 0 3 11 5 25 2 14 16 66 30 115 14 50 27 97 29 105 2 8 16 47 31 85
15 39 27 76 28 83 0 6 3 12 7 12 4 0 7 6 7 13 0 34 219 448 252 477 3 3 22 28
41 55 32 47 41 58 65 88 6 7 28 35 50 62 85 108 294 303 440 413 14 10 155
104 180 119 25 16 309 157 321 160 5 1 59 20 119 42 124 44 352 96 465 106 41
4 89 9 105 11 42 5 315 5 345 0 14 -3 52 -7 85 -10 33 -3 71 -8 85 -11 14 -3
38 -8 53 -10 16 -2 40 -6 55 -10 15 -3 36 -7 47 -9 135 -28 358 -108 515 -185
93 -46 277 -158 335 -203 145 -113 198 -160 290 -253 61 -61 126 -130 145
-154 19 -24 40 -48 45 -55 41 -45 195 -271 195 -285 0 -5 6 -16 13 -23 13 -13
119 -222 149 -293 65 -153 140 -404 162 -540 2 -11 6 -33 9 -50 6 -31 12 -75
22 -155 3 -25 8 -85 11 -135 3 -49 6 -101 7 -115 1 -14 -1 -35 -5 -48 -4 -13
-5 -21 0 -19 4 3 6 -14 5 -36 -3 -81 -14 -222 -18 -247 -2 -14 -7 -48 -10 -76
-3 -28 -8 -61 -10 -75 -3 -13 -8 -40 -11 -59 -11 -66 -75 -301 -105 -388 -38
-108 -46 -126 -125 -287 -69 -141 -95 -188 -106 -193 -5 -2 -8 -8 -8 -14 0
-14 -108 -170 -187 -268 -99 -124 -288 -311 -388 -385 -22 -17 -42 -33 -45
-36 -3 -4 -54 -40 -115 -81 -95 -64 -326 -188 -420 -225 -49 -19 -270 -92
-296 -97 -13 -2 -49 -10 -79 -16 -96 -20 -104 -21 -135 -25 -16 -2 -48 -6 -70
-9 -115 -17 -321 -22 -440 -11 -185 16 -260 29 -405 67 -41 11 -87 23 -103 25
-15 3 -30 9 -33 14 -3 5 -12 9 -21 9 -8 0 -29 6 -46 14 -18 7 -54 21 -80 31
-42 15 -46 19 -35 33 20 27 112 136 119 142 3 3 29 37 58 75 29 39 58 77 65
86 8 9 15 20 17 25 5 12 82 128 90 134 22 20 249 452 249 474 0 4 9 25 19 49
28 61 85 220 110 307 13 41 27 86 31 100 5 14 12 37 14 52 3 15 7 32 10 37 4
5 8 22 10 38 2 15 13 71 24 123 12 52 23 115 27 140 3 25 8 56 10 70 5 26 13
102 21 180 2 25 6 96 8 157 3 62 7 116 9 120 3 5 1 17 -3 28 -4 11 -4 30 1 43
5 12 5 22 1 22 -4 0 -8 39 -8 88 -1 89 -10 219 -19 282 -2 19 -7 55 -10 80 -5
44 -21 141 -30 187 -3 13 -7 35 -10 50 -3 16 -8 36 -11 45 -3 9 -7 25 -9 35
-2 10 -8 38 -14 63 -7 25 -14 55 -17 68 -6 28 -101 320 -113 347 -5 11 -18 41
-30 67 -12 26 -21 50 -21 53 0 3 -25 57 -56 120 l-55 114 -87 -30 c-155 -55
-240 -100 -439 -234 -21 -14 -78 -63 -128 -110 l-43 -40 37 -76 c61 -127 132
-308 146 -371 2 -13 13 -53 24 -91 11 -37 22 -80 25 -95 2 -15 9 -47 15 -72
13 -56 20 -96 26 -151 3 -24 8 -60 10 -79 3 -19 7 -75 10 -124 3 -48 8 -92 11
-97 3 -5 1 -9 -3 -9 -5 0 -8 -12 -7 -27 1 -16 3 -28 4 -28 1 0 3 -19 3 -43 1
-23 0 -42 -3 -42 -3 0 -5 -30 -5 -68 -1 -83 -16 -241 -31 -312 -3 -14 -7 -38
-9 -55 -4 -27 -7 -41 -19 -93 -9 -41 -37 -148 -42 -162 -3 -8 -6 -17 -6 -20
-1 -3 -12 -36 -25 -75 -14 -38 -26 -74 -27 -80 -12 -42 -96 -227 -148 -325
-58 -108 -156 -263 -169 -268 -5 -2 -9 -8 -9 -14 0 -10 -70 -101 -82 -106 -5
-2 -8 -8 -8 -13 0 -20 -248 -275 -335 -344 -27 -22 -52 -42 -55 -45 -18 -19
-176 -129 -252 -175 -30 -18 -292 -150 -323 -162 -48 -19 -270 -92 -296 -97
-13 -2 -49 -10 -79 -16 -96 -20 -104 -21 -135 -25 -16 -2 -48 -6 -70 -9 -192
-27 -555 -17 -685 19 -8 3 -33 7 -55 11 -22 3 -49 11 -60 17 -11 6 -21 9 -23
8 -16 -15 -294 84 -457 164 -125 61 -367 208 -385 235 -3 4 -12 11 -22 16 -56
31 -287 254 -378 364 -80 98 -93 114 -105 132 -5 8 -34 50 -62 92 -29 43 -53
82 -53 87 0 5 -3 9 -8 9 -4 0 -12 9 -17 20 -6 11 -38 73 -71 137 -77 147 -160
356 -200 503 -17 64 -35 141 -40 170 -11 72 -13 80 -17 87 -3 5 -8 37 -11 73
-4 36 -9 74 -12 85 -19 80 -19 441 1 605 5 36 9 76 10 90 2 23 5 39 20 110 3
14 8 39 11 55 14 82 39 172 80 290 24 72 45 135 47 140 23 67 145 317 159 326
5 3 10 12 11 20 3 14 145 234 177 273 196 236 302 341 475 473 143 108 328
218 480 282 28 12 58 26 67 31 10 6 27 10 37 10 11 0 22 4 26 9 3 5 31 17 63
26 31 9 64 19 72 22 8 3 20 7 25 8 6 1 13 3 18 5 9 3 11 4 82 20 33 7 65 15
70 16 18 4 69 13 110 19 23 3 52 8 65 10 14 3 79 8 145 11 66 4 122 8 123 10
2 1 9 1 15 -1 7 -2 64 -6 127 -9z"/>
</g>
</svg>
