<svg width="72" height="48" viewBox="0 0 72 48" fill="none" xmlns="http://www.w3.org/2000/svg">
<g clip-path="url(#clip0_435_2105)">
<path d="M66.4834 47.9577C63.1161 47.9577 61.1192 46.2592 60.9663 43.8133H64.1858C64.1858 44.6287 64.6442 45.714 66.6362 45.7814C68.0167 45.7814 68.7807 44.9663 68.7807 44.3533C68.6278 43.4029 67.4002 43.3355 66.1776 43.1278C64.7971 42.9305 63.7274 42.6551 62.9582 42.3176C61.8885 41.7723 61.2719 40.6142 61.2719 39.3938C61.2719 37.2175 63.1161 35.5191 66.3305 35.5191C69.3973 35.5191 71.3891 37.0827 71.5364 39.4612H68.4752C68.4752 38.8533 68.3223 37.8304 66.4831 37.8304C65.2555 37.8304 64.4915 38.0329 64.3387 38.9157C64.3387 40.1415 66.9418 40.0739 68.9336 40.5465C70.7725 41.0243 72.0001 42.1773 72.0001 43.8133C72.0001 46.8047 69.5499 47.9577 66.4834 47.9577V47.9577ZM7.81494 27.8874L18.3853 21.8369L24.0549 31.4244H9.80675" fill="black"/>
<path fill-rule="evenodd" clip-rule="evenodd" d="M31.589 35.4961V47.5969H28.4958V35.4961H31.589Z" fill="black"/>
<path d="M2.90887 41.7254C2.90887 43.6261 4.59491 45.1894 6.42855 45.1894C8.42564 45.1894 9.95375 43.6261 9.95375 41.7254C9.95375 39.8921 8.42564 38.2613 6.42855 38.2613C4.59491 38.2613 2.90887 39.8921 2.90887 41.7254V41.7254ZM6.27591 47.9784C2.90863 47.9784 0 45.1894 0 41.7254C0 38.2613 2.90887 35.54 6.27591 35.54C7.65642 35.54 8.88405 35.8828 9.95375 36.6253V35.6748H13.0205V47.703H9.95399V46.9553C9.03717 47.6356 7.65666 47.9784 6.27615 47.9784H6.27591ZM47.1885 31.4214L32.4819 6.13943L43.052 0.0214844L61.4366 31.4214H47.1885ZM17.0042 41.7254C17.0042 43.6261 18.5378 45.1894 20.5294 45.1894C22.363 45.1894 24.0546 43.6261 24.0546 41.7254C24.0546 39.8921 22.363 38.2613 20.5294 38.2613C18.5376 38.2613 17.0042 39.8921 17.0042 41.7254ZM20.3765 47.9784C16.8513 47.9784 14.0955 45.1894 14.0955 41.7254C14.0955 38.2613 16.8513 35.54 20.3765 35.54C21.7517 35.54 22.9796 35.8828 24.0546 36.6253V31.5304H27.1161V47.703H24.0543V46.9553C22.9793 47.6356 21.7517 47.9784 20.3762 47.9784H20.3765ZM20.2255 17.0814L30.9485 11.1037L42.7467 31.4207H31.56V34.4121H28.4983V31.4207L20.2255 17.0814ZM70.0135 34.5063C69.2443 34.5063 68.4803 33.8259 68.4803 33.0105C68.4803 32.1952 69.2443 31.5148 70.0135 31.5148C70.9303 31.5148 71.5471 32.1954 71.5471 33.0105C71.5471 33.8257 70.9303 34.5065 70.0135 34.5065V34.5063ZM70.0135 31.7228C69.2443 31.7228 68.7859 32.3302 68.7859 33.0105C68.7859 33.6909 69.2443 34.3038 70.0135 34.3038C70.7777 34.3038 71.2361 33.6911 71.2361 33.0105C71.2361 32.33 70.7777 31.7228 70.0135 31.7228Z" fill="black"/>
<path d="M70.3297 33.8312L70.024 33.1509H69.7184V33.8312H69.4866V32.2004H70.1768C70.3297 32.2004 70.6353 32.4084 70.6353 32.6783C70.6353 32.9482 70.4824 33.0835 70.3297 33.1509L70.6353 33.8312H70.3297ZM70.024 32.4084H69.7184V32.9484H70.024C70.3297 32.9484 70.3297 32.881 70.3297 32.6783C70.3297 32.5382 70.3297 32.4084 70.024 32.4084ZM49.7792 41.7254C49.7792 43.6261 51.3129 45.1895 53.3044 45.1895C55.1434 45.1895 56.8244 43.6261 56.8244 41.7254C56.8244 39.8922 55.1434 38.2614 53.3044 38.2614C51.3126 38.2614 49.7792 39.8922 49.7792 41.7254ZM53.1465 47.9785C49.6266 47.9785 46.8706 45.1895 46.8706 41.7254C46.8706 38.2614 49.6266 35.5401 53.1463 35.5401C54.527 35.5401 55.7547 35.8828 56.8244 36.6254V35.6749H59.7383V47.7031H56.8246V46.9554C55.7547 47.6357 54.527 47.9785 53.1463 47.9785H53.1465ZM35.6945 41.7254C35.6945 43.6261 37.3806 45.1895 39.2195 45.1895C41.2115 45.1895 42.7447 43.6261 42.7447 41.7254C42.7447 39.8922 41.2113 38.2614 39.2195 38.2614C37.3806 38.2614 35.6945 39.8922 35.6945 41.7254ZM42.7447 31.5305H45.8062V47.7031H42.7447V46.9554C41.8226 47.6357 40.5949 47.9785 39.2195 47.9785C35.6945 47.9785 32.7856 45.1895 32.7856 41.7254C32.7856 38.2614 35.6945 35.5401 39.2195 35.5401C40.5947 35.5401 41.8226 35.8828 42.7447 36.6254V31.5305Z" fill="black"/>
</g>
<defs>
<clipPath id="clip0_435_2105">
<rect width="72" height="48" fill="white"/>
</clipPath>
</defs>
</svg>
