<svg width="102" height="31" viewBox="0 0 102 31" fill="none" xmlns="http://www.w3.org/2000/svg">
<path fill-rule="evenodd" clip-rule="evenodd" d="M62.8444 24.1468C56.9793 28.5371 48.4483 30.8762 41.0903 30.8762C30.7821 30.8761 21.5401 27.0256 14.5021 20.6201C13.9689 20.1163 14.431 19.4326 15.1064 19.8284C22.6776 24.2907 32.0261 26.9537 41.6946 26.9537C48.1995 26.9537 55.3797 25.5862 61.9913 22.7433C62.9866 22.3474 63.8041 23.427 62.8444 24.1468Z" fill="#FF9900"/>
<path fill-rule="evenodd" clip-rule="evenodd" d="M65.2991 21.3037C64.5527 20.3321 60.3227 20.8359 58.4388 21.0878C57.87 21.1598 57.7634 20.656 58.2966 20.2961C61.6734 17.885 67.183 18.6048 67.8229 19.3965C68.4627 20.1881 67.6451 25.802 64.4816 28.4649C63.9839 28.8608 63.5218 28.6449 63.7351 28.1051C64.446 26.3058 66.0456 22.3113 65.2991 21.3037Z" fill="#FF9900"/>
<path fill-rule="evenodd" clip-rule="evenodd" d="M58.5439 3.38269L58.5439 1.0436C58.5439 0.683738 58.7928 0.46782 59.1127 0.46782L69.421 0.46782C69.7409 0.46782 70.0252 0.719725 70.0252 1.0436L70.0252 3.02283C70.0252 3.34671 69.7409 3.77854 69.2432 4.49826L63.9114 12.1993C65.9019 12.1633 67.9991 12.4512 69.7764 13.4588C70.1674 13.6747 70.2741 14.0346 70.3096 14.3584L70.3096 16.8415C70.3096 17.2013 69.9541 17.5972 69.5631 17.3813C66.3996 15.6899 62.1696 15.51 58.6861 17.4173C58.3307 17.5972 57.9397 17.2373 57.9397 16.8775L57.9397 14.5024C57.9397 14.1425 57.9397 13.4948 58.3307 12.919L64.5156 3.95847L59.1482 3.95847C58.8283 3.95847 58.5439 3.70657 58.5439 3.38269V3.38269ZM20.972 17.8851L17.844 17.8851C17.5596 17.8491 17.3108 17.6332 17.2753 17.3453L17.2753 1.07958C17.2753 0.755709 17.5596 0.503804 17.8795 0.503804L20.7943 0.503804C21.1142 0.503804 21.3275 0.755707 21.363 1.0436L21.363 3.16677L21.4341 3.16677C22.1806 1.11557 23.638 0.143944 25.5574 0.143944C27.5125 0.143944 28.7566 1.11557 29.6097 3.16677C30.3561 1.11557 32.0979 0.143945 33.9462 0.143945C35.2614 0.143945 36.6833 0.683736 37.5719 1.94325C38.5672 3.31072 38.3539 5.28996 38.3539 7.05327L38.3539 17.3453C38.3539 17.6692 38.0696 17.9211 37.7496 17.9211L34.6572 17.9211C34.3372 17.8851 34.0884 17.6332 34.0884 17.3453L34.0884 8.70862C34.0884 8.02489 34.1595 6.29756 34.0173 5.64981C33.7685 4.57023 33.0931 4.24635 32.169 4.24635C31.4225 4.24635 30.6049 4.75016 30.285 5.57784C29.9651 6.40552 30.0007 7.77298 30.0007 8.70862L30.0007 17.3453C30.0007 17.6692 29.7163 17.9211 29.3964 17.9211L26.2683 17.9211C25.9484 17.8851 25.6996 17.6332 25.6996 17.3453L25.6996 8.70862C25.6996 6.90932 25.984 4.21036 23.7801 4.21036C21.5408 4.21036 21.6118 6.80136 21.6118 8.70862L21.6118 17.3453C21.5763 17.6332 21.3275 17.8851 20.972 17.8851V17.8851ZM78.9117 0.143949C83.5682 0.143949 86.0919 4.17439 86.0919 9.32039C86.0919 14.2865 83.3194 18.2449 78.9117 18.2449C74.3618 18.2449 71.8736 14.2145 71.8736 9.17645C71.8381 4.10242 74.3618 0.143949 78.9117 0.143949ZM78.9117 3.49065C76.6012 3.49065 76.459 6.69342 76.459 8.67265C76.459 10.6519 76.4235 14.8982 78.8761 14.8982C81.2933 14.8982 81.4354 11.4796 81.4354 9.39237C81.4354 8.0249 81.3643 6.36954 80.9733 5.07404C80.6179 3.92249 79.907 3.49065 78.9117 3.49065ZM92.0992 17.8851L88.9711 17.8851C88.6512 17.8491 88.4024 17.5972 88.4024 17.3093L88.4024 1.00761C88.438 0.719725 88.6868 0.467822 89.0067 0.467822L91.9215 0.467822C92.2058 0.467822 92.4191 0.683745 92.4902 0.935648L92.4902 3.41868L92.5613 3.41868C93.4499 1.18755 94.6585 0.14395 96.8268 0.143951C98.2131 0.143951 99.5994 0.647751 100.488 2.05121C101.306 3.34671 101.306 5.54186 101.306 7.12524L101.306 17.3813C101.27 17.6692 101.021 17.8851 100.701 17.8851L97.5732 17.8851C97.2889 17.8491 97.04 17.6332 97.0045 17.3813L97.0045 8.5287C97.0045 6.72939 97.2178 4.13841 95.0495 4.13841C94.303 4.13841 93.5921 4.64221 93.2366 5.43391C92.8101 6.44152 92.739 7.41313 92.739 8.5287L92.739 17.3093C92.7035 17.6332 92.4191 17.8851 92.0992 17.8851V17.8851ZM50.3329 10.1121C50.3329 11.3356 50.3684 12.3792 49.7641 13.4948C49.2665 14.3944 48.4845 14.9342 47.5958 14.9342C46.3873 14.9342 45.6764 13.9986 45.6764 12.6311C45.6764 9.93216 48.0579 9.42834 50.3329 9.42834L50.3329 10.1121ZM53.4964 17.8491C53.2832 18.029 52.9988 18.065 52.75 17.9211C51.7191 17.0574 51.5059 16.6256 50.9371 15.7979C49.2309 17.5612 47.9868 18.101 45.783 18.101C43.1526 18.101 41.091 16.4456 41.091 13.1709C41.091 10.5799 42.4772 8.85257 44.4323 7.9889C46.1385 7.2332 48.52 7.08926 50.3329 6.87334L50.3329 6.4775C50.3329 5.72179 50.404 4.82214 49.9419 4.17439C49.5509 3.59861 48.8399 3.3467 48.2001 3.3467C46.9916 3.3467 45.9252 3.95847 45.6764 5.25397C45.6053 5.54186 45.4275 5.82974 45.1432 5.82974L42.1218 5.50587C41.873 5.43389 41.5886 5.25397 41.6597 4.85812C42.3706 1.11557 45.6764 3.99315e-06 48.6622 4.25419e-06C50.1907 4.38781e-06 52.1812 0.395849 53.3898 1.58339C54.9183 3.02283 54.7761 4.96608 54.7761 7.05327L54.7761 11.9834C54.7761 13.4588 55.3804 14.1065 55.9491 14.9342C56.1624 15.2221 56.1979 15.582 55.9491 15.7619C55.2737 16.3017 54.1363 17.3093 53.4964 17.8491V17.8491ZM9.27746 10.1121C9.27746 11.3356 9.313 12.3792 8.70872 13.4948C8.21108 14.3944 7.42907 14.9342 6.54042 14.9342C5.33187 14.9342 4.62095 13.9986 4.62095 12.6311C4.62095 9.93215 7.00252 9.42834 9.27746 9.42834L9.27746 10.1121ZM12.4055 17.8491C12.1922 18.029 11.9078 18.065 11.659 17.9211C10.6282 17.0574 10.4149 16.6256 9.84619 15.7979C8.13999 17.5612 6.89588 18.101 4.69204 18.101C2.06165 18.101 -1.43772e-06 16.4456 -1.15144e-06 13.1709C-9.24925e-07 10.5799 1.38628 8.85256 3.3413 7.9889C5.0475 7.23319 7.42907 7.08926 9.24191 6.87334L9.24191 6.47749C9.24191 5.72178 9.313 4.82213 8.8509 4.17439C8.4599 3.59861 7.74899 3.3467 7.10916 3.3467C5.9006 3.3467 4.83423 3.95847 4.58541 5.25397C4.51431 5.54186 4.33659 5.82974 4.05222 5.82974L1.03083 5.50586C0.782005 5.43389 0.497643 5.25396 0.568735 4.85812C1.27965 1.11557 4.58541 4.00869e-07 7.57126 6.619e-07C9.09973 7.95523e-07 11.0903 0.395845 12.2989 1.58339C13.8273 3.02283 13.6851 4.96608 13.6851 7.05327L13.6851 11.9834C13.6851 13.4588 14.2894 14.1065 14.8581 14.9342C15.0714 15.2221 15.107 15.582 14.8581 15.7619C14.1828 16.3017 13.0453 17.3093 12.4055 17.8491V17.8491Z" fill="black"/>
</svg>
