<svg width="105" height="34" viewBox="0 0 105 34" fill="none" xmlns="http://www.w3.org/2000/svg">
<path d="M10.5957 24.1136C8.65062 24.1136 7.71569 22.6222 8.20393 20.8968C9.21192 17.3209 15.6891 12.0219 20.103 12.0219C23.3216 12.0219 23.0766 14.8944 21.1897 17.3445L20.1467 18.496C16.4057 22.1574 12.9376 24.1136 10.5957 24.1136ZM26.3718 0C20.7386 0.00218175 14.5354 3.43931 10.6395 6.69449L10.947 7.13913C16.9941 2.91133 25.3848 0.162323 27.6979 4.28584C28.9194 6.46104 26.8461 10.8542 23.9262 14.3263C24.6245 12.7929 24.1634 9.84887 20.092 9.84887C13.324 9.84887 0 18.791 0 27.9426C0 31.6084 2.54973 34 6.74969 34C17.9916 34 33.2375 15.6209 33.2375 6.38992C33.2375 3.12907 31.3567 0 26.3718 0ZM40.8451 24.1136C40.1906 24.1136 39.6459 23.8858 39.3051 23.47C38.9499 23.0341 38.844 22.4162 39.0124 21.7783C39.3865 20.3942 40.8823 19.3068 42.4205 19.3068H46.0386L44.7458 24.1136H40.8451ZM51.2435 9.70356C50.2088 8.43466 48.5337 7.86696 47.3349 7.86696H40.7602L39.6442 12.0184H45.8448L46.4389 12.0808C46.4451 12.0808 47.0081 12.1463 47.3222 12.5678C47.576 12.9203 47.6132 13.444 47.4307 14.1308L47.1376 15.2234H43.2308C39.8682 15.2234 35.1804 17.6294 34.1352 21.5156C33.6155 23.4534 34.0709 25.132 35.0806 26.3656C36.0825 27.59 37.9734 28.2659 40.016 28.2659H43.6341H43.632H48.2305L50.3873 20.2323L51.975 14.3271C52.5984 12.0053 51.9229 10.5304 51.2435 9.70356ZM96.4071 7.86696C94.6283 7.86696 92.9754 8.39189 91.6314 9.38546C90.2743 10.3878 89.5258 11.5921 89.0795 13.2533C88.1113 16.8536 90.9481 18.5912 93.2274 19.823C94.8623 20.7061 96.2763 21.468 95.9701 22.5964C95.754 23.4063 95.3991 24.1149 93.388 24.1149H87.2486L86.1347 28.2659H92.9304C94.7525 28.2659 96.4343 27.8876 97.7892 26.85C99.1454 25.8088 99.9119 24.3584 100.386 22.5881C100.841 20.9034 100.534 19.2941 99.4469 18.0933C98.5408 17.0849 97.2375 16.3845 96.0891 15.7658C94.6173 14.976 93.2296 14.2307 93.472 13.3275C93.6203 12.7807 94.1641 12.0184 95.3528 12.0184H101.325L102.442 7.86696H96.4071ZM60.7774 7.86696C58.999 7.86696 57.3466 8.39189 56.0022 9.38546C54.645 10.3878 53.8965 11.5921 53.4459 13.2533C52.4799 16.8536 55.3188 18.5912 57.5977 19.823C59.2335 20.7061 60.644 21.468 60.3408 22.5964C60.1225 23.4063 59.7694 24.1149 57.7583 24.1149H51.6198L50.5037 28.2659H57.2989C59.1233 28.2659 60.8046 27.8876 62.1595 26.85C63.5179 25.8088 64.2827 24.3584 64.7565 22.5881C65.2097 20.9034 64.9026 19.2941 63.8198 18.0933C62.9137 17.0849 61.6082 16.3845 60.4576 15.7658C58.9881 14.976 57.6021 14.2307 57.8449 13.3275C57.9906 12.7807 58.5366 12.0184 59.7231 12.0184H65.6918L66.8101 7.86696H60.7774ZM70.0497 7.86696L64.7197 28.2659H69.2229L74.5485 7.86696H70.0497ZM86.5285 7.86696C78.6006 7.89533 74.4518 13.1612 73.135 18.0667C71.5748 23.8832 74.6793 28.2664 80.3567 28.2664H84.1612L85.275 24.1154H81.4719C79.347 24.1154 76.4249 22.4476 77.6027 18.0667C78.538 14.5846 81.9422 12.0188 85.6762 12.0188H88.0921L89.2081 7.8674H86.5285V7.86696ZM102.123 27.3356H102.518V26.4524H102.832C103.041 26.4524 103.19 26.4751 103.271 26.5223C103.411 26.6073 103.485 26.7793 103.485 27.0372V27.2161L103.491 27.2881C103.495 27.2972 103.495 27.3042 103.497 27.3142C103.499 27.3208 103.502 27.3269 103.504 27.3361H103.874L103.861 27.3068C103.85 27.2689 103.844 27.2297 103.842 27.1903C103.838 27.131 103.834 27.0769 103.836 27.0254V26.8591C103.831 26.734 103.789 26.6131 103.714 26.5127C103.632 26.3944 103.502 26.3211 103.326 26.2927C103.464 26.2701 103.574 26.2356 103.651 26.1828C103.799 26.0898 103.872 25.9419 103.87 25.7425C103.872 25.4619 103.754 25.2726 103.524 25.1752C103.394 25.1224 103.19 25.0954 102.909 25.0954H102.124V27.3356H102.123ZM103.251 26.1261C103.169 26.1583 103.044 26.1767 102.876 26.1767H102.519V25.3646H102.857C103.075 25.3646 103.235 25.3925 103.333 25.4475C103.434 25.5047 103.485 25.6138 103.485 25.7765C103.485 25.9485 103.405 26.0658 103.251 26.1261ZM104.399 24.7812C103.998 24.3846 103.513 24.1878 102.947 24.1878C102.386 24.1878 101.903 24.3846 101.504 24.7812C101.105 25.1792 100.908 25.6605 100.908 26.2203C100.908 26.7876 101.105 27.2706 101.5 27.6686C101.899 28.0665 102.382 28.2672 102.949 28.2672C103.516 28.2672 103.998 28.0665 104.398 27.6686C104.799 27.2671 105 26.7863 105 26.2203C104.999 25.657 104.798 25.1757 104.399 24.7812ZM104.193 24.9785C104.538 25.3227 104.708 25.7346 104.708 26.2203C104.708 26.7086 104.538 27.1262 104.193 27.4713C103.853 27.8165 103.438 27.988 102.949 27.988C102.46 27.988 102.045 27.8165 101.7 27.4713C101.363 27.1262 101.192 26.7086 101.192 26.2203C101.192 25.7351 101.364 25.3227 101.704 24.9785C102.049 24.6333 102.464 24.4618 102.947 24.4618C103.434 24.4622 103.853 24.6333 104.193 24.9785Z" fill="#000066"/>
</svg>
