<svg width="104" height="30" viewBox="0 0 104 30" fill="none" xmlns="http://www.w3.org/2000/svg">
<path fill-rule="evenodd" clip-rule="evenodd" d="M71.8857 21.9824C70.3257 23.6482 68.3223 24.4943 65.9322 24.4943C63.5411 24.4943 61.5377 23.6482 59.9786 21.9824C58.4896 20.3956 57.6339 17.8583 57.6339 15.0235C57.6339 12.2566 58.499 9.75405 60.0042 8.15598C61.5793 6.49015 63.5733 5.64029 65.9303 5.63371C68.2911 5.64029 70.285 6.49015 71.8592 8.15598C73.3663 9.75405 74.2295 12.2566 74.2295 15.0235C74.2295 17.8583 73.3748 20.3956 71.8857 21.9824V21.9824ZM50.9533 15.0235C50.9533 15.1515 50.959 15.2776 50.9628 15.4038C48.5708 13.2363 45.1123 12.4297 42.9992 12.009C39.0898 11.1884 36.1031 10.4373 36.1031 7.66658C36.1031 5.71182 37.8616 4.28975 41.2398 4.5335C44.3267 4.75656 45.6267 6.63509 45.9831 8.44774C46.0342 8.74514 46.1722 8.9616 46.5125 8.96442L52.0643 9.01148C52.0907 9.01148 52.1134 9.00866 52.1371 9.00678C51.3542 10.8241 50.9533 12.8476 50.9533 15.0235V15.0235ZM41.5111 25.1898C38.826 25.1898 35.8677 24.2402 35.186 20.5659C35.1283 20.2149 34.9619 20.07 34.6915 20.0624L29.3242 19.9909V10.5465C30.0295 13.3144 32.3657 15.2306 37.4182 16.3628C40.8001 17.1684 46.6667 17.6804 46.6667 21.1363C46.6667 23.5456 44.8845 25.2463 41.5111 25.1898V25.1898ZM14.7774 24.4981C10.4473 24.4981 6.48014 21.1052 6.48014 15.0273C6.48014 10.2585 9.45454 5.63747 14.8058 5.63747C17.1241 5.63747 23.0019 6.42803 23.0019 15.0273C23.0019 23.6491 16.865 24.4981 14.7765 24.4981H14.7774ZM80.7503 12.7074C81.9822 14.3431 84.2059 15.5543 87.8185 16.3637C91.1994 17.1693 97.0669 17.6813 97.0669 21.1372C97.0669 23.5466 95.2838 25.2472 91.9114 25.1907C89.2272 25.1907 86.267 24.2411 85.5863 20.5669C85.5295 20.2158 85.3631 20.0709 85.0918 20.0634L80.1187 19.9975C80.6434 18.4568 80.911 16.7882 80.911 15.0245C80.9107 14.2494 80.857 13.4752 80.7503 12.7074V12.7074ZM91.5445 30C97.4999 30 104.519 27.793 103.97 20.6346C103.363 14.28 96.7199 12.6707 93.3995 12.01C89.4891 11.1893 86.5024 10.4383 86.5024 7.66752C86.5024 5.71276 88.261 4.29069 91.64 4.53445C94.7269 4.7575 96.0269 6.63603 96.3834 8.44868C96.4344 8.74608 96.5734 8.96254 96.9128 8.96537L102.465 9.01242C102.887 9.01525 103.019 8.7969 102.966 8.49762C101.878 1.87382 96.3191 0 91.2032 0C86.0949 0 79.94 1.42866 79.5032 7.75411C79.4881 7.99881 79.4824 8.23974 79.4824 8.47597C78.6693 6.7932 77.497 5.24784 75.9861 3.87941C73.197 1.37596 69.7197 0.0348224 65.9274 0.00188229H65.8017C63.9902 0.00188229 62.2175 0.334107 60.5317 0.99291C58.8183 1.66757 57.2416 2.64551 55.8782 3.87941C54.4477 5.17443 53.3179 6.62756 52.5105 8.20586C51.3079 1.82206 45.8413 0 40.802 0C36.1126 0 30.5401 1.20749 29.3242 6.30568V1.24514C29.3239 1.1155 29.272 0.991266 29.1799 0.89969C29.0877 0.808114 28.9628 0.756682 28.8326 0.756682H23.6042C23.474 0.756931 23.3492 0.808603 23.2572 0.900355C23.1652 0.992108 23.1135 1.11645 23.1135 1.24608V2.61074C23.1135 2.84038 22.9594 2.92038 22.7713 2.78674C20.9115 1.44372 18.1603 0.00282344 14.8493 0.00282344C12.9886 0.00282344 11.2121 0.32846 9.56799 0.970323C7.9229 1.61407 6.35912 2.5938 4.92392 3.88317C3.29018 5.36266 2.04596 7.04919 1.23004 8.89572C0.414109 10.7423 0 12.8052 0 15.0264C0 17.0997 0.366836 19.0441 1.08916 20.8012C1.81149 22.5584 2.91105 24.1837 4.35854 25.6331C5.80509 27.0824 7.4237 28.1836 9.16618 28.9083C10.9086 29.6301 12.8289 29.9962 14.8767 29.9962C18.3957 29.9962 21.0363 28.5045 22.7665 27.1483C22.9575 27.0034 23.1135 27.0815 23.1135 27.3187V28.752C23.1135 29.0212 23.3347 29.2414 23.6051 29.2414H28.8335C28.9637 29.2409 29.0883 29.1892 29.1803 29.0975C29.2722 29.0058 29.3239 28.8816 29.3242 28.752V23.924C31.789 29.6932 38.0696 29.9991 41.1443 29.9991C46.2838 29.9991 52.2108 28.3521 53.3869 23.3C53.9524 24.1361 54.5973 24.9162 55.3128 25.6293C58.1152 28.4368 61.7873 29.9464 65.9369 29.9915H66.1071C68.0774 29.9915 69.9787 29.6151 71.7581 28.8706C73.5545 28.1145 75.1834 27.013 76.5515 25.6293C77.575 24.6137 78.449 23.4591 79.1477 22.1998C81.0112 29.6377 88.1891 29.9991 91.5445 29.9991V30Z" fill="#0B0B0A"/>
</svg>
