<svg width="58" height="58" viewBox="0 0 58 58" fill="none" xmlns="http://www.w3.org/2000/svg">
<g clip-path="url(#clip0_435_2111)">
<path d="M27.0365 5.4274C24.8212 5.96108 23.1295 6.95795 21.8708 8.44823C21.0149 9.47531 20.2396 10.8347 20.2396 11.2979C20.2396 11.3885 20.1993 11.5093 20.149 11.5597C19.9576 11.7611 19.7361 13.201 19.7361 14.2482C19.7361 16.2017 20.3 17.9135 21.458 19.4743C22.4851 20.8639 24.1163 22.0722 25.5764 22.5354C26.0698 22.6864 26.1 22.9986 25.6469 23.2805C25.2038 23.5524 24.9521 23.5524 24.4889 23.2604C24.2875 23.1295 23.7538 22.8274 23.3108 22.5857C22.0823 21.9312 21.4983 21.609 20.2396 20.8941C18.7493 20.0583 18.4069 19.867 17.6719 19.4642C17.3396 19.283 16.9872 19.0715 16.8965 18.9909C16.7958 18.9003 16.6549 18.86 16.5642 18.8902C16.4434 18.9406 16.4132 19.1923 16.4132 20.3503C16.4132 21.9514 16.383 21.8909 17.4705 22.485C17.8028 22.6663 18.6385 23.1295 19.3333 23.5222C20.4913 24.1666 21.2365 24.5795 21.8306 24.8916C22.0319 25.0024 22.042 25.0326 21.9212 25.2038C21.8406 25.3145 21.5788 25.5159 21.3372 25.6368C21.0955 25.7677 20.5517 26.0597 20.1389 26.2812C19.726 26.5027 19.001 26.8955 18.5378 27.1573C18.0747 27.409 17.6819 27.6205 17.6618 27.6205C17.6517 27.6205 17.3597 27.7816 17.0274 27.9729L16.4132 28.3354V29.7955C16.4132 31.4066 16.4635 31.5375 16.9972 31.185C17.1483 31.0843 17.5913 30.8326 17.984 30.6312C18.3767 30.4298 18.8802 30.1479 19.0917 30.017C19.3132 29.8861 19.8972 29.5538 20.3906 29.2819C22.4347 28.1944 23.5122 27.5902 24.3177 27.1271C24.7003 26.8955 25.0729 26.7142 25.1333 26.7142C25.2944 26.7142 26.0799 27.2982 26.0799 27.4191C26.0799 27.4694 25.8181 27.6909 25.4858 27.9125C24.8413 28.3555 24.2875 29.0302 23.9653 29.7955C23.7236 30.3392 23.4215 31.9 23.5021 32.1114C23.5424 32.2222 23.8344 32.2524 24.7406 32.2524C25.3951 32.2524 25.9792 32.2121 26.0497 32.1718C26.1101 32.1316 26.2007 31.9604 26.2309 31.7993C26.4524 30.8326 27.258 29.8257 28.2649 29.2718L28.9094 28.9093L29.3625 29.0805C30.5708 29.5437 31.4972 30.4802 31.9101 31.6482L32.1014 32.2021H34.6892L34.6691 31.5677C34.5986 29.9465 33.8837 28.6274 32.6149 27.8218C32.3431 27.6406 32.1215 27.4593 32.1215 27.3989C32.1215 27.2177 32.6552 26.8149 32.8969 26.8149C33.0379 26.8149 33.2694 26.8955 33.4104 26.9961C33.6622 27.1673 33.9542 27.3385 35.6458 28.2448C36.8642 28.9093 37.3576 29.1913 38.5861 29.8961C39.291 30.309 39.8951 30.6413 39.9153 30.6413C39.9455 30.6413 40.2375 30.8024 40.5698 31.0038C40.9122 31.2052 41.2545 31.3461 41.3351 31.3059C41.4559 31.2656 41.4861 31.0038 41.4861 29.8055C41.4861 28.1239 41.5566 28.2548 40.3281 27.6104C39.6031 27.2378 38.9385 26.8854 36.9549 25.8281C36.5924 25.6368 36.2399 25.4354 36.1795 25.385C36.0285 25.2642 36.0083 24.9017 36.1392 24.9017C36.1896 24.9017 37.0556 24.4284 38.0524 23.8444C39.0493 23.2604 39.8951 22.7871 39.9153 22.7871C39.9455 22.7871 40.167 22.6461 40.4087 22.485C40.6604 22.3139 40.9021 22.183 40.9524 22.183C41.0028 22.183 41.1438 22.0823 41.2646 21.9514C41.466 21.7298 41.4861 21.6191 41.4861 20.3C41.4861 18.6687 41.4559 18.6284 40.7712 19.0514C40.5295 19.2125 40.0361 19.4944 39.6736 19.6857C39.3111 19.8771 38.274 20.4611 37.3576 20.9746C36.4413 21.4882 35.4948 22.0218 35.2431 22.1527C34.9913 22.2937 34.3972 22.626 33.924 22.8979C33.4406 23.1698 32.9472 23.3913 32.8163 23.3913C32.5444 23.3913 31.9201 23.0489 31.9201 22.8979C31.9201 22.7569 32.2122 22.485 32.3632 22.485C32.4438 22.485 32.7156 22.3843 32.9875 22.2736C34.6389 21.5486 36.5017 19.6757 37.2569 18.0041C37.9215 16.5541 37.9819 16.242 38.0323 14.3892C38.0726 13.1205 38.0424 12.6875 37.9215 12.3048C37.8309 12.043 37.7604 11.751 37.7604 11.6604C37.7604 11.3583 36.8441 9.56594 36.3708 8.94163C34.5785 6.55517 31.9201 5.25621 28.8691 5.27635C28.1642 5.27635 27.3788 5.34684 27.0365 5.4274V5.4274ZM30.4299 8.18642C32.8767 8.8208 34.7698 10.9656 35.1826 13.5534C35.6559 16.4534 34.1656 18.5882 30.2688 20.6323C29.7049 20.9343 29.1208 21.176 28.9698 21.176C28.6576 21.176 26.8854 20.2798 25.8382 19.575C24.9319 18.9708 23.7639 17.8833 23.3309 17.2187C23.1396 16.9368 22.8778 16.393 22.7569 16.0104C22.5556 15.4163 22.5354 15.2048 22.5858 14.2482C22.6663 12.7076 23.1295 11.4892 24.066 10.3715C25.7274 8.39788 28.1038 7.57219 30.4299 8.18642V8.18642ZM29.5035 24.8211C29.6747 24.942 29.8056 25.083 29.8056 25.1333C29.8056 25.2944 29.1813 25.808 28.9799 25.808C28.7382 25.808 28.0938 25.3347 28.0938 25.1534C28.0938 24.9722 28.6979 24.5996 28.9799 24.5996C29.1108 24.5996 29.3424 24.7003 29.5035 24.8211ZM35.1927 33.4809C35.1524 33.5715 35.0618 42.8253 35.0719 45.2923C35.0819 48.9375 35.1524 51.7368 35.233 51.8173C35.374 51.9583 36.5722 51.9986 36.7233 51.8677C36.824 51.7871 36.8542 50.317 36.8542 44.9902C36.8542 39.6937 36.8844 38.1934 36.9851 38.1229C37.0455 38.0625 37.3879 37.992 37.7302 37.9618C38.2337 37.9114 38.3545 37.9215 38.4049 38.0524C38.4351 38.143 38.4653 41.2646 38.4653 44.9902C38.4653 52.7437 38.3545 51.9885 39.4521 51.9482C39.7844 51.9382 40.0965 51.8979 40.1469 51.8576C40.1872 51.8173 40.2274 48.7159 40.2375 44.9701C40.2576 39.4923 40.2879 38.143 40.3986 38.0826C40.4691 38.0323 40.7108 37.992 40.9323 37.992C41.5566 37.992 41.5969 37.9215 41.5667 37.0757L41.5365 36.3305L41.033 36.3003C40.2274 36.25 40.1872 36.1593 40.2476 34.8201C40.2879 33.9642 40.2778 33.6319 40.1771 33.5111C40.016 33.3198 38.7674 33.2996 38.5861 33.4809C38.5056 33.5614 38.4653 34.0045 38.4653 34.8302C38.4653 35.5048 38.4351 36.1291 38.4049 36.2097C38.3646 36.3305 38.2236 36.3507 37.7302 36.3104C37.3879 36.2802 37.0556 36.2097 36.9851 36.1593C36.9045 36.0889 36.8542 35.6257 36.834 34.7396L36.8038 33.4104L36.0184 33.3802C35.4545 33.36 35.2229 33.3902 35.1927 33.4809V33.4809ZM0.0604173 33.6218C0.0302089 33.7125 0 36.9649 0 40.8517C0 48.5347 -2.88089e-07 48.5347 0.573958 49.5819C0.946528 50.2868 1.86285 51.1427 2.57778 51.4951C3.78611 52.0691 5.46771 52.059 6.68611 51.485C7.44132 51.1225 8.30729 50.2163 8.67986 49.4007C9.08264 48.5146 9.18333 47.135 8.91146 46.1885C8.14618 43.5402 5.09514 42.2111 2.63819 43.4496C2.21528 43.6611 1.97361 43.7316 1.90312 43.6611C1.84271 43.6007 1.80243 41.8184 1.8125 38.6767C1.8125 35.9882 1.79236 33.7125 1.75208 33.6218C1.66146 33.3902 0.151042 33.3802 0.0604173 33.6218ZM5.78993 44.95C7.56215 45.8562 7.94479 48.0816 6.55521 49.4409C5.1757 50.8003 3.04097 50.4479 2.16493 48.6958C1.48021 47.3666 1.97361 45.8562 3.34306 45.0104C3.99757 44.5975 5.05486 44.5774 5.78993 44.95ZM21.2868 43.0267C20.1188 43.1979 19.1319 43.933 18.5781 45.0406C18.4069 45.4031 18.2257 45.8159 18.1854 45.967C18.1049 46.3194 18.0847 51.7771 18.1753 51.8677C18.276 51.9684 19.4642 51.9784 19.6656 51.8677C19.8267 51.7871 19.8368 51.5455 19.8368 49.0885C19.8368 46.5409 19.8469 46.3798 20.0483 45.9972C20.2799 45.5541 20.4208 45.4031 20.9444 45.0406C21.2264 44.8392 21.4076 44.7989 22.0118 44.7889C22.6663 44.7889 22.7872 44.8191 23.1698 45.0909C23.7639 45.5038 24.1465 46.0878 24.2674 46.7524C24.3278 47.0545 24.3681 48.293 24.358 49.4913C24.3479 51.042 24.3781 51.7267 24.4587 51.8274C24.5896 51.9885 25.7274 51.9784 25.8986 51.8073C25.959 51.7468 25.9792 50.6795 25.949 48.8569C25.9087 45.7958 25.8785 45.6146 25.3347 44.7587C24.9722 44.1746 24.1163 43.4597 23.5323 43.2482C22.8979 43.0166 21.9816 42.926 21.2868 43.0267ZM44.4163 43.0368C43.0872 43.2583 41.7278 44.2955 41.1639 45.5139C40.8819 46.108 40.8417 46.3295 40.8014 47.2559C40.7712 48.142 40.7913 48.4139 40.9826 48.9576C41.5063 50.5284 42.7951 51.6159 44.4264 51.8677C45.3528 52.0086 46.5108 51.8576 47.276 51.485C48.3736 50.9514 49.4208 49.6524 49.592 48.5951C49.6625 48.1319 49.884 47.7694 50.0149 47.8902C50.0552 47.9406 50.0955 48.8368 50.0955 49.884C50.0955 51.4548 50.1257 51.8073 50.2465 51.8878C50.4278 51.9986 51.3139 51.9986 51.616 51.8777L51.8476 51.7972L51.8778 48.9777L51.908 46.1684L52.2101 45.7253C52.6531 45.0909 53.4385 44.7083 54.1837 44.7687C55.0497 44.8392 55.8049 45.393 56.1472 46.1986C56.2882 46.5309 56.3184 47.0243 56.3285 49.1389C56.3386 51.042 56.3688 51.7066 56.4694 51.8073C56.6205 51.9583 57.6979 51.9986 57.8792 51.8576C57.9698 51.7871 58 51.1024 58 49.0684C58 46.1382 57.9295 45.6649 57.3656 44.7687C57.0535 44.2753 56.3184 43.6007 55.7948 43.3389C55.251 43.0569 54.1736 42.9159 53.4083 43.0166C51.7167 43.2583 50.3976 44.5975 50.1962 46.259C50.0754 47.2357 49.874 47.2861 49.6323 46.4C49.2295 44.8593 48.0212 43.6007 46.5208 43.1475C45.9872 42.9864 45.0205 42.9361 44.4163 43.0368V43.0368ZM46.3899 44.95C47.3667 45.4232 48.0313 46.4402 48.0313 47.4673C48.0313 48.5649 47.2257 49.6927 46.1382 50.1055C43.9833 50.9413 41.7479 48.5246 42.6844 46.3899C43.3389 44.9097 44.9903 44.2753 46.3899 44.95V44.95ZM12.5767 43.2583C10.4118 44.0437 9.31424 45.9166 9.64653 48.2628C9.98889 50.6694 12.1941 52.2302 14.7517 51.8878C15.4767 51.7871 16.1313 51.5555 16.4434 51.3038C16.5844 51.183 16.6146 50.9916 16.6146 50.3069C16.6146 49.7027 16.5844 49.4711 16.4837 49.4711C16.4233 49.4711 16.1413 49.6323 15.8694 49.8236C15.2653 50.2566 14.8524 50.3774 14.0167 50.3774C13.3823 50.3774 12.9896 50.2566 12.9896 50.0753C12.9896 49.9646 12.9594 49.9948 14.6108 48.4642C17.0979 46.1784 17.9236 45.3125 17.8632 45.0708C17.7625 44.6882 16.6649 43.7416 15.9399 43.4093C15.3559 43.1375 15.1142 43.0871 14.2483 43.0569C13.3722 43.0267 13.1507 43.0468 12.5767 43.2583V43.2583ZM15.3559 45.0507C15.5573 45.252 15.5573 45.2521 14.8021 45.9771C12.4056 48.2729 11.8517 48.7663 11.6705 48.7663C11.4188 48.7663 11.1771 48.1722 11.1771 47.5479C11.1771 46.2489 12.2646 44.9902 13.5635 44.7587C14.208 44.6479 15.1042 44.7989 15.3559 45.0507ZM29.9063 43.1173C28.8892 43.3389 27.5601 44.2955 27.0264 45.1916C26.7042 45.7555 26.3819 46.9135 26.3819 47.5479C26.3819 48.2729 26.825 49.5316 27.3083 50.1559C28.134 51.2232 28.8993 51.6764 30.2385 51.8878C31.1649 52.0389 32.1719 51.8979 32.9573 51.5052L33.4809 51.2333L33.5111 50.3472C33.5413 49.3201 33.491 49.2798 32.7559 49.8135C32.1215 50.2566 31.7288 50.3774 30.9434 50.3774C30.2788 50.3774 29.9063 50.2566 29.9063 50.0451C29.9063 49.9746 30.5708 49.31 31.3865 48.5649C33.7427 46.4 34.8403 45.3326 34.8403 45.1916C34.8403 45.1211 34.5583 44.7687 34.216 44.4062C33.2997 43.4698 32.5142 43.1173 31.2254 43.067C30.6917 43.0569 30.0976 43.067 29.9063 43.1173V43.1173ZM32.1115 44.9399C32.4941 45.1413 32.3431 45.393 31.3462 46.3093C30.8125 46.8027 30.0069 47.558 29.5639 47.9809C29.1108 48.4139 28.6677 48.7663 28.5771 48.7663C28.3153 48.7663 28.0736 48.2024 28.0736 47.568C28.0635 46.2187 29.1611 44.95 30.5003 44.7486C31.0139 44.6781 31.7892 44.7687 32.1115 44.9399Z" fill="#1F8C24"/>
</g>
<defs>
<clipPath id="clip0_435_2111">
<rect width="58" height="58" fill="white"/>
</clipPath>
</defs>
</svg>
