<svg width="142" height="42" viewBox="0 0 142 42" fill="none" xmlns="http://www.w3.org/2000/svg">
<g clip-path="url(#clip0_435_2248)">
<path d="M41.4062 0V42H0.043457V0H41.4062ZM29.4753 8.8844H22.2238C15.2452 8.8844 9.5885 14.49 9.5885 21.4032C9.5885 28.3178 15.2452 33.9234 22.2238 33.9234H29.4753V8.8844ZM53.3152 16.4388C53.8927 15.8522 54.5846 15.3874 55.3744 15.057C56.1628 14.728 57.0353 14.5614 57.9643 14.5614H61.6376V17.0618H58.1325C57.5729 17.0618 57.0491 17.164 56.5791 17.3656C56.1063 17.5686 55.6983 17.8584 55.362 18.228C55.0271 18.5948 54.761 19.033 54.5708 19.5286C54.382 20.0242 54.2855 20.5716 54.2855 21.1582C54.2855 21.7448 54.382 22.2936 54.5708 22.7878C54.761 23.2848 55.0271 23.7216 55.362 24.0884C55.6969 24.4566 56.1049 24.7506 56.5763 24.962C57.0491 25.1748 57.5715 25.2812 58.1325 25.2812H61.639V27.7816H57.9643C57.0339 27.7816 56.1628 27.615 55.3744 27.286C54.586 26.957 53.8927 26.4922 53.3152 25.9056C52.7376 25.319 52.2745 24.6106 51.9423 23.8C51.6088 22.9922 51.4406 22.1032 51.4406 21.1582C51.4406 20.2146 51.6088 19.3284 51.9423 18.529C52.2745 17.7296 52.7376 17.0254 53.3152 16.4374V16.4388ZM70.7609 14.8134C71.4501 15.0864 72.0248 15.4644 72.47 15.9348L72.601 16.0734V14.7644H75.3494V27.5828H72.601V26.2738L72.47 26.4124C72.0248 26.8842 71.4487 27.2608 70.7609 27.5324C70.0717 27.8054 69.3122 27.944 68.5032 27.944C67.479 27.944 66.5556 27.755 65.7575 27.3812C64.9608 27.0088 64.2827 26.5062 63.7451 25.8874C63.2062 25.2658 62.7885 24.542 62.5018 23.7314C62.2133 22.9154 62.0664 22.0547 62.0677 21.1876C62.0677 20.3112 62.2138 19.4502 62.5018 18.6298C62.7885 17.8108 63.2062 17.0814 63.7451 16.4612C64.2827 15.8424 64.9594 15.3384 65.7589 14.9646C66.5542 14.5922 67.479 14.4032 68.5032 14.4032C69.3109 14.4032 70.0703 14.5418 70.7609 14.8134ZM72.3763 19.3522C72.1544 18.8258 71.8498 18.3778 71.4694 18.0194C71.0889 17.6624 70.652 17.395 70.1696 17.2256C69.6955 17.0573 69.1969 16.9712 68.6947 16.9708C68.1214 16.9708 67.5893 17.0856 67.1165 17.3124C66.6451 17.5378 66.2316 17.843 65.8898 18.2182C65.548 18.5948 65.2792 19.047 65.0945 19.5636C64.9112 20.0788 64.8161 20.6262 64.8161 21.1876C64.8161 21.749 64.9112 22.2908 65.0945 22.7976C65.2792 23.3044 65.5466 23.7524 65.8898 24.129C66.233 24.5042 66.6451 24.8094 67.1165 25.0348C67.5907 25.2616 68.1214 25.3764 68.6947 25.3764C69.1937 25.3764 69.6899 25.291 70.1696 25.1216C70.6506 24.9522 71.0876 24.6904 71.468 24.3418C71.8484 23.9932 72.1544 23.5494 72.3763 23.023C72.5982 22.498 72.7099 21.8792 72.7099 21.1876C72.7099 20.4946 72.5982 19.8772 72.3763 19.3522ZM80.2453 11.515V14.7644H84.2411V17.1948H80.2453V23.1336C80.2453 24.4748 80.9248 25.1552 82.2646 25.1552H84.2411V27.5842H82.237C80.6588 27.5842 79.461 27.2216 78.6753 26.5062C77.8938 25.7936 77.4982 24.8262 77.4982 23.6334V11.5136H80.2453V11.515ZM93.7889 14.8134C94.4781 15.0864 95.0542 15.4644 95.4994 15.9348L95.629 16.0734V14.7644H98.3788V27.5828H95.629V26.2738L95.4994 26.4124C95.0542 26.8828 94.4781 27.2608 93.7889 27.5324C93.0997 27.8054 92.3403 27.944 91.5326 27.944C90.5085 27.944 89.585 27.755 88.7869 27.3812C87.9888 27.0088 87.3121 26.5062 86.7745 25.8874C86.2356 25.2658 85.8166 24.542 85.5299 23.7314C85.2424 22.9151 85.096 22.0545 85.0971 21.1876C85.0971 20.3112 85.2432 19.4516 85.5299 18.6298C85.8166 17.8108 86.2356 17.0814 86.7745 16.4612C87.3107 15.8424 87.9875 15.3398 88.7869 14.9646C89.585 14.5922 90.5085 14.4032 91.5326 14.4032C92.3389 14.4032 93.0984 14.5418 93.7889 14.8134ZM95.4043 19.3522C95.1838 18.8258 94.8778 18.3778 94.4974 18.0194C94.1239 17.6656 93.6816 17.3952 93.199 17.2256C92.7249 17.0573 92.2264 16.9712 91.7242 16.9708C91.1494 16.9708 90.6187 17.0856 90.146 17.3124C89.6732 17.5378 89.2611 17.843 88.9192 18.2182C88.576 18.5948 88.3086 19.047 88.1239 19.5636C87.9392 20.0788 87.8455 20.6262 87.8455 21.1876C87.8455 21.749 87.9392 22.2908 88.1239 22.7976C88.3086 23.3044 88.576 23.7524 88.9192 24.129C89.2611 24.5042 89.6746 24.8094 90.146 25.0348C90.6201 25.2616 91.1508 25.3764 91.7242 25.3764C92.2231 25.3764 92.7193 25.291 93.199 25.1216C93.68 24.9522 94.117 24.6904 94.4974 24.3418C94.8778 23.9932 95.1824 23.5494 95.4057 23.023C95.6276 22.4952 95.7393 21.8792 95.7393 21.1876C95.7393 20.496 95.6276 19.8786 95.4057 19.3522H95.4043ZM111.09 22.6912C111.09 24.1458 112.256 25.3288 113.688 25.3288C115.12 25.3288 116.285 24.1458 116.285 22.6912V14.7644H119.033V22.568C119.033 25.5612 116.635 27.9958 113.688 27.9958C112.211 27.9958 110.783 27.3602 109.772 26.2542L109.716 26.194L109.661 26.2542C108.634 27.377 107.244 27.9958 105.743 27.9958C102.796 27.9958 100.398 25.5612 100.398 22.568V14.7644H103.147V22.6912C103.147 24.1458 104.313 25.3288 105.745 25.3288C107.177 25.3288 108.342 24.1458 108.342 22.6912V14.7644H111.09V22.6912ZM121.163 14.7644H123.911V27.5842H121.163V14.7644ZM124.077 10.9578V11.0138C124.077 11.8832 123.381 12.5888 122.523 12.5888C121.667 12.5888 120.971 11.8832 120.971 11.0138V10.9578C120.971 10.0898 121.667 9.3828 122.523 9.3828C123.381 9.3828 124.077 10.0898 124.077 10.9578ZM134.133 20.1698L137.986 27.5828H134.967L131.999 21.8708C131.109 22.3804 130.14 22.7136 129.12 22.862V27.5828H126.447V9.5984H129.12V20.0998C132.112 19.4474 133.644 16.5312 134.312 14.7644H137.157L137.146 14.798C136.778 16.0104 135.9 18.2994 134.133 20.1698ZM139.043 14.7644H141.791V27.5842H139.043V14.7644ZM141.957 10.9578V11.0138C141.957 11.8832 141.261 12.5888 140.403 12.5888C139.549 12.5888 138.853 11.8832 138.853 11.0138V10.9578C138.853 10.0898 139.549 9.3828 140.403 9.3828C141.261 9.3828 141.957 10.0898 141.957 10.9578Z" fill="#0033FF"/>
</g>
<defs>
<clipPath id="clip0_435_2248">
<rect width="142" height="42" fill="white"/>
</clipPath>
</defs>
</svg>
