<svg width="95" height="64" viewBox="0 0 95 64" fill="none" xmlns="http://www.w3.org/2000/svg">
<g clip-path="url(#clip0_435_2158)">
<path d="M35.6426 35.8127L35.6036 26.1481L44.828 22.7154L35.5383 19.6635L35.3437 10.1414L29.7085 17.8242L20.4902 14.9734L25.8412 23.0384L20.6181 31.1181L29.7163 28.0934L35.6426 35.8127Z" fill="black"/>
<path d="M36.7947 45.9718H53.3172L74.0251 23L53.2173 0H36.8541L56.3149 22.9661L36.7947 45.9718Z" fill="black"/>
<path d="M0.00146484 58.3368C0.00146484 55.3516 2.51746 52.4158 5.95608 52.4158C8.29833 52.4158 10.9268 55.0647 10.9268 55.0647L8.07907 56.7268C8.07907 56.7268 7.60865 55.4802 5.85263 55.4802C4.06744 55.4802 3.01705 56.9505 3.00471 58.285C2.99093 59.7767 4.21012 61.0897 5.74898 61.0897C6.95649 61.0897 8.23439 59.7912 8.23439 59.7912L10.668 61.5571C10.668 61.5571 8.84694 63.7906 5.80085 63.7906C2.7485 63.7906 0.00146484 61.9443 0.00146484 58.3368V58.3368Z" fill="black"/>
<path fill-rule="evenodd" clip-rule="evenodd" d="M17.757 52.5669C14.5542 52.5669 11.9624 55.1331 11.9624 58.2886C11.9624 61.444 14.5542 64 17.757 64C20.9599 64 23.5618 61.444 23.5618 58.2886C23.5618 55.1331 20.9599 52.567 17.757 52.567V52.5669ZM17.757 55.4277C19.3585 55.4277 20.6594 56.7109 20.6594 58.2886C20.6594 59.8663 19.3585 61.1393 17.757 61.1393C16.1557 61.1393 14.8648 59.8663 14.8648 58.2886C14.8648 56.7109 16.1557 55.4277 17.757 55.4277ZM25.7385 52.7287V63.4239H28.53V57.6435L33.1355 63.4239H35.8866V52.7287H33.0851V58.979L28.53 52.7287H25.7385ZM38.1642 52.7287L41.9332 63.4239H46.0852L49.8542 52.7287H46.8006L44.0091 61.2202L41.2176 52.7287H38.1642ZM51.8596 52.7287V63.4239H60.4357V60.9573H54.6511V59.1681H59.8513V56.9845H54.6511V55.276H60.4357V52.7286L51.8596 52.7287ZM86.4225 52.7287V63.4239H94.9986V60.9573H89.214V59.1681H94.4142V56.9845H89.214V55.276H94.9986V52.7286L86.4225 52.7287ZM63.59 52.9309V63.4744H66.069V59.3197H67.49L69.6667 63.4744H72.8613L70.7048 58.9658C73.5086 57.2795 72.9536 53.7498 69.828 52.9309H63.59ZM66.0187 55.4783H68.8807C69.8752 55.4783 69.8106 57.0249 68.8807 57.0249H66.0187V55.4783Z" fill="black"/>
<path d="M74.3511 61.9977C74.461 62.6588 77.0593 63.9075 79.6234 63.9075C81.9781 63.9075 83.8707 62.7735 83.8707 60.5224C83.8707 57.7539 80.6486 57.113 80.6486 57.113C80.6486 57.113 77.9717 57.0752 77.9026 55.8275C77.8702 55.2405 78.6854 54.9094 79.4038 54.9094C80.5799 54.9094 81.8935 56.0847 81.8935 56.0847L83.7608 54.0647C83.7608 54.0647 81.3982 52.1917 79.4038 52.1917C77.4993 52.1917 74.7905 53.4427 74.7905 56.0479C74.7905 58.2645 77.9261 59.2841 77.9261 59.2841C77.9261 59.2841 81.2345 59.6376 81.2345 60.6755C81.2345 61.3819 80.0347 61.5937 79.3306 61.5937C77.6211 61.5937 76.1819 60.0879 76.1819 60.0879L74.3511 61.9977Z" fill="black"/>
</g>
<defs>
<clipPath id="clip0_435_2158">
<rect width="95" height="64" fill="white"/>
</clipPath>
</defs>
</svg>
