<svg width="96" height="27" viewBox="0 0 96 27" fill="none" xmlns="http://www.w3.org/2000/svg">
<path d="M9.91929 24.2846C9.91929 22.6925 11.1473 21.6047 12.7477 21.6047C14.1461 21.6047 14.8631 22.3851 15.1681 23.1299L13.8054 23.7762C13.6707 23.3703 13.2587 23.0314 12.7477 23.0314C12.0307 23.0314 11.5197 23.6068 11.5197 24.3201C11.5197 25.0334 12.0307 25.6088 12.7477 25.6088C13.2587 25.6088 13.6667 25.2699 13.8054 24.864L15.1681 25.4748C14.8631 26.1527 14.1778 27 12.7477 27C11.1473 26.9606 9.91929 25.8768 9.91929 24.2846ZM18.4085 21.6047C20.0089 21.6047 21.2726 22.6885 21.2726 24.2846C21.2726 25.8768 20.0129 26.9645 18.4085 26.9645C16.8042 26.9645 15.5444 25.8808 15.5444 24.2846C15.5444 22.6885 16.8081 21.6047 18.4085 21.6047ZM18.4085 22.9959C17.6598 22.9959 17.1488 23.5713 17.1488 24.2846C17.1488 24.998 17.6242 25.5733 18.4085 25.5733C19.1572 25.5733 19.6682 24.998 19.6682 24.2846C19.6682 23.5713 19.1572 22.9959 18.4085 22.9959ZM26.4541 23.6028L25.2934 26.8936H24.5764L23.4157 23.6028V26.8936H21.847V21.6717H24.0297L24.9488 24.3162L25.8678 21.6717H28.0505V26.8621H26.4818V23.6068H26.4541V23.6028ZM28.7358 21.6717H32.6893V22.9959H30.3045V23.6068H32.6219V24.931H30.3045V25.6088H32.6893V26.933H28.7358V21.6717ZM38.7938 26.2157H36.7814L36.5754 26.8936H34.872L36.817 21.7033H38.7938L40.7388 26.8936H39.0354L38.7938 26.2157ZM37.1934 24.8916H38.3857L37.8074 23.059L37.1934 24.8916ZM41.7252 24.9625C42.1332 25.3369 42.7155 25.6403 43.3969 25.6403C43.7019 25.6403 43.9752 25.5379 43.9752 25.3369C43.9752 25.132 43.7692 25.0334 43.2265 24.931C42.3748 24.7615 41.0438 24.5566 41.0438 23.2678C41.0438 22.3851 41.7925 21.5732 43.2265 21.5732C44.0782 21.5732 44.8626 21.8097 45.441 22.2865L44.5893 23.4058C44.1456 23.0669 43.5316 22.8974 43.1235 22.8974C42.7155 22.8974 42.6482 23.0314 42.6482 23.1693C42.6482 23.3743 42.8542 23.4413 43.4325 23.5437C44.2842 23.6777 45.5796 23.9496 45.5796 25.1359C45.5796 26.2906 44.7279 26.933 43.3295 26.933C42.2045 26.933 41.4558 26.5941 40.9091 26.1172L41.7252 24.9625ZM49.4974 24.8246L47.5207 21.7033H49.2914L50.2818 23.4649L51.2365 21.7033H53.0072L51.0621 24.8246V26.8936H49.4934L49.4974 24.8246ZM55.4315 21.6047C57.0319 21.6047 58.2956 22.6885 58.2956 24.2846C58.2956 25.8768 57.0359 26.9645 55.4315 26.9645C53.8272 26.9645 52.5675 25.8808 52.5675 24.2846C52.5675 22.6885 53.8272 21.6047 55.4315 21.6047ZM55.4315 22.9959C54.6828 22.9959 54.1718 23.5713 54.1718 24.2846C54.1718 24.998 54.6472 25.5733 55.4315 25.5733C56.2159 25.5733 56.6913 24.998 56.6913 24.2846C56.6913 23.5713 56.1802 22.9959 55.4315 22.9959ZM58.874 21.6717H60.4744V24.6906C60.4744 25.199 60.7477 25.5733 61.3934 25.5733C62.0391 25.5733 62.2808 25.1674 62.2808 24.6906V21.6717H63.8812V24.7221C63.8812 26.0108 63.1325 26.9606 61.3578 26.9606C59.587 26.9606 58.8344 26.0108 58.8344 24.7221V21.6717H58.874ZM70.0886 26.2157H68.0763L67.8703 26.8936H66.1669L68.1119 21.7033H70.0886L72.0337 26.8936H70.3303L70.0886 26.2157ZM68.4882 24.8916H69.6806L69.1023 23.059L68.4882 24.8916ZM74.6205 25.199H74.0421V26.8621H72.4734V21.6717H75.2701C76.4981 21.6717 77.1439 22.4875 77.1439 23.4688C77.1439 24.3516 76.6328 24.8246 76.1892 25.0295L77.1439 26.8621H75.3375L74.6205 25.199ZM75.0324 22.9959H74.0421V23.9102H74.9968C75.2701 23.9102 75.5078 23.7408 75.5078 23.4373C75.5435 23.1654 75.2701 22.9959 75.0324 22.9959ZM77.6232 21.6717H81.5766V22.9959H79.1919V23.6068H81.5093V24.931H79.1919V25.6088H81.5766V26.933H77.6232V21.6717ZM83.28 22.0461V23.4688H82.8364V22.0461H82.3253V21.7072H83.791V22.0461H83.28ZM85.6687 23.4688V22.2156L85.2251 23.4688H84.92L84.4764 22.2156V23.4688H84.0683V21.7072H84.6467L85.0904 22.8619L85.534 21.7072H86.1124V23.4688H85.6687ZM66.5432 4.74894C67.8386 4.74894 69.0666 5.4268 69.748 6.37659L69.8153 6.44359C69.851 6.47905 69.8826 6.51058 69.8826 6.54605C70.3263 7.12144 71.0433 7.46037 71.8277 7.46037C73.1904 7.46037 74.3154 6.34112 74.3154 4.9854C74.3154 4.33908 74.0777 3.76368 73.6658 3.32229C71.9624 1.22172 69.9183 0 66.5432 0C61.1914 0 57.1349 3.69669 57.1349 8.88702C57.1349 14.1444 61.1557 17.841 66.5432 17.841C69.9856 17.841 71.998 16.6548 73.7014 14.7552C74.0777 14.3138 74.3154 13.77 74.3154 13.163C74.3154 11.8073 73.2261 10.7196 71.8594 10.7196C71.1107 10.7196 70.461 11.0585 70.0173 11.5669C69.1973 12.3827 68.2783 13.1591 66.5392 13.1591C64.0832 13.1591 62.6888 11.3975 62.6888 8.88702C62.7244 6.47905 64.0872 4.74894 66.5432 4.74894ZM85.6687 6.78251C83.3157 6.27412 82.2263 6.13618 82.2263 5.19034C82.2263 4.51248 82.8403 4.17355 84.0683 4.17355C85.3637 4.17355 86.5561 4.78441 87.3761 5.46227C87.7524 5.83667 88.2634 6.03766 88.8418 6.03766C90.0342 6.03766 90.9889 5.08787 90.9889 3.90162C90.9889 3.29076 90.7155 2.71537 90.2719 2.34097C88.8735 0.914319 86.8611 0 84.0327 0C80.3526 0 77.3855 1.56065 77.3855 5.4268C77.3855 8.98949 80.0119 10.2782 82.361 10.8851C85.1577 11.5985 86.2471 11.5985 86.2471 12.5482C86.2471 13.2616 85.6687 13.6005 83.894 13.6005C82.4957 13.6005 81.2003 13.0921 80.1109 12.2448L80.1466 12.2803C79.2949 11.4999 77.9322 11.5354 77.1122 12.3827C76.4308 13.0606 76.3278 14.0774 76.7715 14.8932C76.7715 14.9286 76.8071 14.9602 76.8071 14.9602C76.8428 15.0272 76.8745 15.0941 76.9418 15.1651C76.9775 15.2006 77.0092 15.2676 77.0448 15.2991C77.0805 15.3306 77.1122 15.4015 77.1795 15.4331L77.2825 15.5355C78.7839 16.8597 80.9309 17.8765 84.2387 17.8765C89.6578 17.8765 91.2939 15.2991 91.2939 12.1778C91.2939 8.51263 88.1565 7.3579 85.6687 6.78251ZM9.40827 4.74894C10.7036 4.74894 11.9317 5.4268 12.613 6.37659L12.6804 6.44359C12.716 6.47905 12.7477 6.51058 12.7477 6.54605C13.1914 7.12144 13.9084 7.46037 14.6927 7.46037C16.0555 7.46037 17.1805 6.34112 17.1805 4.9854C17.1805 4.33908 16.9428 3.76368 16.5308 3.32229C14.8274 1.22172 12.7834 0 9.37658 0C4.0208 0 0 3.69669 0 8.88702C0 14.1444 4.0208 17.841 9.40827 17.841C12.8507 17.841 14.8631 16.6548 16.5665 14.7552C16.9428 14.3138 17.1805 13.77 17.1805 13.163C17.1805 11.8073 16.0911 10.7196 14.7244 10.7196C13.9757 10.7196 13.3261 11.0585 12.8824 11.5669C12.0624 12.3827 11.1434 13.1591 9.43996 13.1591C6.98391 13.1591 5.5895 11.3975 5.5895 8.88702C5.55781 6.47905 6.92053 4.74894 9.40827 4.74894ZM44.8269 13.2616C42.4065 13.2616 40.9052 11.4999 40.9052 8.95402C40.9052 6.37659 42.4065 4.64648 44.8269 4.64648C47.2473 4.64648 48.7131 6.37659 48.7131 8.95402C48.6814 11.496 47.2473 13.2616 44.8269 13.2616ZM44.8269 0C39.5108 0 35.3513 3.73216 35.3513 8.95402C35.3513 14.1444 39.5108 17.841 44.8269 17.841C50.1431 17.841 54.2709 14.1444 54.2709 8.95402C54.2709 3.73216 50.1471 0 44.8269 0ZM32.6219 1.11925C31.7702 0.677857 31.1919 0.575391 29.9282 0.677857C27.6821 0.882791 25.9431 2.44344 25.6341 2.8139C25.535 1.39118 24.3387 0.236462 22.873 0.236462C21.3399 0.236462 20.1119 1.45818 20.0763 2.94789V15.0547C20.1119 16.5484 21.336 17.7346 22.873 17.7346C24.41 17.7346 25.6341 16.5129 25.6697 15.0232V11.7324C25.6697 7.25544 28.2961 6.10072 29.7618 6.06919C30.1382 6.06919 31.1245 6.44359 31.9089 6.30565C33.4419 6.03372 34.4323 4.57554 34.159 3.08189C33.953 2.20304 33.3746 1.49365 32.6219 1.11925ZM92.518 0.914319V2.6799H91.9713V0.914319H91.3216V0.472924H93.128V0.914319H92.518ZM95.485 2.6799V1.11925L94.9067 2.6799H94.5303L93.952 1.11925V2.6799H93.441V0.472924H94.1897L94.7363 1.93111L95.283 0.472924H96V2.6799H95.485Z" fill="#464342"/>
</svg>
