<svg width="101" height="87" viewBox="0 0 101 87" fill="none" xmlns="http://www.w3.org/2000/svg">
<path d="M100.814 85.6835V75.6337H98.0072V81.9253H97.983L93.944 75.6334H90.5997V85.6835H93.4065V79.3356H93.4307L97.6049 85.6835H100.814ZM84.82 85.6835H88.0294V75.6337H85.2226V81.9253H85.1984L81.1585 75.6334H77.8154V85.6835H80.6222V79.3356H80.6464L84.82 85.6835ZM73.5473 85.6835H76.6594L72.9126 75.6337H69.3612L65.5785 85.6835H68.6903L69.2146 84.0504H73.023L73.5473 85.6835ZM72.3392 81.9677H69.8981L71.1064 78.1674H71.1306L72.3392 81.9677ZM61.5719 85.6835H64.2472V75.6337H60.0585L58.0691 82.263H58.045L56.0559 75.6337H51.8672V85.6835H54.5425V78.1671H54.567L56.8614 85.6835H59.253L61.5474 78.1671H61.5719V85.6835ZM46.4024 85.6835H49.3071V75.6337H46.4024V79.4676H42.1434V75.6337H39.2393V85.6835H42.1434V81.7133H46.4024V85.6835ZM30.2818 80.6515C30.2818 78.9606 30.8818 77.5121 32.6754 77.5121C33.9063 77.5121 34.5006 78.2621 34.7348 79.1253H37.6232C37.4824 76.8802 35.5536 75.2946 32.6771 75.2946C29.0541 75.2946 27.3202 77.6928 27.3202 80.6515C27.3202 83.6097 29.0541 86.0082 32.6771 86.0082C35.6928 86.0082 37.4824 84.3113 37.6292 82.1242H34.751C34.5868 83.0122 33.9959 83.7516 32.6754 83.7516C30.8818 83.7516 30.2818 82.3421 30.2818 80.6515ZM22.5058 85.6835H25.4105V75.6334H22.5055L22.5058 85.6835ZM11.9427 85.6835H20.4414V83.5155H14.8477V81.7002H19.4868V79.6167H14.8477V77.8015H20.4414V75.6334H11.9427V85.6835ZM10.2595 80.6618C10.2595 77.8865 8.58084 75.6371 5.23489 75.6371L0 75.6368V85.6867L5.23489 85.6869C8.58084 85.6869 10.2595 83.437 10.2595 80.6618ZM7.29709 80.6444C7.29709 82.0237 6.69874 83.4313 5.03942 83.4313H2.9041V77.8854H4.80697C6.35732 77.8854 7.29709 78.7722 7.29709 80.6444ZM80.6512 1.37594C80.6512 0.450111 80.2 0 79.275 0H21.5385C20.6129 0 20.1628 0.450395 20.1628 1.37594V59.1119C20.1628 60.038 20.6129 60.4887 21.7758 60.4887H79.512C80.1997 60.4887 80.6512 60.038 80.6512 59.1122V1.37594Z" fill="#009661"/>
<path d="M60.7191 30.0138C60.7191 21.4367 54.6625 16.8479 48.7451 16.8479H43.379C42.8925 16.8479 42.6555 17.0841 42.6555 17.5842V42.1696C42.6555 42.7284 42.9201 42.9933 43.4644 42.9933H48.8919C54.646 42.9933 60.7191 38.5929 60.7191 30.0135V30.0138ZM71.208 30.6201C71.208 41.5371 61.4176 49.782 52.2447 49.782C46.6917 49.782 45.4782 45.9188 38.7601 45.9188C37.4514 45.9188 36.3204 46.1156 35.6705 46.2192C34.9629 46.3322 33.9657 46.5695 33.3235 46.3592C32.8538 46.2055 32.3943 45.8044 32.3943 44.6891V12.668C32.3943 11.5146 32.9403 10.968 34.0627 10.968H51.0022C63.8289 10.968 71.208 19.7995 71.208 30.6198" fill="white"/>
</svg>
