<svg width="104" height="43" viewBox="0 0 104 43" fill="none" xmlns="http://www.w3.org/2000/svg">
<path d="M52.3175 4.69228C53.0249 4.72535 53.7006 4.9955 54.2358 5.45921C54.9651 6.14945 55.1563 7.3004 54.8111 8.22128C53.4693 10.9828 50.278 12.8273 48.0974 13.4375C46.7928 13.7443 45.1435 13.7443 43.954 13.2841C43.3781 13.6293 42.8923 14.7446 42.1891 14.2812C41.1713 13.4864 42.0524 12.2427 41.4648 11.3601C41.3436 11.1784 41.0385 11.1651 40.885 10.8677C40.079 9.10325 41.0768 7.41544 42.1891 6.07331C44.0435 4.00482 49.3637 1.70013 52.3175 4.69228ZM46.1407 6.07276C45.1046 6.26449 43.9345 6.7152 43.3019 7.45379C42.6688 8.19182 42.2664 8.91152 42.6499 9.67845C43.9929 8.68144 44.6449 7.3004 46.1413 6.45678C46.1407 6.30284 46.3709 6.1878 46.1407 6.07276ZM52.3948 6.45678C49.7472 6.22614 47.7522 8.22128 45.8723 10.1386C45.7572 10.4454 45.0668 10.7905 45.6038 11.1356C48.1363 11.3657 50.5532 10.6377 52.3948 8.94931C52.9323 8.4508 53.3147 7.79891 53.0474 7.10811C52.9323 6.84024 52.6616 6.57182 52.3948 6.45678ZM75.3359 17.8868C76.5638 20.879 77.5994 25.5962 75.3359 28.4733C74.7222 29.1635 73.6483 29.7999 72.9579 29.2786C70.4254 27.2462 69.352 24.3307 67.7789 21.7221C67.5488 21.607 67.5488 21.9143 67.4337 22.0294C66.8584 24.6759 67.9323 28.1282 66.1296 30.1989C65.4393 30.3139 64.7933 29.9588 64.5565 29.2786C63.6738 26.5554 64.5938 23.7166 64.8239 20.9935C65.3614 19.6124 65.5916 18.0019 66.7811 16.966C68.6994 17.7329 69.6199 19.8814 70.7316 21.4542C71.5382 22.6429 72.1897 23.9856 73.1102 25.0593C73.9156 24.7142 73.5193 23.6616 73.4943 23.0264C73.1863 20.5333 72.496 18.232 71.8434 15.8539C71.8061 15.2404 71.4609 14.2045 72.1119 13.821C73.8406 14.5885 74.5682 16.3908 75.3359 17.8868V17.8868ZM63.75 16.966C63.75 17.5417 63.2897 18.2609 62.9051 18.347C59.2225 18.9222 55.1174 18.5771 51.6649 19.7275C51.5499 20.1493 52.0485 20.226 52.317 20.341C55.2703 20.8012 58.3787 20.9162 61.2564 21.6454C62.7778 22.0316 63.3286 23.8322 63.4437 25.3278C63.5143 26.5071 63.0607 27.9359 61.909 28.7417C59.0707 30.5446 54.7355 30.4673 51.8573 28.819C50.7572 28.2021 49.7088 27.2084 49.6321 25.9808C49.6388 25.006 50.0546 24.2385 50.745 23.8711C53.5076 22.7585 56.9217 23.3732 59.3008 24.7915C59.4532 25.5589 58.6227 25.5173 58.2252 25.789C55.5777 27.3234 53.5832 24.064 51.128 25.2516C50.7828 25.4817 50.5332 26.1236 50.9362 26.3259C53.9668 27.6686 57.3431 26.7093 60.3353 25.8657C60.6805 25.7507 61.103 25.4056 61.1408 25.0604C61.0257 23.8328 59.6449 23.5649 58.7622 23.2198C56.1535 22.5679 53.2764 22.5679 50.4754 22.2995C49.9384 22.1844 49.2541 21.8104 49.0946 21.3792C48.7878 20.4588 48.7878 19.1928 49.4782 18.4259C53.0457 15.2804 58.4548 15.5494 62.9818 16.393C63.2892 16.5058 63.6344 16.6208 63.75 16.966V16.966ZM46.9851 18.4237C47.3303 22.1055 47.5221 25.52 47.4454 29.3936C47.3687 29.8916 46.7933 30.0072 46.4098 30.1989C45.7961 30.3139 45.0029 30.1833 44.76 29.8538C43.8778 28.4338 44.1847 26.5171 44.1079 24.7909C44.223 22.0683 44.1847 19.1145 44.9523 16.5825C45.0991 16.2146 45.5276 15.8923 45.8728 16.1218C46.7933 16.5825 46.9468 17.5034 46.9851 18.4237V18.4237ZM89.6088 17.8868C89.7934 18.1969 89.9862 18.676 89.6088 18.8839C87.8823 19.6508 85.5427 19.3057 83.5471 19.5357C83.0101 19.9959 82.5877 20.7628 82.7789 21.4536C82.9718 21.5687 83.1436 21.7437 83.3553 21.7215C84.5821 21.7988 86.4243 21.1463 87.2308 22.2967C87.4276 22.639 87.2041 23.9173 86.6555 23.9462C85.1586 24.139 82.6972 23.7583 81.974 24.139C81.0535 24.7526 81.1297 25.9413 80.7845 26.9011C81.437 27.3229 82.1202 26.8911 82.894 26.7855C84.3148 26.5554 85.8879 26.1336 87.3064 26.4404C87.5749 26.9389 87.959 27.4763 87.69 28.0898C85.2714 30.0077 82.1519 31.9734 78.8284 30.5829C77.581 30.0238 77.0251 28.1282 77.4476 26.5182C77.7155 25.3672 78.9045 24.2552 78.1763 23.0275C78.0613 22.4901 78.3687 22.0305 78.8289 21.9155C80.0946 21.9155 79.8256 20.3427 80.4782 19.6136C79.7494 18.8083 77.9084 18.8466 78.1002 17.2355C78.9829 16.7753 80.0574 16.9287 81.0535 16.7753C83.317 16.3146 85.8489 16.0462 88.1525 16.3146C88.611 16.4069 89.2253 17.3116 89.6088 17.8868ZM34.8233 9.1416C38.3636 12.0348 42.9568 16.9665 42.3814 22.6429C41.6905 27.1312 36.9334 30.5062 32.9051 31.5805C28.9918 32.7309 24.0813 32.6158 20.0907 31.6955C19.8222 32.4246 19.5537 33.3061 18.7099 33.6134C18.173 33.8051 17.482 33.6901 17.0601 33.345C15.8711 32.2324 16.83 30.0844 15.1035 29.3947C11.7272 27.9753 8.08236 25.1749 6.3564 21.7232C6.12627 21.0329 6.39475 20.3427 6.81665 19.8058C9.46424 17.6962 12.8016 16.8526 16.1396 16.2001C16.3314 16.2768 16.2547 16.0084 16.4081 15.9317C16.5999 13.6304 16.6766 11.2901 17.4053 9.21885C17.5715 8.92819 17.9806 8.83538 18.2497 9.02711C20.3597 10.6377 19.362 13.6687 20.283 15.8545C24.3114 16.0462 28.3397 16.2379 31.5237 18.5015C32.5982 19.3835 32.86 21.0679 32.521 22.0305C32.1824 22.9914 31.0635 23.68 30.0273 23.7555C29.3364 23.7555 28.0323 23.8228 28.1091 23.2959C28.1858 22.7685 30.4559 21.9055 29.7589 21.1858C28.7566 20.1515 23.7422 19.5363 20.6343 19.1528C20.2508 19.0761 19.8989 19.1912 19.8989 19.613C19.8222 22.5279 19.5921 25.7496 20.0907 28.5505C20.1291 28.7428 20.3592 28.9729 20.5515 29.0101C26.0373 29.8927 31.8306 29.3936 36.1274 26.2486C38.1224 24.6386 38.775 22.374 38.4292 19.8814C36.7027 12.939 29.452 8.75757 23.5054 6.07276C17.7127 3.54133 11.3053 2.23699 4.43811 2.58266C3.34472 2.66269 1.61209 3.04004 1.59931 3.42684C1.58652 3.81364 3.56206 3.69193 3.32527 4.42385C3.08902 5.15522 1.08124 4.72118 0.486464 4.53889C-0.108311 4.35661 -0.0505012 3.50298 0.102917 2.96613C1.59931 0.319655 5.77496 0.105692 7.66101 0.0128822C18.0957 -0.2561 28.1863 3.71694 34.8233 9.1416V9.1416ZM16.0246 19.4213C13.377 19.4596 10.5765 19.728 8.12127 20.6484C7.62266 20.8401 7.00843 21.3769 7.39197 22.0294C8.38919 23.3715 9.81554 24.4736 11.1518 25.2511C12.4881 26.0274 14.2597 27.0156 15.8711 27.2462C16.2547 24.7526 16.2547 22.2978 16.2163 19.728C16.0623 19.6513 16.2158 19.498 16.0246 19.4213V19.4213ZM95.3242 15.9306C95.2092 19.2673 92.1008 21.3391 92.1008 24.6759C92.2158 24.7909 92.2936 24.9443 92.446 24.8687C94.9407 22.145 97.3954 18.2709 101.04 17.1205C102.001 17.0438 102.868 17.878 103.228 18.5015C104.494 21.0329 104.188 24.6003 102.423 26.9016C100.601 29.1607 97.4343 31.4276 93.8295 31.0436C92.3337 34.726 91.2959 38.6001 90.7205 42.6276C90.4137 43.4329 89.6855 42.7043 89.2253 42.5509C86.118 40.0962 88.6694 33.5978 88.8801 32.7687C89.0907 31.9417 89.9223 29.991 90.5304 28.3577C89.0724 25.7501 89.9929 22.604 91.1819 20.1876C92.1024 18.5765 93.3698 16.9654 94.8656 15.7383C95.0557 15.7389 95.2092 15.7772 95.3242 15.9306V15.9306ZM101.502 20.0732C101.042 19.9965 100.85 20.6106 100.467 20.7256C98.7022 22.7202 96.9368 24.7148 96.0541 27.0928C97.2442 27.2462 98.2408 26.4793 99.2775 26.0574C101.042 24.9448 102.155 23.1048 102.04 20.9946C101.962 20.6484 101.656 20.3799 101.502 20.0732Z" fill="black"/>
</svg>
