<svg width="118" height="48" viewBox="0 0 118 48" fill="none" xmlns="http://www.w3.org/2000/svg">
<path d="M15.2585 10.3157C6.93555 10.3157 0 13.8462 0 24.4993C0 32.9388 4.66372 38.2531 15.473 38.2531C28.1964 38.2531 29.0119 29.8719 29.0119 29.8719H22.847C22.847 29.8719 21.5254 34.3848 15.0971 34.3848C9.86154 34.3848 6.09601 30.848 6.09601 25.891H29.657V22.7801C29.657 17.8759 26.5437 10.3157 15.2585 10.3157V10.3157ZM15.0432 14.2914C20.0269 14.2914 23.4245 17.3445 23.4245 21.9204H6.23219C6.23219 17.0623 10.6672 14.2914 15.0432 14.2914V14.2914Z" fill="#E53238"/>
<path d="M29.6513 0V32.9034C29.6513 34.771 29.5178 37.3936 29.5178 37.3936H35.3977C35.3977 37.3936 35.6091 35.5102 35.6091 33.7886C35.6091 33.7886 38.5142 38.3339 46.4137 38.3339C54.732 38.3339 60.3824 32.5582 60.3824 24.2845C60.3824 16.5869 55.1925 10.396 46.4271 10.396C38.219 10.396 35.6685 14.8283 35.6685 14.8283V0H29.6513ZM44.9094 14.4658C50.5583 14.4658 54.1506 18.6584 54.1506 24.2845C54.1506 30.3175 50.0017 34.2641 44.9499 34.2641C38.9208 34.2641 35.6685 29.5563 35.6685 24.338C35.6685 19.4755 38.5867 14.4658 44.9094 14.4658V14.4658Z" fill="#0064D2"/>
<path d="M74.9964 10.3157C62.4753 10.3157 61.6724 17.1713 61.6724 18.2671H67.9046C67.9046 18.2671 68.2313 14.2646 74.5666 14.2646C78.6832 14.2646 81.8733 16.1492 81.8733 19.7714V21.0608H74.5666C64.8664 21.0608 59.7383 23.8987 59.7383 29.6574C59.7383 35.3244 64.4764 38.4078 70.8798 38.4078C79.6066 38.4078 82.4177 33.5858 82.4177 33.5858C82.4177 35.5038 82.5653 37.3939 82.5653 37.3939H88.1055C88.1055 37.3939 87.891 35.0512 87.891 33.5524V20.5976C87.891 12.103 81.0393 10.3157 74.9964 10.3157V10.3157ZM81.8733 24.9291V26.6483C81.8733 28.8906 80.4894 34.4655 72.3436 34.4655C67.883 34.4655 65.9705 32.2393 65.9705 29.657C65.9705 24.9594 72.4109 24.9291 81.8733 24.9291Z" fill="#F5AF02"/>
<path d="M84.5352 11.3911H91.5463L101.609 31.5503L111.648 11.3911H117.999L99.713 47.2807H93.0506L98.3271 37.2759L84.5352 11.3911V11.3911Z" fill="#86B817"/>
</svg>
