<svg width="107" height="31" viewBox="0 0 107 31" fill="none" xmlns="http://www.w3.org/2000/svg">
<path d="M103.167 7.58697C102.237 6.48417 100.582 6.34852 99.4949 7.27493C99.2296 7.49688 99.0109 7.7692 98.8515 8.07615C98.692 8.38311 98.595 8.71861 98.566 9.06328C98.537 9.40796 98.5766 9.75496 98.6824 10.0842C98.7883 10.4135 98.9584 10.7186 99.1828 10.9818C100.516 12.5622 101.252 14.5607 101.261 16.6284C101.254 21.4782 97.3227 25.4095 92.4967 25.393C91.3439 25.4039 90.2007 25.1826 89.1354 24.7421C88.0701 24.3016 87.1043 23.651 86.2959 22.8291C84.639 21.1868 83.7278 18.9867 83.7326 16.6284C83.7282 15.4817 83.9526 14.3456 84.3928 13.2867C84.8329 12.2278 85.4799 11.2674 86.2959 10.4617C87.1043 9.63976 88.0699 8.98917 89.1353 8.54876C90.2007 8.10836 91.3439 7.88717 92.4967 7.89841C93.3641 7.88199 94.2254 8.00912 95.0606 8.24452C96.4353 8.68309 97.8994 7.90267 98.3173 6.51215C98.4187 6.18464 98.4543 5.84028 98.422 5.49894C98.3897 5.15761 98.2902 4.82603 98.1291 4.52335C97.9681 4.22066 97.7487 3.95284 97.4837 3.73534C97.2187 3.51783 96.9132 3.35494 96.5849 3.25605C95.2605 2.84702 93.8828 2.63691 92.4967 2.63257C84.7685 2.63987 78.4856 8.92275 78.5009 16.6284C78.4856 20.3863 79.9425 23.9034 82.5891 26.5366C85.2332 29.1941 88.7503 30.651 92.4967 30.6589C96.2321 30.6504 99.7491 29.1941 102.405 26.5366C105.039 23.9034 106.496 20.3863 106.492 16.6284C106.493 13.3153 105.314 10.1102 103.167 7.58697V7.58697Z" fill="black"/>
<path d="M77.4272 20.3353C76.2016 19.5683 74.5884 19.96 73.8244 21.2015C72.2289 23.8347 69.4278 25.409 66.3414 25.3938C64.0038 25.409 61.8037 24.4978 60.1407 22.8299C58.4928 21.1875 57.581 18.9868 57.5768 16.6291C57.5763 15.4829 57.8026 14.348 58.2427 13.2896C58.6827 12.2313 59.3277 11.2704 60.1407 10.4624C61.8031 8.79392 64.0038 7.88272 66.3414 7.89914C69.2605 7.88272 71.9777 9.32798 73.6164 11.7441C73.808 12.0305 74.0546 12.2759 74.342 12.4661C74.6293 12.6563 74.9516 12.7875 75.2901 12.852C75.6286 12.9164 75.9765 12.9129 76.3137 12.8417C76.6508 12.7704 76.9704 12.6328 77.2539 12.4369C78.451 11.6419 78.7661 10.0129 77.9467 8.79939C76.6635 6.90133 74.9345 5.34677 72.9112 4.27181C70.8879 3.19685 68.632 2.63426 66.3408 2.6333C58.6218 2.63999 52.3395 8.92287 52.3462 16.6285C52.3395 20.3864 53.7963 23.9035 56.4338 26.5367C59.0871 29.1937 62.6042 30.6511 66.342 30.659C71.2727 30.6505 75.7466 28.1359 78.3293 23.9382C79.0653 22.6869 78.6742 21.0744 77.4272 20.3353V20.3353Z" fill="black"/>
<path d="M51.1336 20.3352C50.841 20.1529 50.5149 20.0306 50.1745 19.9755C49.8341 19.9203 49.4862 19.9335 49.1509 20.0141C48.8156 20.0947 48.4997 20.2412 48.2216 20.445C47.9435 20.6488 47.7087 20.906 47.5308 21.2014C45.9189 23.8346 43.1184 25.4095 40.0478 25.3936C37.6932 25.4095 35.4924 24.4976 33.8471 22.8298C32.1828 21.1874 31.271 18.9873 31.2832 16.629C31.2752 15.4817 31.4981 14.3445 31.9385 13.2851C32.379 12.2257 33.028 11.2658 33.8471 10.4623C35.4931 8.79379 37.6938 7.8826 40.0478 7.89902C41.4783 7.89241 42.8881 8.24008 44.1515 8.91099C45.4149 9.58189 46.4925 10.5552 47.2881 11.7439C48.1129 12.9477 49.7419 13.2628 50.9256 12.4368C52.141 11.6417 52.4566 10.0134 51.6531 8.79927C50.3672 6.90396 48.6378 5.35145 46.6152 4.27672C44.5927 3.20199 42.3382 2.63758 40.0478 2.63257C32.3118 2.63987 26.0289 8.92275 26.0173 16.6284C26.0289 20.3863 27.4857 23.9034 30.1396 26.5366C32.7765 29.1941 36.2929 30.651 40.0478 30.6589C44.9615 30.6504 49.4359 28.1357 51.9998 23.938C52.7553 22.6868 52.3636 21.0743 51.1336 20.3352V20.3352Z" fill="black"/>
<path d="M25.0817 20.3353C23.8536 19.5683 22.2404 19.96 21.4789 21.2015C19.8809 23.8347 17.0804 25.4089 13.9959 25.3937C12.5332 25.408 11.0909 25.0505 9.80424 24.3548L23.9381 12.1595C24.9868 11.2422 25.1529 9.68381 24.3195 8.59134C22.9416 6.7569 21.1343 5.28891 19.0564 4.31634C16.9785 3.34376 14.6935 2.89637 12.4022 3.01346C10.8213 3.10652 9.28173 3.45081 7.82917 4.053C6.48732 4.59497 5.84559 6.12479 6.40885 7.44839C6.53444 7.76826 6.72231 8.06 6.96154 8.3067C7.20077 8.55339 7.48661 8.75012 7.80248 8.88547C8.11834 9.02082 8.45794 9.09211 8.80156 9.09518C9.14519 9.09826 9.48601 9.03307 9.80424 8.90339C10.7204 8.52855 11.6916 8.30603 12.6796 8.24463C14.7574 8.14913 16.772 8.78599 18.3955 10.0117L6.16675 20.578C5.5488 19.3533 5.22829 18.0002 5.23123 16.6285C5.23261 15.0266 5.6761 13.4561 6.51286 12.0901C7.25861 10.8584 6.86688 9.24585 5.64668 8.48733C4.39424 7.73976 2.7817 8.13088 2.04386 9.35351C0.700446 11.5418 -0.00724292 14.0608 5.58919e-05 16.6285C-0.00906824 20.3864 1.44775 23.9035 4.08767 26.5367C6.73853 29.1936 10.2562 30.6511 13.9959 30.659C18.9247 30.6505 23.398 28.1358 25.9479 23.9381C26.7173 22.6869 26.3256 21.0744 25.0817 20.3353V20.3353ZM101.019 2.80603C101.032 1.18802 102.35 -0.00906525 103.895 5.88874e-05C105.447 -0.00967352 106.765 1.18802 106.77 2.80603C106.765 4.45142 105.447 5.64851 103.895 5.64668C102.35 5.64851 101.032 4.45081 101.019 2.80603V2.80603Z" fill="black"/>
<path d="M103.894 5.16117C105.186 5.17698 106.196 4.17393 106.181 2.80531C106.196 1.47197 105.186 0.461628 103.894 0.449463C102.61 0.461628 101.601 1.47197 101.608 2.80531C101.601 4.17393 102.61 5.17759 103.894 5.16117Z" fill="white"/>
<path d="M103.306 4.43444H102.821V1.17773H104.068C104.827 1.18868 105.209 1.47275 105.212 2.11326C105.209 2.70025 104.842 2.95451 104.346 3.01351L105.281 4.43444H104.726L103.86 3.04818H103.306V4.43444Z" fill="black"/>
<path d="M103.895 2.63256C104.318 2.61735 104.692 2.58755 104.692 2.07842C104.692 1.68183 104.325 1.60701 103.964 1.59302H103.305V2.63256H103.895Z" fill="white"/>
</svg>
