<svg width="228" height="24" viewBox="0 0 228 24" fill="none" xmlns="http://www.w3.org/2000/svg">
<path d="M0.200522 0.197415C0.0859381 0.282021 0 5.61222 0 12.0141C0 22.3361 0.0572915 23.6616 0.458335 23.8026C1.03125 24.0282 6.98962 24.0282 7.56254 23.8026C7.93493 23.6616 8.02087 23.0693 8.02087 20.1645C8.02087 18.2468 8.10681 16.4982 8.19275 16.2444C8.33598 15.8496 8.99483 15.7932 12.4896 15.7932C17.2735 15.7932 16.9871 16.0188 16.8438 12.4089L16.7579 10.2938L12.461 10.1528L8.1641 10.0118L8.07816 8.20681C8.02087 7.21974 8.10681 6.28907 8.25004 6.14806C8.42192 5.97885 10.6849 5.89424 13.349 5.89424C16.0131 5.92244 18.3907 5.80964 18.6199 5.64042C19.1928 5.302 19.422 1.01528 18.9063 0.423032C18.5912 0.0564042 17.1303 0 9.45317 0C4.46877 0 0.28646 0.0846066 0.200522 0.197415ZM56.232 0.225617C55.9169 0.423031 55.2294 2.03055 54.7138 3.80729C54.456 4.65335 54.1409 5.49941 52.995 8.46063C52.6513 9.3067 52.2789 10.3784 52.1357 10.8578C51.9924 11.309 51.62 12.4089 51.2763 13.255C50.1018 16.2444 49.8153 17.0623 49.5575 17.9083C49.4429 18.3596 49.0419 19.4595 48.6982 20.3055C48.3258 21.1516 47.982 22.3361 47.9247 22.9283L47.7815 24L51.4195 23.9154C55.3727 23.8308 55.2294 23.8872 55.7737 22.1387L56.0029 21.2926L60.042 21.208L64.081 21.1234L64.4534 22.2797C64.654 22.9001 64.9977 23.5488 65.1982 23.6898C65.3988 23.8872 66.9743 23.9436 69.0654 23.9154L72.6175 23.8308L72.5889 23.1257C72.5602 22.7309 72.2738 21.7156 71.93 20.8696C70.8701 18.2186 70.4404 17.0905 70.1826 16.2162C69.9248 15.3702 69.6097 14.5241 68.4639 11.5629C68.1201 10.7168 67.7191 9.61692 67.6045 9.16569C67.3467 8.31962 67.0602 7.50176 65.8857 4.51234C65.542 3.66627 65.1696 2.53819 65.0264 2.03055C64.5394 0.141011 64.1956 0 60.1852 0C58.2086 0 56.4326 0.112808 56.232 0.225617ZM60.7295 9.16569C60.7295 9.56052 60.9013 10.3502 61.1305 10.9142C62.0758 13.537 62.5055 15.2291 62.3623 15.624C62.2191 15.9906 61.7321 16.0752 60.1852 16.0752C59.0966 16.0752 58.1227 15.9624 58.0367 15.8214C57.7503 15.3984 59.0966 10.1246 59.8414 8.79906C60.2425 8.0376 60.7295 8.23502 60.7295 9.16569ZM102.982 0.338426C102.896 0.53584 102.868 5.92244 102.896 12.2679L102.982 23.8308H121.602L121.688 21.208L121.774 18.6134H116.503C112.435 18.6134 111.146 18.5288 110.889 18.2468C110.688 17.9929 110.545 14.9753 110.516 8.99647L110.43 0.141011L106.764 0.0564044C104.014 2.14325e-07 103.068 0.0846066 102.982 0.338426ZM152.826 0.338426C152.74 0.53584 152.712 5.92244 152.74 12.2679L152.826 23.8308L156.378 23.9154C158.727 23.9718 160.045 23.8872 160.303 23.6616C160.618 23.4078 160.704 22.5053 160.704 19.9107V16.47L161.592 15.624L162.48 14.8061L163.024 15.483C163.311 15.8496 164.227 17.2315 165.058 18.5852C165.86 19.9107 166.977 21.6874 167.522 22.4771L168.496 23.9718H172.907C177.977 23.9718 178.235 23.859 176.774 22.0259C176.287 21.4336 175.886 20.8414 175.886 20.7568C175.886 20.6721 175.313 19.7697 174.597 18.7262C173.881 17.7109 173.308 16.8367 173.308 16.8085C173.308 16.7521 172.22 15.0881 170.873 13.0858C169.527 11.1116 168.467 9.3067 168.496 9.13749C168.553 8.94007 170.415 6.93772 172.678 4.68155C174.941 2.39718 176.688 0.423032 176.602 0.282021C176.488 0.112808 174.597 0 172.076 0H167.722L166.061 1.94595C165.144 3.01763 163.597 4.68155 162.623 5.66862L160.847 7.47356L160.704 3.80729L160.561 0.141011L156.751 0.0564044C153.886 2.14325e-07 152.912 0.0846066 152.826 0.338426ZM207.827 0.338426C207.741 0.53584 207.712 5.92244 207.741 12.2679L207.827 23.8308L217.28 23.9154C222.493 23.9436 227.019 23.9154 227.392 23.8308C228.022 23.6898 228.051 23.577 227.965 21.208L227.879 18.7544L221.863 18.6134L215.847 18.4724L215.761 16.7521C215.676 15.0881 215.704 15.0035 216.449 14.8343C216.85 14.7215 218.97 14.6651 221.147 14.6933C223.324 14.6933 225.243 14.6369 225.415 14.5241C225.616 14.4395 225.73 13.3114 225.73 11.8167V9.3067H221.09C218.511 9.3067 216.277 9.19389 216.077 9.08108C215.819 8.91187 215.59 7.41716 215.676 6.28907C215.704 6.03525 217.165 5.92244 221.519 5.86604L227.306 5.78143V0.141011L217.623 0.0564044C210.032 2.14325e-07 207.912 0.0564044 207.827 0.338426Z" fill="black"/>
</svg>
