<svg width="104" height="35" viewBox="0 0 104 35" fill="none" xmlns="http://www.w3.org/2000/svg">
<path d="M26.017 0.97876C28.5924 0.97876 30.6805 3.05716 30.6805 5.62179C30.6805 8.18677 28.5924 10.2652 26.017 10.2652H4.68983C2.11405 10.2652 0.026123 8.18677 0.026123 5.62179C0.026123 3.05716 2.11405 0.97876 4.68966 0.97876H26.017V0.97876Z" fill="#CC393C"/>
<path d="M23.8733 13.1459C26.4492 13.1459 28.5372 15.2246 28.5372 17.7893C28.5372 20.3539 26.4492 22.4326 23.8733 22.4326H11.7347C10.6994 22.4363 9.85196 23.2518 9.81233 24.2723V30.3242C9.81233 32.8885 7.7244 34.9672 5.1493 34.9672C2.57352 34.9672 0.485596 32.8885 0.485596 30.3242V20.0248C0.485596 16.2259 3.57861 13.1457 7.39424 13.1457H23.8733V13.1459ZM32.7983 4.64337C32.7983 2.07907 34.8863 0 37.4619 0C40.0378 0 42.1254 2.07907 42.1254 4.64337V30.3566C42.1254 32.9213 40.038 35 37.4619 35C34.8864 35 32.7983 32.9211 32.7983 30.3566V4.64337V4.64337ZM90.1961 25.7902L92.0702 25.7855C92.2541 25.7853 92.4305 25.7125 92.5605 25.583C92.6905 25.4535 92.7637 25.2779 92.7638 25.0948C92.7666 25.0041 92.7499 24.9138 92.7148 24.8301L85.7462 13.1706L74.8596 31.9396C74.0186 33.391 72.5086 34.2186 70.9414 34.2603C70.8947 34.2668 70.8475 34.2701 70.8003 34.2701H53.0833C49.2675 34.2701 46.1743 31.1902 46.1743 27.3912V4.6437C46.1743 2.07923 48.2624 0.000167116 50.8378 0.000167116C53.4131 0.000167116 55.5014 2.07923 55.5014 4.64354V23.0689C55.5047 24.1002 56.3236 24.9444 57.3491 24.9829H67.26C67.5149 24.9048 68.2944 24.641 68.5319 24.2736L80.9803 2.81746C81.925 1.20256 83.6821 0.115374 85.6933 0.115374C87.7054 0.115374 89.4629 1.20423 90.4033 2.82247L102.534 23.1001C103.469 24.3115 103.976 25.7975 103.973 27.3258C103.973 31.1611 100.851 34.2698 96.9996 34.2698H82.86C80.5073 34.2698 78.6017 32.3713 78.6017 30.0294C78.6017 27.6883 80.5074 25.7902 82.86 25.7902H90.1961V25.7902Z" fill="#3D3D6A"/>
</svg>
