<svg width="105" height="20" viewBox="0 0 105 20" fill="none" xmlns="http://www.w3.org/2000/svg">
<path fill-rule="evenodd" clip-rule="evenodd" d="M22.1385 12.1685C22.1385 17.4815 24.2875 19.9214 29.5718 19.9214C30.7911 19.9214 32.3594 19.6018 33.2884 19.1663C36.5695 17.598 36.8599 15.0428 36.8599 11.7611V2.61556C36.8599 1.77318 37.2954 0.844175 39.5889 0.844175V0.292741H32.8523V0.844175C35.1458 0.844175 35.5819 1.77378 35.5819 2.61556V11.7617C35.5819 14.52 35.5527 18.6148 30.1232 18.6148C26.4932 18.6148 25.1 16.902 25.1 12.3722V2.61616C25.1 1.77378 25.5355 0.844772 27.6546 0.844772V0.293338H19.5833V0.844772C21.703 0.844772 22.1385 1.77438 22.1385 2.61616V12.1685ZM5.75866 9.35999L6.28381 9.98132L8.85456 9.98909C11.1069 9.93353 12.6238 9.79014 12.6351 12.8054H13.0647V6.01078H12.6351C12.6722 8.88204 10.8004 8.7978 8.85456 8.7978L6.3316 8.78645L5.75866 9.35999ZM5.5167 8.7978V2.55522C5.5167 1.85802 5.7485 1.42249 6.76534 1.42249H10.5985C12.6309 1.42249 14.3731 1.19009 14.7506 4.38397H15.0655V0.231804H0V0.783233C2.11969 0.783233 2.55522 1.71224 2.55522 2.55463V17.1302C2.55522 17.9726 2.11969 18.9016 0 18.9016V19.4536H8.12988V18.9016C5.95223 18.9016 5.5167 17.9726 5.5167 17.1302V8.7978ZM95.1538 0H94.5737L88.68 13.821C87.4888 16.6379 86.7336 18.7582 84.9335 18.9028V19.4548H90.6838V18.9028C89.6969 18.9028 88.7081 18.6411 88.7081 17.6834C88.7081 16.6086 89.8994 14.2852 90.2764 13.183H97.8841L98.9284 15.651C100.032 18.2355 100.061 18.7863 97.5938 18.9028V19.4548H104.998V18.9028C103.372 18.99 102.762 17.2479 102.239 16.0566L95.1538 0ZM94.1083 4.03745L97.4773 12.0228H90.7699L94.1083 4.03745ZM80.9708 19.4548L82.3652 14.4023L81.9368 14.4633C80.3405 18.441 77.7488 18.1028 74.0686 18.3245C71.4674 18.481 71.1645 18.0049 71.1645 17.1923V2.61556C71.1645 1.77318 71.6 0.844175 73.7197 0.844175V0.292741H65.6472V0.844175C67.7675 0.844175 68.2024 1.77378 68.2024 2.61556V17.1917C68.2024 18.0329 67.7669 18.9619 65.6472 18.9619L65.6412 19.4542H80.9708V19.4548ZM45.997 17.1314C45.997 17.9738 45.5615 18.9028 43.529 18.9028V19.4548H51.5137V18.9028C49.394 18.9028 48.9585 17.9738 48.9585 17.1314V9.42332L57.1129 19.4548H61.7872V18.9028C60.48 18.8156 59.5677 18.2145 58.7839 17.2563L53.0348 10.1707C55.7638 9.79373 58.9171 8.39095 58.9171 5.31357C58.9171 1.91597 56.0142 0.232402 51.1941 0.232402H43.529V0.783831C45.5615 0.783831 45.997 1.71284 45.997 2.55522V17.1314ZM48.9585 2.7004C48.9585 1.33586 49.2196 1.33586 51.1068 1.33586C53.72 1.33586 55.7137 2.4686 55.7525 5.34285C55.8051 9.16881 53.2743 9.50278 48.9585 9.49501V2.7004Z" fill="black"/>
</svg>
