<svg width="103" height="22" viewBox="0 0 103 22" fill="none" xmlns="http://www.w3.org/2000/svg">
<path d="M10.0472 0.222966C10.0586 0.316883 9.81992 0.39906 9.388 0.457758C7.03518 0.786467 5.12564 1.67868 3.63666 3.14613C1.48843 5.28273 0.351807 8.13546 0.351807 11.3873C0.363173 13.2657 0.715528 14.8622 1.48843 16.4001C2.94332 19.2763 5.86445 21.2838 9.33117 21.8003C10.3314 21.953 12.6047 21.906 13.764 21.7064C15.5485 21.4012 18.0946 20.4386 18.7425 19.8046C18.9925 19.5581 18.9925 19.5346 18.9925 16.1184C18.9925 12.4204 19.038 12.0447 19.5836 11.6573C19.72 11.5517 20.0268 11.4695 20.2428 11.4695C20.8679 11.4695 21.0612 11.2699 21.0157 10.6477L20.9816 10.1194L17.0148 10.0842C14.7302 10.0725 12.9911 10.1077 12.9343 10.1664C12.8774 10.2251 12.832 10.4716 12.8206 10.7064C12.8093 11.2582 13.0593 11.4695 13.7527 11.4695C14.4915 11.4695 15.037 11.7865 15.2075 12.2913C15.3553 12.7256 15.4235 18.4428 15.2871 18.8068C15.1166 19.2646 12.9456 19.922 11.6044 19.922C10.7633 19.922 9.17204 19.5698 8.94472 19.335C8.87652 19.2646 8.76286 19.2176 8.69466 19.2176C8.61509 19.2176 8.25137 19.0063 7.88765 18.7598C6.36457 17.7032 5.29614 16.0479 4.85285 14.0287C4.68236 13.2891 4.65963 12.7374 4.69373 10.859C4.75056 8.32329 4.87559 7.59543 5.56893 6.06929C6.06905 4.96576 7.41027 3.60397 8.64919 2.95829C9.22887 2.6648 10.661 2.31261 11.3203 2.31261C12.15 2.31261 13.2639 2.6061 14.0936 3.04047C14.7984 3.42788 15.9577 4.54314 16.2873 5.17708C16.3669 5.32969 16.6397 5.86971 16.8897 6.36278C17.1398 6.86758 17.4467 7.33716 17.5717 7.43108C17.9127 7.67761 18.5265 7.64239 18.6288 7.37238C18.6743 7.24325 18.6743 5.70536 18.6174 3.94442C18.5492 1.36171 18.5038 0.704289 18.3674 0.551675C18.2764 0.446018 18.1969 0.293404 18.1969 0.222966C18.1969 0.140789 18.0264 0.0820907 17.799 0.0820907C17.5604 0.0820907 17.4012 0.140789 17.4012 0.222966C17.4012 0.305143 17.2194 0.575154 17.0034 0.809946C16.6738 1.18561 16.5488 1.25605 16.1396 1.25605C15.8781 1.25605 15.4008 1.17387 15.0825 1.07996C13.764 0.69255 13.2071 0.563414 12.4569 0.469497C11.9227 0.410799 11.6726 0.328622 11.6954 0.222966C11.7067 0.11731 11.4908 0.0820907 10.8656 0.0820907C10.2632 0.0820907 10.0245 0.11731 10.0472 0.222966V0.222966ZM74.8578 0.199487C74.9373 0.328622 74.46 0.551675 74.1076 0.551675C73.7439 0.551675 72.4822 1.24431 71.9935 1.70216C70.8569 2.7822 70.1408 4.42574 70.1408 5.95189C70.1408 6.52713 70.459 7.77153 70.7773 8.41721C71.1978 9.2742 72.6186 10.5303 74.6305 11.8099C78.711 14.4044 79.5748 15.2849 79.5748 16.8462C79.5748 18.0672 79.1429 18.8889 78.2336 19.4642C76.3581 20.6381 73.6189 19.7224 72.073 17.398C71.8798 17.1045 71.4934 16.3649 71.2092 15.7545L70.6864 14.6392H70.0839C69.4133 14.6392 69.3451 14.7096 69.4247 15.3436C69.5156 16.2358 69.8112 18.3724 69.9362 19.0415C70.0044 19.4289 70.0953 20.1685 70.1408 20.6733C70.2317 21.7299 70.4022 21.953 71.0501 21.8943C71.3456 21.8708 71.5047 21.7651 71.7093 21.4482C71.8571 21.2251 72.0389 21.0021 72.1299 20.9434C72.2208 20.8964 72.7437 21.0138 73.3461 21.2134C74.8578 21.7299 75.4943 21.8473 76.8469 21.8473C78.9837 21.859 80.4614 21.2838 81.723 19.9455C82.8369 18.7833 83.3257 17.5741 83.3257 15.9658C83.3257 13.2304 82.2231 11.8804 77.5061 8.88679C74.7782 7.14933 74.1758 6.62105 73.7666 5.63492C72.8801 3.49831 75.051 1.67868 77.4607 2.54741C79.1997 3.18134 80.3591 4.46096 80.9615 6.40973C81.2684 7.38412 81.4389 7.59543 81.9276 7.59543C82.3482 7.59543 82.8142 7.20803 82.7119 6.93802C82.6778 6.8441 82.5414 5.67014 82.4164 4.33183C82.2913 2.99351 82.1322 1.52606 82.0754 1.07996C82.0185 0.622112 81.9731 0.222966 81.9617 0.164268C81.9617 0.11731 81.6776 0.0820907 81.3366 0.0820907C80.7569 0.0820907 80.7114 0.10557 80.7114 0.363841C80.7114 0.751248 80.2909 1.25605 79.9726 1.25605C79.8248 1.25605 79.2793 1.10344 78.7564 0.915602C78.2336 0.727769 77.6198 0.539935 77.3811 0.504716C77.1424 0.457758 76.9151 0.340362 76.881 0.246445C76.8355 0.11731 76.5855 0.0820907 75.8012 0.0820907C75.1533 0.0820907 74.8123 0.129049 74.8578 0.199487V0.199487ZM93.8963 0.258185C93.8963 0.363841 93.7372 0.446018 93.4758 0.492977C90.6455 0.98604 88.5996 4.39052 89.418 7.23151C89.6794 8.17067 90.009 8.73417 90.7478 9.54421C91.4071 10.2838 91.7935 10.5773 93.7372 11.8217C97.2039 14.0405 98.1928 14.8975 98.4883 15.9305C98.7042 16.6701 98.7156 17.0106 98.5451 17.8206C98.3292 18.842 97.2153 19.8046 96.0559 19.9572C94.9079 20.1098 93.3962 19.6403 92.3846 18.8302C91.7253 18.3019 90.8842 17.081 90.2932 15.7897L89.7476 14.6275L89.1225 14.6627L88.4973 14.6979L88.5314 15.461C88.5542 15.8836 88.6451 16.588 88.736 17.0223C88.8269 17.4684 88.8951 18.0437 88.8951 18.3137C88.8951 18.5837 88.952 18.9946 89.0088 19.2176C89.077 19.4407 89.1679 20.0629 89.2248 20.5912C89.2816 21.1312 89.3839 21.6477 89.4635 21.7416C89.543 21.8473 89.7931 21.9177 90.0545 21.9177C90.441 21.9177 90.5205 21.8708 90.7251 21.5069C91.1229 20.826 91.248 20.8025 92.5551 21.2486C93.203 21.4716 93.9531 21.6947 94.2373 21.7534C94.9647 21.8825 97.0334 21.859 97.7381 21.7064C98.7611 21.4834 99.9773 20.8025 100.75 20.0042C101.466 19.2646 102.194 18.0437 102.194 17.5741C102.194 17.2454 102.41 16.8462 102.546 16.9284C102.603 16.9754 102.648 16.5997 102.648 16.001C102.648 15.2731 102.614 15.0031 102.512 15.0266C102.432 15.0383 102.307 14.8035 102.228 14.4631C101.796 12.7022 100.546 11.4108 97.3062 9.35637C94.0782 7.32542 93.3394 6.7267 92.9188 5.7758C92.3278 4.48444 92.7597 3.26352 94.0327 2.59436C94.9647 2.1013 96.2832 2.2774 97.5903 3.05221C98.8293 3.7918 99.7386 5.10664 100.148 6.75018C100.193 6.97323 100.33 7.24325 100.443 7.37238C100.671 7.63065 101.262 7.66587 101.569 7.44282C101.762 7.2902 101.762 7.19629 101.637 5.76406C101.569 4.93055 101.455 3.8505 101.398 3.36918C101.341 2.88785 101.262 2.11304 101.228 1.66694C101.091 0.0351324 101.114 0.0820907 100.421 0.0820907C99.875 0.0820907 99.8068 0.10557 99.8068 0.328622C99.8068 0.457758 99.7158 0.727769 99.6135 0.915602C99.3635 1.34997 99.0793 1.34997 97.8518 0.915602C97.3289 0.727769 96.7151 0.539935 96.4765 0.504716C96.2378 0.457758 96.0104 0.340362 95.9763 0.246445C95.8854 -8.64517e-05 93.8963 -8.64657e-05 93.8963 0.258185V0.258185ZM23.9027 0.927342C23.6868 1.15039 23.7322 1.81955 23.9709 1.93695C24.0732 1.99565 24.4938 2.11304 24.903 2.19522C25.8236 2.37131 25.9828 2.46523 26.2328 2.93481C26.4147 3.27526 26.4488 3.9092 26.5056 9.76726C26.5738 16.5058 26.5625 16.3649 27.0853 17.8089C27.3013 18.4193 27.9605 19.4289 28.4947 19.9925C29.8018 21.3425 31.9273 21.9999 34.6211 21.8825C36.4398 21.8003 37.0081 21.6947 38.031 21.2721C39.9974 20.462 41.1681 19.0768 41.7478 16.8932C41.9751 16.0597 41.9979 15.5549 42.0774 9.94335C42.1229 6.62105 42.2025 3.72137 42.2479 3.51005C42.373 2.86438 42.9299 2.39479 43.771 2.20696C44.1802 2.11304 44.6007 1.99565 44.7144 1.93695C44.9417 1.81955 44.9872 1.15039 44.7712 0.927342C44.578 0.727769 37.6218 0.727769 37.4286 0.927342C37.2468 1.11518 37.2581 1.78433 37.44 1.92521C37.5082 1.99565 37.8946 2.11304 38.2811 2.19522C39.3382 2.41827 39.7587 2.8409 39.9065 3.83876C40.0883 5.04794 40.0542 14.3574 39.861 15.6723C39.7019 16.7406 39.3495 17.7032 38.9062 18.2198C38.6221 18.5602 37.8605 19.1472 37.4627 19.3233C36.4625 19.7811 34.803 19.922 33.5982 19.6403C32.5979 19.4055 32.1092 19.1472 31.5522 18.572C30.9953 18.0085 30.7793 17.5506 30.4611 16.3532C30.2679 15.6018 30.2451 15.0383 30.2451 9.42681C30.2451 3.68615 30.2565 3.287 30.4611 2.89959C30.6884 2.44175 31.1658 2.2187 32.1433 2.11304C32.8594 2.03086 32.9958 1.88999 32.9503 1.29127L32.9162 0.845165L28.4834 0.809946C25.1189 0.786467 24.005 0.821685 23.9027 0.927342V0.927342ZM47.7151 0.868644C47.6696 0.903863 47.6355 1.17387 47.6355 1.44388C47.6355 2.00738 47.5446 1.94869 48.8063 2.19522C49.1814 2.2774 49.5905 2.45349 49.7724 2.6061L50.0793 2.87611V11.1056C50.0793 19.2294 50.0793 19.335 49.852 19.5698C49.6474 19.7811 49.17 19.9338 47.9424 20.2155C47.6355 20.2742 47.6242 20.3094 47.6583 20.8377L47.6924 21.3895L55.7056 21.4247C60.1157 21.4364 63.8325 21.4247 63.9689 21.3895C64.128 21.3542 64.253 21.2134 64.2985 21.0021C64.3326 20.826 64.4349 20.4503 64.5145 20.1568C64.7191 19.4407 64.9691 18.4898 65.1964 17.5741C65.2987 17.1515 65.4351 16.6936 65.492 16.541C65.5488 16.3884 65.5943 16.1419 65.5943 15.9775C65.5943 15.6958 65.5829 15.684 64.8327 15.7192L64.0598 15.7545L63.6052 16.6349C63.0709 17.6797 62.1957 18.6307 61.5024 18.9476C60.6386 19.335 59.1268 19.5111 56.7172 19.5111C54.6713 19.5111 54.4553 19.4876 54.2393 19.2881C54.0007 19.065 54.0007 18.9946 54.0234 15.414L54.0575 11.763L56.6263 11.7278C60.1384 11.6926 60.2635 11.7395 60.7636 13.5474C61.0023 14.3809 61.0591 14.4748 61.366 14.5688C61.5592 14.6275 61.8434 14.6392 62.0025 14.5922L62.298 14.5218L62.2753 10.6712L62.2412 6.83236L61.8548 6.79714C61.1159 6.7267 60.9568 6.83236 60.8204 7.525C60.6386 8.41721 60.2521 9.14506 59.8543 9.35637C59.5929 9.48551 58.9109 9.54421 56.9559 9.59117C55.5465 9.62638 54.3075 9.6029 54.1939 9.55595C54.012 9.47377 54.0007 9.2155 54.0234 6.09277L54.0575 2.7235H57.1832C61.15 2.7235 61.491 2.80568 62.0366 3.89746C62.173 4.15573 62.3662 4.69575 62.4799 5.0949L62.6731 5.83449H63.3437C63.787 5.83449 64.003 5.78754 64.0143 5.68188C64.0825 5.02446 63.9575 1.04474 63.8666 0.927342C63.7757 0.821685 62.0139 0.786467 55.7624 0.786467C51.375 0.786467 47.7492 0.821685 47.7151 0.868644V0.868644Z" fill="black"/>
</svg>
