<svg width="102" height="68" viewBox="0 0 102 68" fill="none" xmlns="http://www.w3.org/2000/svg">
<path fill-rule="evenodd" clip-rule="evenodd" d="M71.6108 2.05091C75.281 0.215488 77.1643 0.497533 77.2116 2.33295C77.2577 4.73307 76.8811 7.93323 76.6451 10.2393C75.2343 22.7585 72.9749 32.971 72.7869 45.8663C78.8584 30.1469 83.894 19.3224 90.4363 5.90978C92.507 1.62693 93.8717 2.42697 95.5658 1.62693C102.202 -1.33849 102.437 0.496928 101.543 4.16777C98.3432 17.487 90.1536 59.6083 88.8835 66.0571C88.5068 67.9398 86.4361 67.1865 85.9654 66.4338C83.5179 63.1863 80.8819 63.1384 81.1639 60.9269C82.6706 50.197 88.0361 23.0412 89.4009 16.6403C82.2939 31.135 74.9516 49.3491 71.188 59.6083C70.3874 61.7736 68.9286 61.6329 68.0345 60.0322C66.7159 57.7255 64.2685 56.5967 63.893 53.9613C62.5744 45.5363 65.3512 29.4409 65.7278 19.2284C61.9157 30.3349 55.4213 51.9845 52.5972 61.7257C51.4211 65.7738 47.515 65.0678 48.5503 61.2083C52.8793 44.783 62.1516 15.839 66.1512 5.43788C67.0926 2.94496 69.5861 3.08629 71.6108 2.05091ZM48.1731 0.0274579C46.9017 -0.254588 43.2309 1.72155 40.9721 2.05151C40.2667 2.24015 39.6074 2.94557 39.3726 3.50966C35.7946 11.7454 32.595 19.559 29.8656 26.6174C25.7435 27.3733 21.6327 28.1892 17.5344 29.0648C20.8759 20.5937 24.218 12.17 27.4648 4.12106C29.0649 0.0741626 24.83 -0.302507 23.1814 3.745C21.0639 8.96922 17.0631 18.8044 12.6395 30.2421C9.39207 31.0422 5.86195 31.9362 2.28573 33.0189C-0.349729 33.7243 -0.44435 34.4298 0.685046 36.0311C1.34376 36.8778 2.56778 36.7838 3.17979 37.4431C4.73316 39.0426 5.67453 40.9726 8.4501 41.2547C5.90926 47.8436 3.46123 54.5739 1.29705 61.0215C-0.114994 65.1157 3.8852 65.9631 5.39127 61.6335C7.8387 54.7152 10.4268 47.7029 13.1102 40.5953C15.3223 40.1253 20.6405 38.9959 25.5821 37.8659C21.6759 48.6904 19.1345 56.8327 18.0985 60.8329C17.9111 61.5856 18.2871 61.9623 18.4278 62.3383C19.6992 64.2211 21.0166 64.3151 22.7107 66.7158C23.1347 67.3751 24.6874 67.7039 25.2527 66.1038C28.6263 55.8622 32.2195 45.6943 36.0299 35.6071C37.4893 35.2304 40.1254 34.6184 41.7248 32.2656C44.5489 28.0294 45.3496 28.8774 46.1023 27.6061C46.949 25.9593 46.337 24.4999 43.3255 24.8293C43.3255 24.8293 42.1955 24.9239 40.0307 25.1593C43.4189 16.5462 46.4323 9.25187 48.5024 3.65099C49.2078 1.72155 49.3031 0.309504 48.1731 0.0274579Z" fill="#C7232F"/>
<path fill-rule="evenodd" clip-rule="evenodd" d="M44.8606 53.5099C45.3501 52.8888 45.7941 52.2477 46.1944 51.6557C47.9777 49.0172 46.2417 47.4663 44.4063 49.0196C44.1443 49.2604 43.8719 49.5231 43.6014 49.796C43.3005 48.8546 43.0018 47.9124 42.7056 46.9695C43.5468 45.9384 44.3657 44.8799 45.0644 43.7954C48.0141 39.2208 42.2415 36.5951 39.7462 39.5605C38.4294 41.1139 38.7587 42.6666 39.1348 44.0314C39.244 44.4414 39.4138 45.0273 39.6243 45.7382C38.7091 46.6942 37.8239 47.6785 36.97 48.6897C34.0992 51.9851 34.8974 56.2279 37.9114 57.1614C39.7286 57.7248 41.4433 56.9036 42.9288 55.5934C43.0003 55.7802 43.0689 55.958 43.1356 56.1266C43.9356 58.1033 46.4304 57.4913 45.4417 55.0912C45.2828 54.6878 45.0838 54.145 44.8606 53.5099ZM40.7749 49.3629C41.0187 50.1314 41.2814 50.9388 41.5434 51.7115C41.2153 51.9851 40.8823 52.2616 40.5468 52.4557C39.3798 53.1308 38.5228 52.4084 40.0288 50.385C40.2751 50.0356 40.5274 49.6971 40.7749 49.3629ZM41.7169 43.6001C41.6301 43.3811 41.5804 43.1664 41.5349 42.996C40.6906 39.8419 44.3056 40.6844 42.4769 42.7606C42.2173 43.0548 41.9813 43.346 41.7169 43.6001Z" fill="#C7232F"/>
</svg>
