<svg width="106" height="38" viewBox="0 0 106 38" fill="none" xmlns="http://www.w3.org/2000/svg">
<path fill-rule="evenodd" clip-rule="evenodd" d="M60.9428 19.9549H62.0727C62.0727 21.2052 62.2812 22.6477 62.579 23.7336C62.8615 24.7314 63.5897 25.6681 64.2299 26.3823C65.4203 27.7507 67.5029 28.5241 69.7792 28.5241C71.4154 28.5241 72.933 27.9591 73.9438 27.1416C75.015 26.263 75.6992 24.9986 75.6992 23.481C75.6992 22.2166 75.1642 21.0566 74.45 20.3272C73.7206 19.599 72.1296 18.5272 70.2843 17.813L67.6356 16.8017C65.4045 15.939 63.4412 14.6146 62.4592 13.3948C61.4772 12.1603 60.823 10.3597 60.823 8.58956C60.823 6.07535 61.849 4.02274 63.5892 2.53511C65.3305 1.06218 68.1266 0.274021 71.4154 0.274021C75.1483 0.274021 77.7371 0.898899 80.2513 2.47579V8.97658H79.2406C79.2406 8.47091 79.1072 7.96468 79.1072 7.71213C79.1072 7.34036 78.988 6.95335 78.988 6.70079C78.988 6.44768 78.7343 6.19456 78.7343 5.94201C78.4818 5.31713 78.0953 4.49902 77.6043 3.80013C76.3992 2.03001 74.3172 1.0328 72.0403 1.0328C70.5374 1.0328 69.0651 1.50909 68.1272 2.28256C67.1153 3.10067 66.6254 4.4397 66.6254 5.82336C66.6254 6.95391 66.9972 8.02513 67.6362 8.72459C68.3204 9.48338 69.764 10.2868 71.5335 11.0004L73.9438 11.9976C76.4286 13.0089 78.4812 14.3333 79.6123 15.5384C80.8174 16.8028 81.5017 18.5583 81.5017 20.5809C81.5017 23.1104 80.4898 25.4009 78.4812 26.8896C76.4885 28.3772 73.6907 29.2841 70.2843 29.2841C68.6334 29.2841 66.4164 28.9716 63.9768 28.5247C63.114 28.3767 61.9682 28.093 60.9422 27.662V19.9549H60.9428V19.9549ZM85.1413 19.9549H86.2713C86.2713 21.2052 86.4798 22.6477 86.7775 23.7336C87.06 24.7314 87.7894 25.6681 88.4284 26.3823C89.6189 27.7507 91.7014 28.5241 93.9778 28.5241C95.614 28.5241 97.1316 27.9591 98.1423 27.1416C99.2136 26.263 99.8978 24.9986 99.8978 23.481C99.8978 22.2166 99.3627 21.0566 98.6486 20.3272C97.9192 19.599 96.3282 18.5272 94.4829 17.813L91.8342 16.8017C89.6031 15.939 87.6397 14.6146 86.6578 13.3948C85.6758 12.1603 85.0216 10.3597 85.0216 8.58956C85.0216 6.07535 86.0476 4.02274 87.7889 2.53511C89.529 1.06218 92.3252 0.274021 95.614 0.274021C99.348 0.274021 101.936 0.898899 104.451 2.47579V8.97658H103.439C103.439 8.47091 103.306 7.96468 103.306 7.71213C103.306 7.34036 103.187 6.95335 103.187 6.70079C103.187 6.44768 102.933 6.19456 102.933 5.94201C102.68 5.31713 102.294 4.49902 101.803 3.80013C100.598 2.03001 98.5147 1.0328 96.2389 1.0328C94.736 1.0328 93.2636 1.50909 92.3258 2.28256C91.315 3.10067 90.824 4.4397 90.824 5.82336C90.824 6.95391 91.1958 8.02513 91.8348 8.72459C92.5201 9.48338 93.9625 10.2868 95.7321 11.0004L98.1423 11.9976C100.627 13.0089 102.68 14.3333 103.811 15.5384C105.016 16.8028 105.7 18.5583 105.7 20.5809C105.7 23.1104 104.688 25.4009 102.68 26.8896C100.687 28.3772 97.8892 29.2841 94.4829 29.2841C92.832 29.2841 90.615 28.9716 88.1753 28.5247C87.3126 28.3767 86.1668 28.093 85.1408 27.662V19.9549H85.1413V19.9549ZM42.7726 0C46.5513 0 49.839 1.13055 52.234 3.15435C55.3878 5.66856 57.0245 9.71446 57.0245 15.0107C57.0245 17.0339 56.6528 18.9232 56.1471 20.6934C55.507 22.4488 54.5109 24.0997 53.3651 25.2308C50.8503 27.8795 47.1909 29.262 42.3856 29.262C37.9821 29.262 34.4413 27.9987 32.0463 25.4834C29.5174 22.9539 28.2676 19.1758 28.2676 14.5044C28.2676 9.96701 29.5168 6.42621 32.0463 3.91256C34.5758 1.38366 38.2352 0 42.7726 0V0ZM42.7873 0.758784C40.2584 0.758784 38.2352 2.12719 36.9854 4.65609C35.9741 6.79854 35.3193 10.2201 35.3193 14.5044C35.3193 19.1758 35.9741 22.6872 36.9854 24.8291C38.116 27.2393 39.9906 28.4885 42.4003 28.4885C47.4587 28.4885 49.9576 23.8471 49.9576 14.7429C49.9576 9.95288 49.3328 6.41208 48.2022 4.26964C47.696 3.25774 46.8033 2.395 45.792 1.74017C44.81 1.11586 43.6495 0.758784 42.6376 0.758784H42.7873V0.758784ZM15.7695 14.5287C18.5515 14.5287 20.947 15.1531 22.4494 16.4181C23.9669 17.5633 24.7257 19.3193 24.7257 21.4612C24.7257 22.7256 24.3534 23.9906 23.8477 25.0025C23.2081 26.0133 22.1968 27.0252 21.0657 27.5309C19.977 27.9818 18.8303 28.2775 17.6594 28.4094C16.3949 28.662 14.5056 28.7812 12.2445 28.7812H0V28.0219H3.02044V1.28874H0V0.529959H11.9908C13.7462 0.529959 15.3977 0.649176 16.6475 0.783079C18.8046 1.03619 20.56 1.77972 21.8245 2.92552C23.0889 4.05607 23.7138 5.69228 23.7138 7.59687C23.7138 10.1111 22.5833 12.0004 20.4408 13.1456C19.4289 13.6513 17.7927 14.1575 15.6356 14.2762L15.7695 14.5287ZM9.59581 28.0219H11.5004C12.7496 28.0219 13.7615 27.9038 14.5056 27.7546C15.2976 27.5027 16.0001 27.0276 16.5288 26.3862C17.4215 25.2551 17.9277 23.6189 17.9277 21.5951C17.9277 19.4532 17.4215 17.6678 16.5288 16.6565C16.0231 16.1503 15.3988 15.6446 14.6547 15.4067C13.8807 15.1389 12.6315 14.9011 11.3518 14.9011H9.59637V28.0219H9.59581V28.0219ZM9.59581 14.157H11.3512C13.1366 14.157 14.6542 13.6508 15.5169 12.6394C16.4096 11.6281 16.9153 9.9913 16.9153 7.70026C16.9153 5.94483 16.5282 4.30862 15.9034 3.29672C15.5169 2.52325 14.892 2.01758 14.2672 1.77916C13.4937 1.51135 12.3631 1.27349 11.1134 1.27349H9.59581V14.157V14.157ZM0.394929 37.4708V33.9H0.840707V35.3877H2.71535V33.9H3.16169V37.4708H2.71535V35.8046H0.840707V37.4708H0.394929ZM16 33.9H16.4463V35.9679C16.4463 36.3255 16.4017 36.6222 16.3277 36.8165C16.2383 37.0294 16.0815 37.2071 15.8813 37.3222C15.6729 37.4555 15.3904 37.5307 15.0485 37.5307C14.7214 37.5307 14.4383 37.4713 14.2304 37.3662C14.0297 37.2518 13.8727 37.074 13.7841 36.8606C13.7319 36.7422 13.6968 36.617 13.6796 36.4888C13.661 36.3158 13.651 36.1419 13.6496 35.9679V33.9H14.096V35.9679C14.096 36.2803 14.1259 36.5188 14.1705 36.6521C14.2299 36.8013 14.3344 36.9205 14.483 36.9939C14.6321 37.0691 14.8107 37.1131 15.0039 37.1131C15.361 37.1131 15.6135 37.0391 15.7627 36.89C15.9113 36.7408 16.0005 36.4142 16.0005 35.9673V33.9H16ZM28.5558 36.0719V35.656H30.0587V36.9804C29.8208 37.1589 29.5824 37.3069 29.3445 37.3962C29.1066 37.4855 28.8383 37.5307 28.5857 37.5307C28.2615 37.5336 27.9408 37.4623 27.6484 37.3222C27.3733 37.1812 27.1496 36.9572 27.0088 36.682C26.8586 36.3876 26.782 36.0611 26.7857 35.7306C26.7857 35.3876 26.8602 35.0605 26.9941 34.7628C27.1427 34.465 27.3512 34.2418 27.619 34.0927C27.8868 33.9447 28.1993 33.8695 28.5563 33.8695C28.8095 33.8695 29.0473 33.9147 29.2552 33.9887C29.4637 34.078 29.6276 34.1972 29.7315 34.3464C29.8507 34.4944 29.94 34.6882 29.9993 34.9255L29.5829 35.0306C29.5383 34.8673 29.4643 34.7181 29.3897 34.6289C29.3151 34.5396 29.1965 34.4503 29.0479 34.3904C28.8924 34.3247 28.7257 34.2894 28.5569 34.2865C28.3484 34.2865 28.1552 34.3164 28.0066 34.3758C27.8591 34.4345 27.7268 34.5259 27.6196 34.643C27.5264 34.7494 27.4511 34.8702 27.3964 35.0006C27.3064 35.2228 27.2609 35.4604 27.2625 35.7001C27.2625 36.0114 27.3218 36.2792 27.4117 36.4883C27.5162 36.6967 27.6795 36.8747 27.8874 36.964C28.0953 37.0532 28.3337 37.1131 28.5716 37.1131C28.7648 37.1131 28.9733 37.0691 29.1518 37.0092C29.3451 36.934 29.5089 36.8306 29.6129 36.7408V36.0707H28.5558V36.0719V36.0719ZM40.2935 35.7453C40.2935 35.165 40.4573 34.7034 40.7545 34.3769C41.0669 34.0492 41.4839 33.8706 41.989 33.8706C42.3167 33.8706 42.6139 33.9599 42.867 34.1091C43.1201 34.2582 43.328 34.4955 43.4619 34.7633C43.6105 35.0317 43.6851 35.3583 43.6851 35.7159C43.6851 36.0724 43.6105 36.4001 43.4619 36.6685C43.3133 36.951 43.1049 37.1742 42.8517 37.3075C42.5839 37.4567 42.2868 37.5312 41.989 37.5312C41.6756 37.532 41.3676 37.4498 41.0963 37.2928C40.8332 37.1439 40.6247 36.9146 40.5014 36.6385C40.3661 36.3653 40.2948 36.0649 40.2929 35.76V35.7453H40.2935V35.7453ZM40.7698 35.7594C40.7698 36.1764 40.8884 36.5029 41.1116 36.7414C41.3347 36.9798 41.6319 37.1131 41.9743 37.1131C42.3314 37.1131 42.6291 36.9939 42.8517 36.7566C43.0896 36.5182 43.2088 36.1606 43.2088 35.7148C43.2088 35.4323 43.1495 35.1797 43.0602 34.9712C42.971 34.7628 42.8071 34.5837 42.6291 34.465C42.4506 34.3469 42.2274 34.2876 41.989 34.2876C41.6619 34.2876 41.3647 34.4068 41.1263 34.6294C40.8878 34.852 40.7698 35.2396 40.7698 35.7594ZM62.04 37.4708V33.9H63.3643C63.6327 33.9 63.8553 33.9452 64.0044 34.0051C64.1677 34.0791 64.3011 34.1983 64.3909 34.3469C64.4802 34.495 64.5401 34.6735 64.5401 34.8227C64.5401 34.9718 64.496 35.1351 64.4208 35.2543C64.3211 35.3974 64.1886 35.5146 64.0344 35.5961C64.2417 35.6555 64.4208 35.7594 64.5401 35.9086C64.6593 36.0577 64.7186 36.2504 64.7186 36.4436C64.7186 36.608 64.6734 36.7713 64.6135 36.9046C64.5582 37.0377 64.4716 37.1553 64.361 37.2476C64.257 37.3216 64.1084 37.3809 63.9592 37.4109C63.8101 37.4408 63.6027 37.4702 63.379 37.4702H62.04V37.4708V37.4708ZM62.4858 35.4176H63.2592C63.4677 35.4176 63.6321 35.4035 63.7203 35.3877C63.8308 35.3591 63.9265 35.2902 63.9886 35.1944C64.0218 35.1551 64.0473 35.1099 64.0638 35.0611C64.0779 35.0018 64.0926 34.9419 64.0926 34.8825C64.0926 34.7633 64.0638 34.6594 64.0044 34.5701C63.9451 34.4808 63.8553 34.4068 63.7508 34.3769C63.6468 34.3469 63.4541 34.3176 63.201 34.3176H62.4858V35.4176V35.4176ZM62.4858 37.0538H63.3784C63.5276 37.0538 63.6468 37.0397 63.7061 37.0397C63.8101 37.0244 63.9146 36.9804 63.9745 36.9504C64.0591 36.91 64.1273 36.8418 64.1677 36.7572C64.2118 36.6679 64.2417 36.5628 64.2417 36.4436C64.2417 36.3255 64.1977 36.2063 64.1378 36.1171C64.0779 36.0278 63.9592 35.9385 63.84 35.9086C63.7208 35.8645 63.5276 35.8346 63.3191 35.8346H62.4858V37.0538V37.0538ZM75.3986 35.7453C75.3986 35.165 75.5619 34.7034 75.8597 34.3769C76.1721 34.0492 76.5891 33.8706 77.0947 33.8706C77.4224 33.8706 77.719 33.9599 77.9722 34.1091C78.2258 34.2582 78.4332 34.4955 78.5682 34.7633C78.7174 35.0317 78.7914 35.3583 78.7914 35.7159C78.7914 36.0724 78.7174 36.4001 78.5682 36.6685C78.4191 36.951 78.2106 37.1742 77.958 37.3075C77.6897 37.4567 77.393 37.5312 77.0953 37.5312C76.7819 37.532 76.4739 37.4498 76.2026 37.2928C75.9396 37.1437 75.7311 36.9145 75.6077 36.6385C75.4726 36.3652 75.4013 36.0648 75.3992 35.76V35.7453H75.3986V35.7453ZM75.8755 35.7594C75.8755 36.1764 75.9936 36.5029 76.2173 36.7414C76.4405 36.9798 76.7382 37.1131 77.0789 37.1131C77.4365 37.1131 77.7343 36.9939 77.9575 36.7566C78.1959 36.5182 78.3151 36.1606 78.3151 35.7148C78.3151 35.4323 78.2558 35.1797 78.1659 34.9712C78.0761 34.7628 77.9134 34.5837 77.7343 34.465C77.5558 34.3469 77.3326 34.2876 77.0942 34.2876C76.7676 34.2876 76.4698 34.4068 76.2314 34.6294C75.993 34.852 75.8755 35.2396 75.8755 35.7594ZM89.3974 36.3397L89.8443 36.3097C89.8584 36.473 89.9183 36.6222 89.9777 36.7267C90.0517 36.8459 90.1861 36.9499 90.3494 37.0092C90.4234 37.0391 90.5127 37.0832 90.602 37.0832C90.6912 37.0984 90.7952 37.1131 90.8845 37.1131C91.063 37.1131 91.2263 37.0832 91.3613 37.0391C91.4946 36.9939 91.6139 36.9199 91.6738 36.8306C91.7336 36.7414 91.7777 36.6222 91.7777 36.5182C91.7777 36.4142 91.7478 36.3097 91.6884 36.2357C91.6291 36.1464 91.511 36.0713 91.3619 36.012C91.1556 35.9495 90.947 35.895 90.7364 35.8487C90.4099 35.7747 90.1573 35.6854 90.0381 35.6255C89.8737 35.5362 89.7404 35.417 89.6663 35.2989C89.5867 35.1636 89.5455 35.0091 89.5471 34.852C89.5471 34.6735 89.6065 34.5102 89.6963 34.3611C89.7861 34.2119 89.9488 34.0786 90.1279 34.0046C90.3337 33.9129 90.557 33.8671 90.7822 33.8701C91.0347 33.8701 91.2732 33.9153 91.4664 33.9893C91.6749 34.0786 91.8382 34.2125 91.9274 34.3769C92.0423 34.5373 92.1047 34.7293 92.106 34.9266L91.6591 34.9718C91.6449 34.7486 91.5551 34.5701 91.4218 34.4656C91.2873 34.3475 91.0641 34.2882 90.7963 34.2882C90.5291 34.2882 90.3053 34.3475 90.1873 34.4373C90.0681 34.5413 89.9929 34.6746 89.9929 34.8238C89.9929 34.943 90.0381 35.0622 90.1274 35.1362C90.2166 35.2114 90.4539 35.3006 90.8257 35.3888C91.1975 35.478 91.4658 35.5532 91.6144 35.6125C91.8229 35.7018 91.9862 35.8357 92.0755 35.9843C92.1054 36.043 92.1495 36.1323 92.1794 36.2075C92.2094 36.2967 92.2246 36.386 92.2246 36.4747C92.2246 36.6532 92.1653 36.8476 92.0602 37.0109C91.9463 37.1808 91.7864 37.3148 91.5992 37.3973C91.3779 37.489 91.1403 37.5347 90.9009 37.5318C90.5884 37.5318 90.3048 37.4866 90.0974 37.3973C89.8922 37.3103 89.7164 37.1659 89.5912 36.9815C89.5299 36.8885 89.4798 36.7885 89.442 36.6837C89.4122 36.5715 89.3972 36.4558 89.3974 36.3397V36.3397ZM102.876 36.3397L103.323 36.3097C103.337 36.473 103.397 36.6222 103.456 36.7267C103.53 36.8459 103.665 36.9499 103.828 37.0092C103.902 37.0391 103.991 37.0832 104.08 37.0832C104.17 37.0984 104.274 37.1131 104.363 37.1131C104.541 37.1131 104.705 37.0832 104.84 37.0391C104.973 36.9939 105.092 36.9199 105.152 36.8306C105.212 36.7414 105.256 36.6222 105.256 36.5182C105.256 36.4142 105.226 36.3097 105.167 36.2357C105.108 36.1464 104.989 36.0713 104.84 36.012C104.634 35.9495 104.425 35.895 104.215 35.8487C103.888 35.7747 103.636 35.6854 103.517 35.6255C103.353 35.5362 103.219 35.417 103.145 35.2989C103.066 35.1634 103.024 35.009 103.026 34.852C103.026 34.6735 103.085 34.5102 103.175 34.3611C103.265 34.2119 103.427 34.0786 103.606 34.0046C103.812 33.9129 104.035 33.8671 104.261 33.8701C104.513 33.8701 104.752 33.9153 104.945 33.9893C105.153 34.0786 105.317 34.2125 105.406 34.3769C105.521 34.5373 105.583 34.7293 105.584 34.9266L105.137 34.9718C105.123 34.7486 105.034 34.5701 104.9 34.4656C104.766 34.3475 104.543 34.2882 104.275 34.2882C104.008 34.2882 103.784 34.3475 103.666 34.4373C103.546 34.5413 103.472 34.6746 103.472 34.8238C103.472 34.943 103.517 35.0622 103.606 35.1362C103.695 35.2114 103.932 35.3006 104.304 35.3888C104.676 35.478 104.944 35.5532 105.093 35.6125C105.301 35.7018 105.465 35.8357 105.554 35.9843C105.584 36.043 105.628 36.1323 105.658 36.2075C105.688 36.2967 105.703 36.386 105.703 36.4747C105.703 36.6532 105.644 36.8476 105.539 37.0109C105.425 37.1808 105.265 37.3148 105.078 37.3973C104.856 37.489 104.619 37.5347 104.379 37.5318C104.067 37.5318 103.783 37.4866 103.576 37.3973C103.371 37.3104 103.195 37.166 103.07 36.9815C103.009 36.8885 102.959 36.7885 102.921 36.6837C102.89 36.5716 102.875 36.4559 102.876 36.3397V36.3397Z" fill="black"/>
</svg>
