<svg width="105" height="37" viewBox="0 0 105 37" fill="none" xmlns="http://www.w3.org/2000/svg">
<path fill-rule="evenodd" clip-rule="evenodd" d="M0 0H104.23V36.7455H0V0ZM1.0602 18.4613C1.0602 9.14348 23.9969 1.59002 52.292 1.59002C80.5865 1.59002 103.523 9.14348 103.523 18.4613C103.523 27.7792 80.5865 35.3327 52.292 35.3327C23.9975 35.3327 1.0602 27.7792 1.0602 18.4613C1.0602 18.4613 1.0602 27.7792 1.0602 18.4613V18.4613Z" fill="#2360A5"/>
<path fill-rule="evenodd" clip-rule="evenodd" d="M1.05933 18.4614C1.05933 9.14355 23.996 1.59009 52.2911 1.59009C80.5857 1.59009 103.522 9.14355 103.522 18.4614C103.522 27.7793 80.5857 35.3327 52.2911 35.3327C23.9966 35.3327 1.05933 27.7793 1.05933 18.4614C1.05933 18.4614 1.05933 27.7793 1.05933 18.4614V18.4614Z" fill="#F6D33C"/>
<path fill-rule="evenodd" clip-rule="evenodd" d="M15.0482 11.5055H24.1549C24.1549 11.5055 23.912 11.8877 23.912 12.3651V24.0887C23.912 24.7254 24.1849 25.267 24.1849 25.267H15.0181C15.0181 25.267 15.2911 24.7249 15.2911 24.1834V12.4604C15.2911 12.0147 15.0482 11.5055 15.0482 11.5055ZM28.6887 11.5367H37.3481C37.3481 11.5367 37.1052 11.9445 37.1052 12.3217V16.528L40.1738 12.6042C40.1738 12.6042 40.3565 12.3217 40.3565 12.0392V11.5997H49.1674L45.4302 16.8104C45.4302 16.8104 45.248 17.0299 45.248 17.187C45.248 17.3441 45.4001 17.5636 45.4001 17.5636L50.2009 25.1912H39.596C39.596 25.1912 39.7788 24.9093 39.7788 24.6263C39.7788 24.3444 39.596 23.9984 39.596 23.9984L37.074 19.8863V24.3444C37.074 24.721 37.3475 25.2224 37.3475 25.2224H28.6887C28.6887 25.2224 28.9316 24.8775 28.9316 24.5009V12.3211C28.9316 11.9451 28.6887 11.5367 28.6887 11.5367ZM52.7798 11.632H68.2694V15.7926C68.2694 15.7926 67.9352 15.4845 67.5112 15.4845H61.1628V16.6243H66.6905V20.2919C66.6905 20.2919 66.3262 19.9838 65.9312 19.9838H61.1021V21.2473H67.6014C67.9658 21.2473 68.1792 20.6618 68.1792 20.6618V25.2224H52.7798C52.7798 25.2224 53.0539 24.8218 53.0539 24.5444V12.6493C53.0544 12.1557 52.7798 11.632 52.7798 11.632V11.632ZM75.1226 11.4827H87.5074C87.5074 11.4827 87.2645 12.0559 87.2645 12.3746C87.2645 12.6933 87.4768 13.2666 87.4768 13.2666L92.4246 25.2447H83.1362C83.1362 25.2447 83.3485 24.8943 83.2265 24.6079C82.9707 23.9717 82.718 23.3344 82.4682 22.6959H78.6436C78.6436 22.6959 77.8842 24.3845 77.8842 24.7037C77.8842 25.0213 78.1283 25.277 78.1283 25.277H70.4779L75.2741 12.7568C75.2741 12.7568 75.4569 12.5016 75.4569 12.1835C75.4569 11.8654 75.1226 11.4827 75.1226 11.4827ZM80.374 17.5993L79.4631 20.0523H81.4665L80.374 17.5993Z" fill="#2360A5"/>
</svg>
