<svg width="105" height="51" viewBox="0 0 105 51" fill="none" xmlns="http://www.w3.org/2000/svg">
<path d="M62.3109 40.5561C57.4859 41.7808 54.315 43.0054 52.2259 44.1579C45.6707 41.2031 38.5391 39.6197 31.6957 39.6197C23.2676 39.6197 15.6318 41.7808 9.14854 44.8783L0 0H62.3109V40.5561ZM18.5852 11.2376H13.0385V27.6617H24.1307V23.7718H18.5852V11.2376ZM33.7848 25.1392C31.2635 25.1392 30.6872 24.0586 30.6872 21.0344H41.9982C41.9982 13.7588 40.2693 10.732 33.7861 10.732C26.7266 10.732 24.8537 13.1812 24.8537 19.5204C24.8537 25.7168 27.447 28.6689 33.4273 28.6689C39.3342 28.6689 41.4953 26.5078 41.638 23.1222H36.4514C36.4501 24.4922 35.9459 25.1392 33.7848 25.1392ZM30.6872 17.7928C30.6872 15.3436 31.1915 13.9763 33.5687 13.9763C35.8752 13.9763 36.4501 15.0568 36.4501 17.7928H30.6872ZM48.1919 11.2376H42.1409L48.408 27.6617H55.2514L61.664 11.2376H55.7557L51.9391 21.9709L48.1919 11.2376Z" fill="#A50716"/>
<path d="M62.2395 0H104.236L94.3675 44.8783C87.8842 41.1311 81.9773 39.5476 73.4051 39.5476C68.7227 39.5476 65.5531 39.9785 62.2395 40.5561V0ZM63.248 11.1655V27.6617H68.6507V11.1655H63.248ZM72.7567 12.2461L72.4686 13.9016C74.1974 12.821 74.9178 11.8846 74.9178 10.66C74.9178 9.29128 73.9813 8.57092 72.6127 8.57092C71.244 8.57092 70.3795 9.36465 70.3795 10.5159C70.3809 12.03 71.3881 12.2461 72.7567 12.2461ZM80.4646 22.4752H74.6297C74.7017 26.4371 76.7907 28.0206 83.1299 28.0206C89.0368 28.0206 91.414 26.7239 91.414 22.6179C91.414 16.1347 80.4646 19.3763 80.4646 15.4864C80.4646 14.5499 81.5451 13.7575 82.9858 13.7575C84.4999 13.7575 85.0748 14.4045 85.435 15.7745H90.9818C90.9097 12.3168 88.8941 10.732 83.346 10.732C77.5831 10.732 74.9178 12.3168 74.9178 15.9199C74.9178 23.0515 85.8672 19.2322 85.8672 23.2676C85.8672 24.4922 85.2189 25.0685 83.6341 25.0685C81.7612 25.0685 80.61 24.3481 80.4646 22.4752ZM84.9308 44.6609C86.6596 44.6609 88.1003 46.1016 88.1003 47.8304C88.1003 49.5593 86.6596 51 84.9308 51C83.2019 51 81.7612 49.6313 81.7612 47.8304C81.7689 46.9922 82.1052 46.1904 82.698 45.5977C83.2908 45.0049 84.0925 44.6685 84.9308 44.6609ZM87.5961 47.8318C87.5961 46.391 86.4449 45.2385 84.9308 45.2385C83.418 45.2385 82.2654 46.391 82.2654 47.8318C82.2654 49.2725 83.4901 50.4971 84.9308 50.4971C85.281 50.498 85.628 50.4296 85.9518 50.296C86.2756 50.1624 86.5697 49.9661 86.8174 49.7184C87.0651 49.4707 87.2614 49.1765 87.395 48.8528C87.5286 48.529 87.597 48.182 87.5961 47.8318ZM83.8502 49.4165V46.247H84.7133C85.5778 46.247 86.2274 46.4631 86.2274 47.2555C86.2274 47.617 86.0113 47.9038 85.5071 48.1919L86.0833 49.4165H85.5071L85.0028 48.4801H84.4986V49.4165H83.8502ZM85.5071 47.2555C85.5071 47.0394 85.2176 46.8953 84.4986 46.8953V47.6877C85.0028 47.6877 85.5071 47.6877 85.5071 47.2555Z" fill="#A50716"/>
</svg>
