<svg width="154" height="24" viewBox="0 0 154 24" fill="none" xmlns="http://www.w3.org/2000/svg">
<path fill-rule="evenodd" clip-rule="evenodd" d="M101.093 19.8939C100.606 19.8939 99.8169 19.4164 99.8169 18.5474C99.8169 18.5474 100.267 7.06458 100.267 4.22925C100.267 3.49198 100.081 3.58784 99.7228 3.58784C99.3627 3.58784 97.4322 4.22925 96.6627 4.22925C96.1431 4.22925 96.1063 3.88615 96.1063 3.67205C96.1063 3.00196 98.7643 2.1742 100.083 1.87857C100.646 1.75226 99.9988 0 101.471 0C102.695 0 102.409 1.1422 102.798 1.1422C103.45 1.1422 105.438 0.780278 108.524 1.04097C110.749 1.22909 118.85 3.37731 118.85 12.0884C118.85 15.6109 116.103 23.0849 104.379 23.0849C101.212 23.0849 96.3769 21.5816 96.7307 20.5201C96.832 20.2137 97.1751 19.8204 97.726 20.0883C99.4998 20.9519 102.62 21.243 104.872 21.243C107.696 21.243 115.743 19.5212 115.743 11.0851C115.743 5.28276 109.037 2.4976 103.242 3.23487C103.223 3.25369 102.764 3.30385 102.764 3.83957C102.764 4.08323 102.689 14.2134 102.689 16.9251C102.688 17.0371 102.728 19.8939 101.093 19.8939ZM146.443 9.55771C146.443 9.39642 146.475 9.23673 146.536 9.08777C146.598 8.9388 146.689 8.80347 146.803 8.6895C146.917 8.57553 147.053 8.48517 147.202 8.42356C147.351 8.36194 147.51 8.33029 147.672 8.33041C147.833 8.33052 147.993 8.36241 148.142 8.42424C148.291 8.48607 148.426 8.57664 148.54 8.69077C148.654 8.8049 148.744 8.94036 148.806 9.08942C148.867 9.23848 148.899 9.39821 148.899 9.5595C148.899 9.88523 148.769 10.1975 148.539 10.4277C148.308 10.6579 147.996 10.787 147.67 10.7868C147.344 10.7866 147.032 10.6569 146.802 10.4264C146.572 10.1959 146.442 9.88344 146.443 9.55771ZM56.1251 9.17966C56.1251 8.87922 56.2444 8.5911 56.4569 8.37866C56.6693 8.16622 56.9574 8.04687 57.2579 8.04687C57.5583 8.04687 57.8464 8.16622 58.0589 8.37866C58.2713 8.5911 58.3906 8.87922 58.3906 9.17966C58.3906 9.48009 58.2713 9.76823 58.0589 9.98067C57.8464 10.1931 57.5583 10.3124 57.2579 10.3124C56.9574 10.3124 56.6693 10.1931 56.4569 9.98067C56.2444 9.76823 56.1251 9.48009 56.1251 9.17966ZM0.0984368 18.2545L3.83677 2.9061C3.83677 2.9061 4.06521 1.72718 4.48446 1.43961C5.11424 1.00872 5.84614 1.03828 5.84614 1.03828C5.84614 1.03828 7.02954 1.11622 7.51329 1.47634C7.9424 1.79616 8.20757 2.87027 8.20757 2.87027L10.0709 14.2707C10.0709 14.2707 10.2563 15.8546 10.8109 15.8546C11.3654 15.8546 11.7103 14.6416 11.7103 14.6416L16.3875 2.20645C16.3875 2.20645 16.718 1.24074 17.1498 0.782963C17.5386 0.369982 18.1989 0.361925 18.1989 0.361925H19.6322C19.6322 0.361925 20.2584 0.417463 20.6714 0.879715C21.1139 1.37422 21.0655 2.53612 21.0655 2.53612L22.0124 20.7602C22.0124 20.7602 22.2059 22.8896 20.6741 22.9191C19.0651 22.9496 19.0553 21.5351 19.0553 21.5351L18.7265 5.73964C18.7265 5.73964 18.5581 4.98445 18.1209 4.98445C17.9256 4.98445 17.6219 5.77995 17.6219 5.77995L12.8623 17.8039C12.8623 17.8039 12.0821 20.1626 10.1748 20.1008C8.40376 20.0435 7.97913 17.8039 7.97913 17.8039L6.13549 8.07778C6.13549 8.07778 5.90795 7.15865 5.53618 7.15865C5.20113 7.15865 4.98165 8.07778 4.98165 8.07778L2.64262 18.2545C2.64262 18.2545 2.68383 19.9772 1.12686 19.936C-0.470421 19.8939 0.0984368 18.2545 0.0984368 18.2545Z" fill="black"/>
<path fill-rule="evenodd" clip-rule="evenodd" d="M137.306 17.9957C136.869 17.9957 136.036 17.8363 136.036 16.7702C136.036 15.7042 136.052 12.3618 136.052 11.5C136.052 10.6382 136.329 10.6669 136.665 10.6669H139.191C139.819 10.6669 139.892 10.6525 139.892 11.4122C139.892 12.171 139.672 15.5143 139.336 16.23C138.881 17.2011 138.417 17.9957 137.306 17.9957ZM119.771 17.3418C119.771 16.5337 120.764 16.4334 121.328 15.7857C122.14 14.8504 121.86 13.1904 123.16 13.1904C124.654 13.1904 123.748 16.1413 123.966 17.6929C124.031 18.1677 124.299 18.5619 124.834 18.5619C125.991 18.5619 126.832 17.4743 127.329 16.2435C127.77 15.1514 127.908 13.9474 128.232 13.2836C128.393 12.9539 128.701 12.9127 128.882 12.8939C129.842 12.7999 129.902 14.0173 129.907 15.2339C129.911 16.0571 129.967 16.8813 129.967 17.2961C129.967 17.357 130.301 18.3227 131.125 18.3227C131.765 18.3227 134.43 17.9671 134.094 11.104C134.066 10.5316 134.036 10.5916 133.721 10.5513C133.464 10.52 132.223 10.5791 131.282 10.4339C131.025 10.3945 130.405 9.98245 130.379 9.50766C130.36 9.13767 130.828 8.70409 131.105 8.60554C131.614 8.42279 133.504 8.52671 133.701 8.52671C133.817 8.52671 134.127 8.57867 134.214 8.40846C134.39 7.56099 134.548 5.18075 134.548 4.33866C134.548 4.08245 134.765 3.53151 135.489 3.53151C136.455 3.53151 136.475 4.16577 136.475 4.51604V8.11373C136.475 8.39234 136.515 8.52671 136.632 8.52671H139.801C140.053 8.52671 140.267 8.2705 140.267 8.11373C140.267 7.86917 140.423 5.91355 140.423 5.38679C140.423 4.86004 140.509 3.50195 141.436 3.50195C142.363 3.50195 142.255 4.34046 142.255 4.63877V8.48192H143.91C145.041 8.48192 145.504 9.32042 145.504 9.7137C145.504 10.5316 144.902 10.6579 144.674 10.6579H142.409C142.146 10.6579 142.057 11.5278 142.057 11.8028C142.057 12.0778 141.809 15.7633 141.809 16.23C141.809 17.3597 142.334 18.217 143.332 18.217C144.33 18.217 145.515 16.7711 145.684 16.118C145.866 15.4148 146.077 14.3989 146.358 13.71C146.639 13.0202 146.938 12.9647 147.36 12.9647C147.782 12.9647 148.303 13.1044 148.175 14.5011C148.037 16.0267 148.021 16.0939 148.021 16.8249C148.021 17.5568 148.742 19.1621 150.035 19.1621C150.415 19.1621 151.26 19.2472 152.345 18.8817C153.345 18.5458 153.23 18.699 153.23 19.1764C153.23 19.5993 151.98 20.1189 150.964 20.4145C149.965 20.7038 148.844 20.651 148.303 20.3581C147.262 19.7964 146.962 19.4434 146.751 19.2329C146.541 19.0232 146.385 19.0367 146.273 19.0367C145.148 19.0367 145.135 20.4987 143.29 20.4987C141.443 20.4987 141.42 19.0645 140.136 19.0645C139.079 19.0645 138.726 20.5963 137.401 20.5963C135.896 20.5963 135.784 19.1343 134.304 19.1343C132.824 19.1343 132.968 20.5963 131.009 20.5963C129.543 20.5963 129.01 18.896 127.979 18.896C126.714 18.896 126.756 20.892 124.488 20.892C121.632 20.892 122.304 17.7261 121.364 17.7261C120.839 17.7261 121.191 17.993 120.347 17.993C119.813 17.993 119.771 17.6275 119.771 17.3418ZM31.9161 14.14C31.9161 14.14 32.3542 14.3084 32.3712 14.7295C32.3847 15.0538 32.3712 16.7899 32.3712 16.7899C32.3712 16.7899 32.3739 17.4475 30.8707 18.054C29.3675 18.6604 28.9491 18.4248 28.339 18.2905C27.729 18.1561 27.0885 17.228 27.0885 16.7218C27.0885 16.2166 27.3053 15.4381 27.8643 14.9158C28.4233 14.3927 28.8783 14.2744 29.3173 14.1741C29.7554 14.0728 30.8375 14.0899 31.1072 14.0899C31.3768 14.0908 31.9161 14.14 31.9161 14.14ZM50.9679 17.2835C50.9679 17.2835 49.5937 17.5442 49.7191 18.3102C49.7191 18.3102 49.5642 18.7205 50.3812 18.7823C50.3812 18.7823 51.2609 18.9587 51.3863 18.4768C51.3863 18.4768 51.5744 18.3926 51.1776 17.5756L50.9679 17.2835ZM43.0944 17.4519C43.0944 17.4519 41.7202 17.7126 41.8456 18.4786C41.8456 18.4786 41.6897 18.8889 42.5067 18.9516C42.5067 18.9516 43.3864 19.1272 43.5137 18.6461C43.5137 18.6461 43.7018 18.5619 43.304 17.7449L43.0944 17.4519ZM64.479 20.1036C62.8799 20.1036 63.9056 17.2208 62.4454 17.2208C60.9861 17.2208 60.7433 19.7399 58.4321 19.7399C56.2086 19.7399 56.7085 15.5859 55.6872 15.6737C54.3856 15.7848 53.4808 16.075 53.4808 16.5794C53.4808 17.082 53.7934 17.0273 53.7934 18.054C53.7934 19.0806 53.2586 20.3482 50.1635 20.3482C47.9051 20.3482 47.0701 19.1307 47.0701 18.4884C47.0701 16.7532 49.7478 16.5606 49.7478 16.0741C49.7478 15.7964 48.9021 14.5933 48.4435 14.5476C47.8558 14.4894 45.196 16.4414 45.196 16.8231C45.196 17.2047 45.8733 17.7449 45.8733 19.0116C45.8733 20.6035 44.3772 20.7316 42.9708 20.7316C41.5643 20.7316 39.4618 19.9119 39.4618 19.0035C39.4618 18.7491 39.4322 18.3487 39.6938 17.9921C40.2734 17.202 41.0653 16.8446 41.6216 16.5552C41.9128 16.4038 41.8886 16.5131 41.8886 16.3348C41.8886 16.1575 41.1352 15.4963 40.9372 15.4963C40.8333 15.4963 40.6246 15.3225 40.3003 15.6468C39.1482 16.798 38.9395 19.8958 35.8641 19.8958C33.8198 19.8958 33.7392 18.5485 32.7618 18.5485C31.9269 18.5485 30.5715 19.9083 27.712 19.9083C24.8336 19.9083 24.3123 17.2934 24.3123 16.3196C24.3123 15.5653 24.555 12.6995 29.5708 12.6995C31.8695 12.6995 32.287 13.487 32.7054 13.487C32.855 13.487 33.1148 13.5219 33.207 13.4296C33.3575 13.2791 33.3925 13.2102 33.6129 13.2102C33.8332 13.2102 34.4585 13.1519 34.5284 13.2209C34.5983 13.2908 34.9342 13.3902 34.9342 13.7656C34.9342 14.14 34.4827 15.241 34.4827 15.5662C34.4827 15.74 34.4218 16.1978 34.4128 16.591C34.4048 16.9315 34.4478 17.2235 34.4478 17.2396C34.4478 17.4833 34.5329 18.1668 35.7844 18.1668C37.2562 18.1668 38.6063 16.2703 38.8598 14.6856C39.0157 13.7082 38.9171 12.2373 38.9171 12.0393C38.9171 11.8422 38.8356 11.6299 39.1142 11.491C39.1608 11.4677 39.4734 11.3056 39.6015 11.3056C39.7171 11.3056 39.8631 11.3826 40.019 11.5367C40.1032 11.6227 40.8996 12.6753 41.9235 13.6393C42.7737 14.441 43.5755 14.8236 44.2688 15.3118C44.3916 15.3996 47.1006 13.3266 47.1006 13.1179V11.9013C47.1006 11.3871 47.6264 10.993 47.9624 10.993C48.9012 10.993 51.165 15.0807 52.2472 15.0807C52.9191 15.0807 55.1425 14.1445 55.4731 14.0021C55.7517 13.8829 56.6673 12.7121 56.6673 12.6082C56.6673 12.5033 58.2484 12.7309 58.2484 13.5228C58.2484 14.3147 58.1982 17.2629 58.8629 17.2629C61.6642 17.2629 61.2772 12.5033 63.2633 12.5033C64.9242 12.5033 63.9585 15.6943 65.2028 15.6943C66.4471 15.6943 66.5206 12.2597 68.7342 12.2597C69.6032 12.2597 69.6032 14.9176 70.6468 14.9176C72.2038 14.9176 72.3588 12.3403 73.9811 12.3403C76.7663 12.3403 74.2024 18.4562 76.5934 18.4562C79.263 18.4562 78.962 13.2334 80.295 13.2334C82.221 13.2334 78.7989 18.5502 83.6633 18.5502C86.5766 18.5502 88.2232 14.8934 85.1119 13.9564C83.787 13.5577 82.8195 14.5548 82.2148 13.9474C82.0499 13.7844 82.6 13.0964 82.9494 12.9566C83.1787 12.8644 83.6965 12.6879 84.9336 12.6879C86.169 12.6879 89.2256 12.8984 89.2256 16.1996C89.2256 18.7437 86.0293 20.5399 84.0118 20.5399C80.4061 20.5399 81.06 18.7554 79.555 18.7554C78.2704 18.7554 77.8861 20.7728 76.0192 20.7728C72.9393 20.7728 74.2803 15.594 72.8927 15.594C71.1189 15.594 71.376 20.0042 69.3452 20.0042C67.8294 20.0042 68.8784 15.7454 67.7004 15.7454C66.5215 15.7409 65.6937 20.1036 64.479 20.1036Z" fill="black"/>
</svg>
