<svg width="107" height="39" viewBox="0 0 107 39" fill="none" xmlns="http://www.w3.org/2000/svg">
<path fill-rule="evenodd" clip-rule="evenodd" d="M13.64 1.69943C6.71088 9.83682 0.0671604 19.9279 0.000540872 27.4707C-0.0254057 30.3086 0.88062 32.7862 3.05382 34.6628C6.18143 37.3654 9.62741 38.3184 13.0566 38.324C18.0677 38.331 23.0439 36.3093 26.9401 34.7504C33.5017 32.1263 106.035 0.627905 106.035 0.627905C106.735 0.277276 106.604 -0.159605 105.728 0.0584863C105.374 0.146845 26.764 21.4504 26.764 21.4504C25.275 21.8715 23.7364 22.0918 22.189 22.1053C16.1477 22.1411 10.7719 18.7877 10.8153 11.7211C10.8322 8.95604 11.6786 5.62156 13.64 1.69943Z" fill="black"/>
</svg>
