<svg width="116" height="29" viewBox="0 0 116 29" fill="none" xmlns="http://www.w3.org/2000/svg">
<path fill-rule="evenodd" clip-rule="evenodd" d="M93.0552 20.6288L93.7488 6.96233L87.6615 3.88736L87.8178 0.812549H114.627L114.48 3.71662L107.365 6.96233L106.662 20.7997L113.274 24.2162L113.083 27.9741H85.4455L85.6188 24.5577L93.0552 20.6288ZM64.0279 20.9953H59.9732L60.2194 15.9564L64.281 15.9557C66.4327 15.8703 67.3914 17.7921 66.846 19.0307C66.846 19.0307 66.6396 20.91 64.0279 20.9953ZM64.5266 11.214H60.4718L60.7187 6.48042H64.9836C66.5973 6.43798 67.7562 7.62743 67.4046 9.13955C67.4045 9.13955 67.3015 11.2153 64.5266 11.214ZM76.1417 0.765794C76.1417 0.765794 81.3135 0.21048 82.3147 6.76973C82.3147 6.76973 82.7279 11.2927 78.1314 13.9443C83.1417 15.3916 82.231 21.456 82.231 21.456C80.7176 28.3464 73.6658 27.9524 73.6658 27.9524H39.5342L39.7428 24.536L46.1048 20.6127L46.7117 6.76095L40.7476 3.86374L40.9562 0.788294L76.1417 0.765794ZM19.8482 4.50571H20.6429C22.4708 4.50571 23.8749 6.03537 23.7791 7.92217L23.1517 20.2891C23.0556 22.1759 21.4964 23.7055 19.6682 23.7055H18.8737C17.0458 23.7055 15.6417 22.1759 15.7371 20.2891L16.3652 7.92217C16.4608 6.03537 18.0203 4.50571 19.8482 4.50571ZM13.1268 0.787496H27.8154C34.2139 0.787496 39.1288 6.14133 38.7932 12.7456L38.6283 15.9913C38.2929 22.5962 32.8347 27.9494 26.437 27.9494H11.7483C5.35067 27.9494 0.435657 22.5962 0.771079 15.9913L0.93528 12.7456C1.27102 6.14133 6.72922 0.787496 13.1268 0.787496Z" fill="#FF7313"/>
<path fill-rule="evenodd" clip-rule="evenodd" d="M76.2209 1.51571L76.2206 1.5157L76.2198 1.51578L76.2187 1.5159L76.2176 1.516L76.1816 1.51989L41.6602 1.54196L41.5337 3.40753L47.486 6.29906L46.84 21.0449L40.4709 24.9725L40.335 27.1983H73.6861L73.7054 27.1993L73.706 27.1994L73.7063 27.1994L73.7064 27.1994L73.7071 27.1994L73.7154 27.1998C73.7205 27.2 73.7275 27.2002 73.7363 27.2005C73.7436 27.2007 73.7522 27.201 73.762 27.2012C73.8054 27.2022 73.8726 27.203 73.9606 27.2018C74.137 27.1994 74.3958 27.1889 74.713 27.1561C75.3501 27.0903 76.209 26.936 77.1056 26.5857C78.8686 25.8968 80.79 24.4532 81.4873 21.323C81.4883 21.3159 81.4894 21.307 81.4907 21.2965C81.4952 21.2591 81.5017 21.2012 81.5085 21.1253C81.5221 20.9733 81.5369 20.7504 81.5402 20.4768C81.5468 19.9266 81.5066 19.1876 81.3252 18.4153C80.9649 16.8814 80.0773 15.2916 77.9214 14.6688L76.2183 14.1768L77.7538 13.291C79.8647 12.0733 80.8047 10.4454 81.2282 9.13131C81.4417 8.46868 81.5247 7.88184 81.5544 7.4644C81.5692 7.25616 81.5706 7.09161 81.5686 6.98283C81.5677 6.9285 81.5658 6.88826 81.5645 6.86362C81.5643 6.86035 81.5641 6.85735 81.5639 6.85463C81.0941 3.82616 79.7011 2.55245 78.5255 1.98782C77.9139 1.69409 77.3256 1.57582 76.8891 1.53184C76.6718 1.50995 76.4956 1.50681 76.3776 1.50876C76.3188 1.50974 76.2748 1.51197 76.248 1.51371C76.2346 1.51457 76.2254 1.51531 76.2209 1.51571ZM82.3139 6.76971C83.0649 6.70109 83.0649 6.7015 83.065 6.70192L83.065 6.70286L83.0652 6.70505L83.0657 6.71068C83.0661 6.71499 83.0665 6.72041 83.067 6.7269C83.0679 6.7399 83.0691 6.75723 83.0703 6.77869C83.0728 6.82161 83.0753 6.88112 83.0767 6.95564C83.0794 7.10458 83.0771 7.3141 83.0589 7.57131C83.0224 8.08478 82.9214 8.79441 82.6637 9.59396C82.2376 10.9163 81.3848 12.474 79.7171 13.7828C81.5876 14.8108 82.4348 16.5437 82.7935 18.0704C83.0107 18.9952 83.0559 19.8628 83.0484 20.4949C83.0445 20.8125 83.0273 21.0746 83.0107 21.2599C83.0024 21.3527 82.9942 21.4265 82.9879 21.4786C82.9862 21.4928 82.9846 21.5053 82.9832 21.5163C82.982 21.5255 82.9809 21.5336 82.9799 21.5404C82.9789 21.5479 82.9781 21.554 82.9774 21.5586L82.9766 21.5644L82.9763 21.5665L82.9761 21.5673C82.9761 21.5677 82.976 21.568 82.2303 21.456L82.976 21.568L82.9723 21.5931L82.9668 21.6178C82.1453 25.3581 79.7905 27.1559 77.6546 27.9905C76.5991 28.4029 75.6004 28.5808 74.868 28.6564C74.5005 28.6944 74.1965 28.707 73.9813 28.7099C73.8736 28.7114 73.7878 28.7105 73.7271 28.7091C73.6968 28.7084 73.6727 28.7075 73.6552 28.7068C73.6524 28.7067 73.6499 28.7066 73.6475 28.7065H38.7319L39.0131 24.0994L45.3681 20.1805L45.9358 7.22282L39.9601 4.31992L40.2507 0.0345942L76.1076 0.0116651C76.1198 0.0106947 76.1342 0.00964275 76.1506 0.00858144C76.2 0.0053865 76.2681 0.00209618 76.3527 0.000697141C76.5214 -0.00209697 76.7571 0.00262643 77.0403 0.0311633C77.6047 0.0880336 78.372 0.240888 79.1785 0.628232C80.8353 1.42397 82.5236 3.14593 83.0594 6.65593L83.0628 6.67842L83.0649 6.70109L82.3139 6.76971ZM1.68768 12.7837C1.68768 12.7837 1.68767 12.7838 1.68767 12.7839L1.52347 16.0295C1.20864 22.2289 5.80651 27.1952 11.7475 27.1952H26.4362C32.4107 27.1952 37.5582 22.1787 37.8744 15.953L38.0392 12.7073C38.3542 6.50857 33.7565 1.54162 27.8146 1.54162H13.126C7.15177 1.54162 2.00424 6.55862 1.68768 12.7837ZM0.181344 12.7073C0.536359 5.72391 6.30518 0.0333458 13.126 0.0333458H27.8146C34.6698 0.0333458 39.9018 5.77408 39.5456 12.7838L39.3807 16.0295C39.0261 23.0136 33.2572 28.7035 26.4362 28.7035H11.7475C4.89332 28.7035 -0.3388 22.9635 0.0171339 15.9532C0.0171364 15.9531 0.0171388 15.9531 0.0171413 15.953L0.181344 12.7073ZM87.1003 0.0583988H115.42L115.209 4.2125L108.094 7.45825L107.439 20.3527L114.051 23.7692L113.799 28.7282H84.6513L84.8866 24.0912L92.323 20.1623L92.97 7.41419L86.8826 4.33919L87.1003 0.0583988ZM88.5338 1.56667L88.4388 3.4355L94.5261 6.51045L93.7858 21.0953L86.3494 25.0241L86.2381 27.22H112.365L112.496 24.6631L105.883 21.2467L106.634 6.46638L113.75 3.2207L113.833 1.56667H88.5338ZM19.8474 5.25983C18.4427 5.25983 17.194 6.45279 17.1176 7.96031L17.1176 7.9604L16.4895 20.3272C16.4146 21.8087 17.5017 22.9514 18.8729 22.9514H19.6674C21.0724 22.9514 22.321 21.7585 22.3977 20.2507L23.0252 7.88393C23.1003 6.40253 22.0133 5.25983 20.6421 5.25983H19.8474ZM15.6113 7.8839C15.7261 5.61787 17.5963 3.75156 19.8474 3.75156H20.6421C22.9267 3.75156 24.6478 5.66819 24.5315 7.96037L23.9041 20.3273L23.9041 20.3274C23.7887 22.5932 21.9189 24.4597 19.6674 24.4597H18.8729C16.5883 24.4597 14.8672 22.543 14.9832 20.251L14.9832 20.2508L15.6113 7.884C15.6113 7.88396 15.6113 7.88393 15.6113 7.8839ZM66.3781 7.74064C66.096 7.43735 65.6211 7.21802 65.0026 7.23428L64.9927 7.23454H61.4337L61.2655 10.4598H64.5261C65.6951 10.4604 66.1757 10.0397 66.3929 9.73729C66.5149 9.56733 66.5814 9.39523 66.6167 9.26555C66.6342 9.20151 66.6432 9.15078 66.6477 9.12025C66.6499 9.10511 66.6509 9.0953 66.6512 9.09173L66.6513 9.09108L66.6514 9.09021L66.6516 9.0865C66.6517 9.08453 66.6717 9.04244 66.7121 8.97872L66.6693 8.96876C66.7896 8.45125 66.6508 8.03383 66.3781 7.74064ZM67.9986 9.89367H68.0028L68.0108 9.85922C68.0351 9.78942 68.0552 9.72335 68.0719 9.66214C68.1075 9.5316 68.1282 9.42018 68.1403 9.3372C68.1448 9.30622 68.1481 9.27903 68.1505 9.25608C68.3599 8.28183 68.0934 7.37017 67.4825 6.71338C66.8718 6.05683 65.9646 5.70284 64.9734 5.72627H60.0021L59.6766 11.9681H64.5255C64.5256 11.9681 64.5257 11.9681 64.5258 11.9681C66.1316 11.9688 67.0899 11.3523 67.6179 10.6172C67.7997 10.3641 67.9195 10.112 67.9986 9.89367ZM66.155 18.7267C66.4632 18.0268 65.9359 16.6447 64.3101 16.7092L64.2952 16.7098L60.9368 16.7104L60.7643 20.2412H64.0143C65.1068 20.2028 65.5937 19.8059 65.8229 19.5147C65.9485 19.355 66.0192 19.1977 66.0579 19.0836C66.0771 19.027 66.0877 18.983 66.0929 18.9577C66.0949 18.9485 66.0961 18.9419 66.0967 18.9383L66.1082 18.833L66.155 18.7267ZM67.5745 19.2405C68.2674 17.4753 66.8864 15.1072 64.2659 15.2016L59.5004 15.2023L59.1805 21.7495H64.0395L64.0518 21.7491C65.5627 21.6997 66.4821 21.116 67.0082 20.4473C67.2607 20.1265 67.4047 19.8086 67.4864 19.5677C67.5274 19.4467 67.5533 19.3432 67.5695 19.2654C67.5713 19.2568 67.573 19.2485 67.5745 19.2405Z" fill="black"/>
<path d="M108.59 17.9807C108.59 17.292 108.861 16.6674 109.298 16.2166C109.735 15.7653 110.339 15.4861 111.006 15.4861C111.674 15.4861 112.278 15.7653 112.715 16.2166C113.153 16.6672 113.423 17.2918 113.423 17.9807C113.423 18.6689 113.153 19.2929 112.715 19.7441H112.714C112.277 20.1954 111.673 20.4747 111.006 20.4747C110.341 20.4747 109.737 20.1954 109.299 19.7441C109.299 19.7435 109.299 19.7435 109.298 19.7429C108.861 19.2909 108.59 18.6677 108.59 17.9807ZM111.008 18.2769H110.472V19.2231H110.024V16.718L111.271 16.7173C111.628 16.7274 111.888 16.9187 112.014 17.1611C112.069 17.2664 112.098 17.3812 112.1 17.4953V17.4965C112.1 17.6162 112.071 17.7341 112.014 17.8393C111.928 17.997 111.776 18.131 111.553 18.2084L112.19 19.2675H111.603L111.008 18.2769ZM110.472 17.8143C110.738 17.8143 110.967 17.7969 111.266 17.7969H111.306L111.307 17.7988C111.477 17.767 111.579 17.6971 111.624 17.6137C111.643 17.5789 111.653 17.5398 111.652 17.5002C111.652 17.4584 111.64 17.4155 111.621 17.3773C111.565 17.2701 111.439 17.1847 111.26 17.1798H110.472V17.8143ZM109.629 16.5583C109.277 16.9222 109.06 17.4254 109.06 17.9807C109.06 18.536 109.277 19.0391 109.629 19.4018L109.629 19.4025C109.981 19.7658 110.469 19.9904 111.006 19.9904C111.545 19.9904 112.032 19.7654 112.384 19.4025V19.4018C112.736 19.0379 112.954 18.536 112.954 17.9807C112.954 17.4254 112.736 16.9222 112.384 16.5589C112.031 16.1949 111.544 15.9699 111.006 15.9699C110.469 15.9699 109.982 16.1949 109.629 16.5583Z" fill="black"/>
</svg>
