<svg width="124" height="24" viewBox="0 0 124 24" fill="none" xmlns="http://www.w3.org/2000/svg">
<path d="M12.5991 0C5.07236 0 0 5.27891 0 12C0 18.7211 5.07236 24 12.5991 24C20.1258 24 25.1982 18.7211 25.1982 12C25.1982 5.27891 20.1258 0 12.5991 0ZM12.5991 23.2109C7.30856 23.2109 3.8179 19.5102 3.8179 12C3.8179 4.4898 7.30856 0.789116 12.5991 0.789116C17.8896 0.789116 21.3803 4.4898 21.3803 12C21.3803 19.5102 17.8623 23.2109 12.5991 23.2109V23.2109ZM43.1696 1.0068V1.57823C44.6422 1.57823 45.2967 1.90476 45.2967 2.91156C45.2967 3.70068 44.724 4.70748 42.1605 8.84354C40.6879 11.0748 39.9243 12.7619 39.6789 13.3333C39.3517 12.4354 38.5608 10.5306 36.7609 7.40136C36.1883 6.39456 35.6428 5.60544 35.1792 4.92517C34.2793 3.59184 33.9521 2.91156 33.9521 2.44898C33.9521 1.76871 34.2793 1.65986 35.4247 1.55102V1.0068H32.1522C28.8797 1.0068 26.7526 0.897959 26.7526 0.897959V1.46939C28.9888 1.79592 30.3523 2.69388 34.0611 8.65306C36.5428 12.6803 36.87 14.0408 36.9791 15.8367V16.5986C36.9791 18.966 36.9791 20.517 36.7609 21.415C36.5428 22.5306 35.861 22.5306 34.3884 22.7483V23.3197C34.9611 23.3197 36.7609 23.102 38.4245 23.102C40.2243 23.102 42.4605 23.3197 42.4605 23.3197V22.7483C41.1243 22.6395 40.3334 22.5306 40.088 21.415C39.8698 20.517 39.8698 18.9388 39.8698 16.5986V15.7007C39.9789 14.1224 40.5516 12.6803 42.6787 9.30612C45.9512 4.02721 47.3965 2.01361 50.0963 1.57823V0.897959C49.5236 0.897959 47.6147 1.0068 45.4876 1.0068H43.1696V1.0068ZM111.401 0C103.874 0 98.8018 5.27891 98.8018 12C98.8018 18.7211 103.874 24 111.401 24C118.928 24 124 18.7211 124 12C124 5.27891 118.928 0 111.401 0ZM111.401 23.2109C106.11 23.2109 102.62 19.5102 102.62 12C102.62 4.4898 106.11 0.789116 111.401 0.789116C116.691 0.789116 120.182 4.4898 120.182 12C120.073 19.5102 116.582 23.2109 111.401 23.2109ZM61.0319 10.7755L58.5503 9.19728C56.5322 7.97279 55.0596 6.82993 55.0596 4.59864C55.0596 2.23129 56.7504 0.789116 59.3411 0.789116C63.0499 0.789116 63.8408 3.80952 64.168 5.95918H64.6044C64.6044 5.7415 64.7134 4.84354 64.7134 3.72789C64.7134 2.2585 64.6044 1.4966 64.6044 1.4966C64.3862 1.27891 62.4772 0.272109 59.532 0.272109C55.1414 0.272109 52.7961 2.96599 52.7961 6.09524C52.7961 8.46259 53.8051 10.8027 57.0776 12.7075L59.5593 14.2857C61.4682 15.5102 63.159 16.7619 63.159 19.102C63.159 21.9048 61.2501 23.2653 58.4412 23.2653C54.9505 23.2653 53.5052 21.1429 52.6052 17.1973H52.1689C52.1689 17.8776 52.0598 18.5306 52.0598 19.6735C52.0598 21.0068 52.1689 22.1497 52.1689 22.1497C52.278 22.2585 54.4051 23.9456 58.1139 23.9456C62.8318 23.9456 65.5316 21.3605 65.5316 17.551C65.5316 14.6939 64.1953 12.7891 61.0319 10.7755V10.7755ZM86.121 0.897959V1.46939C87.5936 1.57823 88.2481 1.68707 88.4935 2.80272C88.7117 3.70068 88.7117 5.27891 88.7117 7.61905V11.2109H76.358V7.5102C76.358 5.14286 76.358 3.59184 76.5762 2.69388C76.7944 1.57823 77.4761 1.57823 78.9488 1.36054V0.897959C78.9488 0.897959 76.7126 1.0068 74.9127 1.0068C73.2219 1.0068 71.422 0.897959 70.8766 0.897959V1.46939C72.3492 1.57823 73.0037 1.68707 73.2492 2.80272C73.4673 3.70068 73.4673 5.27891 73.4673 7.61905V16.5986C73.4673 18.966 73.4673 20.517 73.2492 21.415C73.031 22.5306 72.3492 22.5306 70.8766 22.7483V23.3197C71.4493 23.3197 73.2492 23.2109 74.9127 23.2109C76.7126 23.2109 78.9488 23.3197 78.9488 23.3197V22.7483C77.4761 22.5306 76.7126 22.4218 76.4671 21.2789C76.249 20.381 76.249 18.8027 76.249 16.4626V12.1088H88.6026V16.4898C88.6026 18.8571 88.6026 20.4082 88.3844 21.3061C88.1663 22.4218 87.4845 22.4218 86.0119 22.6395V23.2109C86.5846 23.2109 88.3844 23.102 90.0479 23.102C91.8478 23.102 94.084 23.2109 94.084 23.2109V22.6395C92.8568 22.5306 92.1751 22.4218 91.9569 21.3061C91.7387 20.4082 91.7387 18.8299 91.7387 16.4898V7.5102C91.7387 5.14286 91.7387 3.59184 91.9569 2.69388C92.1751 1.57823 92.8568 1.57823 94.3294 1.36054V0.897959C94.3294 0.897959 92.0933 1.0068 90.2934 1.0068C88.4662 1.0068 86.6664 0.897959 86.121 0.897959V0.897959Z" fill="#1D1D1B"/>
</svg>
