<svg width="140" height="28" viewBox="0 0 140 28" fill="none" xmlns="http://www.w3.org/2000/svg">
<path d="M87.4563 27.8484C85.9513 27.5798 84.2625 26.8867 83.125 26.0724C82.11 25.336 80.9375 23.9239 80.4738 22.8843C79.8963 21.5674 79.625 20.2246 79.625 18.6825C79.625 13.3372 82.6438 9.75928 87.8063 8.97091C88.8475 8.81497 90.9563 8.81497 92.0413 8.97957C94.5263 9.3521 96.7575 10.5303 98.1138 12.211C99.4263 13.8224 100.021 15.6764 100.021 18.1194C100.021 19.5056 99.8813 20.4759 99.5225 21.6021C98.4638 24.9115 95.6987 27.2419 92.0675 27.8657C91.105 28.0303 88.4275 28.0216 87.4563 27.8484ZM91.1313 26.4796C92.0325 26.289 93.0387 25.7692 93.73 25.1454C95.5237 23.508 96.46 20.4845 96.18 17.2704C95.9437 14.6021 95.2613 12.9301 93.8875 11.6479C92.715 10.5476 90.6325 10.0278 88.7425 10.357C86.1087 10.8162 84.315 12.8868 83.615 16.3001C83.0462 19.0897 83.7025 22.4944 85.1725 24.4177C86.0125 25.5093 87.3775 26.315 88.8125 26.5489C89.3288 26.6355 90.5625 26.6009 91.1313 26.4796ZM49.6125 27.6751C48.7638 26.5922 37.1875 15.1392 36.82 15.0093C36.6275 14.9486 36.8288 24.9028 37.065 27.1986L37.1175 27.7358H34.7375V27.4585C34.7375 27.3026 34.7988 26.237 34.8688 25.0934C34.9562 23.586 35 21.0996 35 16.0662V9.10952H36.295L37.065 9.95853C38.2725 11.2667 40.5213 13.5971 42.1925 15.2605C44.9225 17.9635 48.2475 21.1863 48.7288 21.5761L49.1925 21.966L49.14 19.237C48.9912 12.4016 48.9038 9.36943 48.86 9.23948C48.8163 9.12685 48.9563 9.10952 50.0063 9.10952H51.2138L51.1525 10.3484C51.1262 11.0241 51.0738 15.2519 51.0387 19.7481L50.9863 27.909H50.3913C49.8488 27.909 49.7875 27.8917 49.6125 27.6751ZM0 18.4226V9.10952H3.94625C7.2625 9.10952 7.98 9.13552 8.51375 9.24814C11.1125 9.82858 12.5825 11.7692 12.3988 14.3682C12.2587 16.3088 11.2088 17.8855 9.5025 18.7172C8.225 19.341 7.5775 19.4536 5.45125 19.4622H3.59625L3.63125 19.7655C3.64875 19.9301 3.6925 21.6454 3.71875 23.5773C3.745 25.5093 3.7975 27.2333 3.82375 27.4152L3.87625 27.7358H0V18.4226ZM6.34375 17.9548C7.035 17.7122 7.51625 17.3657 7.9625 16.7679C8.53125 16.0229 8.785 15.2085 8.79375 14.091C8.79375 12.4796 8.19 11.3533 7.0175 10.7816C6.57125 10.565 6.405 10.539 5.4425 10.5043C4.8475 10.4957 4.19125 10.5043 3.9725 10.539L3.5875 10.591V14.3075C3.5875 17.7729 3.59625 18.0241 3.745 18.0588C3.82375 18.0848 4.34 18.1021 4.8825 18.1108C5.64375 18.1194 5.97625 18.0848 6.34375 17.9548ZM12.6875 27.6491C12.6875 27.5971 12.7837 27.3719 12.8975 27.1466C13.0112 26.9214 13.405 26.0724 13.7638 25.2667C14.1313 24.4523 14.7088 23.1702 15.05 22.4078C16.3713 19.5229 16.45 19.3323 17.85 16.2135C19.2588 13.06 20.825 9.19616 20.825 8.88428C20.825 8.85829 21.245 8.85829 21.7525 8.86695L22.68 8.89294L23.2488 10.409C24.29 13.2073 25.5588 16.2828 26.9588 19.4189C27.09 19.7308 27.7463 21.1949 28.4025 22.6677C29.0588 24.1491 29.7675 25.7259 29.9688 26.1764C30.17 26.6268 30.4238 27.164 30.5288 27.3719L30.7125 27.7358H26.46L25.865 26.159C25.5325 25.284 25.025 23.9585 24.7275 23.2135L24.1938 21.8447H20.8162C17.6663 21.8447 17.43 21.8533 17.3863 22.0006C17.36 22.0786 17.1413 22.633 16.8962 23.2221C16.38 24.4783 15.5488 26.7308 15.3825 27.3286L15.2775 27.7358H13.9825C13.1513 27.7358 12.6875 27.7011 12.6875 27.6491ZM23.1088 20.1293L23.345 20.0687L22.8637 18.8125C22.6012 18.1194 22.2338 17.1665 22.0413 16.69C21.8575 16.2135 21.5075 15.3212 21.28 14.7147C20.8688 13.6405 20.8513 13.6145 20.7463 13.8484C20.685 13.9783 20.3787 14.6974 20.0638 15.4338C19.7575 16.1702 19.3725 17.0885 19.2063 17.4697C18.5063 19.1157 18.13 20.0687 18.165 20.112C18.2963 20.2419 22.6188 20.2506 23.1088 20.1293ZM57.8638 23.7333C57.8988 21.5241 57.9163 17.3311 57.8988 14.4202L57.855 9.10952H62.265C65.6688 9.10952 66.8938 9.13552 67.6637 9.23948C70.2625 9.57735 72.0913 10.4957 73.5263 12.185C74.8037 13.6924 75.425 15.5811 75.425 17.9375C75.4163 22.1046 73.675 25.1281 70.3587 26.7395C69.6588 27.086 69.0113 27.3113 67.9437 27.5712C67.6288 27.6491 66.115 27.6838 62.65 27.7098L57.7938 27.7444L57.8638 23.7333ZM66.6925 26.0204C67.585 25.7518 68.46 25.2494 69.1862 24.5823C70.8575 23.0402 71.6012 20.9957 71.6012 17.9895C71.5838 13.2679 68.8975 10.5823 64.19 10.5823C63.7438 10.5823 62.965 10.6083 62.4575 10.6343L61.5388 10.6949L61.4775 11.4833C61.355 13.112 61.4163 25.9598 61.5475 26.0984C61.5563 26.107 62.1075 26.1417 62.7813 26.1764C64.645 26.2803 66.0013 26.2197 66.6925 26.0204ZM104.965 25.7259C105.053 23.1702 105.053 9.56868 104.965 9.30878L104.904 9.10952H109.139C113.881 9.10952 114.275 9.14418 115.378 9.66398C116.113 10.0105 116.918 10.7469 117.268 11.414C117.74 12.289 117.88 13.5278 117.644 14.6627C117.285 16.3521 116.042 17.591 114.03 18.2667C113.584 18.414 113.199 18.5526 113.173 18.5786C113.138 18.6132 113.82 19.6095 115.614 22.1306C116.366 23.1875 118.318 25.7778 119.158 26.8261L119.849 27.6924L117.565 27.7184C116.314 27.7271 115.238 27.7184 115.185 27.7011C115.133 27.6838 114.861 27.2939 114.573 26.8348C113.479 25.0674 110.968 21.3942 109.296 19.0984C109.2 18.9598 109.06 18.9078 108.841 18.8991C108.553 18.8991 108.535 18.9165 108.553 19.1417C108.57 19.2717 108.596 21.2556 108.623 23.56L108.658 27.7358H104.895L104.965 25.7259ZM111.353 17.565C112.481 17.3311 113.269 16.6986 113.776 15.6244C114.021 15.1046 114.056 14.9486 114.083 14.0823C114.135 12.6182 113.82 11.7952 112.989 11.1887C112.201 10.6083 111.23 10.4264 109.524 10.539L108.5 10.5996V17.591L109.051 17.6256C110.241 17.6863 110.845 17.6776 111.353 17.565ZM122.098 27.4585C122.168 27.3026 122.526 26.5142 122.894 25.6999C123.261 24.8942 123.681 23.9759 123.813 23.664C123.944 23.3521 124.189 22.8063 124.364 22.4511C124.644 21.836 124.968 21.1429 125.738 19.4189C125.921 19.0117 126.175 18.4486 126.306 18.1627C126.516 17.7036 126.77 17.1318 127.75 14.914C128.511 13.19 129.404 11.0328 129.833 9.84591L130.183 8.89294L131.101 8.86695L132.02 8.84096L132.169 9.30012C132.335 9.79393 132.755 10.9202 133.446 12.6615C133.84 13.6751 134.085 14.2729 134.881 16.1702C135.38 17.3657 136.404 19.7221 136.762 20.5018C136.85 20.6924 137.13 21.3335 137.401 21.9313C138.32 23.9932 138.854 25.1887 139.423 26.4276C139.738 27.112 140 27.6838 140 27.7011C140 27.7184 139.055 27.7358 137.909 27.7358H135.818L135.467 26.8521C135.275 26.3583 134.951 25.5353 134.75 25.0068C134.549 24.487 134.181 23.56 133.936 22.9449L133.499 21.8447L130.13 21.862L126.77 21.888L126.131 23.4561C125.781 24.3224 125.291 25.6306 125.029 26.3843L124.565 27.7358H121.975L122.098 27.4585ZM132.37 20.1467C132.519 20.1207 132.65 20.0947 132.65 20.0773C132.65 20.0167 130.541 14.5155 130.279 13.8917L130.156 13.5971L129.815 14.4115C129.631 14.8533 129.351 15.5291 129.185 15.9103C129.028 16.2915 128.581 17.3744 128.188 18.3187C127.785 19.263 127.496 20.06 127.531 20.0947C127.663 20.2246 131.618 20.2679 132.37 20.1467ZM87.5963 7.7667C87.4125 7.17759 87.4212 7.13428 87.6663 7.0823C88.165 6.96967 90.72 6.92636 91.4725 7.02165C91.9013 7.07363 92.26 7.12561 92.2775 7.14294C92.295 7.16027 92.2425 7.35953 92.1725 7.6021L92.0325 8.0266H87.675L87.5963 7.7667ZM87.325 6.31992C86.94 5.90408 87.2463 5.21101 87.815 5.21101C88.3488 5.21101 88.6463 5.86943 88.3225 6.31992C88.1388 6.58849 87.5788 6.58849 87.325 6.31992ZM91.3587 6.28527C91.1138 5.98205 91.1313 5.72215 91.3938 5.43626C91.6738 5.1417 92.0675 5.13304 92.3563 5.4276C92.785 5.8521 92.4963 6.51052 91.875 6.51052C91.6125 6.51052 91.4988 6.45854 91.3587 6.28527ZM89.5563 6.31992C89.11 6.08601 89.0312 5.5922 89.3813 5.25433C89.6438 4.98576 89.9588 4.9771 90.265 5.237C90.58 5.51423 90.58 5.95606 90.2563 6.23329C90.0025 6.44121 89.8188 6.4672 89.5563 6.31992ZM86.415 3.89418C85.4875 0.913982 85.3125 0.333537 85.33 0.316211C85.3738 0.272894 88.2 4.48329 88.2 4.57859C88.2 4.63057 87.9287 4.69121 87.5963 4.72586C87.2638 4.75185 86.9313 4.80383 86.8525 4.82982C86.7475 4.86448 86.66 4.67388 86.415 3.89418ZM92.5312 4.76918C92.3388 4.73453 92.0325 4.69987 91.8575 4.69987C91.6825 4.69121 91.5163 4.66522 91.49 4.6219C91.4725 4.58725 91.6825 4.20606 91.9713 3.78156C92.26 3.34839 92.89 2.40408 93.38 1.67636C93.8612 0.948636 94.2725 0.368191 94.29 0.385518C94.325 0.420171 94.1675 0.974626 93.4938 3.17512C93.3275 3.70359 93.1525 4.29269 93.1 4.50062C93.0475 4.69987 92.9775 4.85581 92.9425 4.85581C92.9075 4.84715 92.7238 4.8125 92.5312 4.76918ZM89.075 4.4573C89.0925 4.05012 89.845 -0.0996309 89.8888 0.0129929C89.9325 0.125617 90.65 4.40532 90.65 4.5526C90.65 4.57859 90.3 4.60458 89.8625 4.60458C89.1712 4.60458 89.075 4.58725 89.075 4.4573Z" fill="black"/>
</svg>
