<svg width="89" height="47" viewBox="0 0 89 47" fill="none" xmlns="http://www.w3.org/2000/svg">
<g clip-path="url(#clip0_435_2113)">
<path d="M47.78 2.12598C47.49 2.17008 47.2112 3.22305 46.6506 3.77159C46.2407 4.16747 45.729 4.14271 45.4572 4.63214C45.354 4.81498 45.3874 5.12709 45.2703 5.42677C45.0417 6.02613 44.2358 6.07971 44.2358 6.73274C44.233 7.43798 44.9079 7.57267 45.492 8.07305C45.948 8.47584 45.9926 8.75352 46.5447 8.9487C47.016 9.10687 47.7173 8.58991 48.3489 8.77552C48.8676 8.92817 49.3639 9.0381 49.4811 9.56325C49.5842 10.0472 49.4741 10.7977 48.8453 10.7111C48.6333 10.6878 47.7145 10.3826 46.5852 10.5008C45.2229 10.6534 43.6683 11.0918 43.5164 12.589C43.4327 13.4262 44.4825 14.4132 45.4962 14.2125C46.1975 14.0764 45.8657 13.2613 46.2477 12.8653C46.7482 12.3581 49.5842 14.636 52.2207 14.636C53.3306 14.636 54.1559 14.3597 54.9759 13.5128C55.0525 13.4482 55.1459 13.3094 55.2644 13.3011C55.376 13.3094 55.5712 13.4179 55.6353 13.4647C57.7588 15.1473 59.3636 18.5223 67.1673 18.5622C68.2646 18.5676 69.5151 19.0845 70.5358 20.0028C71.4463 20.8332 71.9789 22.124 72.4961 23.4341C73.2769 25.4 74.6768 27.3122 76.7988 29.4403C76.9146 29.5543 78.6616 30.8933 78.801 30.9937C78.8233 31.0074 78.9516 31.3099 78.907 31.4789C78.8554 32.7547 78.6672 36.465 81.4724 36.6327C82.1584 36.667 81.9785 36.1914 81.9785 35.8642C81.9772 35.2181 81.8572 34.5761 82.203 33.9149C82.6756 33.0049 81.2006 32.5855 81.2438 30.6183C81.2744 29.1515 80.0251 29.4017 79.3907 28.2841C79.0254 27.6366 78.7006 27.293 78.7243 26.501C78.8665 22.0443 77.7622 19.1161 77.2115 18.3972C76.7822 17.8542 76.4266 17.6384 76.8197 17.3867C79.1608 15.8622 79.692 14.4434 79.692 14.4434C80.9369 11.558 82.0566 8.92255 83.6 7.76242C83.911 7.52313 84.7085 6.93621 85.1979 6.70521C86.6381 6.0357 87.3966 5.63024 87.815 5.22873C88.4772 4.59227 89 3.26568 88.3656 2.46147C87.5765 1.4689 86.2115 2.25662 85.6092 2.6085C81.3051 5.12709 80.6707 9.57006 79.1802 12.1216C77.9909 14.1602 76.0571 15.6574 74.3282 15.7797C73.0315 15.8745 71.6345 15.6161 70.243 15.014C66.8592 13.5513 65.0075 11.6625 64.5712 11.3285C63.662 10.6369 56.6043 3.80593 50.8864 3.52687C50.8864 3.52687 50.1768 2.12607 49.9983 2.10269C49.5799 2.05039 49.152 2.93985 48.8453 3.04307C48.5566 3.13779 48.0715 2.0793 47.78 2.12607V2.12598ZM22.608 42.8959C22.0698 42.8835 21.6125 42.4478 21.6125 41.9089L21.6139 24.3235H15.7357V43.7083C15.7357 44.6583 16.5164 45.4337 17.4743 45.4337H27.7487C28.7134 45.4337 29.4845 44.6583 29.4845 43.7083V24.3235H23.6119L23.6063 41.9089C23.6063 42.4478 23.1489 42.8835 22.608 42.8959ZM42.2894 24.3235H33.3926C32.34 24.3235 31.4825 25.1676 31.4825 26.2165V45.4336H37.3661V27.8058C37.3703 27.2655 37.8137 26.838 38.3603 26.838C38.9096 26.838 39.3502 27.2559 39.3627 27.7907V45.4337H45.2228V27.7905C45.2298 27.2558 45.6704 26.8379 46.2183 26.8379C46.7621 26.8379 47.2111 27.2654 47.2153 27.8057V45.4337H53.099V26.2165C53.099 25.1676 52.2401 24.3235 51.1875 24.3235H42.2894ZM7.8692 27.8428C7.8734 27.2558 7.38822 26.8379 6.87371 26.8379H5.87543V37.5153H6.87371C7.39242 37.5153 7.8735 37.1083 7.8692 36.5242V27.8428ZM11.8136 40.1286H5.87543V45.4337H0V24.3235H11.8513C12.9123 24.3235 13.7404 25.1731 13.7404 26.2248V38.2274C13.7404 39.2805 12.8802 40.1286 11.8136 40.1286ZM73.2616 40.7128C72.0807 40.7128 71.0893 41.7191 71.0893 42.9386C71.0893 44.162 72.0807 45.16 73.2992 45.16C74.5081 45.16 75.4869 44.162 75.4869 42.9386C75.4869 41.7164 74.5081 40.7128 73.2991 40.7128H73.2616ZM75.9079 42.9317C75.9079 44.3654 74.7423 45.5313 73.2992 45.5313C71.8408 45.5313 70.6697 44.3738 70.6697 42.9317C70.6697 41.517 71.8408 40.3348 73.256 40.3348C74.7423 40.3348 75.9079 41.4814 75.9079 42.9317Z" fill="black"/>
<path d="M73.0274 42.7666C73.4359 42.7666 73.6507 42.6237 73.6507 42.3378C73.6507 42.0834 73.4429 41.9529 73.0455 41.9529H72.9284V42.7666H73.0274ZM74.5318 44.4355H73.8305L72.9284 43.2519V44.4355H72.3553V41.4428H72.9577C73.7761 41.4428 74.2111 41.748 74.2111 42.3309C74.2111 42.7199 73.9546 43.065 73.5962 43.1681L73.5544 43.1832L74.5318 44.4355ZM62.9637 37.5194V27.7988C62.9497 27.2613 62.5105 26.8489 61.9626 26.8489C61.4202 26.8489 60.9712 27.2777 60.9671 27.8139V37.5194H62.9637ZM62.9637 45.4336V40.1341H60.9671V45.4336H55.0945V26.2165C55.0945 25.1676 55.9519 24.3235 57.0046 24.3235H66.9261C67.9816 24.3235 68.8391 25.1676 68.8391 26.2165V45.4335L62.9637 45.4336Z" fill="black"/>
</g>
<defs>
<clipPath id="clip0_435_2113">
<rect width="89" height="47" fill="white"/>
</clipPath>
</defs>
</svg>
