<svg width="83" height="34" viewBox="0 0 83 34" fill="none" xmlns="http://www.w3.org/2000/svg">
<path fill-rule="evenodd" clip-rule="evenodd" d="M54.1317 9.05683C54.1317 7.55752 55.631 7.55752 55.631 7.55752H56.8609V6.68791H49.3635V7.55752H50.5933C50.5933 7.55752 52.1826 7.55752 52.1826 9.05683V26.2407L35.359 6.68747H30.3804V7.55707H31.6103C31.6103 7.55707 33.1096 7.55708 33.1096 9.05639V27.7392C33.1096 29.2394 31.6103 29.2394 31.6103 29.2394H30.3804V30.1085H38.0278V29.2394H36.7979C36.7979 29.2394 35.2986 29.2394 35.2986 27.7392V10.9759L51.7928 30.109H54.1017L54.1317 9.05683V9.05683ZM79.8031 24.9504C79.8031 24.9504 79.6835 28.6092 77.4337 28.5497H67.2379V18.0232H76.744C78.2433 18.0232 78.2433 19.5225 78.2433 19.5225V20.7524H79.1134V14.035H78.2433V15.2344C78.2433 15.2344 78.2433 16.7338 76.744 16.7338H67.2379V8.12681H76.4741C78.724 8.03685 78.8435 11.1859 78.8435 11.1859H79.7135V7.88736C79.7135 6.44758 78.1838 6.62794 78.1838 6.62794H61.3897V7.55752H62.6187C62.6187 7.55752 64.118 7.55752 64.118 9.05683V27.7396C64.118 29.2398 62.6187 29.2398 62.6187 29.2398H61.3897V30.109H79.1129C79.1129 30.109 80.6427 30.1994 80.6427 28.7896V24.9509H79.8031V24.9504V24.9504ZM80.3128 6.86739C80.3128 6.26767 80.8226 5.81787 81.3919 5.81787C81.9921 5.81787 82.5023 6.26767 82.5023 6.86739C82.5026 7.01329 82.4741 7.15781 82.4184 7.29266C82.3628 7.42751 82.281 7.55003 82.1778 7.65317C82.0746 7.75631 81.9521 7.83804 81.8172 7.89367C81.6823 7.9493 81.5378 7.97773 81.3919 7.97732C80.8226 7.97732 80.3128 7.4971 80.3128 6.86739Z" fill="black"/>
<path fill-rule="evenodd" clip-rule="evenodd" d="M81.3909 7.79698C81.9007 7.79698 82.2909 7.40716 82.2909 6.86741C82.2909 6.35764 81.9007 5.9978 81.3909 5.9978C80.9111 5.9978 80.5217 6.35764 80.5217 6.86741C80.5222 7.40716 80.9111 7.79698 81.3909 7.79698Z" fill="white"/>
<path fill-rule="evenodd" clip-rule="evenodd" d="M81.1828 7.49702H81.0029V6.26758H81.4527C81.7526 6.26758 81.9025 6.35753 81.9025 6.62741C81.9025 6.83732 81.7526 6.92728 81.5727 6.95726L81.9325 7.49702H81.7222L81.3923 6.95726H81.1828V7.49702V7.49702Z" fill="black"/>
<path fill-rule="evenodd" clip-rule="evenodd" d="M81.3921 6.80731C81.5721 6.80731 81.6929 6.80731 81.6929 6.5974C81.6929 6.44747 81.5725 6.41748 81.4226 6.41748H81.1831V6.80731H81.3921V6.80731Z" fill="white"/>
<path fill-rule="evenodd" clip-rule="evenodd" d="M60.9088 17.9632L59.5589 15.9841L58.329 17.9632L59.5589 19.9723L60.9088 17.9632ZM31.9089 17.9632L30.5591 15.9841L29.3297 17.9632L30.5591 19.9723L31.9089 17.9632V17.9632ZM0 32.4783V33.3784H81.0013V32.4783H0ZM30.5895 1.76929H0V2.66888H30.5895V1.76929V1.76929ZM48.8829 1.76929V2.66888H81.0013V1.76929H48.8829V1.76929ZM0.360276 20.7819C2.30938 31.9381 13.4056 30.8591 13.4056 30.8591C30.0798 29.3897 27.6804 15.3244 27.6804 15.3244C26.511 4.58844 13.8854 5.45804 13.8854 5.45804C-2.42889 7.49711 0.360276 20.7819 0.360276 20.7819V20.7819Z" fill="black"/>
<path fill-rule="evenodd" clip-rule="evenodd" d="M24.411 15.9239C25.6109 29.2687 13.4052 28.8194 13.4052 28.8194C4.40842 28.4291 3.59879 19.2824 3.59879 19.2824C2.84869 7.97713 14.2148 7.37697 14.2148 7.37697C23.7813 7.25702 24.411 15.9239 24.411 15.9239Z" fill="white"/>
<path fill-rule="evenodd" clip-rule="evenodd" d="M66.4874 31.1583C66.5174 31.0979 66.5778 31.0388 66.7278 31.0388C66.9077 31.0388 67.0576 31.1583 67.0576 31.4582C67.0576 31.6685 66.9672 31.8784 66.7278 31.8784C66.6374 31.8784 66.5478 31.8485 66.4874 31.7581V31.8784H66.2771V30.7681H66.4874V31.1583Z" fill="black"/>
<path fill-rule="evenodd" clip-rule="evenodd" d="M66.6653 31.2188C66.5153 31.2188 66.4854 31.3383 66.4854 31.4882C66.4854 31.6077 66.5153 31.7285 66.6653 31.7285C66.8152 31.7285 66.8452 31.5777 66.8452 31.4582C66.8452 31.3387 66.7848 31.2188 66.6653 31.2188V31.2188Z" fill="white"/>
<path fill-rule="evenodd" clip-rule="evenodd" d="M67.147 31.0688H67.3573V31.1883C67.4177 31.1278 67.4468 31.0383 67.5677 31.0383H67.6272V31.2478H67.5677C67.3877 31.2478 67.3573 31.3682 67.3573 31.4581V31.8784H67.147V31.0688V31.0688ZM68.3464 31.6985C68.3464 31.818 68.3764 31.818 68.4068 31.8484V31.8784H68.1665C68.1365 31.818 68.1365 31.818 68.1365 31.758C68.1065 31.8184 68.017 31.8784 67.8671 31.8784C67.7476 31.8784 67.6267 31.818 67.6267 31.668C67.6267 31.4881 67.7171 31.4277 67.8671 31.3986L68.047 31.3686C68.1065 31.3686 68.1365 31.3386 68.1365 31.3082C68.1365 31.2187 68.047 31.2187 67.9866 31.2187C67.8971 31.2187 67.8671 31.2782 67.8671 31.3082H67.6567C67.6867 31.0688 67.8671 31.0388 68.0166 31.0388C68.1361 31.0388 68.3464 31.0688 68.3464 31.2782V31.6985V31.6985Z" fill="black"/>
<path fill-rule="evenodd" clip-rule="evenodd" d="M68.1363 31.4583C68.1063 31.4882 68.0768 31.5187 67.9864 31.5187C67.8968 31.5187 67.8364 31.5487 67.8364 31.6382C67.8364 31.7286 67.8968 31.7286 67.9559 31.7286C68.0463 31.7286 68.1359 31.6682 68.1359 31.5778V31.4583H68.1363V31.4583Z" fill="white"/>
<path fill-rule="evenodd" clip-rule="evenodd" d="M69.2146 31.8784H69.0043V31.3687C69.0043 31.3083 69.0043 31.2187 68.8544 31.2187C68.764 31.2187 68.6745 31.2783 68.6745 31.3987V31.8784H68.4641V31.0688H68.6745V31.1883C68.6942 31.1418 68.7278 31.1025 68.7706 31.0757C68.8134 31.0489 68.8634 31.0359 68.9139 31.0384C69.0938 31.0384 69.2146 31.1279 69.2146 31.3078V31.8784V31.8784ZM70.0838 31.8784H69.8743V31.7581C69.8139 31.8485 69.7244 31.8784 69.634 31.8784C69.3946 31.8784 69.3042 31.6681 69.3042 31.4582C69.3042 31.1583 69.4541 31.0388 69.634 31.0388C69.7839 31.0388 69.8444 31.0984 69.8743 31.1583V30.7681H70.0838V31.8784Z" fill="black"/>
<path fill-rule="evenodd" clip-rule="evenodd" d="M69.6968 31.7285C69.8467 31.7285 69.8767 31.6081 69.8767 31.4882C69.8767 31.3383 69.8467 31.2188 69.6968 31.2188C69.5764 31.2188 69.5168 31.3383 69.5168 31.4582C69.5168 31.5782 69.5468 31.7285 69.6968 31.7285V31.7285Z" fill="white"/>
<path fill-rule="evenodd" clip-rule="evenodd" d="M70.5947 30.7686H71.0745C71.4648 30.7686 71.5248 31.0984 71.5248 31.3087C71.5248 31.5191 71.4344 31.8789 71.0745 31.8789H70.5947V30.7686Z" fill="black"/>
<path fill-rule="evenodd" clip-rule="evenodd" d="M70.834 31.6687H71.0443C71.2243 31.6687 71.2838 31.4887 71.2838 31.3088C71.2838 30.979 71.1339 30.949 71.0443 30.949H70.834V31.6687Z" fill="white"/>
<path fill-rule="evenodd" clip-rule="evenodd" d="M72.1247 30.739C72.2747 30.739 72.6649 30.7985 72.6649 31.3083C72.6649 31.8485 72.2747 31.9076 72.1247 31.9076C71.9748 31.9076 71.5854 31.8481 71.5854 31.3083C71.5854 30.7985 71.9748 30.739 72.1247 30.739Z" fill="black"/>
<path fill-rule="evenodd" clip-rule="evenodd" d="M72.1246 31.6986C72.245 31.6986 72.4244 31.6382 72.4244 31.3083C72.4244 31.0085 72.2454 30.9485 72.1246 30.9485C72.0051 30.9485 71.8247 31.0089 71.8247 31.3083C71.8247 31.6382 72.0046 31.6986 72.1246 31.6986Z" fill="white"/>
<path fill-rule="evenodd" clip-rule="evenodd" d="M73.2942 31.2783H73.744V31.8785H73.5941L73.565 31.7286C73.5045 31.7881 73.4141 31.9076 73.2351 31.9076C72.9648 31.9076 72.7253 31.6981 72.7253 31.3083C72.7253 31.0389 72.8753 30.739 73.2646 30.739C73.5945 30.739 73.7149 30.9485 73.7444 31.098H73.505C73.505 31.0689 73.4446 30.918 73.2646 30.918C73.1147 30.918 72.9648 31.0384 72.9648 31.3383C72.9648 31.6382 73.1147 31.6981 73.2646 31.6981C73.3251 31.6981 73.505 31.6981 73.535 31.4578H73.2946V31.2783H73.2942V31.2783ZM74.4941 31.8785H74.2538V30.7686H75.0338V30.9785H74.4941V31.2188H74.9739V31.3987H74.4941V31.8785V31.8785ZM75.6031 30.739C75.7531 30.739 76.1433 30.7985 76.1433 31.3083C76.1433 31.8485 75.7531 31.9076 75.6031 31.9076C75.4836 31.9076 75.0934 31.8481 75.0934 31.3083C75.0934 30.7985 75.4836 30.739 75.6031 30.739Z" fill="black"/>
<path fill-rule="evenodd" clip-rule="evenodd" d="M75.6033 31.6986C75.7533 31.6986 75.9032 31.6382 75.9032 31.3083C75.9032 31.0085 75.7533 30.9485 75.6033 30.9485C75.4838 30.9485 75.3035 31.0089 75.3035 31.3083C75.3039 31.6382 75.4838 31.6986 75.6033 31.6986Z" fill="white"/>
<path fill-rule="evenodd" clip-rule="evenodd" d="M76.7434 30.739C76.8933 30.739 77.2836 30.7985 77.2836 31.3083C77.2836 31.8485 76.8933 31.9076 76.7434 31.9076C76.5935 31.9076 76.2041 31.8481 76.2041 31.3083C76.2045 30.7985 76.5935 30.739 76.7434 30.739Z" fill="black"/>
<path fill-rule="evenodd" clip-rule="evenodd" d="M76.7403 31.6986C76.8607 31.6986 77.041 31.6382 77.041 31.3083C77.041 31.0085 76.8611 30.9485 76.7403 30.9485C76.6208 30.9485 76.4404 31.0089 76.4404 31.3083C76.4409 31.6382 76.6208 31.6986 76.7403 31.6986Z" fill="white"/>
<path fill-rule="evenodd" clip-rule="evenodd" d="M77.4031 30.7686H77.8837C78.2427 30.7686 78.3335 31.0984 78.3335 31.3087C78.3335 31.5191 78.2431 31.8789 77.8837 31.8789H77.4031V30.7686Z" fill="black"/>
<path fill-rule="evenodd" clip-rule="evenodd" d="M77.6113 31.6687H77.8517C78.0316 31.6687 78.0911 31.4887 78.0911 31.3088C78.0911 30.979 77.9412 30.949 77.8517 30.949H77.6113V31.6687Z" fill="white"/>
<path fill-rule="evenodd" clip-rule="evenodd" d="M31.8186 4.378V4.19808C32.0885 4.16809 32.2084 4.16809 32.2384 4.13811C32.2684 4.13811 32.2984 4.10812 32.3284 4.07813C32.3584 4.01816 32.4183 3.77827 32.5083 3.35846C32.5083 3.23896 32.5982 2.69877 32.7782 1.70922C32.8981 0.959561 32.9581 0.539753 32.9581 0.449794C32.9581 0.359836 32.9581 0.329849 32.8981 0.299863C32.8381 0.269877 32.6882 0.23989 32.4183 0.23989V0.0599716C32.4183 0.0599716 32.5982 0.0899582 32.8686 0.0899582H33.7382C34.008 0.0899582 34.1884 0.0599716 34.2784 0.0599716C34.5782 0.0599716 34.7881 0.119946 34.9381 0.179918C35.088 0.239891 35.2079 0.329848 35.2979 0.479779C35.3879 0.629711 35.4178 0.80963 35.4178 0.989547C35.4178 1.19945 35.3879 1.37937 35.2979 1.58927C35.2379 1.76919 35.118 1.94911 34.998 2.09904C34.8781 2.24897 34.7282 2.33893 34.5782 2.42889C34.3983 2.51885 34.1884 2.57882 33.9785 2.57882C33.8586 2.57882 33.7686 2.54884 33.6786 2.54884C33.5835 2.52158 33.4927 2.48121 33.4088 2.42889V2.21898C33.5587 2.30894 33.7086 2.36892 33.859 2.36892C34.0389 2.36892 34.2188 2.30894 34.3688 2.21898C34.5187 2.12903 34.6386 1.97909 34.7286 1.76919C34.8273 1.57396 34.8787 1.35824 34.8785 1.13948C34.8785 0.959561 34.8485 0.809629 34.7886 0.689684C34.7286 0.569739 34.6386 0.47978 34.4887 0.389821C34.3388 0.329849 34.1888 0.299863 33.9789 0.299863C33.859 0.299863 33.7091 0.329848 33.4992 0.359835L33.3192 1.46933L33.0194 3.02861C32.9594 3.5084 32.8994 3.77827 32.8994 3.86823V3.98818C32.8994 4.04815 32.8994 4.07813 32.9294 4.10812C32.9594 4.13811 32.9894 4.16809 33.0794 4.16809C33.1393 4.19808 33.2897 4.19808 33.4992 4.19808V4.378C33.1993 4.378 32.9294 4.34801 32.7495 4.34801C32.6882 4.34801 32.3883 4.378 31.8186 4.378V4.378ZM35.5973 2.09904L35.5373 1.97909C35.7173 1.82916 35.9572 1.67923 36.257 1.5293C36.377 1.43934 36.4969 1.40936 36.5569 1.40936C36.5869 1.40936 36.6169 1.43934 36.6468 1.46933C36.6768 1.49931 36.6768 1.5293 36.6768 1.58927C36.6768 1.61926 36.6768 1.70922 36.6468 1.85915C36.347 2.99863 36.227 3.68831 36.227 3.89866V3.98862C36.257 4.0186 36.287 4.0186 36.317 4.0186C36.347 4.0186 36.377 3.98862 36.4369 3.95863C36.5869 3.89866 36.7668 3.74873 36.9467 3.56881C37.1266 3.38889 37.2765 3.17899 37.4265 2.90911C37.546 2.75918 37.6064 2.60881 37.6664 2.39934C37.7563 2.18944 37.8163 1.88958 37.8763 1.52974C37.9362 1.52974 38.0866 1.49976 38.2961 1.43978L38.3561 1.46977L38.1761 2.03951C38.1162 2.30939 38.0262 2.63923 37.9662 2.96908C37.8763 3.29893 37.8163 3.53882 37.8163 3.68875C37.8163 3.74873 37.7863 3.8087 37.7863 3.86867C37.7863 3.92864 37.8163 3.95863 37.8163 3.98862C37.8463 4.0186 37.8763 4.0186 37.9063 4.0186C37.9362 4.0186 37.9662 4.0186 37.9962 3.98862C38.0562 3.95863 38.1761 3.86867 38.386 3.71874L38.446 3.83868C38.1162 4.10856 37.8463 4.28848 37.7263 4.37844C37.6064 4.43841 37.5164 4.4684 37.4565 4.4684C37.4269 4.4684 37.3965 4.43841 37.3665 4.40842C37.3365 4.37844 37.3065 4.31847 37.3065 4.22851C37.3065 4.19852 37.3365 4.13855 37.3365 4.07857C37.3365 3.98862 37.3965 3.8087 37.456 3.53882L37.576 2.99907H37.546C37.3361 3.26895 37.2161 3.44886 37.1861 3.50884C37.0362 3.68875 36.8563 3.86867 36.6764 4.04859C36.466 4.19852 36.2866 4.34845 36.1066 4.40842C36.0467 4.43841 35.9867 4.4684 35.9567 4.4684C35.9258 4.46896 35.8954 4.46083 35.8688 4.44492C35.8423 4.42901 35.8208 4.40598 35.8068 4.37844C35.7468 4.31846 35.7468 4.22851 35.7468 4.10856C35.7468 3.95863 35.7768 3.71874 35.8668 3.41888C35.9567 2.9391 36.0467 2.54927 36.1066 2.2794C36.1366 2.12947 36.1666 2.00952 36.1666 1.94955C36.1666 1.91956 36.1366 1.88958 36.1366 1.85959C36.1066 1.85959 36.1066 1.8296 36.0767 1.8296C36.0171 1.82916 35.8372 1.91912 35.5973 2.09904V2.09904ZM38.8663 4.43797L38.8063 4.40798C38.8962 4.07813 38.9862 3.77827 39.0462 3.56837C39.1361 3.11813 39.2261 2.72875 39.2561 2.3989C39.2861 2.189 39.3161 2.06905 39.3161 1.97909C39.3161 1.91912 39.3161 1.88914 39.2861 1.85915C39.2861 1.85915 39.2561 1.82916 39.2261 1.82916C39.1661 1.82916 38.9862 1.94867 38.7163 2.12903L38.6564 2.03907C38.9262 1.82916 39.1661 1.64925 39.376 1.5293C39.496 1.46933 39.6159 1.40936 39.6763 1.40936C39.7063 1.40936 39.7363 1.43934 39.7663 1.46933C39.7963 1.46933 39.7963 1.5293 39.7963 1.55929C39.7963 1.61926 39.7963 1.7392 39.7663 1.85915C39.7005 2.15783 39.6406 2.45775 39.5864 2.75874C39.7963 2.36892 40.0062 2.06905 40.2465 1.79918C40.3665 1.61926 40.4864 1.5293 40.5464 1.46933C40.6363 1.43934 40.6963 1.40936 40.7563 1.40936C40.7863 1.40936 40.8462 1.43934 40.8762 1.43934C40.8462 1.61926 40.8163 1.85915 40.7863 2.12903H40.6954C40.6355 2.06905 40.5755 2.00908 40.4855 2.00908C40.407 2.01261 40.3324 2.04458 40.2756 2.09904C40.1257 2.189 40.0057 2.33893 39.8558 2.54884C39.7003 2.79077 39.5792 3.05317 39.496 3.32848C39.466 3.5084 39.376 3.83824 39.2861 4.34801C39.1062 4.378 38.9558 4.40798 38.8663 4.43797V4.43797ZM41.715 0.389821C41.715 0.299862 41.7449 0.179917 41.8054 0.119945C41.8649 0.029986 41.9553 0 42.0448 0C42.1352 0 42.1652 0.0299853 42.2247 0.0599716C42.2547 0.0899579 42.2851 0.149931 42.2851 0.23989C42.2851 0.359835 42.2552 0.449794 42.1947 0.539753C42.1352 0.629712 42.0448 0.659698 41.9553 0.659698C41.8649 0.659698 41.8054 0.629712 41.7754 0.599726C41.715 0.539312 41.715 0.47978 41.715 0.389821ZM40.9353 2.12903L40.9053 2.00908C41.2352 1.7392 41.4751 1.58927 41.595 1.5293C41.7145 1.46933 41.8054 1.43934 41.8645 1.43934C41.9249 1.43934 41.9249 1.46933 41.9548 1.49931C41.9922 1.54041 42.0134 1.5937 42.0144 1.64924C42.0144 1.67923 41.9853 1.7392 41.9853 1.79918C41.9304 2.02043 41.8704 2.24039 41.8054 2.45888C41.595 3.29849 41.4751 3.77827 41.4751 3.92864C41.4751 3.95863 41.5051 3.98862 41.5051 4.0186C41.5346 4.0186 41.5346 4.04859 41.5646 4.04859C41.5946 4.04859 41.655 4.0186 41.7145 3.98862C41.7749 3.95863 41.8944 3.89866 42.0744 3.77871L42.1348 3.89866C41.8049 4.13855 41.5346 4.31847 41.3847 4.40842C41.2947 4.43841 41.2347 4.4684 41.2048 4.4684C41.1748 4.4684 41.1148 4.43841 41.0848 4.37844C41.0248 4.34845 41.0248 4.28848 41.0248 4.19852V3.98862C41.0548 3.89866 41.0848 3.74873 41.1448 3.53882C41.3547 2.69921 41.4746 2.15945 41.4746 1.97954C41.4746 1.91956 41.4746 1.88958 41.4446 1.88958C41.4446 1.85959 41.4147 1.85959 41.4147 1.85959C41.3847 1.85959 41.3547 1.85959 41.3247 1.88958C41.2951 1.88914 41.2052 1.97909 40.9353 2.12903V2.12903ZM42.495 4.43797L42.4346 4.378C42.5846 3.95819 42.7041 3.44842 42.8249 2.8487C42.9144 2.3989 42.9444 2.12903 42.9444 1.97909C42.9444 1.94911 42.9444 1.91912 42.9144 1.88914C42.9144 1.88914 42.8844 1.85915 42.854 1.85915C42.854 1.85915 42.8249 1.85915 42.7945 1.88914C42.734 1.88914 42.6741 1.91912 42.6145 1.97909L42.3742 2.12903L42.3147 2.00908L42.6145 1.79918C42.7041 1.70922 42.8249 1.64925 42.9444 1.58927C43.0639 1.5293 43.1547 1.46933 43.2138 1.46933C43.2438 1.43934 43.2742 1.43934 43.3042 1.43934C43.3333 1.43934 43.3937 1.46933 43.3937 1.46933C43.4237 1.5293 43.4542 1.55929 43.4542 1.61926C43.4542 1.67923 43.4542 1.70922 43.4242 1.76919C43.4242 1.85915 43.3942 2.03907 43.3338 2.27896L43.1838 2.8487H43.2138C43.3937 2.54883 43.5437 2.30894 43.784 2.06905C44.0235 1.85915 44.2638 1.67923 44.5032 1.55929C44.6832 1.49931 44.8331 1.43934 44.9235 1.43934C44.9839 1.43934 45.013 1.46933 45.043 1.49931C45.0807 1.5403 45.1021 1.59359 45.1034 1.64924C45.1034 1.79918 45.043 2.12903 44.8931 2.66878C44.7131 3.38845 44.6236 3.80826 44.6236 3.9282V4.01816C44.6536 4.04815 44.6832 4.04815 44.6832 4.04815C44.7131 4.04815 44.7736 4.04815 44.8331 3.98818C44.9839 3.9282 45.1034 3.83824 45.2234 3.74828L45.2838 3.86823C45.1038 4.01816 44.9539 4.10812 44.8635 4.19808C44.6541 4.31803 44.5037 4.378 44.4137 4.43797H44.2942C44.2338 4.43797 44.2038 4.43797 44.1738 4.40798C44.1447 4.34801 44.1143 4.28804 44.1143 4.22807C44.1143 4.16809 44.1143 4.07814 44.1443 3.98818C44.1734 3.83825 44.2338 3.53838 44.3538 3.0586C44.5037 2.48886 44.5941 2.12903 44.5941 2.00908C44.5941 1.94911 44.5641 1.91912 44.5641 1.88914C44.5341 1.85915 44.5037 1.85915 44.4746 1.85915C44.4142 1.85915 44.3246 1.88913 44.2342 1.91912C44.0843 2.00908 43.9044 2.12903 43.7545 2.30894C43.5745 2.48886 43.4546 2.66878 43.3642 2.87868C43.2447 3.0586 43.1547 3.32848 43.0643 3.62834C43.0344 3.74829 42.9748 3.98817 42.9144 4.34801C42.7645 4.34801 42.615 4.40798 42.495 4.43797V4.43797ZM47.5028 3.95819C47.4432 3.98818 47.4132 4.01816 47.3832 4.01816C47.3533 4.01816 47.3228 4.01816 47.3228 3.98818C47.2937 3.95819 47.2937 3.9282 47.2937 3.89822V3.80826C47.3228 3.65833 47.3533 3.47841 47.3832 3.26806C47.4132 3.14856 47.4736 2.9682 47.5332 2.72831C47.6236 2.33849 47.7435 1.91868 47.863 1.46889L47.8035 1.40891L47.5932 1.52886C47.492 1.50303 47.392 1.47302 47.2933 1.4389C47.2329 1.4389 47.1425 1.40891 47.053 1.40891C46.9335 1.40891 46.8126 1.4389 46.6931 1.46889C46.5432 1.52886 46.3633 1.6488 46.1529 1.79874C46.0334 1.88869 45.9435 1.97865 45.8835 2.12859C45.7414 2.41568 45.6309 2.7173 45.5536 3.02817C45.4641 3.38801 45.4037 3.68787 45.4037 3.9282C45.4037 4.13811 45.4337 4.28804 45.4932 4.378C45.5232 4.43797 45.5836 4.43797 45.6136 4.43797H45.7331C45.8526 4.378 46.0026 4.25805 46.1829 4.13811C46.3328 3.98818 46.5128 3.83824 46.6627 3.62834C46.7531 3.53838 46.873 3.38845 47.0225 3.17854H47.0525C46.9026 3.68831 46.8422 4.04815 46.8422 4.25805C46.8422 4.31803 46.8422 4.34801 46.9026 4.378C46.9326 4.43797 46.963 4.43797 46.9921 4.43797H47.0825C47.172 4.378 47.2624 4.31803 47.4124 4.22807L47.8621 3.86823L47.8322 3.74828C47.6827 3.86823 47.5627 3.95819 47.5028 3.95819V3.95819Z" fill="black"/>
<path fill-rule="evenodd" clip-rule="evenodd" d="M47.0542 2.78874C46.9347 3.05861 46.8138 3.26852 46.6348 3.47842C46.4549 3.68833 46.305 3.83826 46.1251 3.92822C46.0646 3.98819 46.0047 4.01817 45.9751 4.01817C45.9451 4.01817 45.9147 4.01818 45.9147 3.98819C45.8847 3.98819 45.8847 3.9582 45.8847 3.92822C45.8547 3.92822 45.8547 3.86824 45.8547 3.80827C45.8547 3.50841 45.9151 3.14857 46.0347 2.72876C46.088 2.47664 46.1792 2.23402 46.305 2.00909C46.3645 1.88915 46.3945 1.82917 46.4549 1.79919C46.5444 1.73921 46.6644 1.70923 46.8443 1.70923C46.9347 1.70923 47.0242 1.73922 47.1146 1.73922C47.1741 1.7692 47.2645 1.79919 47.3241 1.82917C47.2645 2.219 47.1741 2.54885 47.0542 2.78874V2.78874Z" fill="white"/>
</svg>
