<svg width="153" height="24" viewBox="0 0 153 24" fill="none" xmlns="http://www.w3.org/2000/svg">
<path fill-rule="evenodd" clip-rule="evenodd" d="M93.7604 22.9545H77.4576V22.4248H78.9282V0.588578H77.4576V0H83.6957V0.588578H82.1074L82.1662 22.4248H88.5809C91.4641 22.4248 92.1124 20.0116 93.2307 15.4207H93.7604V22.9545ZM142.671 22.7191V9.65267H141.788V9.29952H144.731L151.97 19.4819V9.65267H151.323L151.382 9.29952H152.912V9.65267H152.266V23.1899H152.147L143.024 10.2412L142.965 22.7191H143.848V23.0722H141.907V22.7191H142.671V22.7191ZM116.597 9.53496V18.3048C116.597 20.0705 116.244 21.3654 115.539 22.1313C114.831 22.8965 113.714 23.3077 112.183 23.3077C109.358 23.3077 107.474 22.6602 107.474 18.7168V9.53496H106.416V9.1818H110.535V9.53496H109.533V18.7756C109.533 21.3065 110.063 22.7779 112.594 22.8368C115.127 22.8957 116.303 21.1299 116.303 18.6587V9.53577H115.42V9.18263H117.598V9.53577H116.597V9.53496V9.53496ZM140.081 19.011C139.788 20.8356 139.788 21.5419 138.138 22.5425C137.667 22.836 136.315 22.7191 135.314 22.6602H133.254V16.1859H133.725C134.842 16.1859 135.313 16.3036 135.666 16.539C136.078 16.7745 136.549 17.1865 136.549 17.8928V18.599H136.843V13.3607H136.549V14.067C136.549 14.6556 136.078 15.1853 135.607 15.4796C135.195 15.7739 134.725 15.8916 133.725 15.8916H133.254V9.59381H135.077C135.96 9.65267 136.608 9.65267 137.138 9.77038C137.554 9.82571 137.954 9.96595 138.314 10.1824C138.667 10.359 138.903 10.5944 139.02 10.8887C139.138 11.183 139.315 11.6538 139.373 12.3013C139.432 12.3601 139.432 12.419 139.432 12.4778V12.5964H139.727L139.668 9.24148H130.309V9.59463H131.25V22.6602H130.132L124.245 16.0093C126.306 16.0093 129.249 15.1264 129.249 12.7133C129.249 9.8881 126.953 9.24067 124.835 9.24067H118.538V9.59381H119.655V22.7191H118.538V23.0722H122.951V22.7191H121.715V16.0682L127.777 23.0134H140.376V19.011H140.081V19.011ZM121.717 15.6562V9.593C122.836 9.53414 124.072 9.53413 125.131 9.82842C126.426 10.1816 127.074 11.4764 127.074 12.7125C127.074 15.3022 124.543 15.6562 122.541 15.6562C122.27 15.7152 121.988 15.7152 121.717 15.6562V15.6562ZM59.3875 22.9545H60.5058V23.3077H56.3269V22.9545H57.4452V9.8881H56.3269V9.53496H60.5058V9.8881H59.3875V15.4199H65.1555V9.8881H63.9784V9.53496H68.2161V9.8881H67.039V22.9545H68.2161V23.3077H64.0961V22.9545H65.1555V15.8327H59.3875V22.9545ZM44.1433 23.3077H34.3729V22.9545H35.2558V9.82924H34.3729V9.47609H38.1398V9.82924H37.1392V22.9545H41.0238C42.7896 22.9545 43.2016 21.4823 43.849 18.7159H44.1433V23.3077ZM32.0186 23.0134L26.8391 9.35756H26.074L21.2476 22.9537H19.1876L9.41724 11.6538C12.8898 11.6538 17.7162 10.2412 17.7162 6.18006C17.7162 1.47144 13.9493 0.412002 10.4178 0.412002H0V1.00058H1.82459V22.8368H0V23.3665H7.29836V22.8368L5.23834 22.7779V11.7715L15.303 23.3077L22.5425 23.3665V22.9545H21.7185L23.5431 17.6573H27.8397L29.8409 23.0142H28.3694V23.3673H33.3135V23.0142H32.0186V23.0134V23.0134ZM23.6608 17.3042L25.6031 11.7127L27.722 17.3042H23.6608ZM5.23834 11.1241L5.2972 1.00058C7.18064 0.941723 9.12295 0.882864 10.9475 1.41258C13.0664 1.9423 14.1259 4.12004 14.1259 6.18006C14.1259 10.4767 9.8881 11.0653 6.59207 11.1241H5.23834ZM49.6759 9.53496H44.8496V9.8881H45.909V22.9545H44.8496V23.3077H49.0874V22.9545H47.9102V17.1856L50.1468 17.2445C51.736 17.2445 53.0308 16.8914 54.0903 16.1851C55.0908 15.4788 55.5617 14.537 55.5617 13.4187C55.5617 10.1824 52.2657 9.53496 49.6759 9.53496V9.53496ZM49.7936 16.8333L47.9102 16.8922V9.8881L49.6759 9.82924C51.736 9.82924 53.384 10.8887 53.384 13.5373C53.384 15.715 51.8537 16.8333 49.7936 16.8333V16.8333ZM106.12 22.6602L100.94 9.00523H100.116L95.3487 22.6014H94.407V22.9553H96.5847V22.6014H95.8196L97.5853 17.3638H101.941L103.882 22.6602H102.471V23.0142H107.355L107.414 22.6602H106.12V22.6602ZM97.7635 16.951L99.705 11.3587L101.765 16.951H97.7635Z" fill="black"/>
</svg>
