<svg width="103" height="36" viewBox="0 0 103 36" fill="none" xmlns="http://www.w3.org/2000/svg">
<path fill-rule="evenodd" clip-rule="evenodd" d="M5.48381 13.1648C10.088 13.3655 11.39 19.1757 9.61989 22.4851C9.31807 23.0946 7.64269 22.6579 7.41544 21.4719C7.18286 20.0776 7.49592 18.7047 7.2598 17.3376C7.06805 16.2096 5.18081 15.6291 4.91923 16.8837C4.4671 19.1207 3.83683 22.2779 6.02767 23.4059C8.90026 24.8558 13.3967 26.5709 11.2308 30.4903C9.49029 33.6186 5.45836 33.863 2.52067 32.5261C0.790845 31.7378 -0.369671 30.2205 0.234555 28.2166C0.419196 27.5864 1.10213 27.2899 1.77086 27.5497C3.22077 28.1504 3.53206 29.8749 4.8423 30.688C6.26321 31.6189 8.31912 30.6288 8.33687 29.112C8.35226 26.0175 4.00076 26.1459 1.80341 24.4629C-0.767952 22.4709 -0.0471413 18.9497 0.679587 16.1647C1.23351 14.0407 3.38529 13.0873 5.48381 13.1648ZM15.6787 28.3658C16.5913 28.5191 17.4482 28.6972 17.9264 29.4139C18.7904 30.743 18.2371 32.5255 16.8079 32.9623C15.5166 33.3576 13.9382 32.8563 13.1997 31.6242C12.1581 29.9092 13.8157 28.0527 15.6787 28.3658ZM33.976 21.8175C33.7682 22.9047 32.5379 23.4574 31.836 23.397C31.1501 23.3278 25.8577 22.6342 26.2192 15.2823C26.556 7.93571 30.508 3.2966 35.1998 3.4623C39.8815 3.65345 43.7578 9.02876 43.4891 17.2411C43.1767 25.4677 40.8166 34.556 30.8027 35.217C24.6782 35.607 17.2008 27.5089 18.0507 18.1158C18.4643 13.6779 19.8414 2.74977 30.0381 0.0357859C30.0381 0.0357859 33.283 -0.508669 36.1277 2.64976C36.1277 2.64976 36.2502 2.89239 35.7176 2.77877C35.1992 2.64976 34.1488 2.08518 32.703 2.2497C31.2531 2.44677 23.2064 3.58539 23.5437 19.3379C23.5437 19.3379 22.6797 32.422 31.3774 31.8343C40.052 31.2816 39.5531 18.8082 39.5531 18.3585C39.5531 17.8915 40.523 5.57916 34.5571 5.95791C28.6018 6.36625 28.6521 15.3409 28.6959 15.7421C28.7569 16.141 28.6521 19.2278 31.1815 20.6114C31.1815 20.6114 31.4969 20.7197 31.7715 20.6114C32.0686 20.4984 34.3198 20.0244 33.976 21.8175ZM59.5736 16.9553C58.4723 16.8512 56.7975 16.8512 57.0194 24.3759C57.0194 24.3759 56.8703 29.9861 58.2456 31.6183C59.6328 33.2197 60.6312 32.8202 61.1875 32.8202C61.7721 32.8202 63.5641 32.1977 63.5109 30.7495C63.4505 29.3097 62.6853 29.9861 62.4255 30.1003C62.116 30.2199 61.7721 30.8099 61.42 30.6282C61.0732 30.4442 60.6755 30.5673 60.6755 28.9623C60.6755 27.3224 60.4477 25.3742 61.1289 22.2939C62.4598 16.4943 59.5736 16.9553 59.5736 16.9553ZM59.6855 11.5084C60.7093 11.4729 61.7716 11.8031 62.1811 12.7044C62.5036 13.4181 62.1811 14.1082 61.7248 14.7148C60.598 16.2256 57.9083 15.9552 57.2259 14.2668C56.598 12.7145 58.0894 11.5504 59.6855 11.5084ZM66.5444 16.676C65.4265 16.7724 64.495 16.676 64.4293 19.2959C64.3808 21.8951 63.7357 33.4103 68.721 33.2197C73.4057 33.0641 75.0491 15.532 75.0491 14.7148C75.0491 13.7128 75.0841 12.0978 73.4809 12.2174C71.8487 12.3345 72.3594 15.4628 72.2417 17.9501C72.06 22.0892 71.3042 26.0572 70.271 28.3658C69.6561 29.8228 69.9336 29.7589 69.4744 29.7186C69.0075 29.647 68.3139 27.3218 68.4263 21.305C68.4263 21.3056 69.285 16.4523 66.5444 16.676ZM81.5199 14.8213C81.7542 15.3409 82.5614 15.3409 82.5614 15.3409C86.0986 16.6245 85.1091 20.6114 85.1091 20.6114C84.2919 27.497 78.9692 26.6993 78.9692 26.6993C78.7349 31.21 81.5205 31.3289 81.5205 31.3289C81.5205 31.3289 83.1941 31.5562 83.3065 29.5778C83.4349 27.6201 84.2439 27.5491 84.7629 27.3934C85.2843 27.223 85.8589 27.7237 85.9755 28.5989C86.0992 29.4742 85.1606 33.0647 81.4779 33.1161C77.756 33.1688 75.4421 30.5886 75.2711 24.4889C75.0853 18.4537 78.3455 14.352 80.0658 14.352C80.3558 14.352 81.2861 14.2839 81.5199 14.8213ZM79.2462 20.4984C78.9686 21.653 77.8602 24.8884 79.4971 25.0701C81.105 25.2452 82.6804 23.2864 83.1313 20.0865C83.3059 18.9295 83.0899 15.2823 80.8784 17.1956C80.0102 17.9507 79.2462 20.4984 79.2462 20.4984ZM88.0042 34.4524C87.1284 34.382 86.4359 34.1595 86.9052 30.3755C87.371 26.6472 87.6556 23.7947 88.8114 21.2458C88.8114 21.2458 87.5414 20.8286 87.771 18.6437C88.0048 16.4523 88.2321 15.116 89.8619 14.7692C92.3841 14.2313 91.4674 17.7164 91.5923 16.9547C91.4757 17.5767 90.6247 18.8798 90.7277 19.3994C90.8525 19.9214 91.0153 20.7186 92.116 19.7297C93.2014 18.7567 93.7364 18.1146 94.8448 18.7047C95.942 19.2959 96.3438 19.6427 94.3098 24.551C93.7873 25.8352 93.1215 32.3024 95.3662 31.5562C96.3971 31.21 97.1611 30.1009 97.2771 31.6183C97.3765 33.1156 95.7479 33.9944 94.9513 33.9328C94.1548 33.8813 90.4767 33.4618 90.4767 27.7929C90.4767 27.7929 90.4513 24.7215 91.3597 22.8224C91.3597 22.8224 91.8764 21.9406 91.1283 21.9406C90.3726 21.9406 90.3063 22.4117 90.156 23.0556C89.9743 23.6823 89.392 26.3471 89.3387 27.9054C89.2695 29.4742 89.3387 32.7682 89.1665 33.4103C88.9925 34.037 88.9333 34.5039 88.0042 34.4524ZM49.8018 26.6478C50.1054 27.6207 50.4422 28.338 50.9872 29.1114C50.9872 29.1114 51.7009 30.8531 53.1988 30.9147C53.1988 30.9147 54.0042 30.9768 54.2391 30.0453C54.483 29.1114 56.4945 29.3553 56.2791 30.2205C56.0536 31.0875 55.2215 33.2197 52.8094 33.1161C51.2932 33.0386 48.7076 31.8852 47.0772 28.0527C46.6268 28.1906 46.3582 28.2161 45.8971 28.2622C43.4885 28.4871 43.4169 27.2698 43.4169 27.2698C43.298 26.7519 43.5915 25.9903 45.103 26.1619C45.4574 26.1986 45.822 26.2655 46.4505 26.1205L46.3996 25.9731C45.8397 23.8208 45.5237 21.0725 45.6214 17.5453C45.9498 4.73644 48.7857 1.61766 51.7524 1.68572C54.6978 1.72773 56.1548 7.24271 54.3102 16.4529C53.1715 22.0554 51.6565 25.0008 49.7888 26.5969L49.8018 26.6478ZM49.2627 24.2717C50.6759 22.6407 51.9157 19.7462 52.617 14.1271C52.617 14.1271 53.6065 4.39202 51.5257 4.39202C49.4473 4.39202 48.9775 15.9303 49.0301 17.2406C49.0757 18.1152 48.7449 21.1174 49.2627 24.2717ZM96.5125 12.3351C96.5125 10.571 97.8997 9.16724 99.6632 9.16724C100.079 9.16716 100.49 9.24915 100.873 9.4085C101.257 9.56786 101.605 9.80143 101.898 10.0958C102.191 10.3902 102.423 10.7396 102.581 11.1239C102.738 11.5082 102.818 11.9198 102.816 12.3351C102.817 12.7495 102.736 13.1598 102.578 13.5428C102.419 13.9257 102.187 14.2737 101.894 14.5667C101.601 14.8598 101.254 15.0922 100.871 15.2506C100.488 15.4091 100.078 15.4904 99.6632 15.49C97.8991 15.49 96.5125 14.0857 96.5125 12.3351ZM102.061 12.3351C102.061 10.9184 101.004 9.9129 99.6632 9.9129C98.2914 9.9129 97.2499 10.9184 97.2499 12.3351C97.2499 13.7288 98.2914 14.7438 99.6632 14.7438C101.004 14.7438 102.061 13.7288 102.061 12.3351ZM101.16 13.9365H100.362L99.6331 12.5488H99.13V13.9365H98.3997V10.6592H99.9881C100.744 10.6592 101.253 10.7982 101.253 11.6634C101.253 12.27 100.959 12.5162 100.363 12.5488L101.16 13.9365ZM100.016 12.0629C100.363 12.0629 100.578 11.9753 100.578 11.5599C100.578 11.2291 100.154 11.2291 99.839 11.2291H99.1306V12.0623H100.016V12.0629Z" fill="#97181D"/>
</svg>
