<svg width="81" height="76" viewBox="0 0 81 76" fill="none" xmlns="http://www.w3.org/2000/svg">
<path fill-rule="evenodd" clip-rule="evenodd" d="M29.5666 0.868896H35.3659L35.6882 2.80151C35.6882 3.01657 35.5805 3.01656 35.4737 2.90928C35.044 1.94273 34.3998 1.29804 33.3255 1.29804C33.1109 1.29804 33.0032 1.40581 33.0032 1.62039V6.45313C33.0032 7.20462 33.2177 7.31239 33.9697 7.31239C34.077 7.31239 34.1843 7.52696 33.9697 7.52696H30.855C30.6404 7.52696 30.7477 7.31239 30.855 7.31239C31.607 7.31239 31.8215 7.20462 31.8215 6.45313V1.62039C31.8215 1.40581 31.8216 1.29804 31.4992 1.29804C30.5327 1.29804 29.7812 1.94224 29.351 2.90928C29.351 3.01705 29.1365 2.90928 29.1365 2.80151L29.5666 0.868896Z" fill="#82955F"/>
<path fill-rule="evenodd" clip-rule="evenodd" d="M29.3925 0.651855H35.5497L35.9052 2.7835V2.80148C35.9052 2.86999 35.8971 2.94183 35.8703 3.00681C35.8422 3.07505 35.7864 3.14976 35.6898 3.18205C35.5983 3.21262 35.5148 3.18996 35.4604 3.16455C35.4049 3.13866 35.3578 3.10045 35.3198 3.06235L35.2916 3.03398L35.2753 2.99739C35.0687 2.53262 34.8181 2.16296 34.5049 1.90998C34.196 1.66041 33.815 1.51502 33.3255 1.51502C33.2894 1.51502 33.2665 1.51963 33.2533 1.52403C33.2414 1.52802 33.2378 1.53161 33.2373 1.53214L33.2373 1.53219C33.2367 1.53272 33.2331 1.53629 33.2291 1.54823C33.2247 1.5614 33.2201 1.58424 33.2201 1.62035V6.4531C33.2201 6.82932 33.2795 6.94559 33.3419 6.99663C33.376 7.02452 33.4327 7.0516 33.5385 7.06996C33.6452 7.08848 33.7842 7.09535 33.9697 7.09535C34.0676 7.09535 34.1445 7.14234 34.1923 7.18643C34.2412 7.23155 34.2827 7.29422 34.3009 7.36701C34.3196 7.44181 34.3169 7.55097 34.2353 7.64004C34.1586 7.72363 34.0532 7.74394 33.9697 7.74394H30.855C30.7715 7.74394 30.666 7.72363 30.5894 7.64004C30.5077 7.55097 30.505 7.44181 30.5237 7.36701C30.5419 7.29422 30.5835 7.23155 30.6323 7.18643C30.6801 7.14234 30.757 7.09535 30.855 7.09535C31.0405 7.09535 31.1795 7.08848 31.2861 7.06996C31.3919 7.0516 31.4487 7.02452 31.4828 6.99663C31.5451 6.94559 31.6045 6.82932 31.6045 6.4531V1.62035C31.6045 1.57386 31.6043 1.544 31.6026 1.52158C31.5816 1.51807 31.5488 1.51502 31.4992 1.51502C30.6541 1.51502 29.9707 2.06926 29.5613 2.97065C29.5535 3.00572 29.5379 3.04306 29.5096 3.07756C29.4632 3.13421 29.4026 3.15881 29.3533 3.16706C29.2666 3.18158 29.1898 3.15193 29.1463 3.13012C29.096 3.10482 29.0454 3.0673 29.0049 3.0198C28.9664 2.97471 28.9194 2.8994 28.9194 2.80148V2.77762L29.3925 0.651855ZM29.7406 1.08588L29.4888 2.21734C29.9341 1.57134 30.5665 1.13614 31.3467 1.08588H29.7406ZM31.6155 1.08588C31.7439 1.09797 31.8712 1.13691 31.9549 1.24858C32.007 1.31809 32.0245 1.39404 32.0318 1.45254C32.0386 1.50651 32.0385 1.56536 32.0385 1.61364C32.0385 1.6159 32.0385 1.61814 32.0385 1.62035V6.4531C32.0385 6.81394 31.9943 7.11755 31.7837 7.30992H33.0409C32.8304 7.11755 32.7861 6.81394 32.7861 6.4531V1.62035C32.7861 1.47937 32.8217 1.33396 32.9304 1.22527C33.0166 1.13901 33.126 1.0988 33.238 1.08588H31.6155ZM33.4913 1.08588C34.0014 1.11631 34.4259 1.28819 34.7777 1.57237C35.0119 1.76163 35.2097 1.99717 35.3788 2.26565L35.182 1.08588H33.4913ZM33.977 7.30958C33.977 7.3096 33.9766 7.30967 33.9755 7.30975C33.9765 7.3096 33.977 7.30956 33.977 7.30958ZM30.8477 7.30958C30.8477 7.30956 30.8482 7.3096 30.8491 7.30975C30.8481 7.30967 30.8476 7.3096 30.8477 7.30958Z" fill="#82955F"/>
<path fill-rule="evenodd" clip-rule="evenodd" d="M39.4471 7.52745H36.3324C36.1174 7.52745 36.1174 7.31288 36.3324 7.31288C36.9766 7.31288 37.299 7.2051 37.299 6.45361V2.15779C37.299 1.29853 37.0839 1.08347 36.3324 1.08347C36.1174 1.08347 36.1174 0.868896 36.3324 0.868896H39.4471C39.6612 0.868896 39.6612 1.08347 39.4471 1.08347C38.6952 1.19124 38.4801 1.19124 38.4801 1.94273V3.76903H41.8094V2.0505C41.8094 1.29853 41.4875 1.08396 40.8438 1.08396C40.6288 1.08396 40.6288 0.869385 40.8438 0.869385H43.9585C44.1726 0.869385 44.1726 1.08396 43.9585 1.08396C43.3138 1.19173 42.992 1.19173 42.992 1.94322V6.4541C42.992 7.20559 43.2061 7.20559 43.9585 7.31336C44.1726 7.31336 44.0653 7.52794 43.9585 7.52794H40.8438C40.6288 7.52794 40.6288 7.31336 40.8438 7.31336C41.5953 7.31336 41.8094 7.20559 41.8094 6.4541V4.19866H38.4801V6.4541C38.4801 7.20559 38.6952 7.20559 39.4471 7.31336C39.5539 7.31288 39.6612 7.52745 39.4471 7.52745Z" fill="#82955F"/>
<path fill-rule="evenodd" clip-rule="evenodd" d="M37.1886 1.08588H38.5686C38.5637 1.08922 38.5588 1.09265 38.554 1.09614C38.311 1.27277 38.2631 1.5669 38.2631 1.9427V6.45407C38.2631 6.82987 38.311 7.124 38.554 7.30063C38.5586 7.30396 38.5632 7.30722 38.5678 7.31041H37.2227C37.4403 7.12463 37.516 6.83105 37.516 6.45359V2.15776C37.516 1.72851 37.4669 1.38032 37.2575 1.15176C37.2357 1.12795 37.2127 1.10603 37.1886 1.08588ZM39.4543 7.31008C39.4543 7.3101 39.4538 7.31017 39.4529 7.31024C39.4538 7.3101 39.4543 7.31006 39.4543 7.31008ZM39.4669 7.09694C39.5554 7.1026 39.6251 7.14618 39.6694 7.18708C39.7183 7.2322 39.7598 7.29483 39.778 7.36751C39.7966 7.44212 39.7941 7.55118 39.7126 7.64031C39.6361 7.72405 39.5306 7.74443 39.4471 7.74443H36.3324C36.1675 7.74443 35.9541 7.64776 35.9541 7.42013C35.9541 7.19251 36.1675 7.09584 36.3324 7.09584C36.6603 7.09584 36.8308 7.06365 36.927 6.99144C37.0046 6.93325 37.0819 6.80791 37.0819 6.45359V2.15776C37.0819 1.72774 37.0234 1.53877 36.9375 1.44499C36.8579 1.3581 36.7042 1.30045 36.3324 1.30045C36.1675 1.30045 35.9541 1.20378 35.9541 0.976152C35.9541 0.748523 36.1675 0.651855 36.3324 0.651855H39.4471C39.6125 0.651855 39.8247 0.74928 39.8247 0.976152C39.8247 1.19481 39.6276 1.29322 39.4652 1.30006C39.4394 1.30376 39.4144 1.3073 39.3903 1.31072C39.2399 1.33205 39.1223 1.34872 39.0241 1.36971C38.9077 1.39458 38.846 1.42045 38.8092 1.44721C38.7567 1.48539 38.6971 1.56701 38.6971 1.9427V3.55199H41.5923V2.05047C41.5923 1.69826 41.5159 1.53197 41.4213 1.44512C41.3224 1.35444 41.1514 1.30094 40.8438 1.30094C40.6789 1.30094 40.4655 1.20427 40.4655 0.97664C40.4655 0.74901 40.6789 0.652344 40.8438 0.652344H43.9585C44.1239 0.652344 44.3361 0.749768 44.3361 0.97664C44.3361 1.19399 44.1413 1.29253 43.9795 1.30042C43.9396 1.30705 43.9019 1.31314 43.8661 1.31893C43.757 1.33657 43.6655 1.35136 43.5826 1.3698C43.471 1.39466 43.4012 1.42115 43.3539 1.45271C43.2848 1.49877 43.2089 1.5912 43.2089 1.94319V6.45407C43.2089 6.82999 43.2684 6.91153 43.3207 6.94964C43.3574 6.97634 43.4189 7.00219 43.5354 7.02707C43.6336 7.04807 43.7514 7.06475 43.9021 7.08611C43.9259 7.08949 43.9505 7.09298 43.9761 7.09663C44.0564 7.09944 44.1528 7.12248 44.224 7.20049C44.3055 7.28964 44.308 7.3987 44.2893 7.47325C44.2712 7.54589 44.2298 7.6085 44.1811 7.65363C44.1335 7.69767 44.0566 7.74492 43.9585 7.74492H40.8438C40.6789 7.74492 40.4655 7.64825 40.4655 7.42062C40.4655 7.19299 40.6789 7.09633 40.8438 7.09633C41.0292 7.09633 41.168 7.08945 41.2745 7.07095C41.3802 7.05259 41.4368 7.02554 41.4708 6.99769C41.533 6.94667 41.5923 6.8304 41.5923 6.45407V4.41564H38.6971V6.45407C38.6971 6.82976 38.7567 6.91138 38.8092 6.94956C38.846 6.97633 38.9077 7.00219 39.0241 7.02707C39.1223 7.04805 39.2399 7.06472 39.3903 7.08605C39.4149 7.08955 39.4404 7.09316 39.4669 7.09694ZM43.08 7.3109C43.0751 7.30752 43.0702 7.30408 43.0653 7.30056C42.8225 7.12385 42.7749 6.82965 42.7749 6.45407V1.94319C42.7749 1.54369 42.86 1.26037 43.113 1.09162C43.1157 1.08985 43.1184 1.0881 43.121 1.08636H41.6689C41.6845 1.09869 41.6998 1.11166 41.7147 1.1253C41.9419 1.33373 42.0264 1.65071 42.0264 2.05047V6.45407C42.0264 6.81488 41.9822 7.11851 41.7719 7.3109H43.08ZM43.9657 7.53068C43.9656 7.5307 43.9651 7.53066 43.9642 7.53052C43.9652 7.53059 43.9657 7.53066 43.9657 7.53068ZM39.4481 7.53034C39.4478 7.53035 39.4474 7.53035 39.4471 7.53035L39.4481 7.53034Z" fill="#82955F"/>
<path fill-rule="evenodd" clip-rule="evenodd" d="M49.649 5.70164C49.5422 4.73509 49.1126 4.30595 47.8241 4.30595H47.2867V6.66868C47.2867 7.09831 47.3945 7.09831 47.7164 7.09831H48.5756C49.9718 7.09831 50.4015 6.5609 51.0452 5.48707C51.1529 5.2725 51.2602 5.37978 51.2602 5.59435L50.7228 7.52745H45.1386C44.9235 7.52745 44.9235 7.31288 45.1386 7.31288C45.7823 7.31288 46.1042 7.2051 46.1042 6.45361V2.0505C46.1042 1.19124 45.7823 1.08396 45.1386 1.08396C44.9235 1.08396 44.9235 0.869385 45.1386 0.869385H50.401L51.0447 2.58791C51.0447 2.69519 50.9369 2.80199 50.9369 2.6952C50.1854 1.62136 49.7558 1.29902 48.6824 1.29902H47.2863V3.8768H47.8237C49.0048 3.8768 49.6485 3.66174 49.6485 2.58791C49.6485 2.48014 49.8636 2.48014 49.8636 2.6952V5.70213C49.864 5.80941 49.649 5.80941 49.649 5.70164Z" fill="#82955F"/>
<path fill-rule="evenodd" clip-rule="evenodd" d="M46.0115 1.08636H47.0695V4.09378H47.0699V6.66864C47.0699 6.78181 47.0767 6.8834 47.0983 6.96975C47.1208 7.05957 47.1634 7.14836 47.2456 7.21407C47.3246 7.27723 47.4146 7.29815 47.4876 7.30699C47.4986 7.30834 47.51 7.30946 47.5215 7.31041H46.0284C46.2458 7.1246 46.3214 6.83101 46.3214 6.45358V2.05047C46.3214 1.61346 46.2435 1.2868 46.0115 1.08636ZM48.8024 7.31041H50.5581L50.8798 6.15345C50.6812 6.44031 50.474 6.68291 50.222 6.86969C49.8544 7.1421 49.4107 7.28326 48.8024 7.31041ZM51.0341 5.51964C51.0341 5.51966 51.0341 5.5197 51.0342 5.51974C51.0341 5.51963 51.0341 5.51959 51.0341 5.51964ZM48.009 4.09192C48.577 4.11112 49.0086 4.22343 49.3164 4.47263C49.4572 4.58657 49.5648 4.72305 49.6468 4.87891V3.47903C49.5575 3.61666 49.4399 3.73029 49.2921 3.82034C48.9654 4.0194 48.5211 4.08107 48.009 4.09192ZM49.4326 5.71731C49.3813 5.26254 49.2589 4.98448 49.0434 4.80998C48.8201 4.62931 48.4527 4.52293 47.8244 4.52293H47.504V6.66864C47.504 6.77029 47.5107 6.82981 47.5193 6.8643C47.5202 6.86781 47.5211 6.87081 47.5218 6.87337C47.5264 6.87426 47.5323 6.87522 47.5398 6.87613C47.5793 6.88092 47.6316 6.88127 47.7166 6.88127H48.5759C49.2449 6.88127 49.6505 6.75302 49.9636 6.521C50.2856 6.28237 50.5338 5.91798 50.8554 5.38185C50.8888 5.31717 50.9357 5.24801 51.0043 5.20239C51.0427 5.17687 51.0931 5.15541 51.1529 5.15324C51.2144 5.15101 51.2695 5.16979 51.3136 5.1991C51.3936 5.25238 51.4308 5.33457 51.4488 5.39103C51.4688 5.45406 51.4774 5.52409 51.4774 5.59432V5.62392L50.8879 7.74443H45.1388C44.9739 7.74443 44.7605 7.64776 44.7605 7.42013C44.7605 7.1925 44.9739 7.09584 45.1388 7.09584C45.4665 7.09584 45.6366 7.06365 45.7326 6.99151C45.8101 6.93336 45.8874 6.80801 45.8874 6.45358V2.05047C45.8874 1.63412 45.8064 1.4804 45.724 1.41163C45.6308 1.33389 45.4677 1.30094 45.1388 1.30094C44.9739 1.30094 44.7605 1.20427 44.7605 0.976639C44.7605 0.74901 44.9739 0.652344 45.1388 0.652344H50.5516L51.2619 2.54857V2.58788C51.2619 2.70326 51.209 2.81113 51.1439 2.87577C51.126 2.89359 51.0989 2.91642 51.0625 2.93331C51.0272 2.94968 50.9619 2.96965 50.886 2.94465C50.8047 2.91784 50.761 2.85614 50.7414 2.8089C50.7372 2.79895 50.7339 2.78909 50.7312 2.77948C50.371 2.26865 50.1027 1.96229 49.8136 1.77715C49.5261 1.59308 49.1968 1.51599 48.6827 1.51599H47.5035V3.65976H47.8239C48.4149 3.65976 48.8147 3.60299 49.0663 3.44969C49.2891 3.31395 49.4317 3.07763 49.4317 2.58788C49.4317 2.47874 49.4906 2.38969 49.5727 2.34162C49.6484 2.29733 49.7348 2.29145 49.8088 2.3099C49.9759 2.35159 50.0808 2.50635 50.0808 2.69516V5.70177M47.5265 6.88583C47.5265 6.88584 47.5264 6.88569 47.5262 6.88534C47.5264 6.88565 47.5265 6.88583 47.5265 6.88583ZM48.893 1.08636C49.3505 1.10643 49.7137 1.19783 50.0476 1.41163C50.2149 1.51874 50.3705 1.654 50.5251 1.81894L50.2507 1.08636H48.893Z" fill="#82955F"/>
<path fill-rule="evenodd" clip-rule="evenodd" d="M26.3443 11.5015H29.459C30.5333 11.5015 32.2518 11.716 32.2518 13.1122C32.2518 14.1865 31.4999 14.6157 30.6406 14.8307C31.6071 15.0458 32.681 15.5827 32.681 16.7638C32.681 18.3746 31.1775 18.6964 29.7813 18.6964H26.3443C26.1297 18.6964 26.1297 18.3746 26.3443 18.3746C26.989 18.3746 27.3108 18.2673 27.3108 17.408V12.6826C27.3108 11.8233 26.8812 11.716 26.3443 11.716C26.1297 11.716 26.1297 11.5015 26.3443 11.5015V11.5015ZM28.7075 17.6226C28.7075 18.2668 29.1371 18.2668 29.6736 18.2668C30.7474 18.2668 31.2848 17.8372 31.2848 16.6561C31.2848 15.3672 30.4255 15.0453 29.3517 15.0453H28.7075V17.6226ZM28.7075 14.6157H29.5668C30.4255 14.6157 30.9629 14.186 30.9629 13.2195C30.9629 12.1457 30.4255 11.8233 29.1371 11.8233C28.7075 11.8233 28.7075 11.9306 28.7075 12.2525V14.6157Z" fill="#82955F"/>
<path fill-rule="evenodd" clip-rule="evenodd" d="M27.1843 11.7206H28.6494C28.6282 11.7377 28.6083 11.7574 28.5901 11.7801C28.5264 11.8596 28.5054 11.9501 28.4966 12.0232C28.4882 12.0919 28.4882 12.1705 28.4883 12.2439C28.4883 12.2467 28.4883 12.2496 28.4883 12.2524V17.6226C28.4883 17.8062 28.5186 17.9661 28.5899 18.0987C28.6635 18.2358 28.772 18.3274 28.8975 18.3853C29.0178 18.4408 29.1505 18.4641 29.2773 18.4751C29.2859 18.4758 29.2947 18.4765 29.3035 18.4772H27.0621C27.1144 18.4514 27.1638 18.4201 27.2096 18.3819C27.45 18.1815 27.53 17.851 27.53 17.408V12.6826C27.53 12.2348 27.4211 11.9162 27.1843 11.7206ZM29.9583 18.4754C30.5859 18.462 31.1952 18.3743 31.6548 18.139C31.9024 18.0122 32.1013 17.8452 32.2391 17.6279C32.3765 17.4112 32.4617 17.1311 32.4617 16.7638C32.4617 16.251 32.233 15.8811 31.887 15.6067C31.5342 15.3269 31.0605 15.1489 30.5944 15.045C30.6826 15.0854 30.7667 15.1324 30.8456 15.1871C31.2671 15.4787 31.504 15.9574 31.504 16.656C31.504 17.2747 31.3637 17.749 31.0328 18.0633C30.7616 18.3208 30.3932 18.4411 29.9583 18.4754ZM30.5929 15.0443L30.5873 14.6181C31.0028 14.5141 31.3647 14.3643 31.621 14.1314C31.8684 13.9066 32.0326 13.5906 32.0326 13.1122C32.0326 12.8122 31.9417 12.5866 31.7971 12.4107C31.6495 12.231 31.436 12.0916 31.176 11.9864C30.9284 11.8862 30.6495 11.8214 30.3684 11.7808C30.4759 11.8243 30.574 11.8773 30.6621 11.9414C31.0381 12.2148 31.1821 12.6484 31.1821 13.2195C31.1821 13.7428 31.0357 14.1576 30.7373 14.4394C30.4561 14.7049 30.0709 14.8228 29.6361 14.834C29.9784 14.8539 30.3075 14.9141 30.5929 15.0443ZM25.9641 11.6087C25.9641 11.3797 26.1785 11.2822 26.3442 11.2822H29.4589C30.0042 11.2822 30.7367 11.3357 31.3405 11.58C31.6444 11.703 31.9277 11.879 32.1358 12.1323C32.3471 12.3893 32.471 12.7141 32.471 13.1122C32.471 13.708 32.2592 14.1439 31.9158 14.4559C31.7515 14.6052 31.5609 14.7228 31.3568 14.8169C31.6427 14.9278 31.9201 15.0734 32.1594 15.2632C32.592 15.6063 32.9001 16.0955 32.9001 16.7638C32.9001 17.2018 32.7975 17.566 32.6093 17.8627C32.4216 18.1587 32.1573 18.3743 31.8546 18.5292C31.2565 18.8355 30.4885 18.9156 29.7813 18.9156H26.3442C26.2311 18.9156 26.1302 18.871 26.0597 18.7917C25.9928 18.7165 25.9641 18.6224 25.9641 18.5355C25.9641 18.4485 25.9928 18.3544 26.0597 18.2792C26.1302 18.1999 26.2311 18.1553 26.3442 18.1553C26.6738 18.1553 26.8363 18.1223 26.9289 18.0451C27.0107 17.977 27.0916 17.8242 27.0916 17.408V12.6826C27.0916 12.2845 26.9923 12.1255 26.8952 12.0508C26.7843 11.9655 26.6111 11.9352 26.3442 11.9352C26.1785 11.9352 25.9641 11.8377 25.9641 11.6087ZM28.9318 12.076C28.927 12.1153 28.9267 12.1673 28.9267 12.2524V14.3964H29.5667C29.9624 14.3964 30.2491 14.2975 30.4364 14.1206C30.6214 13.9459 30.7437 13.6627 30.7437 13.2195C30.7437 12.7167 30.619 12.4522 30.4042 12.296C30.1696 12.1254 29.7761 12.0425 29.1371 12.0425C29.0355 12.0425 28.9761 12.0492 28.9418 12.0578C28.9389 12.0585 28.9364 12.0592 28.9342 12.0598C28.9334 12.0641 28.9326 12.0694 28.9318 12.076ZM28.9267 15.2645V17.6226C28.9267 17.7611 28.95 17.8428 28.9761 17.8913C28.9998 17.9354 29.0322 17.9646 29.0812 17.9872C29.1354 18.0122 29.2106 18.0292 29.3153 18.0383C29.4197 18.0474 29.537 18.0476 29.6735 18.0476C30.1881 18.0476 30.5223 17.9435 30.7309 17.7454C30.9371 17.5495 31.0655 17.2185 31.0655 16.656C31.0655 16.0658 30.8728 15.739 30.5961 15.5476C30.3029 15.3446 29.875 15.2645 29.3517 15.2645H28.9267Z" fill="#82955F"/>
<path fill-rule="evenodd" clip-rule="evenodd" d="M37.2991 18.9113C35.0436 18.9113 33.6475 17.1933 33.6475 15.0451C33.6475 12.897 35.366 11.1785 37.2991 11.1785C39.2322 11.1785 40.9502 12.8965 40.9502 15.0451C40.9502 17.1928 39.2322 18.9113 37.2991 18.9113ZM37.2991 11.6086C35.6878 11.6086 35.1509 13.4344 35.1509 15.0451C35.1509 16.6559 35.6878 18.4812 37.2991 18.4812C38.9098 18.4812 39.4472 16.6559 39.4472 15.0451C39.4472 13.4339 38.9098 11.6086 37.2991 11.6086Z" fill="#82955F"/>
<path fill-rule="evenodd" clip-rule="evenodd" d="M36.9295 11.4202C35.2786 11.6216 33.8666 13.1499 33.8666 15.0451C33.8666 16.0723 34.2002 16.9842 34.7901 17.6368C35.3242 18.2276 36.0773 18.6162 37.0122 18.6821C36.2609 18.5838 35.7481 18.0989 35.4255 17.4668C35.0682 16.7667 34.9317 15.8692 34.9317 15.0451C34.9317 14.2211 35.0682 13.3234 35.4255 12.6232C35.7361 12.0145 36.223 11.5422 36.9295 11.4202ZM37.6683 11.4201C38.3747 11.542 38.8618 12.0143 39.1724 12.623C39.5298 13.3232 39.6664 14.2208 39.6664 15.0451C39.6664 15.8692 39.5298 16.7667 39.1724 17.4668C38.8618 18.0754 38.3748 18.5476 37.6684 18.6696C39.3194 18.4683 40.731 16.9399 40.731 15.0451C40.731 13.1493 39.3193 11.6213 37.6683 11.4201ZM33.4282 15.0451C33.4282 12.7841 35.2369 10.9592 37.2991 10.9592C39.3613 10.9592 41.1694 12.7836 41.1694 15.0451C41.1694 17.3056 39.3613 19.1305 37.2991 19.1305C36.112 19.1305 35.1391 18.6767 34.4648 17.9308C33.7927 17.1872 33.4282 16.1661 33.4282 15.0451ZM35.816 12.8224C35.5021 13.4378 35.3701 14.2584 35.3701 15.0451C35.3701 15.8318 35.5021 16.6523 35.816 17.2675C36.1252 17.8735 36.5976 18.262 37.2991 18.262C38.0003 18.262 38.4726 17.8735 38.7819 17.2675C39.0959 16.6523 39.228 15.8318 39.228 15.0451C39.228 14.2582 39.0959 13.4375 38.7819 12.8223C38.4726 12.2163 38.0003 11.8278 37.2991 11.8278C36.5976 11.8278 36.1252 12.2164 35.816 12.8224Z" fill="#82955F"/>
<path fill-rule="evenodd" clip-rule="evenodd" d="M56.6304 11.716C55.7712 11.716 55.5561 12.1457 55.0187 12.7899L53.4079 15.0453V17.408C53.4079 18.2673 53.5157 18.3746 54.4813 18.3746C54.5891 18.3746 54.6963 18.6964 54.4813 18.6964H51.0447C50.937 18.6964 50.937 18.3746 51.0447 18.3746C51.904 18.3746 52.1191 18.2673 52.1191 17.408V15.4749L49.8636 12.1457C49.6486 11.8233 49.6486 11.716 48.7893 11.716C48.5752 11.716 48.6825 11.5015 48.7893 11.5015H52.2259C52.4409 11.5015 52.5487 11.716 52.2259 11.716C51.6894 11.716 51.5821 11.8233 51.5821 12.0379C51.5821 12.1457 51.6899 12.2525 51.6899 12.3602L53.3007 14.723L54.9114 12.3602C55.0192 12.2525 55.1265 12.1457 55.1265 12.0379C55.1265 11.9306 55.0187 11.716 54.4818 11.716C54.1599 11.716 54.2677 11.5015 54.4818 11.5015H56.6304C56.7372 11.5015 56.8445 11.716 56.5226 11.716H56.6304Z" fill="#82955F"/>
<path fill-rule="evenodd" clip-rule="evenodd" d="M48.7824 11.4965C48.7824 11.4965 48.7829 11.4965 48.7838 11.4966C48.7829 11.4966 48.7824 11.4965 48.7824 11.4965ZM49.8188 11.7206H51.4598C51.4395 11.7466 51.4222 11.7749 51.4081 11.8057C51.3713 11.886 51.363 11.9682 51.363 12.0379C51.363 12.1008 51.3786 12.1551 51.3939 12.1957C51.4081 12.2336 51.4261 12.2694 51.4385 12.2941L51.4402 12.2974C51.4547 12.3263 51.4627 12.3426 51.468 12.3567C51.4695 12.3607 51.4703 12.3634 51.4708 12.365V12.4278L53.1983 14.9618L53.1888 14.975V17.408C53.1888 17.6232 53.1952 17.8096 53.2247 17.963C53.2549 18.1199 53.3135 18.2651 53.4351 18.3757C53.4811 18.4175 53.5321 18.4507 53.5869 18.4772H51.8938C51.9474 18.4519 51.998 18.4206 52.0445 18.3819C52.2925 18.1753 52.3383 17.8307 52.3383 17.408V15.4076L50.0456 12.0234C50.0333 12.0049 50.0209 11.9856 50.0082 11.9657C49.957 11.8855 49.9001 11.7966 49.8188 11.7206ZM55.3455 12.0522C55.4148 11.9769 55.4869 11.906 55.5646 11.8421C55.6188 11.7975 55.6749 11.757 55.7337 11.7206H55.2067C55.3035 11.8179 55.3457 11.9341 55.3457 12.0379C55.3457 12.0427 55.3457 12.0475 55.3455 12.0522ZM56.6305 11.9281V11.9352C56.2455 11.9352 56.0278 12.0287 55.8432 12.1806C55.7449 12.2615 55.6512 12.3632 55.5448 12.4907C55.4944 12.5511 55.4428 12.6154 55.3868 12.685L55.3779 12.6961C55.3205 12.7675 55.2589 12.844 55.1924 12.9239L53.6272 15.1155V17.408C53.6272 17.6224 53.6343 17.7717 53.6552 17.8801C53.6754 17.9849 53.7041 18.0277 53.7301 18.0513C53.7588 18.0774 53.8144 18.1075 53.9411 18.1279C54.0682 18.1484 54.2406 18.1553 54.4814 18.1553C54.6155 18.1553 54.6995 18.2478 54.7346 18.2963C54.7772 18.3551 54.8066 18.4274 54.8186 18.4994C54.8301 18.5682 54.8306 18.6686 54.7741 18.7607C54.7085 18.8677 54.5964 18.9156 54.4814 18.9156H51.0448C50.8877 18.9156 50.8106 18.795 50.784 18.7355C50.7543 18.6688 50.7448 18.5958 50.7448 18.5355C50.7448 18.4752 50.7543 18.4021 50.784 18.3355C50.8106 18.2759 50.8877 18.1553 51.0448 18.1553C51.258 18.1553 51.4172 18.1484 51.5391 18.1281C51.6602 18.108 51.7249 18.0775 51.7639 18.0451C51.8382 17.9832 51.8999 17.8446 51.8999 17.408V15.5422L49.6818 12.2679L49.6813 12.2673C49.662 12.2383 49.6452 12.2128 49.6304 12.1904C49.5484 12.0661 49.5279 12.0349 49.4701 12.006C49.3889 11.9655 49.226 11.9352 48.7893 11.9352C48.7056 11.9352 48.5993 11.9148 48.5222 11.8303C48.4401 11.7405 48.4376 11.6306 48.4564 11.5556C48.4746 11.4824 48.5163 11.4195 48.5653 11.3741C48.6131 11.3298 48.6905 11.2822 48.7893 11.2822H52.2259C52.3152 11.2822 52.4001 11.3043 52.4706 11.3445C52.5351 11.3813 52.6136 11.4493 52.6402 11.5553C52.6546 11.6124 52.652 11.6768 52.6243 11.7382C52.5973 11.798 52.5534 11.8401 52.5092 11.8679C52.4262 11.9202 52.3237 11.9352 52.2259 11.9352C51.9583 11.9352 51.8505 11.9646 51.8116 11.9868C51.8089 11.9884 51.807 11.9896 51.8059 11.9904C51.8054 11.9921 51.8047 11.9949 51.804 11.9991C51.8027 12.0067 51.8016 12.0176 51.8014 12.0331C51.8019 12.0347 51.8027 12.0374 51.8042 12.0413C51.8095 12.0554 51.8174 12.0717 51.832 12.1006L51.8336 12.1039C51.846 12.1286 51.864 12.1644 51.8783 12.2023C51.8867 12.2246 51.8952 12.251 51.9011 12.2808L53.3007 14.3338L54.7419 12.2197L54.7565 12.2052C54.8134 12.1483 54.855 12.1061 54.8842 12.0674C54.894 12.0542 54.8999 12.0447 54.9034 12.0383C54.8992 12.0327 54.8916 12.0247 54.8783 12.0152C54.835 11.9844 54.725 11.9352 54.4818 11.9352C54.3842 11.9352 54.2817 11.9202 54.1988 11.8677C54.1546 11.8398 54.1108 11.7976 54.0839 11.7378C54.0564 11.6765 54.054 11.6122 54.0683 11.5553C54.0948 11.4496 54.173 11.3815 54.2375 11.3447C54.3078 11.3044 54.3926 11.2822 54.4818 11.2822H56.6305C56.7288 11.2822 56.8085 11.3293 56.8592 11.3802C56.91 11.4312 56.9567 11.5109 56.9566 11.609C56.9564 11.721 56.8952 11.8152 56.8031 11.8705C56.7511 11.9016 56.6922 11.9193 56.6305 11.9281ZM54.9084 12.0469C54.9083 12.0469 54.9082 12.0466 54.9081 12.046C54.9083 12.0466 54.9084 12.0469 54.9084 12.0469ZM51.8043 11.9917C51.8043 11.9917 51.8044 11.9916 51.8047 11.9913C51.8045 11.9916 51.8043 11.9917 51.8043 11.9917Z" fill="#82955F"/>
<path fill-rule="evenodd" clip-rule="evenodd" d="M43.9581 17.3008C43.9581 18.16 44.0649 18.2673 45.0315 18.2673C46.9641 18.2673 47.8243 16.9784 47.8243 15.0458C47.8243 13.22 46.75 11.8238 45.0315 11.8238C43.9581 11.8238 43.9581 11.9311 43.9581 12.253V17.3008ZM41.5949 18.3746C42.3464 18.3746 42.6682 18.2673 42.6682 17.408V12.6826C42.6682 11.9306 42.3464 11.716 41.5949 11.716C41.4871 11.716 41.4871 11.5015 41.5949 11.5015H45.5684C47.3942 11.5015 49.219 12.8972 49.219 15.0458C49.219 17.3012 47.716 18.6969 45.6747 18.6969H41.5944C41.3798 18.6964 41.4876 18.3746 41.5949 18.3746V18.3746Z" fill="#82955F"/>
<path fill-rule="evenodd" clip-rule="evenodd" d="M42.5182 11.7206C42.5307 11.73 42.5429 11.7398 42.5549 11.75C42.8028 11.9598 42.8874 12.2827 42.8874 12.6826V17.408C42.8874 17.8506 42.8076 18.1867 42.547 18.3872C42.4997 18.4236 42.4491 18.4533 42.3961 18.4777H44.6556C44.5703 18.4726 44.4921 18.4649 44.4211 18.4535C44.256 18.4269 44.1036 18.3765 43.9847 18.2684C43.8631 18.1577 43.8047 18.0125 43.7745 17.8556C43.7451 17.7022 43.7388 17.5159 43.7388 17.3007V12.2529C43.7388 12.2487 43.7388 12.2443 43.7388 12.2398C43.7387 12.1707 43.7385 12.0739 43.765 11.9865C43.8 11.8711 43.8755 11.7809 43.9942 11.7216C43.9948 11.7213 43.9955 11.7209 43.9961 11.7206H42.5182ZM45.952 11.7422C46.4662 11.9048 46.9019 12.2053 47.2403 12.6094C47.7626 13.2331 48.0434 14.0913 48.0434 15.0458C48.0434 16.0402 47.8227 16.9021 47.3229 17.5192C46.8637 18.0861 46.1901 18.4206 45.3082 18.4777H45.6746C46.6445 18.4777 47.4724 18.147 48.0573 17.5621C48.6417 16.9777 48.9997 16.1234 48.9997 15.0458C48.9997 13.188 47.5387 11.9203 45.952 11.7422ZM41.3521 11.413C41.3994 11.3423 41.4833 11.2822 41.5948 11.2822H45.5683C47.4934 11.2822 49.4381 12.7554 49.4381 15.0458C49.4381 16.2236 49.0446 17.1948 48.3673 17.8721C47.6904 18.549 46.7461 18.9161 45.6746 18.9161H41.5938C41.4786 18.9158 41.3667 18.8674 41.3015 18.7602C41.2455 18.6681 41.2462 18.5679 41.2577 18.4992C41.2698 18.4272 41.2992 18.3551 41.3417 18.2964C41.3766 18.2482 41.4605 18.1554 41.5948 18.1554C41.7799 18.1554 41.9256 18.1485 42.0422 18.1284C42.1579 18.1084 42.2306 18.0775 42.2796 18.0398C42.3678 17.9719 42.449 17.8247 42.449 17.408V12.6826C42.449 12.3304 42.3726 12.17 42.2717 12.0846C42.1608 11.9907 41.9624 11.9352 41.5948 11.9352C41.4833 11.9352 41.3994 11.8752 41.3521 11.8045C41.3091 11.7403 41.2948 11.6682 41.2948 11.6087C41.2948 11.5492 41.3091 11.4772 41.3521 11.413ZM44.1836 12.1173C44.179 12.1355 44.1772 12.1677 44.1772 12.2529V17.3007C44.1772 17.5152 44.1843 17.6645 44.2051 17.7729C44.2252 17.8778 44.2539 17.9205 44.2798 17.9441C44.3084 17.9702 44.364 18.0003 44.4907 18.0207C44.6178 18.0411 44.7904 18.0481 45.0314 18.0481C45.9451 18.0481 46.575 17.746 46.9822 17.2433C47.3957 16.7328 47.605 15.9839 47.605 15.0458C47.605 14.1744 47.3487 13.4216 46.9042 12.8908C46.4627 12.3636 45.8261 12.043 45.0314 12.043C44.7652 12.043 44.5726 12.0497 44.4327 12.0637C44.2886 12.0781 44.2206 12.0986 44.1902 12.1137C44.1874 12.1151 44.1852 12.1163 44.1836 12.1173Z" fill="#82955F"/>
<path fill-rule="evenodd" clip-rule="evenodd" d="M31.2846 21.7032C31.3918 21.4887 31.4991 21.5959 31.4991 21.7032L31.7137 24.281C31.7137 24.3883 31.4991 24.4956 31.3914 24.281C31.1763 23.2067 30.2102 22.1329 29.1359 22.1329C28.4912 22.1329 27.847 22.4552 27.847 23.2067C27.847 23.9587 29.1359 24.3878 29.8879 24.7102C30.9617 25.1398 31.9283 25.6767 32.0356 26.9656C32.0356 28.5768 30.854 29.221 29.3505 29.221C29.0281 29.221 28.599 29.1138 28.2767 29.0065C27.9543 28.8987 27.632 28.7919 27.5247 28.7919C27.4174 28.7919 27.2023 28.7919 27.2023 29.1143C27.2023 29.3283 26.9878 29.3283 26.88 29.2215L26.7727 26.6442C26.7727 26.4297 26.9873 26.4297 26.9873 26.6442C27.4169 27.8258 28.1684 28.6851 29.35 28.6851C29.9947 28.6851 30.8535 28.47 30.8535 27.7186C30.9612 26.8593 30.102 26.4297 28.9209 26.0005C27.9543 25.5709 26.88 25.034 26.88 23.6378C26.88 22.3484 27.9538 21.5969 29.0277 21.5969C29.5651 21.5969 29.8869 21.7042 30.2093 21.8115C30.5316 21.9188 30.8535 22.0261 30.8535 22.1333C31.1768 22.1329 31.2846 21.9188 31.2846 21.7032V21.7032Z" fill="#82955F"/>
<path fill-rule="evenodd" clip-rule="evenodd" d="M31.302 22.2255C31.1859 22.3228 31.0327 22.3731 30.854 22.3733L30.6137 22.3737V22.22C30.5985 22.2119 30.5792 22.2025 30.555 22.1918C30.4472 22.1439 30.2986 22.0941 30.1337 22.0392C29.8179 21.9341 29.5257 21.8369 29.0278 21.8369C28.0532 21.8369 27.1201 22.512 27.1201 23.6379C27.1201 24.2631 27.3563 24.6846 27.7016 25.006C28.0562 25.336 28.5281 25.5632 29.0109 25.7779C29.597 25.9912 30.1368 26.2157 30.517 26.5081C30.9087 26.8094 31.1546 27.2037 31.0935 27.7337C31.0876 28.2166 30.7989 28.5243 30.451 28.6983C30.1098 28.8689 29.6926 28.9251 29.3502 28.9251C28.2622 28.9251 27.5202 28.2716 27.0431 27.3665L27.099 28.7086C27.128 28.677 27.1617 28.6495 27.2 28.6265C27.3258 28.5511 27.4653 28.5517 27.5174 28.552C27.5201 28.552 27.5226 28.552 27.5249 28.552H27.5542L27.5827 28.5591L27.5249 28.792C27.5827 28.5591 27.5827 28.5591 27.5827 28.5591L27.5828 28.5591L27.5829 28.5592L27.5842 28.5595L27.5881 28.5605C27.5915 28.5613 27.5964 28.5625 27.6028 28.5642C27.6155 28.5674 27.6339 28.5721 27.657 28.578C27.7031 28.5899 27.7679 28.6069 27.8429 28.6273C27.9921 28.6679 28.1852 28.7229 28.3528 28.7789C28.6686 28.884 29.0679 28.9812 29.3507 28.9812C30.0734 28.9812 30.6865 28.8256 31.1131 28.5056C31.5287 28.1939 31.7958 27.7053 31.7958 26.9657C31.7958 26.4009 31.5657 26.0075 31.2075 25.697C30.8382 25.377 30.3356 25.1477 29.799 24.933L29.7962 24.9319L29.7936 24.9307C29.7115 24.8956 29.6202 24.8581 29.5229 24.8181C29.1948 24.6834 28.7992 24.5209 28.4652 24.3271C28.2464 24.2001 28.0369 24.0505 27.88 23.8719C27.7211 23.6909 27.6073 23.4691 27.6073 23.2068C27.6073 22.7519 27.807 22.412 28.1094 22.1935C28.4026 21.9818 28.7783 21.893 29.1361 21.893C29.7545 21.893 30.3222 22.2009 30.7557 22.6345C31.0278 22.9066 31.2549 23.2356 31.4154 23.5876L31.302 22.2255ZM27.4961 29.0321C27.507 29.0349 27.5208 29.0385 27.5371 29.0426C27.5816 29.0541 27.6443 29.0706 27.717 29.0904C27.8632 29.1301 28.046 29.1824 28.2008 29.2341L28.2011 29.2342C28.53 29.3437 28.9888 29.461 29.3507 29.461C30.1314 29.461 30.8609 29.2945 31.401 28.8896C31.952 28.4763 32.2757 27.8372 32.2757 26.9657C32.2757 26.2416 31.9689 25.722 31.5218 25.3344C31.0863 24.957 30.5164 24.7033 29.9799 24.4885C29.8853 24.448 29.7855 24.407 29.6829 24.3648C29.3595 24.2319 29.0087 24.0877 28.7061 23.9121C28.5087 23.7975 28.349 23.6787 28.2407 23.5553C28.1344 23.4343 28.0871 23.3204 28.0871 23.2068C28.0871 22.9101 28.2095 22.7132 28.3904 22.5825C28.5805 22.4452 28.8492 22.3729 29.1361 22.3729C29.5921 22.3729 30.0445 22.6019 30.4164 22.9738C30.7877 23.3451 31.0586 23.8403 31.1563 24.3282L31.1626 24.3599L31.1771 24.3888C31.2223 24.4786 31.2884 24.5534 31.3762 24.5993C31.4641 24.6453 31.5575 24.6536 31.6401 24.6371C31.7204 24.621 31.7932 24.5813 31.8483 24.5262C31.9019 24.4727 31.9538 24.3881 31.9538 24.2811V24.2711L31.7391 21.6911C31.7372 21.6304 31.7216 21.5689 31.6921 21.5141C31.6619 21.458 31.6043 21.387 31.5081 21.355C31.4005 21.3191 31.2969 21.349 31.2217 21.4042C31.1535 21.4542 31.1056 21.5251 31.0701 21.596L31.2847 21.7033H31.0448C31.0448 21.7754 31.0264 21.8212 31.0064 21.8451C30.9994 21.8535 30.9866 21.8661 30.9616 21.8763C30.955 21.8708 30.9489 21.8661 30.9437 21.8621C30.8862 21.8183 30.8158 21.7825 30.7498 21.7532C30.618 21.6947 30.4475 21.6379 30.2919 21.5861L30.2833 21.5833C29.9549 21.474 29.6036 21.3571 29.0278 21.3571C27.8548 21.3571 26.6402 22.1849 26.6402 23.6379C26.6402 24.4088 26.9412 24.9538 27.3747 25.3573C27.7971 25.7505 28.3425 26.006 28.8236 26.2198L28.8312 26.2232L28.8391 26.2261C29.431 26.4412 29.9083 26.6453 30.2244 26.8885C30.527 27.1213 30.6559 27.367 30.6156 27.6888L30.6137 27.7036V27.7186C30.6137 27.9785 30.4754 28.1496 30.2363 28.2691C29.987 28.3939 29.6525 28.4452 29.3502 28.4452C28.3277 28.4452 27.6412 27.7186 27.2246 26.594C27.2067 26.4314 27.1024 26.2434 26.8802 26.2434C26.6346 26.2434 26.533 26.473 26.533 26.6443V26.6493L26.6444 29.3257L26.7113 29.392C26.8145 29.4943 26.9738 29.5545 27.1288 29.5236C27.2118 29.507 27.2961 29.4627 27.3577 29.3824C27.4186 29.303 27.4424 29.2079 27.4424 29.1143C27.4424 29.0696 27.4486 29.0462 27.4521 29.0366C27.4547 29.0359 27.4584 29.0352 27.4632 29.0345C27.473 29.0331 27.4832 29.0325 27.4961 29.0321ZM30.6589 22.2489C30.6587 22.249 30.6569 22.2475 30.6541 22.2447C30.6577 22.2475 30.6591 22.2489 30.6589 22.2489Z" fill="#82955F"/>
<path fill-rule="evenodd" clip-rule="evenodd" d="M36.3326 29.0065H32.8955C32.681 29.0065 32.7883 28.7919 32.8955 28.7919C33.6475 28.7919 33.9699 28.6847 33.9699 27.8259V23.2072C33.9699 22.2412 33.7548 22.0261 32.8955 22.0261C32.681 22.0261 32.681 21.8115 32.8955 21.8115H36.3321C36.5467 21.8115 36.5467 22.0261 36.3321 22.0261C35.4729 22.0261 35.3656 22.1334 35.3656 22.9926V25.0335H38.9094V23.1004C38.9094 22.2412 38.6948 22.0261 37.9429 22.0261C37.7283 22.0261 37.7283 21.8115 37.9429 21.8115H41.2717C41.4867 21.8115 41.4867 22.0261 41.2717 22.0261C40.5202 22.0261 40.3061 22.1334 40.3061 22.9926V27.8259C40.3061 28.6851 40.5202 28.7919 41.2717 28.7919C41.4867 28.7919 41.4867 29.0065 41.2717 29.0065H37.9429C37.6205 29.0065 37.6205 28.7919 37.9429 28.7919C38.8016 28.7919 38.9094 28.6847 38.9094 27.8259V25.4627H35.3656V27.8259C35.3656 28.6851 35.4729 28.7919 36.3321 28.7919C36.5472 28.7919 36.5472 29.0065 36.3326 29.0065Z" fill="#82955F"/>
<path fill-rule="evenodd" clip-rule="evenodd" d="M33.8912 22.0514H35.3255C35.2314 22.1612 35.1848 22.2958 35.1595 22.4367C35.132 22.5904 35.1256 22.7769 35.1256 22.9926V27.8258C35.1256 28.0415 35.132 28.228 35.1595 28.3816C35.1848 28.5224 35.2313 28.6568 35.3252 28.7665H33.9243C34.1426 28.5562 34.2097 28.2325 34.2097 27.8258V23.2072C34.2097 22.7301 34.1629 22.3425 33.9311 22.0915C33.9182 22.0775 33.9049 22.0642 33.8912 22.0514ZM32.8904 28.7663C32.8904 28.7663 32.8909 28.7663 32.8918 28.7664C32.8909 28.7664 32.8904 28.7663 32.8904 28.7663ZM39.1493 27.8258C39.1493 28.0414 39.1429 28.2279 39.1152 28.3815C39.0899 28.5224 39.0433 28.6568 38.9493 28.7665H40.3033C40.106 28.5515 40.0661 28.2219 40.0661 27.8258V22.9926C40.0661 22.5963 40.106 22.2665 40.3036 22.0514H38.8585C38.8675 22.0603 38.8763 22.0694 38.885 22.0789C39.1009 22.3146 39.1493 22.6712 39.1493 23.1004V27.8258ZM41.2776 28.7662C41.2779 28.7662 41.2781 28.7662 41.2781 28.7662C41.2781 28.7662 41.278 28.7662 41.2776 28.7662ZM32.4946 21.9188C32.4946 21.6732 32.7242 21.5715 32.8955 21.5715H36.332C36.5033 21.5715 36.7329 21.6732 36.7329 21.9188C36.7329 22.1643 36.5033 22.266 36.332 22.266C36.1181 22.266 35.969 22.273 35.8609 22.2924C35.7549 22.3114 35.715 22.3379 35.6962 22.3567C35.6774 22.3756 35.6509 22.4155 35.6319 22.5214C35.6125 22.6295 35.6054 22.7787 35.6054 22.9926V24.7935H38.6694V23.1004C38.6694 22.6702 38.6105 22.4897 38.5311 22.403C38.4588 22.3241 38.3144 22.266 37.9428 22.266C37.7715 22.266 37.5419 22.1643 37.5419 21.9188C37.5419 21.6732 37.7715 21.5715 37.9428 21.5715H41.2716C41.4425 21.5715 41.6728 21.6727 41.6728 21.9188C41.6728 22.1648 41.4425 22.266 41.2716 22.266C41.086 22.266 40.9504 22.2729 40.8477 22.2921C40.7474 22.3108 40.6977 22.3379 40.6685 22.3645C40.6075 22.42 40.5459 22.5562 40.5459 22.9926V27.8258C40.5459 28.2622 40.6075 28.3982 40.6684 28.4536C40.6976 28.4801 40.7472 28.5072 40.8476 28.5259C40.9503 28.545 41.0859 28.5519 41.2716 28.5519C41.4425 28.5519 41.6728 28.6532 41.6728 28.8992C41.6728 29.1452 41.4425 29.2464 41.2716 29.2464H37.9428C37.8392 29.2464 37.7386 29.2297 37.6543 29.1876C37.5775 29.1492 37.4611 29.0581 37.4611 28.8992C37.4611 28.7403 37.5775 28.6491 37.6543 28.6107C37.7386 28.5687 37.8392 28.5519 37.9428 28.5519C38.1566 28.5519 38.3057 28.5449 38.4138 28.5255C38.5197 28.5065 38.5597 28.48 38.5785 28.4612C38.5974 28.4423 38.6239 28.4025 38.6429 28.2966C38.6624 28.1886 38.6694 28.0396 38.6694 27.8258V25.7025H35.6054V27.8258C35.6054 28.0397 35.6125 28.1889 35.6318 28.2969C35.6509 28.4028 35.6774 28.4426 35.6961 28.4613C35.7149 28.4801 35.7548 28.5066 35.8608 28.5256C35.9689 28.545 36.1181 28.5519 36.332 28.5519C36.5031 28.5519 36.7331 28.6532 36.7333 28.8989C36.7336 29.1448 36.5037 29.2464 36.3325 29.2464H32.8955C32.8088 29.2464 32.6958 29.2253 32.613 29.135C32.5247 29.0387 32.5221 28.9208 32.542 28.841C32.5614 28.7633 32.6056 28.6969 32.6573 28.6491C32.7078 28.6025 32.79 28.5519 32.8955 28.5519C33.0805 28.5519 33.2248 28.5451 33.3398 28.5253C33.4537 28.5056 33.5229 28.4756 33.5684 28.4406C33.6486 28.379 33.7299 28.2409 33.7299 27.8258V23.2072C33.7299 22.7181 33.6692 22.5152 33.5786 22.4171C33.4948 22.3263 33.3276 22.266 32.8955 22.266C32.7242 22.266 32.4946 22.1643 32.4946 21.9188Z" fill="#82955F"/>
<path fill-rule="evenodd" clip-rule="evenodd" d="M53.4084 28.7919C53.6225 28.7919 53.6225 29.0065 53.4084 29.0065H49.9718C49.7568 29.0065 49.7568 28.7919 49.9718 28.7919C50.7233 28.7919 50.9374 28.6847 50.9374 27.8259V22.9926C50.9374 22.1334 50.6156 22.0261 49.9718 22.0261C49.7568 22.0261 49.7568 21.8115 49.9718 21.8115H53.0856C55.1269 21.8115 56.2003 22.4557 56.2003 23.8519C56.2003 24.7112 55.6639 25.5699 53.9448 25.5699H52.3341V27.8254C52.3341 28.6847 52.5491 28.7919 53.4084 28.7919ZM52.3341 25.1403H53.1934C54.2677 25.1403 54.8051 24.6034 54.8051 23.6369C54.8051 22.4552 54.0526 22.1329 53.0861 22.1329C52.4423 22.1329 52.3346 22.2407 52.3346 22.8849V25.1403H52.3341Z" fill="#82955F"/>
<path fill-rule="evenodd" clip-rule="evenodd" d="M50.9027 22.0514H52.3519C52.3338 22.0654 52.3162 22.0808 52.2994 22.0976C52.2005 22.1966 52.1519 22.3209 52.1264 22.4484C52.1014 22.5735 52.0948 22.7207 52.0948 22.8848V25.1403H52.3343V25.33H52.0943V27.8253C52.0943 28.2167 52.1331 28.55 52.3431 28.7665H50.9401C51.1376 28.5514 51.1775 28.2218 51.1775 27.8258V22.9926C51.1775 22.5815 51.1091 22.2607 50.9027 22.0514ZM53.7394 25.33H53.945C54.767 25.33 55.2643 25.1248 55.5547 24.8568C55.8431 24.5906 55.9605 24.2317 55.9605 23.8518C55.9605 23.2266 55.7267 22.7969 55.2792 22.5101C55.0287 22.3495 54.7039 22.2291 54.3014 22.152C54.3531 22.1812 54.4029 22.2134 54.4508 22.2487C54.8362 22.5335 55.0452 22.991 55.0452 23.6368C55.0452 24.1637 54.8978 24.6113 54.5675 24.925C54.3502 25.1312 54.0703 25.2638 53.7394 25.33ZM52.5747 24.9003H53.1935C53.6937 24.9003 54.0281 24.7754 54.2371 24.577C54.444 24.3805 54.5653 24.0764 54.5653 23.6368C54.5653 23.101 54.3981 22.8065 54.1656 22.6347C53.9183 22.4519 53.5512 22.3728 53.0863 22.3728C52.9284 22.3728 52.8207 22.3797 52.7444 22.395C52.6707 22.4098 52.6473 22.4284 52.6388 22.4369C52.6303 22.4454 52.6117 22.4688 52.5969 22.5426C52.5816 22.619 52.5747 22.7269 52.5747 22.8848V24.9003ZM49.5708 21.9188C49.5708 21.6727 49.8011 21.5715 49.972 21.5715H53.0858C54.1237 21.5715 54.9574 21.7339 55.5381 22.1061C56.1376 22.4904 56.4404 23.0809 56.4404 23.8518C56.4404 24.3312 56.2897 24.8314 55.8801 25.2094C55.4725 25.5856 54.8421 25.8098 53.945 25.8098H52.5742V27.8253C52.5742 28.2625 52.6367 28.3914 52.7028 28.4465C52.7378 28.4757 52.7984 28.5052 52.9177 28.525C53.0378 28.545 53.1955 28.5519 53.4086 28.5519C53.5802 28.5519 53.8091 28.654 53.8091 28.8992C53.8091 29.1443 53.5802 29.2464 53.4086 29.2464H49.972C49.8011 29.2464 49.5708 29.1452 49.5708 28.8992C49.5708 28.6532 49.8011 28.5519 49.972 28.5519C50.1576 28.5519 50.2932 28.545 50.3959 28.5258C50.4963 28.5071 50.5459 28.48 50.5752 28.4534C50.6361 28.398 50.6977 28.2619 50.6977 27.8258V22.9926C50.6977 22.5776 50.6167 22.4332 50.5425 22.3713C50.4565 22.2996 50.3017 22.266 49.972 22.266C49.8011 22.266 49.5708 22.1648 49.5708 21.9188Z" fill="#82955F"/>
<path fill-rule="evenodd" clip-rule="evenodd" d="M45.6752 29.3284C43.3129 29.3284 41.9167 27.6104 41.9167 25.4623C41.9167 23.2068 43.7426 21.4888 45.6752 21.4888C47.6087 21.4888 49.3268 23.2068 49.3268 25.4623C49.3273 27.6104 47.6087 29.3284 45.6752 29.3284ZM45.6752 21.9189C43.9581 21.9189 43.4207 23.7442 43.4207 25.4627C43.4207 27.074 43.9581 28.8993 45.6752 28.8993C47.2869 28.8993 47.8238 27.074 47.8238 25.4627C47.8243 23.7442 47.2869 21.9189 45.6752 21.9189V21.9189Z" fill="#82955F"/>
<path fill-rule="evenodd" clip-rule="evenodd" d="M44.7564 21.8678C43.3338 22.3012 42.1566 23.7037 42.1566 25.4622C42.1566 26.4848 42.4886 27.3905 43.0864 28.0381C43.5474 28.5375 44.1753 28.8932 44.9548 29.0284C44.3805 28.8383 43.969 28.4197 43.692 27.8976C43.3175 27.1917 43.1807 26.2885 43.1807 25.4627C43.1807 24.585 43.3169 23.6552 43.6911 22.9356C43.9351 22.4664 44.2837 22.083 44.7564 21.8678ZM46.4786 21.8369C46.9666 22.0465 47.3229 22.4479 47.5686 22.939C47.9277 23.6568 48.0639 24.5847 48.0637 25.4627M46.4786 21.8369C47.9217 22.2297 49.0868 23.6525 49.0868 25.4622V25.4622C49.0872 27.1754 47.9273 28.5859 46.4844 28.9791C46.9688 28.77 47.3229 28.3735 47.5675 27.8942C47.9269 27.19 48.0637 26.2888 48.0637 25.4627M41.6768 25.4622C41.6768 23.0786 43.6057 21.2488 45.6751 21.2488C47.7541 21.2488 49.5666 23.0876 49.5667 25.4621M44.1168 23.157C43.793 23.7797 43.6606 24.6219 43.6606 25.4627C43.6606 26.2481 43.7925 27.0632 44.1159 27.6727C44.4325 28.2694 44.9235 28.6593 45.6751 28.6593C46.367 28.6593 46.8333 28.2772 47.1401 27.6761C47.4521 27.0649 47.5838 26.2479 47.5838 25.4627V25.4626C47.5841 24.6221 47.4518 23.7781 47.1394 23.1537C46.8324 22.54 46.3663 22.1588 45.6751 22.1588C44.9242 22.1588 44.4336 22.5478 44.1168 23.157ZM49.5667 25.4622C49.5671 27.734 47.7499 29.5683 45.6751 29.5683C44.4323 29.5683 43.4269 29.1145 42.7338 28.3636C42.0429 27.6151 41.6768 26.5877 41.6768 25.4622" fill="#82955F"/>
<path fill-rule="evenodd" clip-rule="evenodd" d="M74.2425 68.2058V66.8096H75.209C75.6387 66.8096 76.2833 66.8096 76.2833 67.4533C76.2833 68.098 75.7459 68.2058 75.1013 68.2058H74.2425ZM74.2425 68.85H74.9949L76.2838 70.9976H77.1431L75.7469 68.85C76.4984 68.7432 77.0358 68.4203 77.0358 67.4538C77.0358 66.4882 76.4984 66.0586 75.3178 66.0586H73.3842V70.9981H74.2435V68.85H74.2425ZM79.3985 68.4203C79.3985 65.843 77.3572 64.0182 75.1017 64.0182C72.7395 64.0182 70.6986 65.843 70.6986 68.4203C70.6986 70.9976 72.5244 72.8234 75.1017 72.8234C77.3572 72.8234 79.3985 71.1054 79.3985 68.4203ZM78.4315 68.4203C78.4315 70.568 76.9276 72.072 75.1017 72.072C72.9541 72.072 71.6652 70.4612 71.6652 68.4203C71.6652 66.2727 73.1691 64.7697 75.1017 64.7697C76.9276 64.7692 78.4315 66.2727 78.4315 68.4203ZM27.5258 71.9642C30.7473 73.0385 33.0028 71.8564 35.366 70.7831C37.084 70.0316 38.588 70.6753 38.9098 72.072C39.2322 73.0385 38.8021 74.4352 37.4064 74.9711C36.4398 75.2939 35.2587 75.2939 33.5402 74.9711C28.2778 74.0046 24.5189 72.6089 20.2231 70.0316C9.91291 63.909 3.46942 54.0294 1.42855 43.3969C-0.61183 33.1945 1.32127 22.8848 6.9055 14.2931C10.7717 8.38656 16.3564 2.69456 22.478 0.654179C25.485 -0.420142 27.955 1.40616 28.3846 3.87617C28.707 5.91655 27.955 7.5273 26.2365 8.38657C19.7935 11.1784 14.316 14.9373 9.05365 21.7032C5.93944 25.8917 3.0393 32.2284 2.71745 37.9199C2.18053 48.015 8.08759 58.6476 14.8534 64.5536C21.6193 70.4612 26.6666 71.7501 27.5258 71.9642Z" fill="#82955F"/>
<path fill-rule="evenodd" clip-rule="evenodd" d="M4.75818 42.7533C4.0062 35.4505 6.36893 29.0065 9.91326 23.9587C11.0944 22.3475 13.4571 19.2333 16.3568 16.7633C17.8602 15.4744 19.4715 14.1855 21.4046 13.9704C22.8007 13.7559 23.9819 14.5078 24.7338 15.4739C26.0227 16.9774 25.5926 19.877 23.8746 20.8435C19.5783 23.4208 17.216 24.7097 13.8867 28.039C9.91278 31.9062 7.44276 35.8797 4.75818 42.7533V42.7533Z" fill="#82955F"/>
<path fill-rule="evenodd" clip-rule="evenodd" d="M19.5782 25.8917C20.8671 25.1397 22.8002 25.3548 23.6595 26.5359C24.8406 28.0394 24.5188 30.2948 22.8002 31.1541C15.3897 34.913 10.0201 40.1759 5.61694 46.9412C7.22818 40.4977 10.0201 34.913 14.6382 29.973C16.4645 28.1472 17.5379 27.0733 19.5782 25.8917V25.8917ZM53.0856 71.9642C49.9719 73.0385 47.6091 71.8564 45.3537 70.7831C43.6356 70.0316 42.1327 70.6753 41.703 72.072C41.488 73.0385 41.9171 74.4352 43.3138 74.9711C44.173 75.2939 45.4615 75.2939 47.18 74.9711C52.4424 74.0046 56.2008 72.6089 60.4976 70.0316C70.8073 63.909 77.2507 54.0294 79.2916 43.3969C81.2242 33.1945 79.3994 22.8848 73.8142 14.2931C69.948 8.38656 64.3638 2.69456 58.2421 0.654179C55.1274 -0.420142 52.7647 1.40616 52.3351 3.87617C52.0132 5.91655 52.6579 7.5273 54.4827 8.38657C60.9272 11.1789 66.4037 14.9378 71.5587 21.7037C74.6734 25.8922 77.6804 32.2289 78.0032 37.9204C78.4328 48.0155 72.6331 58.648 65.8667 64.5541C58.9926 70.4612 54.0521 71.7501 53.0856 71.9642Z" fill="#82955F"/>
<path fill-rule="evenodd" clip-rule="evenodd" d="M75.961 42.7533C76.6057 35.4505 74.243 29.0065 70.8064 23.9587C69.6253 22.3475 67.1548 19.2333 64.2551 16.7633C62.7512 15.4744 61.2482 14.1855 59.3146 13.9704C57.8116 13.7559 56.7373 14.5078 55.8781 15.4739C54.6969 16.9774 55.1266 19.877 56.8446 20.8435C61.1404 23.4208 63.5032 24.7097 66.8319 28.039C70.8064 31.9062 73.2769 35.8797 75.961 42.7533Z" fill="#82955F"/>
<path fill-rule="evenodd" clip-rule="evenodd" d="M61.1404 25.8917C59.7442 25.1398 57.9194 25.3548 57.0601 26.5359C55.878 28.0394 56.1999 30.2948 57.9194 31.1541C65.3294 34.913 70.6986 40.1759 74.9954 46.9412C73.3837 40.4977 70.6986 34.913 65.9736 29.973C64.2551 28.1472 63.1818 27.0733 61.1404 25.8917V25.8917Z" fill="#82955F"/>
</svg>
