<svg width="170" height="31" viewBox="0 0 170 31" fill="none" xmlns="http://www.w3.org/2000/svg">
<path fill-rule="evenodd" clip-rule="evenodd" d="M161.337 25.1619C158.904 25.1379 152.281 24.5552 148.656 24.5177C146.656 24.4972 144.656 24.6125 142.671 24.8629C142.968 25.2571 143.281 25.637 143.613 25.9995C144.786 26.011 148.097 26.1495 154.246 27.1898C159.357 28.0533 162.204 28.1908 163.583 28.1773C164.977 27.1933 166.196 25.9824 167.187 24.5956C165.792 24.8446 163.199 25.1812 161.337 25.1619ZM154.079 27.5812C148.599 26.61 145.377 26.3716 143.912 26.3196C145.325 27.7844 147.02 28.9493 148.897 29.7443C150.774 30.5393 152.793 30.948 154.832 30.9456C157.793 30.9456 160.555 30.1004 162.89 28.6379C161.365 28.6004 158.612 28.385 154.079 27.5812Z" fill="black"/>
<path fill-rule="evenodd" clip-rule="evenodd" d="M148.502 24.3991C152.155 24.3991 158.833 24.9172 161.286 24.9172C163.363 24.9172 166.335 24.4707 167.579 24.2083C169.164 21.7593 170.005 18.9069 170 15.9939C170 14.6322 169.819 13.3122 169.481 12.0561L161.299 14.1344L162.179 12.4794C164.114 12.1772 166.58 11.5613 168.897 10.3168C168.72 9.88008 168.523 9.45159 168.307 9.03264C166.321 10.0147 164.553 10.4659 163.15 10.6529L164.427 8.24916L167.729 8.01964C167.44 7.55478 167.128 7.10639 166.792 6.6764H162.977L164.478 4.29789C164.167 4.04125 163.846 3.79622 163.515 3.5638L160.448 7.81433L159.554 6.05272L159.702 5.43L162.61 2.97594C162.293 2.78516 161.968 2.606 161.637 2.43749L158.556 4.08386L156.973 0.960603C156.514 0.893425 156.053 0.846888 155.591 0.821141L157.273 5.12494L156.781 5.56752L154.291 0.803711C154.145 0.807585 154 0.814361 153.854 0.823077L151.945 4.82279L149.965 1.55329C149.323 1.76345 148.697 2.0133 148.095 2.30287L148.003 4.939L145.183 4.13324C144.599 4.5981 144.052 5.10557 143.542 5.64984L146.95 9.81031L146 9.87907L142.939 6.33357C142.568 6.78196 142.223 7.25166 141.904 7.74073L143.804 10.0369L140.579 10.2703C139.835 12.0882 139.454 14.0329 139.456 15.9958C139.451 19.1663 140.447 22.2583 142.304 24.8349C143.024 24.7245 145.453 24.3991 148.502 24.3991Z" fill="black"/>
<path fill-rule="evenodd" clip-rule="evenodd" d="M161.989 8.49626L162.814 8.4397L161.374 10.7744C161.099 10.7702 160.824 10.7545 160.55 10.7273L161.989 8.49626ZM160.201 12.6737L158.973 14.6607L157.83 14.9453L159.265 12.718C159.502 12.7124 159.817 12.7001 160.201 12.6737ZM158.769 8.66309L159.206 9.75835L156.724 13.1262L156.623 10.1194L158.769 8.66309ZM156.449 16.6975L161.413 15.4939L162.116 16.4949L163.43 16.4289L163.087 15.0876L165.027 14.6164C165.365 15.0876 166.243 16.2225 167.162 16.6975L168.199 16.2263C168.199 16.2263 167.238 15.0688 166.953 14.1488L168.618 13.7454C168.734 14.4486 168.794 15.1696 168.794 15.9039C168.794 18.6374 167.962 21.1842 166.528 23.3097C163.293 23.2305 160.047 22.844 156.804 22.3926C156.122 19.5696 156.449 16.6975 156.449 16.6975ZM154.959 11.0044L154.987 12.4239L154.305 12.3853L154.067 11.3947L154.959 11.0044ZM146.442 11.2853L148.637 11.2146L149.397 11.8461L147.254 13.5305L145.209 12.7765L146.442 11.2853ZM144.034 11.3626L143.451 12.1289L141.587 11.4418L144.034 11.3626ZM141.823 12.8886L142.598 13.2496L141.527 14.6569C141.585 14.0555 141.685 13.4655 141.823 12.8886ZM141.468 15.7936L142.192 15.821H142.694L144.202 13.998L145.943 14.8105L145.112 15.9331L147.068 16.0066L150.781 12.9904L151.72 14.0112L147.981 16.0415L151.095 16.1593L153.029 15.4345L153.746 16.2159L153.564 21.9298C149.834 21.3944 146.116 20.8882 142.429 20.7826C141.792 19.2306 141.465 17.5739 141.466 15.902C141.464 15.8671 141.468 15.8304 141.468 15.7936Z" fill="white"/>
<path fill-rule="evenodd" clip-rule="evenodd" d="M68.1017 23.7078C68.1017 25.1642 67.4091 25.0944 66.7164 25.0944C66.1942 25.0944 64.6181 25.1894 63.5117 22.4715C63.4798 22.1438 63.4992 21.2973 64.4999 21.0742C64.4999 21.0742 69.2788 19.2028 69.8329 18.9265C70.387 18.6482 70.4558 17.6785 70.4558 16.9154C70.4558 16.1543 69.2788 10.3296 64.7769 10.3296C60.2751 10.3296 58.544 15.1827 58.544 20.4508C58.544 25.7198 61.0375 29.74 65.5384 29.74C70.0402 29.74 70.7329 26.897 70.7329 25.0944C70.7338 23.0155 68.1017 22.5307 68.1017 23.7078ZM21.4919 27.7987C20.7993 27.3818 20.6607 26.8969 20.6607 26.4121V12.1312C20.6607 10.8833 20.1066 10.4673 19.7608 10.4673C18.9296 10.4673 15.0516 12.1312 14.1507 12.616C13.2507 13.1009 13.9434 13.7253 14.358 13.9328C14.7736 14.1413 15.1204 14.3488 15.1204 15.4581V26.4112C15.1204 26.896 14.9819 27.3808 14.2892 27.7978C14.1609 27.8693 14.0639 27.9862 14.017 28.1255C13.9569 27.9723 13.8262 27.8152 13.614 27.6601C12.5755 26.897 12.714 26.5498 12.714 25.649V5.96234C12.714 4.92288 12.6443 4.09093 13.1984 4.09093C14.5837 4.09093 15.3452 6.72448 16.1076 8.52705C16.869 10.3286 19.3626 9.35901 19.0855 8.11108C18.8085 6.86314 18.2543 3.32782 17.9763 2.07989C17.6992 0.831959 17.2149 0 16.7295 0C16.2442 0 15.414 0.762143 15.414 0.762143L9.55298 0.865897L3.692 0.762143C3.692 0.762143 2.86081 0 2.37643 0C1.89205 0 1.4067 0.831959 1.12964 2.07989C0.852573 3.32782 0.298444 6.86314 0.0213801 8.11108C-0.255684 9.35901 2.2379 10.3296 2.99934 8.52705C3.76175 6.72448 4.52319 4.09093 5.90851 4.09093C6.46264 4.09093 6.39289 4.92192 6.39289 5.96234V25.649C6.39289 26.5498 6.53142 26.897 5.49195 27.6601C4.45344 28.4212 5.35342 29.2396 7.0158 29.2396H12.0892C13.118 29.2396 13.8533 28.9274 14.0199 28.5085C14.1323 28.8857 14.5324 29.2396 14.9809 29.2396H20.7983C21.5607 29.2406 22.1846 28.2157 21.4919 27.7987Z" fill="black"/>
<path fill-rule="evenodd" clip-rule="evenodd" d="M89.3225 27.8982C88.6311 27.4811 88.4918 26.996 88.4918 26.5109V2.87035C88.4918 1.62176 87.9405 1.20557 87.5943 1.20557C86.7636 1.20557 82.8922 2.87035 81.9928 3.35542C81.0944 3.84049 81.7849 4.46527 82.1998 4.67288C82.6147 4.8805 82.9609 5.08908 82.9609 6.19893V11.4872C82.5992 10.9856 81.9861 10.6616 81.0209 10.6616C77.7511 10.6616 78.2801 13.0365 76.4668 13.5478V12.2216C76.4668 10.973 75.9136 10.5568 75.5674 10.5568C74.7385 10.5568 70.8662 12.2216 69.9668 12.7067C69.0674 13.1918 69.7599 13.8165 70.1738 14.0241C70.5887 14.2327 70.9349 14.4403 70.9349 15.5502V26.509C70.9349 26.9941 70.7966 27.4791 70.1051 27.8963C69.4136 28.3135 70.0355 29.3379 70.7966 29.3379H76.6041C77.3642 29.3379 77.9871 28.3125 77.2956 27.8963C76.6041 27.4801 76.4658 26.9941 76.4658 26.509V19.3862C76.8962 17.9824 77.96 15.1689 79.5683 15.1689C80.2598 15.1689 80.0518 17.0423 81.6427 17.0423C82.0093 17.0423 82.5731 16.2468 82.9609 15.2184V26.509C82.9609 26.9941 82.8226 27.4791 82.1311 27.8963C81.4396 28.3135 82.0615 29.3379 82.8226 29.3379H88.6311C89.3902 29.3409 90.014 28.3154 89.3225 27.8982Z" fill="black"/>
<path fill-rule="evenodd" clip-rule="evenodd" d="M118.661 27.8791C117.972 27.4637 117.836 26.9806 117.836 26.4976C117.836 25.5295 118.133 10.8185 112.69 10.8185C110.968 10.8185 110.676 11.9556 109.809 12.4541V12.2686C109.809 11.0252 109.259 10.6108 108.914 10.6108C108.087 10.6108 104.23 12.2686 103.334 12.7517C102.438 13.2347 103.127 13.8569 103.541 14.0637C103.954 14.2714 104.298 14.4781 104.298 15.5834V26.4966C104.298 26.9604 104.17 27.4251 103.549 27.8289C103.457 27.2405 102.962 26.5662 102.465 26.5662C101.914 26.5662 101.776 26.0812 101.776 25.46C101.776 24.8368 101.776 24.5615 101.225 17.7233C100.674 10.8861 97.7809 11.0929 94.7484 11.0929C91.7179 11.0929 89.1007 12.543 89.1007 14.8926C89.1007 17.2403 90.6155 17.448 91.7863 17.448C92.9571 17.448 93.8532 17.1726 93.8532 15.652C93.8532 14.1332 92.8896 13.6492 92.8896 13.6492C92.8896 13.6492 93.3714 13.511 94.4748 13.511C95.5762 13.511 96.1967 15.2375 96.1967 16.7572C96.1967 18.0006 93.991 18.0682 93.1652 18.4837C90.2985 19.9212 88.8945 22.2138 88.8945 25.0446C88.8945 27.8772 90.5471 29.3129 91.0983 29.3129H95.9202C97.0235 29.3129 97.5053 28.7052 97.8493 28.7052C98.1933 28.7052 98.4005 29.3129 98.8148 29.3129H101.845C102.773 29.3129 103.21 29.1679 103.413 28.9486C103.597 29.1602 103.869 29.3129 104.162 29.3129H109.949C110.706 29.3129 111.327 28.2917 110.638 27.8772C109.949 27.4627 109.811 26.9787 109.811 26.4957V15.7457C109.811 15.3196 110.356 14.6849 110.97 14.6849C112.417 14.6849 112.905 24.9769 112.905 26.4957C112.905 26.9787 112.767 27.4618 112.079 27.8772C111.391 28.2926 112.01 29.3129 112.768 29.3129H117.975C118.731 29.3158 119.35 28.2946 118.661 27.8791ZM52.7245 10.3354C51.2184 10.3354 51.4766 11.0088 50.382 11.3044V2.46156C50.382 1.21817 49.8308 0.803711 49.4868 0.803711C48.66 0.803711 45.1592 2.46156 44.264 2.94462C43.3688 3.42768 44.0578 4.39477 44.4702 4.60248C44.8836 4.80923 44.8711 5.01695 44.8711 6.12122V26.772C44.8711 27.3555 44.9058 27.8019 44.9617 28.1497C44.9088 28.0349 44.8211 27.9399 44.7111 27.8782C44.0221 27.4627 43.8853 26.9797 43.8853 26.4966C43.8853 25.5286 44.1821 10.8175 38.7396 10.8175C36.7623 10.8175 36.6688 12.3169 35.4268 12.6261C34.8977 11.5179 33.9524 10.6098 32.3326 10.6098C29.647 10.6098 29.9882 12.1807 28.6169 12.5401V12.2677C28.6169 11.0243 28.0658 10.6098 27.7208 10.6098C26.894 10.6098 23.0367 12.2677 22.1405 12.7507C21.2444 13.2338 21.9333 13.856 22.3467 14.0627C22.7601 14.2704 23.1051 14.4772 23.1051 15.5824V26.4957C23.1051 26.9787 22.9673 27.4618 22.2783 27.8772C21.5893 28.2926 22.2099 29.3129 22.9673 29.3129H28.7538C29.5112 29.3129 30.1317 28.2917 29.4427 27.8772C28.7538 27.4627 28.616 26.9787 28.616 26.4957V16.1717C28.616 15.0984 29.3878 14.4076 29.9891 14.4076C30.6087 14.4076 31.1002 14.8221 31.1002 16.0655V26.4947C31.1002 26.9778 30.9624 27.4608 30.2734 27.8762C29.5844 28.2917 30.204 29.3119 30.9624 29.3119H36.1697C36.9271 29.3119 37.5477 28.2907 36.8587 27.8762C36.1697 27.4618 36.0319 26.9778 36.0319 26.4947L36.0309 15.3892C36.0309 15.0211 36.5571 14.6839 37.0157 14.6839C38.4621 14.6839 38.9516 24.976 38.9516 26.4947C38.9516 26.9778 38.8129 27.4608 38.1249 27.8762C37.4368 28.2917 38.0564 29.3119 38.8138 29.3119H44.0212C44.5425 29.3119 44.9983 28.8308 45.0079 28.3931C45.2459 29.4307 45.7364 29.3119 46.0399 29.3119C46.4533 29.3119 46.8426 29.5515 47.9691 27.6685C48.1763 27.3236 48.6581 27.5304 49.2777 28.2211C49.8973 28.9119 50.2422 29.7399 52.8594 29.7399C55.4775 29.7399 58.3019 29.3264 58.3019 19.8633C58.3048 12.4077 54.2412 10.3354 52.7245 10.3354Z" fill="black"/>
<path fill-rule="evenodd" clip-rule="evenodd" d="M132.724 27.8716C132.028 27.4513 131.889 26.9626 131.889 26.4738V3.28496C131.889 2.02699 131.332 1.60767 130.983 1.60767C130.402 1.60767 128.511 2.75616 127.004 3.41398C126.339 3.70428 125.616 3.62511 125.34 3.77465C124.434 4.26338 125.131 4.89285 125.55 5.10203C125.969 5.3112 126.317 5.52135 126.317 6.63954V12.1543C125.932 11.7985 125.009 11.1006 123.659 11.1006C121.848 11.1006 118.156 14.5246 118.156 21.7225C118.156 24.7271 119.062 26.8941 119.62 28.2205C120.177 29.5469 120.803 29.3241 121.71 29.3241H132.028C132.794 29.325 133.421 28.2919 132.724 27.8716Z" fill="black"/>
<path fill-rule="evenodd" clip-rule="evenodd" d="M151.128 7.25615L149.82 6.83221L149.951 9.28674L151.128 7.25615ZM151.92 9.35723L151.217 10.9972L152.306 12.0859L151.92 9.35723ZM153.801 9.59906L155.081 8.6572L155.532 6.06462L154.383 3.61694L153.067 6.68437L153.801 9.59906ZM150.39 5.37829L149.675 4.10648L149.738 5.29605L150.39 5.37829ZM148.003 6.24379L145.727 5.50655L148.118 7.89744L148.003 6.24379ZM51.9672 13.0659C53.2138 13.0659 53.7678 17.2652 53.7678 19.3653C53.7678 21.4654 53.2138 25.1056 51.8287 25.1056C50.4436 25.1056 50.2363 20.8358 50.2363 19.3653C50.2363 17.8967 50.7206 13.0659 51.9672 13.0659ZM63.6001 12.8564C64.2239 12.8564 65.608 14.8165 65.608 16.7052C65.608 18.5967 64.0156 19.1567 63.2533 19.1567C62.9405 19.1567 62.5317 19.1186 62.4911 18.8053C61.7995 13.4507 62.9773 12.8564 63.6001 12.8564ZM96.6303 19.9253V25.5246C96.6303 26.1561 96.4918 26.9266 95.6617 26.9266C94.8297 26.9266 93.9986 26.6456 93.9986 23.8465C93.9986 21.0473 95.1774 19.9253 96.6303 19.9253ZM124.745 14.326C125.507 14.326 126.823 16.5651 126.823 20.5558C126.823 24.5446 125.854 26.2942 125.229 26.2942C124.606 26.2942 123.222 24.6836 123.222 20.6244C123.222 16.5651 124.261 14.326 124.745 14.326Z" fill="white"/>
<path fill-rule="evenodd" clip-rule="evenodd" d="M118.96 4.61785C118.96 3.80994 119.607 3.21509 120.37 3.21509C121.126 3.21509 121.773 3.80994 121.773 4.61785C121.773 5.43252 121.126 6.02833 120.37 6.02833C119.606 6.02833 118.96 5.43348 118.96 4.61785Z" fill="black"/>
<path fill-rule="evenodd" clip-rule="evenodd" d="M120.572 5.62644C121.244 5.62644 121.773 5.11283 121.773 4.41679C121.773 3.73166 121.244 3.21509 120.572 3.21509C119.892 3.21509 119.362 3.73166 119.362 4.41679C119.362 5.11382 119.892 5.62644 120.572 5.62644Z" fill="white"/>
<path fill-rule="evenodd" clip-rule="evenodd" d="M120.405 5.22355H120.166V3.61694H120.77C121.146 3.61694 121.331 3.75727 121.331 4.0742C121.331 4.36249 121.153 4.48755 120.919 4.51714L121.371 5.22451H121.102L120.684 4.5286H120.406V5.22355H120.405Z" fill="black"/>
<path fill-rule="evenodd" clip-rule="evenodd" d="M120.511 4.42069C120.752 4.42069 120.969 4.40835 120.969 4.20933C120.969 4.04888 120.757 4.0188 120.557 4.0188H120.166V4.42069H120.511Z" fill="white"/>
</svg>
