<svg width="91" height="42" viewBox="0 0 91 42" fill="none" xmlns="http://www.w3.org/2000/svg">
<path fill-rule="evenodd" clip-rule="evenodd" d="M59.0056 2.36062V0H49.5707V12.9611H59.0056V10.8232H52.1961V7.30456H58.1595V4.98848H52.1961V2.36062H59.0056ZM56.3802 14.2973V19.2858H51.2171V14.2973H48.5485V27.2146H51.2171V21.4238H56.3802V27.2146H59.0056V14.2973H56.3802ZM59.0056 30.8656V28.5508H49.5707V41.6888H59.0056V39.3295H52.1961V35.8547H58.1595V33.7174H52.1961V30.8656H59.0056V30.8656ZM48.0584 0H45.4329V4.98848H40.2711V0H37.6457V12.9611H40.2711V7.17094H45.4329V12.9611H48.0584V0ZM26.3431 0V2.36062H30.348V12.9611H32.9734V2.36062H36.9782V0H26.3431ZM18.0664 13.941C13.928 13.941 11.7476 16.3016 11.7476 20.7557C11.7476 25.4324 13.928 27.7484 18.0664 27.7484C22.2047 27.7484 24.3407 25.4324 24.3407 20.7557C24.3407 16.3016 22.2047 13.941 18.0664 13.941V13.941ZM14.5955 20.7557C14.5955 17.7715 15.7525 16.3016 18.0664 16.3016C20.5583 16.3016 21.7153 17.7715 21.7153 20.7557C21.7153 23.9186 20.5583 25.4324 18.0664 25.4324C15.7525 25.4324 14.5955 23.9186 14.5955 20.7557V20.7557ZM7.96523 14.2973V23.4281L2.8034 14.2973H0V27.2146H2.49191V18.1278L7.78723 27.2146H10.5906V14.2973H7.96523ZM20.2023 33.895V30.8656H26.8326V28.5508H17.5769V41.6888H20.2023V36.211H26.0316V33.895H20.2023ZM47.5695 16.6134V14.2973H36.9782V16.6134H40.9386V27.2146H43.6085V16.6134H47.5695ZM31.1489 22.2706C31.9944 22.2706 32.6619 22.4036 32.9734 22.7599L33.4629 27.2146H36.4443V26.9028C36.1328 26.724 35.9548 25.9229 35.9548 24.4079C35.9548 22.5824 35.2873 21.6019 34.3083 21.112C35.6433 20.5775 36.3108 19.5976 36.3108 17.9496C36.3108 15.6335 34.9758 14.2973 32.1724 14.2973H25.6756V27.2146H28.3455V22.2706H31.1489V22.2706ZM28.3455 20.0875V16.6134H31.6384C32.9734 16.6134 33.6408 17.1034 33.6408 18.2614C33.6408 19.4194 32.9734 20.0875 31.5049 20.0875H28.3455ZM32.9734 28.5508H29.814L25.1861 41.6888H27.9895L29.013 38.8389H33.8188L34.6198 41.6888H37.4677L32.9734 28.5508V28.5508ZM31.3269 31.5337L32.9734 36.7016H29.6805L31.3269 31.5337ZM45.923 32.8699H48.5485C48.4143 31.7125 48.0584 30.7326 47.2568 29.8857C46.1004 28.9059 44.7655 28.2378 42.941 28.2378C41.1166 28.2378 39.7816 28.9059 38.6247 30.0645C37.6457 31.2219 36.9782 32.8699 36.9782 35.053C36.9782 39.6852 38.9362 42 42.763 42C46.1004 42 47.9242 40.352 48.5485 37.1903H45.923C45.5671 38.704 44.4095 39.5064 42.941 39.5064C40.7606 39.5064 39.7816 38.0372 39.7816 35.186C39.7816 32.0688 40.7606 30.5538 42.941 30.5538C44.4095 30.5538 45.2556 31.4007 45.923 32.8699V32.8699ZM12.9046 41.5113H12.9491H12.9046ZM12.9491 41.5113C13.394 41.5113 13.75 41.3325 14.0176 41.1104C14.2401 40.8432 14.4175 40.4869 14.4175 39.9976C14.4175 39.4625 14.2395 39.1061 14.0176 38.8834C13.7506 38.6614 13.3947 38.5271 12.9491 38.5271H12.9046C12.3706 38.5271 12.0146 38.6614 11.7921 38.8834C11.5702 39.1055 11.4361 39.4625 11.4361 39.9976V40.0409C11.4361 40.4869 11.5696 40.8432 11.7921 41.1104C12.0146 41.3325 12.3712 41.5113 12.9046 41.5113H12.9491ZM12.9046 41.8676C12.2816 41.8676 11.8366 41.6455 11.5251 41.3325C11.2136 41.0207 11.0801 40.576 11.0801 40.0409V39.9976C11.0801 39.3728 11.2136 38.928 11.5251 38.6168C11.8366 38.305 12.2816 38.1708 12.9046 38.1708H12.9491C13.483 38.1708 13.928 38.305 14.2395 38.6168C14.551 38.9286 14.7735 39.3734 14.7735 39.9976C14.7735 40.5766 14.551 41.0207 14.2395 41.3325C14.0707 41.503 13.8697 41.6382 13.6481 41.7301C13.4265 41.8219 13.1889 41.8687 12.9491 41.8676H12.9046V41.8676ZM13.0826 39.8188H13.127C13.305 39.8188 13.394 39.7291 13.394 39.507V39.4625C13.394 39.4625 13.3495 39.4625 13.3495 39.4179C13.305 39.3734 13.216 39.3734 13.0826 39.3734H12.5931V39.8194H13.0826V39.8188V39.8188ZM13.394 40.1306L13.75 40.5766C13.7945 40.665 13.75 40.7541 13.7055 40.7987C13.6165 40.8884 13.483 40.8432 13.4385 40.7987L12.9936 40.1751H12.5931V40.6644C12.5931 40.7541 12.5041 40.8432 12.4151 40.8432C12.3261 40.8432 12.2371 40.7535 12.2371 40.6644V39.1952C12.2371 39.1055 12.3261 39.0177 12.4151 39.0177H13.127C13.305 39.0177 13.483 39.061 13.572 39.1507C13.6165 39.1952 13.661 39.1952 13.661 39.2404C13.75 39.3301 13.75 39.4179 13.75 39.5076C13.75 39.8633 13.661 40.0409 13.394 40.1306ZM60.8294 0C69.1067 0 76.2704 3.02872 82.0552 8.81892C88.018 14.7873 91 21.9137 91 30.2421V41.6888H78.8964V29.8857C78.8964 25.2548 77.25 21.2456 73.9126 17.9496C73.111 17.1034 72.2661 16.4353 71.2872 15.7672C68.6173 13.941 65.4579 13.1393 62.165 13.1393H60.83V0H60.8294V0ZM77.7382 41.6888H68.3045V32.5581C68.3045 31.0444 67.8157 29.8857 66.7922 28.9059C65.8132 27.8827 64.4783 27.3921 63.1433 27.3921H60.8294V14.2973H62.1644C65.6346 14.2973 68.616 15.2772 71.2866 17.2815C71.954 17.5933 72.6215 18.2614 73.1104 18.7513C76.2704 21.9143 77.7382 25.5666 77.7382 29.8864V41.6888V41.6888ZM67.1482 41.6888H60.8288V28.5508H63.1433C64.1668 28.5508 65.1458 28.9059 65.9906 29.7082C66.6581 30.3763 67.1482 31.4007 67.1482 32.5581V41.6888V41.6888Z" fill="black"/>
</svg>
