<svg width="74" height="74" viewBox="0 0 74 74" fill="none" xmlns="http://www.w3.org/2000/svg">
<path d="M0 73.0752H73.2659V0H0V73.0752Z" fill="#ED1D24"/>
<path d="M53.9369 9.96872H58.6276V33.0535H53.9369V9.96872ZM24.6198 25.3834C24.6198 29.7143 21.3169 33.0546 16.9975 33.0546C12.6871 33.0546 9.30368 29.7143 9.30368 25.3834V9.9698H13.8792V25.3834C13.8792 27.1341 15.2698 28.5453 16.9979 28.5453C18.7339 28.5453 20.113 27.1341 20.113 25.3834V9.9698H24.6198V25.3834ZM46.2945 63.1235H30.8773V40.0474H35.5511V58.43H46.2945V63.1235ZM46.2945 33.0521H41.6097L35.5511 19.8266V33.0521H30.8777V9.96729H35.5511L41.6097 23.1723V9.96764H46.2945V33.0524V33.0521ZM16.9932 40.0481C12.6886 40.0481 9.30225 43.4977 9.30225 47.6732V55.4995C9.30225 59.62 12.6886 63.1242 16.9932 63.1242C17.5148 63.1242 18.0213 63.0696 18.5051 62.9804L20.1119 67.798H24.6184L22.4846 60.8638C23.7342 59.4358 24.6184 57.4923 24.6184 55.4995V47.6732C24.6184 43.4977 21.3155 40.0481 16.9932 40.0481V40.0481ZM20.1119 55.4995C20.1119 57.0171 18.7324 58.4311 16.9932 58.4311C15.2684 58.4311 13.8778 57.0171 13.8778 55.4995V47.6732C13.8771 47.2642 13.9573 46.8591 14.1138 46.4811C14.2702 46.1031 14.4997 45.7598 14.7892 45.4708C15.0787 45.1818 15.4224 44.9529 15.8007 44.7971C16.1789 44.6414 16.5842 44.5619 16.9932 44.5632C18.7324 44.5632 20.1119 45.9481 20.1119 47.6732V55.4995ZM56.274 40.0481C51.9578 40.0481 48.6463 43.4977 48.6463 47.6732V55.4995C48.6463 59.62 51.9578 63.1242 56.274 63.1242C60.5819 63.1242 63.8991 59.62 63.8991 55.4995V47.6732C63.8991 43.4977 60.5819 40.0481 56.274 40.0481ZM59.4013 55.4995C59.4013 57.0171 57.9902 58.4311 56.274 58.4311C54.5492 58.4311 53.147 57.0171 53.147 55.4995V47.6732C53.147 45.9484 54.5492 44.5632 56.274 44.5632C57.9902 44.5632 59.4013 45.9481 59.4013 47.6732V55.4995Z" fill="white"/>
</svg>
