<svg width="93" height="62" viewBox="0 0 93 62" fill="none" xmlns="http://www.w3.org/2000/svg">
<path fill-rule="evenodd" clip-rule="evenodd" d="M0 0H9.83165L15.2794 36.8442L20.5938 0H87.9558L85.6976 10.5832H28.8319L20.1955 59.0558H10.3633L0 0Z" fill="black"/>
<path fill-rule="evenodd" clip-rule="evenodd" d="M89.682 45.337C89.9479 51.0853 86.6263 59.8395 79.3181 59.8395C70.8157 59.8395 68.9553 49.5183 68.9553 45.2063H75.8642C75.8642 47.6883 77.9905 50.1714 79.5845 50.1714C81.1791 50.1714 82.7742 48.2112 82.7742 46.9051C82.7742 45.5979 82.2425 43.6388 79.7185 41.94C71.4798 37.1057 69.6199 31.487 69.6199 26.6532C69.3541 20.9044 72.1439 12.4116 79.4516 12.4116C86.7598 12.4116 88.7526 22.4724 88.7526 26.6532H82.2425C82.2425 24.3014 80.6479 22.6032 79.0539 22.6032C77.4593 22.6032 76.3959 24.1707 76.3959 25.4778C76.3959 26.7845 76.6618 27.9604 79.1868 29.6586C82.6407 31.2267 89.682 36.3219 89.682 45.337ZM90.0766 56.4431C90.3563 56.4426 90.6334 56.4965 90.8919 56.6016C91.1505 56.7067 91.3854 56.8609 91.5832 57.0555C91.781 57.25 91.9379 57.481 92.0447 57.7352C92.1516 57.9895 92.2064 58.262 92.206 58.5371C92.2078 58.8132 92.154 59.0869 92.0478 59.3425C91.9416 59.5981 91.7851 59.8305 91.5871 60.0263C91.3892 60.2221 91.1538 60.3776 90.8946 60.4836C90.6353 60.5896 90.3573 60.6441 90.0766 60.6441C89.7949 60.6449 89.516 60.5909 89.2556 60.4853C88.9953 60.3797 88.7588 60.2246 88.5596 60.0288C88.3605 59.833 88.2027 59.6004 88.0953 59.3444C87.988 59.0883 87.9331 58.814 87.9339 58.5371C87.9339 57.3778 88.8918 56.4431 90.0766 56.4431V55.956C88.6165 55.956 87.4381 57.1148 87.4381 58.5376C87.4376 58.8785 87.5055 59.2161 87.638 59.5311C87.7704 59.8461 87.9647 60.1323 88.2098 60.3733C88.4549 60.6143 88.746 60.8054 89.0663 60.9356C89.3866 61.0659 89.7299 61.1326 90.0766 61.1322C91.5229 61.1322 92.7018 59.9734 92.7018 58.5376C92.7007 57.8532 92.4237 57.1972 91.9317 56.7133C91.4396 56.2294 90.7725 55.9571 90.0766 55.956V56.4431Z" fill="black"/>
<path fill-rule="evenodd" clip-rule="evenodd" d="M89.5489 57.5696H90.2383C90.5131 57.5696 90.9151 57.5696 90.9151 57.9311C90.9151 58.287 90.6935 58.3596 90.3792 58.3523H89.5489V58.7678H90.1043L90.7336 59.953H91.3835L90.693 58.7678C91.1957 58.7346 91.47 58.5235 91.47 58.0172C91.47 57.7273 91.3898 57.457 91.135 57.2931C90.9209 57.1614 90.6065 57.1541 90.3654 57.1541H88.9919V59.953H89.5484V57.5696H89.5489ZM32.2855 43.3778L34.9429 26.3922L37.6003 43.3778H32.2855ZM30.6914 52.9152H38.929L39.9919 59.0557H53.1451V34.7543L61.2498 59.0557H68.0257V13.8494H61.1168V36.8447L53.4109 13.8494H46.2367V56.3122L38.7961 13.8494H31.0897L23.1179 59.0557H29.8939L30.6914 52.9152Z" fill="black"/>
</svg>
