<svg width="99" height="42" viewBox="0 0 99 42" fill="none" xmlns="http://www.w3.org/2000/svg">
<path d="M93.9221 40.7492L79.2546 0.0357377L79.2446 0.00878906H78.9551L75.9347 8.37525L70.4359 23.6066L70.4231 23.5946C68.5173 21.8992 65.8286 20.8394 62.4424 20.4448L61.4096 20.3373L62.4342 20.2048C68.0183 19.1931 71.772 15.6375 71.772 11.3537C71.772 5.47927 66.2917 1.37898 58.4415 1.37898H42.1079V1.67641H46.8539V32.0306L35.3275 0.0356379L35.3171 0.00878906H35.0276L32.0071 8.37525L20.3574 40.6444L20.2857 40.6528C20.0866 40.6775 19.8897 40.6972 19.6949 40.712C19.4018 40.7352 19.1105 40.7491 18.8182 40.7491H7.04712L29.4224 1.67631L29.5887 1.38267H2.22285V13.4696H2.51321C2.56469 7.58226 5.96554 1.67631 13.4794 1.67631H22.5444L0 41.0418H30.3716V29.4617H30.0813C30.0417 34.5931 27.1564 39.467 20.8822 40.5675L20.6827 40.6019L25.461 27.3606H38.8466L43.6699 40.7492H38.9119V41.0419H57.5868V40.7492H52.8085V20.5532H58.322C63.9328 20.5532 67.1508 23.0803 67.1508 27.4845V31.067C67.1508 31.4618 67.1774 32.0389 67.2068 32.5216V32.5391L64.2434 40.7473H60.372V41.04H68.3857V40.7473H64.5559L67.2547 33.2729C67.2602 33.3452 67.263 33.3887 67.263 33.3887L67.3374 34.0622L67.4091 34.5078C67.8594 37.2639 68.905 39.29 70.5159 40.5295L70.7475 40.6991C71.9714 41.5569 73.4923 41.9914 75.2703 41.9914C77.6255 41.9914 79.1958 41.3994 80.4924 40.0062L80.3225 39.8449C79.1278 40.9566 78.1254 41.4069 76.8692 41.4069C74.7291 41.4069 73.609 38.7897 73.609 36.2087V31.1893C73.6204 29.9438 73.4269 28.7051 73.0365 27.5235L72.9832 27.3679V27.3623H82.7739L87.5972 40.751H82.8392V41.0437H99V40.751L93.9221 40.7492ZM25.5675 27.0677L32.1616 8.80333L38.741 27.0677H25.5675ZM52.8114 20.2594V1.67631H57.0198C62.6418 1.67631 65.6098 5.04569 65.6098 11.4168C65.6098 18.1925 63.9061 20.2594 58.322 20.2594H52.8114ZM72.8691 27.0677L72.8406 26.9955C72.4055 25.9271 71.7721 24.9523 70.9743 24.1235L70.6987 23.8456L70.6693 23.8178L76.0853 8.80333L82.6646 27.0677H72.8691Z" fill="black"/>
</svg>
